<?xml version="1.0" encoding="iso-8859-1"?>
<!-- Generator: Adobe Illustrator 19.0.0, SVG Export Plug-In . SVG Version: 6.00 Build 0)  -->
<svg version="1.1" id="Capa_1" xmlns="http://www.w3.org/2000/svg" xmlns:xlink="http://www.w3.org/1999/xlink" x="0px" y="0px"
	 viewBox="0 0 512.001 512.001" style="enable-background:new 0 0 512.001 512.001;" xml:space="preserve">
<path style="fill:#A487C9;" d="M509.658,498.327L341.669,326.394c-1.505-1.541-3.568-2.409-5.722-2.409H261.26L3.607,497.299
	c-3.255,2.139-4.538,6.352-2.887,10.002c1.324,2.927,4.379,4.683,7.591,4.683h495.458c2.617,0,5.161-1.154,6.693-3.276
	C512.833,505.423,512.386,501.055,509.658,498.327z"/>
<path style="fill:#7B49AD;" d="M341.669,326.394c-1.505-1.541-3.568-2.409-5.722-2.409h-74.688l-65.411,44h186.457L341.669,326.394z
	"/>
<polygon style="fill:#855FB8;" points="382.305,367.985 195.848,367.985 100.705,431.985 444.837,431.985 "/>
<path style="fill:#FBA7D2;" d="M292.394,185.299l-280-184C7.169-2.139,0.001,1.751,0.001,7.985v496
	c0,6.229,7.162,10.122,12.394,6.686l280-184c2.251-1.479,3.606-3.992,3.606-6.686v-128
	C296.001,189.291,294.645,186.779,292.394,185.299z"/>
<polygon style="fill:#F97BBB;" points="296.001,226.131 0.001,117.838 0.001,255.985 296.001,255.985 "/>
<path style="fill:#F2387F;" d="M0.001,394.031v109.954c0,6.229,7.162,10.122,12.394,6.686l280-184
	c2.251-1.479,3.606-3.992,3.606-6.686v-36.093L0.001,394.031z"/>
<polygon style="fill:#F74FA4;" points="296.001,255.985 0.001,255.985 0.001,394.031 296.001,283.892 "/>
<path style="fill:#DCD7D8;" d="M452.627,439.958l-10.273-10.515H136.001v-77.48l80-29.768v54.677h174.988l-10.139-10.377H231.792
	l0.209-0.137v-50.116l64-23.814v-17.072l-64,23.814v-35.185h64v-16h-64v-36.75l64,23.415v-17.038l-64-23.415v-48.585l-16-10.515
	v53.247l-80-29.269V82.526l-16-10.514v81.21l-120-43.902v17.038l120,43.902v77.725h-120v16h120v76.859l-120,44.651v17.073
	l120-44.651v82.041H452.627z M136.001,176.113l80,29.268v42.604h-80V176.113z M136.001,263.985h80v41.138l-80,29.768V263.985z"/>
<g>
</g>
<g>
</g>
<g>
</g>
<g>
</g>
<g>
</g>
<g>
</g>
<g>
</g>
<g>
</g>
<g>
</g>
<g>
</g>
<g>
</g>
<g>
</g>
<g>
</g>
<g>
</g>
<g>
</g>
</svg>
