<?xml version="1.0" encoding="iso-8859-1"?>
<!-- Generator: Adobe Illustrator 19.0.0, SVG Export Plug-In . SVG Version: 6.00 Build 0)  -->
<svg version="1.1" id="Capa_1" xmlns="http://www.w3.org/2000/svg" xmlns:xlink="http://www.w3.org/1999/xlink" x="0px" y="0px"
	 viewBox="0 0 512 512" style="enable-background:new 0 0 512 512;" xml:space="preserve">
<circle style="fill:#F97BBB;" cx="256" cy="256" r="248"/>
<circle style="fill:#F74FA4;" cx="256" cy="256" r="208"/>
<circle style="fill:#A487C9;" cx="256" cy="256" r="184"/>
<circle style="fill:#855FB8;" cx="256" cy="256" r="144"/>
<circle style="fill:#F97BBB;" cx="254" cy="256" r="120"/>
<circle style="fill:#F74FA4;" cx="254" cy="256" r="80"/>
<circle style="fill:#A487C9;" cx="256" cy="256" r="56"/>
<path style="fill:#DCD7D8;" d="M437.02,74.98C388.667,26.629,324.38,0,256,0S123.333,26.629,74.98,74.98
	C26.628,123.333,0,187.62,0,256s26.628,132.667,74.98,181.02C123.333,485.371,187.62,512,256,512s132.667-26.629,181.02-74.98
	C485.372,388.667,512,324.38,512,256S485.372,123.333,437.02,74.98z M457.81,385.761l-39.504-27.304
	C437.101,328.789,448,293.645,448,256c0-36.262-10.108-70.206-27.649-99.168l40.037-26.495C482.957,166.911,496,209.958,496,256
	C496,303.771,481.965,348.324,457.81,385.761z M87.696,204.491l43.418,15.668C127.79,231.537,126,243.563,126,256
	c0,45.328,23.685,85.226,59.327,107.974l-22.692,41.153C113.04,373.965,80,318.772,80,256C80,238.085,82.698,220.79,87.696,204.491z
	 M146.194,225.602l47.219,17.04C192.494,246.952,192,251.419,192,256c0,20.592,9.785,38.931,24.939,50.645l-23.868,43.286
	C162.354,329.938,142,295.303,142,256C142,245.468,143.464,235.271,146.194,225.602z M304,256c0,7.261-1.629,14.146-4.528,20.322
	l-29.193-20.178l29.593-19.583C302.517,242.508,304,249.082,304,256z M208,256c0-2.677,0.231-5.3,0.654-7.859l33.815,12.203
	l-17.685,32.074C214.521,283.608,208,270.555,208,256z M213.874,233.014c6.48-11.828,17.799-20.634,31.273-23.761l2.176,35.832
	L213.874,233.014z M257.284,266.612l33.074,22.86C281.633,298.425,269.458,304,256,304c-6.175,0-12.075-1.185-17.502-3.318
	L257.284,266.612z M263.145,241.678l-2.029-33.402c11.751,1.251,22.241,6.763,29.909,14.952L263.145,241.678z M244.166,193.115
	c-19.953,3.747-36.664,16.775-45.466,34.424l-47.057-16.981c15.807-35.465,49.519-61.255,89.585-65.825L244.166,193.115z
	 M230.721,314.786c7.76,3.35,16.304,5.214,25.279,5.214c18.912,0,35.928-8.252,47.655-21.337l38.366,26.518
	C321.496,351.239,289.669,368,254,368c-16.749,0-32.648-3.702-46.93-10.321L230.721,314.786z M312.763,285.508
	C317.376,276.671,320,266.639,320,256c0-10.18-2.401-19.806-6.648-28.36l38.743-25.639C360.951,218.025,366,236.433,366,256
	c0,20.36-5.464,39.468-14.998,55.938L312.763,285.508z M304.499,214.312c-10.903-12.666-26.66-21.027-44.362-22.163l-2.921-48.099
	c35.153,0.997,66.301,18.271,86.161,44.534L304.499,214.312z M256.243,128.028l-2.915-47.994C254.219,80.021,255.107,80,256,80
	c58.322,0,110.099,28.522,142.142,72.342l-41.402,27.399C333.806,148.924,297.356,128.739,256.243,128.028z M240.257,128.739
	c-46.559,4.993-85.721,35.051-103.696,76.375l-43.473-15.688c24.051-58.64,78.87-101.522,144.269-108.439L240.257,128.739z
	 M199.328,371.719C215.917,379.588,234.452,384,254,384c41.116,0,77.761-19.491,101.195-49.714l40.824,28.216
	C363.838,404.708,313.05,432,256,432c-28.569,0-55.566-6.848-79.446-18.979L199.328,371.719z M364.193,321.055
	C375.498,301.979,382,279.736,382,256c0-22.827-6.013-44.274-16.529-62.851l41.524-27.479C422.862,192.094,432,222.998,432,256
	c0,34.27-9.855,66.276-26.866,93.353L364.193,321.055z M451.546,117.001l-40.054,26.506C376.571,95.37,319.884,64,256,64
	c-1.218,0-2.43,0.023-3.642,0.046l-2.912-47.954C251.624,16.034,253.808,16,256,16C336.572,16,407.996,55.912,451.546,117.001z
	 M233.475,17.065l2.911,47.929c-71.893,7.328-132.166,54.492-158.36,118.997l-45.187-16.307
	C65.443,85.587,142.101,25.611,233.475,17.065z M16,256c0-25.537,4.024-50.148,11.446-73.251l45.175,16.302
	C67.02,217.052,64,236.18,64,256c0,68.796,36.378,129.246,90.901,163.154l-23.204,42.081C62.39,419.103,16,342.867,16,256z M256,496
	c-39.766,0-77.297-9.732-110.355-26.923l23.178-42.035C194.998,440.437,224.632,448,256,448c62.497,0,118.109-30.021,153.191-76.393
	l39.502,27.303C404.914,457.784,334.839,496,256,496z"/>
<g>
</g>
<g>
</g>
<g>
</g>
<g>
</g>
<g>
</g>
<g>
</g>
<g>
</g>
<g>
</g>
<g>
</g>
<g>
</g>
<g>
</g>
<g>
</g>
<g>
</g>
<g>
</g>
<g>
</g>
</svg>
