<?xml version="1.0" encoding="iso-8859-1"?>
<!-- Generator: Adobe Illustrator 19.0.0, SVG Export Plug-In . SVG Version: 6.00 Build 0)  -->
<svg version="1.1" id="Capa_1" xmlns="http://www.w3.org/2000/svg" xmlns:xlink="http://www.w3.org/1999/xlink" x="0px" y="0px"
	 viewBox="0 0 512 512" style="enable-background:new 0 0 512 512;" xml:space="preserve">
<path style="fill:#95868A;" d="M504,404c-4.418,0-8-3.582-8-8c0-132.336-107.664-240-240-240S16,263.664,16,396c0,4.418-3.582,8-8,8
	s-8-3.582-8-8c0-68.38,26.629-132.667,74.98-181.02C123.333,166.629,187.62,140,256,140s132.667,26.629,181.02,74.98
	C485.371,263.333,512,327.62,512,396C512,400.418,508.418,404,504,404z"/>
<g>
	<path style="fill:#614A50;" d="M224,140H104v-8c0-4.418-3.582-8-8-8H64c-4.418,0-8,3.582-8,8v32c0,4.418,3.582,8,8,8h32
		c4.418,0,8-3.582,8-8v-8h120c4.418,0,8-3.582,8-8S228.418,140,224,140z M88,156H72v-16h16V156z"/>
	<path style="fill:#614A50;" d="M448,124h-32c-4.418,0-8,3.582-8,8v8H288c-4.418,0-8,3.582-8,8s3.582,8,8,8h120v8
		c0,4.418,3.582,8,8,8h32c4.418,0,8-3.582,8-8v-32C456,127.582,452.418,124,448,124z M440,156h-16v-16h16V156z"/>
</g>
<path style="fill:#855FB8;" d="M288,108h-64c-4.418,0-8,3.582-8,8v64c0,4.418,3.582,8,8,8h64c4.418,0,8-3.582,8-8v-64
	C296,111.582,292.418,108,288,108z"/>
<rect x="232" y="124" style="fill:#A487C9;" width="48" height="48"/>
<g>
</g>
<g>
</g>
<g>
</g>
<g>
</g>
<g>
</g>
<g>
</g>
<g>
</g>
<g>
</g>
<g>
</g>
<g>
</g>
<g>
</g>
<g>
</g>
<g>
</g>
<g>
</g>
<g>
</g>
</svg>
