<?xml version="1.0" encoding="iso-8859-1"?>
<!-- Generator: Adobe Illustrator 19.0.0, SVG Export Plug-In . SVG Version: 6.00 Build 0)  -->
<svg version="1.1" id="Capa_1" xmlns="http://www.w3.org/2000/svg" xmlns:xlink="http://www.w3.org/1999/xlink" x="0px" y="0px"
	 viewBox="0 0 512 512" style="enable-background:new 0 0 512 512;" xml:space="preserve">
<path style="fill:#EDEBEC;" d="M392,0H8C3.582,0,0,3.582,0,8v400c0,4.418,3.582,8,8,8h384c4.418,0,8-3.582,8-8V8
	C400,3.582,396.418,0,392,0z"/>
<path style="fill:#DCD7D8;" d="M24,400c-4.418,0-8-3.582-8-8V0H8C3.582,0,0,3.582,0,8v400c0,4.418,3.582,8,8,8h384
	c4.418,0,8-3.582,8-8v-8H24z"/>
<path style="fill:#A79A9E;" d="M320,64H200c-4.418,0-8,3.582-8,8v168c0,4.418,3.582,8,8,8h120c4.418,0,8-3.582,8-8V72
	C328,67.582,324.418,64,320,64z"/>
<path style="fill:#CAC3C5;" d="M199.311,260.751l-64-144c-2.758-6.204-11.863-6.204-14.621,0l-64,144
	C54.378,265.954,58.316,272,64,272h128C197.683,272,201.623,265.954,199.311,260.751z"/>
<path style="fill:#B9AEB1;" d="M208,200c-39.701,0-72,32.299-72,72s32.299,72,72,72s72-32.299,72-72S247.701,200,208,200z"/>
<path style="fill:#F74FA4;" d="M392,272c-66.168,0-120,53.832-120,120s53.832,120,120,120s120-53.832,120-120S458.168,272,392,272z"
	/>
<path style="fill:#F2387F;" d="M408,496c-66.168,0-120-53.832-120-120c0-29.019,10.356-55.664,27.563-76.437
	C288.97,321.592,272,354.851,272,392c0,66.168,53.832,120,120,120c37.149,0,70.408-16.97,92.437-43.563
	C463.664,485.645,437.019,496,408,496z"/>
<path style="fill:#EDEBEC;" d="M448,368h-32v-32c0-4.418-3.582-8-8-8h-32c-4.418,0-8,3.582-8,8v32h-32c-4.418,0-8,3.582-8,8v32
	c0,4.418,3.582,8,8,8h32v32c0,4.418,3.582,8,8,8h32c4.418,0,8-3.582,8-8v-32h32c4.418,0,8-3.582,8-8v-32
	C456,371.582,452.418,368,448,368z"/>
<path style="fill:#DCD7D8;" d="M376,400h-48v8c0,4.418,3.582,8,8,8h32v32c0,4.418,3.582,8,8,8h8v-48
	C384,403.582,380.418,400,376,400z"/>
<g>
</g>
<g>
</g>
<g>
</g>
<g>
</g>
<g>
</g>
<g>
</g>
<g>
</g>
<g>
</g>
<g>
</g>
<g>
</g>
<g>
</g>
<g>
</g>
<g>
</g>
<g>
</g>
<g>
</g>
</svg>
