<?xml version="1.0" encoding="iso-8859-1"?>
<!-- Generator: Adobe Illustrator 19.0.0, SVG Export Plug-In . SVG Version: 6.00 Build 0)  -->
<svg version="1.1" id="Capa_1" xmlns="http://www.w3.org/2000/svg" xmlns:xlink="http://www.w3.org/1999/xlink" x="0px" y="0px"
	 viewBox="0 0 512 512" style="enable-background:new 0 0 512 512;" xml:space="preserve">
<g>
	<path style="fill:#614A50;" d="M256,64c-4.418,0-8-3.582-8-8V8c0-4.418,3.582-8,8-8s8,3.582,8,8v48C264,60.418,260.418,64,256,64z"
		/>
	<path style="fill:#614A50;" d="M320,64c-4.418,0-8-3.582-8-8V8c0-4.418,3.582-8,8-8s8,3.582,8,8v48C328,60.418,324.418,64,320,64z"
		/>
	<path style="fill:#614A50;" d="M384,64c-4.418,0-8-3.582-8-8V8c0-4.418,3.582-8,8-8s8,3.582,8,8v48C392,60.418,388.418,64,384,64z"
		/>
	<path style="fill:#614A50;" d="M192,64c-4.418,0-8-3.582-8-8V8c0-4.418,3.582-8,8-8s8,3.582,8,8v48C200,60.418,196.418,64,192,64z"
		/>
	<path style="fill:#614A50;" d="M128,64c-4.418,0-8-3.582-8-8V8c0-4.418,3.582-8,8-8s8,3.582,8,8v48C136,60.418,132.418,64,128,64z"
		/>
	<path style="fill:#614A50;" d="M256,512c-4.418,0-8-3.582-8-8v-48c0-4.418,3.582-8,8-8s8,3.582,8,8v48
		C264,508.418,260.418,512,256,512z"/>
	<path style="fill:#614A50;" d="M320,512c-4.418,0-8-3.582-8-8v-48c0-4.418,3.582-8,8-8s8,3.582,8,8v48
		C328,508.418,324.418,512,320,512z"/>
	<path style="fill:#614A50;" d="M384,512c-4.418,0-8-3.582-8-8v-48c0-4.418,3.582-8,8-8s8,3.582,8,8v48
		C392,508.418,388.418,512,384,512z"/>
	<path style="fill:#614A50;" d="M192,512c-4.418,0-8-3.582-8-8v-48c0-4.418,3.582-8,8-8s8,3.582,8,8v48
		C200,508.418,196.418,512,192,512z"/>
	<path style="fill:#614A50;" d="M128,512c-4.418,0-8-3.582-8-8v-48c0-4.418,3.582-8,8-8s8,3.582,8,8v48
		C136,508.418,132.418,512,128,512z"/>
	<path style="fill:#614A50;" d="M504,264h-48c-4.418,0-8-3.582-8-8s3.582-8,8-8h48c4.418,0,8,3.582,8,8S508.418,264,504,264z"/>
	<path style="fill:#614A50;" d="M504,200h-48c-4.418,0-8-3.582-8-8s3.582-8,8-8h48c4.418,0,8,3.582,8,8S508.418,200,504,200z"/>
	<path style="fill:#614A50;" d="M504,136h-48c-4.418,0-8-3.582-8-8s3.582-8,8-8h48c4.418,0,8,3.582,8,8S508.418,136,504,136z"/>
	<path style="fill:#614A50;" d="M504,328h-48c-4.418,0-8-3.582-8-8s3.582-8,8-8h48c4.418,0,8,3.582,8,8S508.418,328,504,328z"/>
	<path style="fill:#614A50;" d="M504,392h-48c-4.418,0-8-3.582-8-8s3.582-8,8-8h48c4.418,0,8,3.582,8,8S508.418,392,504,392z"/>
	<path style="fill:#614A50;" d="M56,264H8c-4.418,0-8-3.582-8-8s3.582-8,8-8h48c4.418,0,8,3.582,8,8S60.418,264,56,264z"/>
	<path style="fill:#614A50;" d="M56,200H8c-4.418,0-8-3.582-8-8s3.582-8,8-8h48c4.418,0,8,3.582,8,8S60.418,200,56,200z"/>
	<path style="fill:#614A50;" d="M56,136H8c-4.418,0-8-3.582-8-8s3.582-8,8-8h48c4.418,0,8,3.582,8,8S60.418,136,56,136z"/>
	<path style="fill:#614A50;" d="M56,328H8c-4.418,0-8-3.582-8-8s3.582-8,8-8h48c4.418,0,8,3.582,8,8S60.418,328,56,328z"/>
	<path style="fill:#614A50;" d="M56,392H8c-4.418,0-8-3.582-8-8s3.582-8,8-8h48c4.418,0,8,3.582,8,8S60.418,392,56,392z"/>
</g>
<path style="fill:#847277;" d="M424,48H88c-22.056,0-40,17.944-40,40v336c0,22.056,17.944,40,40,40h336c22.056,0,40-17.944,40-40V88
	C464,65.944,446.056,48,424,48z"/>
<path style="fill:#725E63;" d="M448,440H104c-17.673,0-32-14.327-32-32V64c0-4.779,0.841-9.36,2.378-13.608
	C59.009,55.976,48,70.726,48,88v336c0,22.056,17.944,40,40,40h336c17.274,0,32.024-11.009,37.608-26.378
	C457.36,439.159,452.779,440,448,440z"/>
<path style="fill:#55D3FA;" d="M150,204h40c6.627,0,12-5.373,12-12s-5.373-12-12-12h-40c-24.262,0-44,19.738-44,44v48
	c0,24.262,19.738,44,44,44h8c24.262,0,44-19.738,44-44v-24c0-6.627-5.373-12-12-12h-32c-6.627,0-12,5.373-12,12s5.373,12,12,12h20
	v12c0,11.028-8.972,20-20,20h-8c-11.028,0-20-8.972-20-20v-48C130,212.972,138.972,204,150,204z"/>
<g>
	<path style="fill:#56C4F0;" d="M158,260h20v-10h-20c-4.84,0-9.001-2.872-10.898-7c-0.7,1.523-1.102,3.213-1.102,5
		C146,254.627,151.373,260,158,260z"/>
	<path style="fill:#56C4F0;" d="M190,194h-40c-11.028,0-20,8.972-20,20v10c0-11.028,8.972-20,20-20h40c6.627,0,12-5.373,12-12
		c0-1.787-0.401-3.477-1.102-5C199.001,191.128,194.84,194,190,194z"/>
	<path style="fill:#56C4F0;" d="M158,306h-8c-24.262,0-44-19.738-44-44v10c0,24.262,19.738,44,44,44h8c24.262,0,44-19.738,44-44v-10
		C202,286.262,182.262,306,158,306z"/>
</g>
<path style="fill:#55D3FA;" d="M260,180h-36c-6.627,0-12,5.373-12,12v112c0,6.627,5.373,12,12,12s12-5.373,12-12v-44h24
	c22.056,0,40-17.944,40-40S282.056,180,260,180z M260,236h-24v-32h24c8.822,0,16,7.178,16,16S268.822,236,260,236z"/>
<g>
	<path style="fill:#56C4F0;" d="M260,194h-24v10h24c7.075,0,13.083,4.621,15.189,11c0.52-1.575,0.811-3.253,0.811-5
		C276,201.178,268.822,194,260,194z"/>
	<path style="fill:#56C4F0;" d="M224,306c-6.627,0-12-5.373-12-12v10c0,6.627,5.373,12,12,12s12-5.373,12-12v-10
		C236,300.627,230.627,306,224,306z"/>
	<path style="fill:#56C4F0;" d="M260,250h-24v10h24c22.056,0,40-17.944,40-40c0-1.694-0.118-3.36-0.324-5
		C297.207,234.703,280.361,250,260,250z"/>
</g>
<path style="fill:#55D3FA;" d="M392,180c-6.627,0-12,5.373-12,12v80c0,11.028-8.972,20-20,20h-8c-11.028,0-20-8.972-20-20v-80
	c0-6.627-5.373-12-12-12s-12,5.373-12,12v80c0,24.262,19.738,44,44,44h8c24.262,0,44-19.738,44-44v-80
	C404,185.373,398.627,180,392,180z"/>
<path style="fill:#56C4F0;" d="M360,306h-8c-24.262,0-44-19.738-44-44v10c0,24.262,19.738,44,44,44h8c24.262,0,44-19.738,44-44v-10
	C404,286.262,384.262,306,360,306z"/>
<g>
</g>
<g>
</g>
<g>
</g>
<g>
</g>
<g>
</g>
<g>
</g>
<g>
</g>
<g>
</g>
<g>
</g>
<g>
</g>
<g>
</g>
<g>
</g>
<g>
</g>
<g>
</g>
<g>
</g>
</svg>
