<?xml version="1.0" encoding="iso-8859-1"?>
<!-- Generator: Adobe Illustrator 19.0.0, SVG Export Plug-In . SVG Version: 6.00 Build 0)  -->
<svg version="1.1" id="Capa_1" xmlns="http://www.w3.org/2000/svg" xmlns:xlink="http://www.w3.org/1999/xlink" x="0px" y="0px"
	 viewBox="0 0 512 512" style="enable-background:new 0 0 512 512;" xml:space="preserve">
<path style="fill:#EDEBEC;" d="M504,40H8c-4.418,0-8,3.582-8,8v416c0,4.418,3.582,8,8,8h496c4.418,0,8-3.582,8-8V48
	C512,43.582,508.418,40,504,40z"/>
<path style="fill:#DCD7D8;" d="M24,464V48c0-4.418,3.582-8,8-8H8c-4.418,0-8,3.582-8,8v416c0,4.418,3.582,8,8,8h24
	C27.582,472,24,468.418,24,464z"/>
<path style="fill:#F97BBB;" d="M504,40H8c-4.418,0-8,3.582-8,8v72h512V48C512,43.582,508.418,40,504,40z"/>
<path style="fill:#F74FA4;" d="M32,40H8c-4.418,0-8,3.582-8,8v72h24V48C24,43.582,27.582,40,32,40z"/>
<g>
	<path style="fill:#F2387F;" d="M473,88h-1c-4.418,0-8-3.582-8-8s3.582-8,8-8h1c4.418,0,8,3.582,8,8S477.418,88,473,88z"/>
	<path style="fill:#F2387F;" d="M433,88h-1c-4.418,0-8-3.582-8-8s3.582-8,8-8h1c4.418,0,8,3.582,8,8S437.418,88,433,88z"/>
	<path style="fill:#F2387F;" d="M393,88h-1c-4.418,0-8-3.582-8-8s3.582-8,8-8h1c4.418,0,8,3.582,8,8S397.418,88,393,88z"/>
</g>
<path style="fill:#FF9D4A;" d="M187.313,212.686c-6.248-6.248-16.379-6.248-22.627,0l-64,64c-6.249,6.248-6.249,16.379,0,22.627
	l64,64c6.165,6.165,16.462,6.165,22.627,0c6.249-6.248,6.249-16.379,0-22.627L134.628,288l52.686-52.687
	C193.562,229.065,193.562,218.934,187.313,212.686z"/>
<path style="fill:#F48A16;" d="M172.686,355.313l-64-64c-6.249-6.248-6.249-16.379,0-22.627l-8,8
	c-6.249,6.248-6.249,16.379,0,22.627l64,64c6.165,6.166,16.462,6.166,22.627,0c1.422-1.422,2.504-3.05,3.278-4.783
	C184.701,361.146,177.459,360.085,172.686,355.313z"/>
<path style="fill:#FF9D4A;" d="M411.314,276.686l-64-64c-6.248-6.248-16.379-6.248-22.627,0c-6.249,6.248-6.249,16.379,0,22.627
	L377.372,288l-52.686,52.687c-6.249,6.248-6.249,16.379,0,22.627c6.165,6.165,16.462,6.165,22.627,0l64-64
	C417.563,293.065,417.563,282.934,411.314,276.686z"/>
<path style="fill:#F48A16;" d="M411.314,276.686l-8-8c6.249,6.248,6.249,16.379,0,22.627l-64,64
	c-4.773,4.772-12.014,5.833-17.906,3.217c0.775,1.732,1.856,3.361,3.279,4.783c6.165,6.166,16.462,6.166,22.627,0l64-64
	C417.563,293.065,417.563,282.934,411.314,276.686z"/>
<path style="fill:#95868A;" d="M223.994,360.002c-5.857,0-9.757-6.364-7.149-11.58l64-128c1.976-3.951,6.781-5.553,10.733-3.577
	c3.951,1.976,5.553,6.781,3.577,10.733l-64,128C229.754,358.381,226.929,360.002,223.994,360.002z"/>
<g>
</g>
<g>
</g>
<g>
</g>
<g>
</g>
<g>
</g>
<g>
</g>
<g>
</g>
<g>
</g>
<g>
</g>
<g>
</g>
<g>
</g>
<g>
</g>
<g>
</g>
<g>
</g>
<g>
</g>
</svg>
