<?xml version="1.0" encoding="iso-8859-1"?>
<!-- Generator: Adobe Illustrator 19.0.0, SVG Export Plug-In . SVG Version: 6.00 Build 0)  -->
<svg version="1.1" id="Capa_1" xmlns="http://www.w3.org/2000/svg" xmlns:xlink="http://www.w3.org/1999/xlink" x="0px" y="0px"
	 viewBox="0 0 512 512" style="enable-background:new 0 0 512 512;" xml:space="preserve">
<path style="fill:#855FB8;" d="M511.052,252.223l-120-224c-1.393-2.6-4.103-4.223-7.052-4.223H128c-2.949,0-5.659,1.623-7.052,4.223
	l-120,224c-1.264,2.359-1.264,5.195,0,7.555l120,224c1.393,2.6,4.103,4.223,7.052,4.223h256c2.949,0,5.659-1.623,7.052-4.223
	l120-224C512.316,257.417,512.316,254.581,511.052,252.223z"/>
<path style="fill:#7B49AD;" d="M139.586,463.999c-3.051,0-5.854-1.679-7.295-4.368L11.063,233.34L0.948,252.223
	c-1.264,2.359-1.264,5.195,0,7.555l120,224c1.393,2.6,4.103,4.223,7.052,4.223h256c2.949,0,5.659-1.623,7.052-4.223l10.595-19.778
	H139.586z"/>
<g>
	<path style="fill:#FF9D4A;" d="M403.91,126.707c-1.012-3.179-3.964-5.338-7.3-5.338h-62.019l-19.08-55.626
		c-1.055-3.075-4.035-5.191-7.287-5.175c-3.281,0.016-6.259,2.206-7.257,5.331l-17.703,55.469H219.92
		c-3.194,0-6.127,2.061-7.208,5.068c-1.147,3.19-0.003,6.855,2.756,8.826l49.017,35.012l-21.191,63.574
		c-1.013,3.04,0.023,6.481,2.547,8.455c2.605,2.037,6.333,2.154,9.06,0.281l53.345-36.674l52.851,36.655
		c2.897,2.011,6.905,1.744,9.515-0.624c2.224-2.019,3.068-5.242,2.119-8.093l-21.184-63.549l49.488-35.018
		C403.757,133.355,404.921,129.886,403.91,126.707z"/>
	<path style="fill:#FF9D4A;" d="M128,180.999c-41.355,0-75,33.645-75,75s33.645,75,75,75s75-33.645,75-75
		S169.355,180.999,128,180.999z"/>
	<path style="fill:#FF9D4A;" d="M362.6,301.999H229.4c-4.087,0-7.4,3.313-7.4,7.4v133.2c0,4.087,3.313,7.4,7.4,7.4h133.2
		c4.087,0,7.4-3.313,7.4-7.4v-133.2C370,305.312,366.686,301.999,362.6,301.999z"/>
</g>
<g>
</g>
<g>
</g>
<g>
</g>
<g>
</g>
<g>
</g>
<g>
</g>
<g>
</g>
<g>
</g>
<g>
</g>
<g>
</g>
<g>
</g>
<g>
</g>
<g>
</g>
<g>
</g>
<g>
</g>
</svg>
