<?xml version="1.0" encoding="iso-8859-1"?>
<!-- Generator: Adobe Illustrator 19.0.0, SVG Export Plug-In . SVG Version: 6.00 Build 0)  -->
<svg version="1.1" id="Capa_1" xmlns="http://www.w3.org/2000/svg" xmlns:xlink="http://www.w3.org/1999/xlink" x="0px" y="0px"
	 viewBox="0 0 512 512" style="enable-background:new 0 0 512 512;" xml:space="preserve">
<path style="fill:#725E63;" d="M36,512c-4.418,0-8-3.582-8-8V8c0-4.418,3.582-8,8-8s8,3.582,8,8v496C44,508.418,40.418,512,36,512z"
	/>
<path style="fill:#55D3FA;" d="M284,32H60c-4.418,0-8,3.582-8,8v128c0,4.418,3.582,8,8,8h224c4.418,0,8-3.582,8-8V40
	C292,35.582,288.418,32,284,32z"/>
<path style="fill:#56C4F0;" d="M76,160c-4.418,0-8-3.582-8-8V32h-8c-4.418,0-8,3.582-8,8v128c0,4.418,3.582,8,8,8h224
	c4.418,0,8-3.582,8-8v-8H76z"/>
<path style="fill:#F74FA4;" d="M380,184H60c-4.418,0-8,3.582-8,8v128c0,4.418,3.582,8,8,8h320c4.418,0,8-3.582,8-8V192
	C388,187.582,384.418,184,380,184z"/>
<path style="fill:#F2387F;" d="M76,312c-4.418,0-8-3.582-8-8V184h-8c-4.418,0-8,3.582-8,8v128c0,4.418,3.582,8,8,8h320
	c4.418,0,8-3.582,8-8v-8H76z"/>
<path style="fill:#855FB8;" d="M476,336H60c-4.418,0-8,3.582-8,8v128c0,4.418,3.582,8,8,8h416c4.418,0,8-3.582,8-8V344
	C484,339.582,480.418,336,476,336z"/>
<path style="fill:#7B49AD;" d="M76,464c-4.418,0-8-3.582-8-8V336h-8c-4.418,0-8,3.582-8,8v128c0,4.418,3.582,8,8,8h416
	c4.418,0,8-3.582,8-8v-8H76z"/>
<g>
</g>
<g>
</g>
<g>
</g>
<g>
</g>
<g>
</g>
<g>
</g>
<g>
</g>
<g>
</g>
<g>
</g>
<g>
</g>
<g>
</g>
<g>
</g>
<g>
</g>
<g>
</g>
<g>
</g>
</svg>
