<?xml version="1.0" encoding="iso-8859-1"?>
<!-- Generator: Adobe Illustrator 19.0.0, SVG Export Plug-In . SVG Version: 6.00 Build 0)  -->
<svg version="1.1" id="Capa_1" xmlns="http://www.w3.org/2000/svg" xmlns:xlink="http://www.w3.org/1999/xlink" x="0px" y="0px"
	 viewBox="0 0 512 512" style="enable-background:new 0 0 512 512;" xml:space="preserve">
<path style="fill:#FBA7D2;" d="M161.676,178.642L58.541,99.424c-1.741-1.338-4.317-0.999-5.653,0.741
	C18.29,145.21,0.003,199.098,0.003,256.009c0.004,2.42,1.367,4.669,4.048,4.669l130.045-0.479c2.221-0.008,4.016-1.811,4.016-4.031
	v-0.165c0-26.21,8.405-51.007,24.306-71.708C163.774,182.529,163.442,179.998,161.676,178.642z"/>
<path style="fill:#F74FA4;" d="M172.796,339.518c-18.594-18.527-30.231-41.969-33.654-67.794c-0.293-2.207-2.32-3.764-4.526-3.467
	L5.697,285.339c-2.207,0.292-3.759,2.318-3.467,4.525c7.35,55.477,33.307,107.856,73.088,147.492
	c1.555,1.548,4.151,1.544,5.701-0.011l91.787-92.126C174.378,343.642,174.373,341.09,172.796,339.518z"/>
<path style="fill:#55D3FA;" d="M243.94,134.601L227.065,5.654c-0.289-2.207-2.307-3.766-4.52-3.474
	c-55.49,7.26-107.912,33.132-147.609,72.85c-1.55,1.552-1.551,4.15,0.001,5.701l91.981,91.933c0.787,0.786,1.818,1.18,2.85,1.18
	c1.032,0,2.064-0.394,2.851-1.181c18.554-18.564,42.015-30.163,67.846-33.544C242.673,138.832,244.229,136.808,243.94,134.601z"/>
<path style="fill:#FF9D4A;" d="M509.804,222.412c-7.291-55.486-33.192-107.894-72.93-147.569c-1.575-1.573-4.128-1.57-5.701,0.005
	l-91.886,92.029c-0.755,0.757-1.179,1.783-1.178,2.851c0.001,1.07,0.426,2.094,1.183,2.85c18.574,18.544,30.186,42,33.581,67.831
	c0.267,2.029,1.999,3.506,3.992,3.506c0.175,0,0.353-0.011,0.53-0.034l128.938-16.945
	C508.541,226.644,510.095,224.619,509.804,222.412z"/>
<path style="fill:#855FB8;" d="M437.249,431.08l-92.078-91.835c-1.576-1.575-4.13-1.57-5.7,0.007
	c-18.537,18.584-41.985,30.209-67.812,33.616c-1.06,0.14-2.021,0.694-2.671,1.543c-0.65,0.849-0.938,1.921-0.798,2.981
	l17.014,128.93c0.287,2.177,2.347,3.756,4.524,3.469c55.481-7.322,107.874-33.249,147.53-73.009
	C438.803,435.227,438.802,432.63,437.249,431.08z"/>
<path style="fill:#FFCEA4;" d="M507.965,251.772H377.918c-2.226,0-4.031,1.805-4.031,4.031v0.2c0,26.166-8.378,50.928-24.23,71.61
	c-0.651,0.85-0.937,1.921-0.797,2.981c0.141,1.06,0.695,2.021,1.544,2.671l103.22,79.106c1.743,1.335,4.318,0.995,5.652-0.747
	c34.49-45.003,52.72-98.816,52.72-155.621C512.051,253.733,510.275,251.772,507.965,251.772z"/>
<path style="fill:#C2AFDB;" d="M256.299,373.891h-0.3c-26.143,0-50.888-8.365-71.558-24.19c-0.849-0.65-1.921-0.936-2.981-0.795
	s-2.021,0.696-2.671,1.545L99.736,453.71c-1.333,1.744-0.992,4.319,0.751,5.651C145.466,493.798,199.243,512,256,512
	c2.304,0.029,4.332-1.625,4.332-4.031V377.922C260.33,375.696,258.525,373.891,256.299,373.891z"/>
<path style="fill:#AAE9FC;" d="M411.728,52.81C366.706,18.266,312.856,0.006,255.94,0.006c-0.895,0.013-1.856-0.068-2.735,0.123
	c-1.871,0.406-3.23,2.134-3.176,4.051l1.839,64.882v65.023c0,2.226,1.805,4.031,4.031,4.031h0.46
	c26.052,0.076,50.707,8.467,71.298,24.267c0.707,0.542,1.571,0.832,2.454,0.832c0.175,0,0.351-0.012,0.526-0.034
	c1.06-0.14,2.021-0.694,2.672-1.543l79.165-103.177C413.829,56.696,413.495,54.165,411.728,52.81z"/>
<path style="fill:#FDD3E8;" d="M72.965,110.503L58.542,99.425c-1.741-1.338-4.317-0.999-5.653,0.741
	C18.29,145.21,0.003,199.098,0.003,256.009c0.004,2.42,1.367,4.669,4.048,4.669l18.184-0.067c-0.029-1.533-0.058-3.067-0.058-4.608
	C22.176,200.997,41.179,150.436,72.965,110.503z"/>
<path style="fill:#F2387F;" d="M23.73,282.95l-18.033,2.39c-2.207,0.292-3.759,2.318-3.467,4.525
	c7.35,55.477,33.307,107.856,73.088,147.492c1.555,1.548,4.151,1.544,5.701-0.011l12.837-12.884
	C55.759,387.783,30.083,338.308,23.73,282.95z"/>
<path style="fill:#7FDEFB;" d="M229.425,23.691l-2.36-18.037c-0.289-2.207-2.307-3.766-4.52-3.474
	c-55.49,7.26-107.912,33.132-147.609,72.85c-1.55,1.552-1.551,4.15,0.001,5.701l12.865,12.859
	C124.536,55.557,174.047,29.957,229.425,23.691z"/>
<path style="fill:#FFB577;" d="M488.297,229.305l18.036-2.37c2.207-0.29,3.761-2.315,3.471-4.522
	c-7.291-55.486-33.192-107.894-72.93-147.569c-1.575-1.573-4.128-1.57-5.702,0.005l-12.851,12.871
	C456.376,124.435,482.002,173.934,488.297,229.305z"/>
<path style="fill:#7B49AD;" d="M282.821,488.287l2.38,18.035c0.287,2.177,2.347,3.756,4.524,3.469
	c55.481-7.322,107.875-33.249,147.53-73.009c1.548-1.554,1.547-4.152-0.007-5.701l-12.877-12.844
	C387.674,456.313,338.186,481.963,282.821,488.287z"/>
<path style="fill:#FFB577;" d="M507.965,251.772H489.77c0.025,1.408,0.053,2.816,0.053,4.231
	c0,54.916-18.941,105.404-50.634,145.307l14.435,11.062c1.743,1.335,4.318,0.995,5.652-0.747
	c34.49-45.003,52.72-98.816,52.72-155.621C512.051,253.734,510.275,251.772,507.965,251.772z"/>
<path style="fill:#A487C9;" d="M110.79,439.272L99.736,453.71c-1.333,1.744-0.992,4.319,0.751,5.651
	C145.466,493.798,199.243,512,256,512c2.304,0.029,4.332-1.625,4.332-4.031v-18.196c-1.442,0.026-2.883,0.054-4.332,0.054
	C201.128,489.827,150.677,470.918,110.79,439.272z"/>
<path style="fill:#D4F4FE;" d="M401.403,72.891l11.071-14.429c1.356-1.766,1.022-4.298-0.745-5.652
	C366.706,18.266,312.856,0.006,255.94,0.006c-0.895,0.013-1.856-0.068-2.735,0.123c-1.871,0.406-3.23,2.134-3.176,4.051
	l0.512,18.068c1.815-0.041,3.633-0.069,5.459-0.069C310.96,22.179,361.485,41.151,401.403,72.891z"/>
<g>
</g>
<g>
</g>
<g>
</g>
<g>
</g>
<g>
</g>
<g>
</g>
<g>
</g>
<g>
</g>
<g>
</g>
<g>
</g>
<g>
</g>
<g>
</g>
<g>
</g>
<g>
</g>
<g>
</g>
</svg>
