<?xml version="1.0" encoding="iso-8859-1"?>
<!-- Generator: Adobe Illustrator 19.0.0, SVG Export Plug-In . SVG Version: 6.00 Build 0)  -->
<svg version="1.1" id="Capa_1" xmlns="http://www.w3.org/2000/svg" xmlns:xlink="http://www.w3.org/1999/xlink" x="0px" y="0px"
	 viewBox="0 0 512 512" style="enable-background:new 0 0 512 512;" xml:space="preserve">
<path style="fill:#55D3FA;" d="M480,287.918H32c-4.418,0-8,3.582-8,8v152c0,4.418,3.582,8,8,8h448c4.418,0,8-3.582,8-8v-152
	C488,291.5,484.418,287.918,480,287.918z"/>
<path style="fill:#56C4F0;" d="M56,431.918c-4.418,0-8-3.582-8-8v-136H32c-4.418,0-8,3.582-8,8v152c0,4.418,3.582,8,8,8h448
	c4.418,0,8-3.582,8-8v-16H56z"/>
<path style="fill:#EDEBEC;" d="M480,279.993c-37.354-19.922-117.002-56-224-56c-42.335,0-129.59,5.648-224,56
	c0-50.667,0-101.333,0-152c32.709-20.327,109.613-61.995,216-64c115.734-2.181,199.533,43.837,232,64
	C480,178.66,480,229.326,480,279.993z"/>
<path style="fill:#DCD7D8;" d="M256,199.918c-38.72,0-115.02,4.732-200,44.064c0-40.678,0-90.849,0-129.824
	c-9.597,5.119-17.638,9.882-24,13.835c0,42.642,0,143.975,0,152c1.833-0.978,3.662-1.933,5.489-2.876
	c0.44-0.227,0.88-0.452,1.319-0.677c1.605-0.822,3.207-1.634,4.807-2.431c0.21-0.104,0.42-0.211,0.629-0.315
	c3.93-1.95,7.845-3.827,11.741-5.63c84.986-39.338,161.292-44.071,200.014-44.071c106.998,0,186.646,36.078,224,56
	c0-8.025,0-16.05,0-24.075C442.646,235.996,362.998,199.918,256,199.918z"/>
<g>
	<path style="fill:#95868A;" d="M480,287.993c-1.293,0-2.587-0.313-3.766-0.941c-1.119-0.597-2.276-1.208-3.473-1.833
		c-3.916-2.046-5.432-6.88-3.386-10.796c1.052-2.012,2.84-3.391,4.86-3.978c1.455-1.512,3.5-2.452,5.764-2.452c4.418,0,8,3.582,8,8
		v4c0,2.811-1.475,5.414-3.885,6.86C482.852,287.611,481.427,287.993,480,287.993z"/>
	<path style="fill:#95868A;" d="M455.545,275.854c-1.121,0-2.259-0.236-3.344-0.736c-2.247-1.036-4.569-2.084-6.964-3.14
		c-4.043-1.782-5.875-6.505-4.093-10.548s6.505-5.876,10.548-4.093c2.479,1.093,4.881,2.178,7.206,3.249
		c4.013,1.85,5.767,6.602,3.917,10.614C461.466,274.128,458.57,275.854,455.545,275.854z M56.441,275.851
		c-3.023,0-5.918-1.723-7.269-4.648c-1.852-4.012-0.101-8.765,3.911-10.617c2.406-1.11,4.806-2.194,7.198-3.251
		c4.037-1.789,8.764,0.04,10.551,4.082c1.787,4.041-0.041,8.765-4.082,10.551c-2.313,1.023-4.634,2.07-6.961,3.146
		C58.704,275.613,57.563,275.851,56.441,275.851z M426.912,263.776c-0.953,0-1.922-0.171-2.865-0.533
		c-2.336-0.897-4.722-1.791-7.155-2.681c-4.149-1.517-6.284-6.109-4.768-10.26c1.515-4.148,6.106-6.285,10.26-4.768
		c2.516,0.919,4.981,1.844,7.397,2.771c4.125,1.584,6.185,6.211,4.602,10.336C433.161,261.823,430.128,263.776,426.912,263.776z
		 M85.063,263.76c-3.216,0-6.248-1.952-7.47-5.134c-1.585-4.124,0.475-8.752,4.6-10.336c2.476-0.951,4.94-1.876,7.395-2.773
		c4.154-1.516,8.743,0.617,10.262,4.766c1.518,4.15-0.616,8.744-4.766,10.262c-2.374,0.868-4.759,1.762-7.154,2.682
		C86.986,263.588,86.016,263.76,85.063,263.76z M397.561,253.581c-0.789,0-1.59-0.117-2.382-0.364
		c-2.401-0.747-4.839-1.485-7.312-2.211c-4.239-1.245-6.668-5.69-5.423-9.93c1.244-4.239,5.69-6.672,9.929-5.423
		c2.559,0.75,5.08,1.514,7.563,2.288c4.219,1.313,6.573,5.799,5.259,10.017C404.129,251.385,400.969,253.581,397.561,253.581z
		 M114.412,253.57c-3.41,0-6.57-2.197-7.637-5.625c-1.313-4.219,1.043-8.703,5.262-10.016c2.538-0.79,5.06-1.551,7.564-2.284
		c4.238-1.248,8.684,1.186,9.927,5.427c1.243,4.24-1.188,8.685-5.427,9.927c-2.421,0.71-4.858,1.445-7.311,2.208
		C116,253.453,115.199,253.57,114.412,253.57z M144.365,245.315c-3.611,0-6.887-2.462-7.771-6.128
		c-1.035-4.295,1.607-8.616,5.903-9.651c2.588-0.624,5.153-1.22,7.695-1.788c4.306-0.968,8.589,1.747,9.554,6.06
		c0.965,4.312-1.748,8.589-6.06,9.554c-2.458,0.551-4.938,1.127-7.441,1.729C145.616,245.242,144.986,245.315,144.365,245.315z
		 M367.612,245.307c-0.623,0-1.255-0.073-1.886-0.226c-2.452-0.593-4.933-1.172-7.442-1.735c-4.311-0.969-7.02-5.248-6.052-9.56
		c0.969-4.31,5.249-7.018,9.56-6.052c2.594,0.583,5.158,1.182,7.692,1.794c4.295,1.038,6.936,5.361,5.897,9.655
		C374.496,242.847,371.221,245.307,367.612,245.307z M174.795,239.018c-3.817,0-7.197-2.742-7.872-6.633
		c-0.756-4.354,2.16-8.494,6.514-9.25c2.631-0.457,5.23-0.885,7.795-1.287c4.368-0.68,8.458,2.299,9.143,6.664
		c0.685,4.364-2.299,8.458-6.664,9.143c-2.479,0.389-4.992,0.803-7.537,1.244C175.71,238.979,175.249,239.018,174.795,239.018z
		 M337.188,238.993c-0.455,0-0.915-0.038-1.378-0.119c-2.489-0.432-5.003-0.848-7.54-1.246c-4.364-0.687-7.347-4.78-6.661-9.146
		c0.687-4.364,4.777-7.341,9.146-6.661c2.621,0.412,5.219,0.842,7.792,1.289c4.354,0.756,7.27,4.897,6.514,9.25
		C344.386,236.251,341.006,238.993,337.188,238.993z M205.57,234.702c-4.034,0-7.503-3.043-7.944-7.146
		c-0.473-4.393,2.705-8.337,7.099-8.81c2.676-0.288,5.299-0.547,7.865-0.78c4.378-0.405,8.291,2.842,8.691,7.242
		s-2.842,8.292-7.242,8.691c-2.48,0.226-5.016,0.477-7.604,0.755C206.146,234.687,205.856,234.702,205.57,234.702z M306.418,234.679
		c-0.284,0-0.571-0.016-0.86-0.046c-2.513-0.27-5.046-0.52-7.601-0.75c-4.4-0.396-7.646-4.286-7.249-8.687
		c0.397-4.4,4.277-7.64,8.687-7.249c2.643,0.238,5.264,0.498,7.864,0.775c4.394,0.471,7.574,4.413,7.104,8.806
		C313.924,231.633,310.454,234.679,306.418,234.679z M236.57,232.395c-4.267,0-7.81-3.367-7.987-7.669
		c-0.183-4.415,3.248-8.142,7.662-8.324c2.738-0.113,5.373-0.198,7.901-0.261c4.393-0.096,8.086,3.382,8.195,7.799
		s-3.382,8.087-7.799,8.196c-2.444,0.06-4.991,0.143-7.636,0.252C236.795,232.393,236.682,232.395,236.57,232.395z M275.427,232.39
		c-0.111,0-0.222-0.002-0.334-0.007c-2.527-0.104-5.07-0.188-7.632-0.249c-4.417-0.108-7.911-3.775-7.804-8.192
		c0.106-4.351,3.667-7.806,7.994-7.806c0.066,0,0.132,0.001,0.198,0.002c2.651,0.065,5.284,0.151,7.899,0.259
		c4.414,0.181,7.847,3.906,7.665,8.321C283.237,229.021,279.693,232.39,275.427,232.39z"/>
	<path style="fill:#95868A;" d="M32,287.993c-1.426,0-2.851-0.381-4.114-1.14c-2.411-1.445-3.886-4.05-3.886-6.86v-4
		c0-4.418,3.582-8,8-8c2.259,0,4.299,0.937,5.754,2.442c2.028,0.583,3.822,1.964,4.877,3.981c2.047,3.915,0.532,8.749-3.384,10.796
		c-1.158,0.605-2.318,1.218-3.479,1.838C34.589,287.68,33.294,287.993,32,287.993z"/>
	<path style="fill:#95868A;" d="M32,261.256c-4.418,0-8-3.582-8-8v-7.579c0-4.418,3.582-8,8-8s8,3.582,8,8v7.579
		C40,257.674,36.418,261.256,32,261.256z M32,230.939c-4.418,0-8-3.582-8-8v-7.579c0-4.418,3.582-8,8-8s8,3.582,8,8v7.579
		C40,227.357,36.418,230.939,32,230.939z M32,200.625c-4.418,0-8-3.582-8-8v-7.579c0-4.418,3.582-8,8-8s8,3.582,8,8v7.579
		C40,197.043,36.418,200.625,32,200.625z M32,170.309c-4.418,0-8-3.582-8-8v-7.579c0-4.418,3.582-8,8-8s8,3.582,8,8v7.579
		C40,166.727,36.418,170.309,32,170.309z"/>
	<path style="fill:#95868A;" d="M456.088,122.226c-1.271,0-2.559-0.304-3.757-0.942c-2.253-1.202-4.555-2.401-6.842-3.565
		c-3.937-2.004-5.504-6.821-3.499-10.759c2.003-3.937,6.817-5.508,10.759-3.499c2.376,1.209,4.768,2.456,7.109,3.704
		c3.899,2.079,5.374,6.925,3.296,10.823C461.714,120.688,458.948,122.226,456.088,122.226z M55.896,122.217
		c-2.858,0-5.624-1.536-7.064-4.234c-2.08-3.898-0.607-8.744,3.29-10.825c2.341-1.249,4.731-2.497,7.107-3.708
		c3.933-2.008,8.753-0.443,10.761,3.493c2.007,3.936,0.443,8.754-3.493,10.761c-2.286,1.166-4.588,2.367-6.84,3.569
		C58.457,121.912,57.167,122.217,55.896,122.217z M427.802,108.468c-1.082,0-2.181-0.221-3.233-0.687
		c-2.325-1.028-4.708-2.056-7.084-3.055c-4.073-1.711-5.988-6.4-4.277-10.474c1.71-4.073,6.398-5.989,10.475-4.277
		c2.468,1.037,4.944,2.105,7.361,3.175c4.04,1.787,5.866,6.512,4.078,10.553C433.8,106.69,430.871,108.468,427.802,108.468z
		 M84.17,108.438c-3.069,0-5.997-1.776-7.319-4.765c-1.788-4.04,0.038-8.765,4.078-10.553c2.409-1.066,4.882-2.135,7.352-3.175
		c4.07-1.719,8.763,0.193,10.479,4.266c1.716,4.071-0.193,8.763-4.266,10.479c-2.382,1.004-4.768,2.034-7.09,3.062
		C86.351,108.218,85.252,108.438,84.17,108.438z M398.594,96.806c-0.895,0-1.804-0.15-2.694-0.47
		c-2.426-0.867-4.878-1.719-7.291-2.532c-4.187-1.411-6.437-5.949-5.025-10.137c1.412-4.187,5.948-6.436,10.137-5.025
		c2.505,0.845,5.051,1.729,7.568,2.629c4.16,1.488,6.326,6.067,4.839,10.228C404.957,94.768,401.878,96.806,398.594,96.806z
		 M113.371,96.765c-3.283,0-6.361-2.036-7.531-5.305c-1.49-4.16,0.675-8.739,4.834-10.229c2.476-0.886,5.021-1.771,7.565-2.63
		c4.188-1.416,8.725,0.833,10.139,5.02c1.414,4.186-0.833,8.726-5.02,10.139c-2.453,0.829-4.906,1.682-7.29,2.536
		C115.177,96.613,114.267,96.765,113.371,96.765z M368.618,87.3c-0.708,0-1.427-0.095-2.143-0.293
		c-2.479-0.688-4.986-1.357-7.454-1.993c-4.279-1.102-6.854-5.463-5.753-9.741c1.101-4.279,5.464-6.859,9.741-5.753
		c2.563,0.659,5.167,1.355,7.741,2.069c4.257,1.18,6.752,5.589,5.571,9.847C375.341,84.978,372.123,87.3,368.618,87.3z
		 M143.345,87.257c-3.505,0-6.722-2.322-7.704-5.864c-1.181-4.258,1.314-8.667,5.571-9.847c2.541-0.705,5.146-1.4,7.741-2.068
		c4.277-1.105,8.641,1.474,9.741,5.753c1.102,4.278-1.474,8.64-5.753,9.741c-2.5,0.644-5.009,1.314-7.454,1.992
		C144.772,87.162,144.053,87.257,143.345,87.257z M338.026,80.021c-0.519,0-1.044-0.051-1.571-0.156
		c-2.509-0.499-5.06-0.982-7.58-1.436c-4.349-0.782-7.239-4.941-6.458-9.29c0.782-4.348,4.93-7.24,9.29-6.458
		c2.618,0.471,5.267,0.973,7.873,1.492c4.333,0.862,7.146,5.075,6.283,9.408C345.105,77.388,341.764,80.021,338.026,80.021z
		 M173.937,79.986c-3.739,0-7.081-2.635-7.838-6.442c-0.861-4.333,1.953-8.545,6.287-9.406c2.606-0.518,5.255-1.019,7.873-1.488
		c4.354-0.785,8.507,2.113,9.287,6.461c0.78,4.349-2.112,8.507-6.461,9.287c-2.521,0.452-5.071,0.935-7.58,1.434
		C174.979,79.936,174.454,79.986,173.937,79.986z M306.977,75.031c-0.324,0-0.652-0.02-0.982-0.061
		c-2.556-0.313-5.134-0.604-7.663-0.865c-4.396-0.455-7.59-4.386-7.136-8.78c0.454-4.396,4.392-7.58,8.78-7.136
		c2.63,0.272,5.31,0.575,7.964,0.9c4.386,0.537,7.505,4.527,6.968,8.913C314.411,72.059,310.961,75.031,306.977,75.031z
		 M204.988,75.013c-3.986,0-7.436-2.975-7.932-7.031c-0.535-4.386,2.586-8.375,6.972-8.911c2.622-0.32,5.302-0.621,7.965-0.896
		c4.387-0.447,8.325,2.743,8.777,7.139c0.452,4.395-2.743,8.324-7.139,8.777c-2.563,0.264-5.142,0.554-7.664,0.862
		C205.639,74.993,205.312,75.013,204.988,75.013z M275.642,72.381c-0.127,0-0.254-0.003-0.382-0.009
		c-2.558-0.12-5.15-0.218-7.708-0.289c-4.417-0.124-7.896-3.806-7.772-8.222s3.845-7.886,8.222-7.772
		c2.657,0.075,5.352,0.176,8.009,0.301c4.413,0.207,7.823,3.953,7.616,8.366C283.425,69.041,279.887,72.381,275.642,72.381z
		 M236.326,72.374c-4.248,0-7.786-3.341-7.985-7.628c-0.206-4.413,3.206-8.158,7.619-8.363c2.655-0.124,5.35-0.224,8.008-0.298
		c0.075-0.002,0.15-0.003,0.226-0.003c4.315,0,7.872,3.437,7.993,7.778c0.122,4.416-3.358,8.096-7.775,8.219
		c-2.558,0.071-5.151,0.167-7.707,0.286C236.577,72.371,236.451,72.374,236.326,72.374z"/>
	<path style="fill:#95868A;" d="M480,261.256c-4.418,0-8-3.582-8-8v-7.579c0-4.418,3.582-8,8-8s8,3.582,8,8v7.579
		C488,257.674,484.418,261.256,480,261.256z M480,230.94c-4.418,0-8-3.582-8-8v-7.579c0-4.418,3.582-8,8-8s8,3.582,8,8v7.579
		C488,227.358,484.418,230.94,480,230.94z M480,200.624c-4.418,0-8-3.582-8-8v-7.579c0-4.418,3.582-8,8-8s8,3.582,8,8v7.579
		C488,197.042,484.418,200.624,480,200.624z M480,170.309c-4.418,0-8-3.582-8-8v-7.579c0-4.418,3.582-8,8-8s8,3.582,8,8v7.579
		C488,166.727,484.418,170.309,480,170.309z"/>
	<path style="fill:#95868A;" d="M504,119.993h-16v-16c0-4.418-3.582-8-8-8s-8,3.582-8,8v24c0,4.418,3.582,8,8,8h24
		c4.418,0,8-3.582,8-8S508.418,119.993,504,119.993z"/>
	<path style="fill:#95868A;" d="M32,95.993c-4.418,0-8,3.582-8,8v16H8c-4.418,0-8,3.582-8,8s3.582,8,8,8h24c4.418,0,8-3.582,8-8v-24
		C40,99.575,36.418,95.993,32,95.993z"/>
</g>
<g>
</g>
<g>
</g>
<g>
</g>
<g>
</g>
<g>
</g>
<g>
</g>
<g>
</g>
<g>
</g>
<g>
</g>
<g>
</g>
<g>
</g>
<g>
</g>
<g>
</g>
<g>
</g>
<g>
</g>
</svg>
