<?xml version="1.0" encoding="iso-8859-1"?>
<!-- Generator: Adobe Illustrator 19.0.0, SVG Export Plug-In . SVG Version: 6.00 Build 0)  -->
<svg version="1.1" id="Capa_1" xmlns="http://www.w3.org/2000/svg" xmlns:xlink="http://www.w3.org/1999/xlink" x="0px" y="0px"
	 viewBox="0 0 512 512" style="enable-background:new 0 0 512 512;" xml:space="preserve">
<path style="fill:#847277;" d="M296,32H8c-4.418,0-8,3.582-8,8v384c0,4.418,3.582,8,8,8h288c4.418,0,8-3.582,8-8V40
	C304,35.582,300.418,32,296,32z"/>
<path style="fill:#EDEBEC;" d="M256,32H48c-4.418,0-8,3.582-8,8v344c0,4.418,3.582,8,8,8h208c4.418,0,8-3.582,8-8V40
	C264,35.582,260.418,32,256,32z"/>
<path style="fill:#DCD7D8;" d="M56,384V40c0-4.418,3.582-8,8-8H48c-4.418,0-8,3.582-8,8v344c0,4.418,3.582,8,8,8h16
	C59.582,392,56,388.418,56,384z"/>
<path style="fill:#55D3FA;" d="M192,16h-17.371C171.327,6.688,162.43,0,152,0s-19.327,6.688-22.629,16H112c-4.418,0-8,3.582-8,8v40
	c0,4.418,3.582,8,8,8h80c4.418,0,8-3.582,8-8V24C200,19.582,196.418,16,192,16z"/>
<path style="fill:#56C4F0;" d="M192,56h-80c-4.418,0-8-3.582-8-8v16c0,4.418,3.582,8,8,8h80c4.418,0,8-3.582,8-8V48
	C200,52.418,196.418,56,192,56z"/>
<path style="fill:#847277;" d="M504,208H120c-4.418,0-8,3.582-8,8v288c0,4.418,3.582,8,8,8h384c4.418,0,8-3.582,8-8V216
	C512,211.582,508.418,208,504,208z"/>
<path style="fill:#EDEBEC;" d="M464,208H160c-4.418,0-8,3.582-8,8v248c0,4.418,3.582,8,8,8h304c4.418,0,8-3.582,8-8V216
	C472,211.582,468.418,208,464,208z"/>
<path style="fill:#DCD7D8;" d="M168,464V216c0-4.418,3.582-8,8-8h-16c-4.418,0-8,3.582-8,8v248c0,4.418,3.582,8,8,8h16
	C171.582,472,168,468.418,168,464z"/>
<path style="fill:#F97BBB;" d="M352,192h-17.371c-3.302-9.313-12.199-16-22.629-16s-19.327,6.688-22.629,16H272
	c-4.418,0-8,3.582-8,8v40c0,4.418,3.582,8,8,8h80c4.418,0,8-3.582,8-8v-40C360,195.582,356.418,192,352,192z"/>
<path style="fill:#F74FA4;" d="M352,232h-80c-4.418,0-8-3.582-8-8v16c0,4.418,3.582,8,8,8h80c4.418,0,8-3.582,8-8v-16
	C360,228.418,356.418,232,352,232z"/>
<g>
</g>
<g>
</g>
<g>
</g>
<g>
</g>
<g>
</g>
<g>
</g>
<g>
</g>
<g>
</g>
<g>
</g>
<g>
</g>
<g>
</g>
<g>
</g>
<g>
</g>
<g>
</g>
<g>
</g>
</svg>
