<?xml version="1.0" encoding="iso-8859-1"?>
<!-- Generator: Adobe Illustrator 19.0.0, SVG Export Plug-In . SVG Version: 6.00 Build 0)  -->
<svg version="1.1" id="Capa_1" xmlns="http://www.w3.org/2000/svg" xmlns:xlink="http://www.w3.org/1999/xlink" x="0px" y="0px"
	 viewBox="0 0 512 512" style="enable-background:new 0 0 512 512;" xml:space="preserve">
<path style="fill:#F74FA4;" d="M320,0H8C3.582,0,0,3.582,0,8v312c0,4.418,3.582,8,8,8h312c4.418,0,8-3.582,8-8V8
	C328,3.582,324.418,0,320,0z"/>
<path style="fill:#F2387F;" d="M32,304c-4.418,0-8-3.582-8-8V0H8C3.582,0,0,3.582,0,8v312c0,4.418,3.582,8,8,8h312
	c4.418,0,8-3.582,8-8v-16H32z"/>
<rect x="192" y="192" style="fill:#EDEBEC;" width="312" height="312"/>
<polygon style="fill:#DCD7D8;" points="216,480 216,192 192,192 192,504 504,504 504,480 "/>
<g>
	<path style="fill:#95868A;" d="M504,512h-4c-4.418,0-8-3.582-8-8c0-3.245,1.932-6.038,4.707-7.293
		c1.255-2.776,4.049-4.707,7.293-4.707c4.418,0,8,3.582,8,8v4C512,508.418,508.418,512,504,512z"/>
	<path style="fill:#95868A;" d="M476.615,512h-7.795c-4.418,0-8-3.582-8-8s3.582-8,8-8h7.795c4.418,0,8,3.582,8,8
		S481.033,512,476.615,512z M445.436,512h-7.795c-4.418,0-8-3.582-8-8s3.582-8,8-8h7.795c4.418,0,8,3.582,8,8
		S449.854,512,445.436,512z M414.256,512h-7.795c-4.418,0-8-3.582-8-8s3.582-8,8-8h7.795c4.418,0,8,3.582,8,8
		S418.674,512,414.256,512z M383.077,512h-7.795c-4.418,0-8-3.582-8-8s3.582-8,8-8h7.795c4.418,0,8,3.582,8,8
		S387.495,512,383.077,512z M351.897,512h-7.795c-4.418,0-8-3.582-8-8s3.582-8,8-8h7.795c4.418,0,8,3.582,8,8
		S356.315,512,351.897,512z M320.718,512h-7.795c-4.418,0-8-3.582-8-8s3.582-8,8-8h7.795c4.418,0,8,3.582,8,8
		S325.136,512,320.718,512z M289.538,512h-7.795c-4.418,0-8-3.582-8-8s3.582-8,8-8h7.795c4.418,0,8,3.582,8,8
		S293.956,512,289.538,512z M258.358,512h-7.795c-4.418,0-8-3.582-8-8s3.582-8,8-8h7.795c4.418,0,8,3.582,8,8
		S262.776,512,258.358,512z M227.18,512h-7.795c-4.418,0-8-3.582-8-8s3.582-8,8-8h7.795c4.418,0,8,3.582,8,8S231.598,512,227.18,512
		z"/>
	<path style="fill:#95868A;" d="M196,512h-4c-4.418,0-8-3.582-8-8v-4c0-4.418,3.582-8,8-8c3.244,0,6.038,1.931,7.293,4.707
		c2.775,1.255,4.707,4.048,4.707,7.293C204,508.418,200.418,512,196,512z"/>
	<path style="fill:#95868A;" d="M192,484.615c-4.418,0-8-3.582-8-8v-7.795c0-4.418,3.582-8,8-8s8,3.582,8,8v7.795
		C200,481.034,196.418,484.615,192,484.615z M192,453.436c-4.418,0-8-3.582-8-8v-7.794c0-4.418,3.582-8,8-8s8,3.582,8,8v7.794
		C200,449.854,196.418,453.436,192,453.436z M192,422.256c-4.418,0-8-3.582-8-8v-7.795c0-4.418,3.582-8,8-8s8,3.582,8,8v7.795
		C200,418.675,196.418,422.256,192,422.256z M192,391.077c-4.418,0-8-3.582-8-8v-7.795c0-4.418,3.582-8,8-8s8,3.582,8,8v7.795
		C200,387.495,196.418,391.077,192,391.077z M192,359.897c-4.418,0-8-3.582-8-8v-7.795c0-4.418,3.582-8,8-8s8,3.582,8,8v7.795
		C200,356.316,196.418,359.897,192,359.897z M192,328.718c-4.418,0-8-3.582-8-8v-7.795c0-4.418,3.582-8,8-8s8,3.582,8,8v7.795
		C200,325.136,196.418,328.718,192,328.718z M192,297.538c-4.418,0-8-3.582-8-8v-7.794c0-4.418,3.582-8,8-8s8,3.582,8,8v7.794
		C200,293.957,196.418,297.538,192,297.538z M192,266.359c-4.418,0-8-3.582-8-8v-7.795c0-4.418,3.582-8,8-8s8,3.582,8,8v7.795
		C200,262.777,196.418,266.359,192,266.359z M192,235.179c-4.418,0-8-3.582-8-8v-7.795c0-4.418,3.582-8,8-8s8,3.582,8,8v7.795
		C200,231.598,196.418,235.179,192,235.179z"/>
	<path style="fill:#95868A;" d="M192,204c-4.418,0-8-3.582-8-8v-4c0-4.418,3.582-8,8-8h4c4.418,0,8,3.582,8,8
		c0,3.245-1.932,6.038-4.707,7.293C198.038,202.069,195.244,204,192,204z"/>
	<path style="fill:#95868A;" d="M476.615,200h-7.795c-4.418,0-8-3.582-8-8s3.582-8,8-8h7.795c4.418,0,8,3.582,8,8
		S481.033,200,476.615,200z M445.437,200h-7.795c-4.418,0-8-3.582-8-8s3.582-8,8-8h7.795c4.418,0,8,3.582,8,8
		S449.854,200,445.437,200z M414.257,200h-7.795c-4.418,0-8-3.582-8-8s3.582-8,8-8h7.795c4.418,0,8,3.582,8,8
		S418.675,200,414.257,200z M383.077,200h-7.795c-4.418,0-8-3.582-8-8s3.582-8,8-8h7.795c4.418,0,8,3.582,8,8
		S387.495,200,383.077,200z M351.897,200h-7.795c-4.418,0-8-3.582-8-8s3.582-8,8-8h7.795c4.418,0,8,3.582,8,8
		S356.315,200,351.897,200z M320.718,200h-7.795c-4.418,0-8-3.582-8-8s3.582-8,8-8h7.795c4.418,0,8,3.582,8,8
		S325.136,200,320.718,200z M289.539,200h-7.795c-4.418,0-8-3.582-8-8s3.582-8,8-8h7.795c4.418,0,8,3.582,8,8
		S293.957,200,289.539,200z M258.359,200h-7.795c-4.418,0-8-3.582-8-8s3.582-8,8-8h7.795c4.418,0,8,3.582,8,8
		S262.777,200,258.359,200z M227.18,200h-7.795c-4.418,0-8-3.582-8-8s3.582-8,8-8h7.795c4.418,0,8,3.582,8,8S231.598,200,227.18,200
		z"/>
	<path style="fill:#95868A;" d="M504,204c-3.244,0-6.038-1.931-7.293-4.707C493.932,198.038,492,195.245,492,192
		c0-4.418,3.582-8,8-8h4c4.418,0,8,3.582,8,8v4C512,200.418,508.418,204,504,204z"/>
	<path style="fill:#95868A;" d="M504,484.616c-4.418,0-8-3.582-8-8v-7.795c0-4.418,3.582-8,8-8s8,3.582,8,8v7.795
		C512,481.034,508.418,484.616,504,484.616z M504,453.436c-4.418,0-8-3.582-8-8v-7.795c0-4.418,3.582-8,8-8s8,3.582,8,8v7.795
		C512,449.854,508.418,453.436,504,453.436z M504,422.256c-4.418,0-8-3.582-8-8v-7.794c0-4.418,3.582-8,8-8s8,3.582,8,8v7.794
		C512,418.675,508.418,422.256,504,422.256z M504,391.077c-4.418,0-8-3.582-8-8v-7.795c0-4.418,3.582-8,8-8s8,3.582,8,8v7.795
		C512,387.496,508.418,391.077,504,391.077z M504,359.897c-4.418,0-8-3.582-8-8v-7.795c0-4.418,3.582-8,8-8s8,3.582,8,8v7.795
		C512,356.316,508.418,359.897,504,359.897z M504,328.718c-4.418,0-8-3.582-8-8v-7.795c0-4.418,3.582-8,8-8s8,3.582,8,8v7.795
		C512,325.137,508.418,328.718,504,328.718z M504,297.539c-4.418,0-8-3.582-8-8v-7.795c0-4.418,3.582-8,8-8s8,3.582,8,8v7.795
		C512,293.957,508.418,297.539,504,297.539z M504,266.359c-4.418,0-8-3.582-8-8v-7.794c0-4.418,3.582-8,8-8s8,3.582,8,8v7.794
		C512,262.777,508.418,266.359,504,266.359z M504,235.18c-4.418,0-8-3.582-8-8v-7.795c0-4.418,3.582-8,8-8s8,3.582,8,8v7.795
		C512,231.598,508.418,235.18,504,235.18z"/>
</g>
<g>
</g>
<g>
</g>
<g>
</g>
<g>
</g>
<g>
</g>
<g>
</g>
<g>
</g>
<g>
</g>
<g>
</g>
<g>
</g>
<g>
</g>
<g>
</g>
<g>
</g>
<g>
</g>
<g>
</g>
</svg>
