<?xml version="1.0" encoding="iso-8859-1"?>
<!-- Generator: Adobe Illustrator 19.0.0, SVG Export Plug-In . SVG Version: 6.00 Build 0)  -->
<svg version="1.1" id="Capa_1" xmlns="http://www.w3.org/2000/svg" xmlns:xlink="http://www.w3.org/1999/xlink" x="0px" y="0px"
	 viewBox="0 0 512.001 512.001" style="enable-background:new 0 0 512.001 512.001;" xml:space="preserve">
<path style="fill:#FF9D4A;" d="M506.885,72.538c-3.083-1.191-6.58-0.365-8.805,2.081l-160,176c-2.773,3.051-2.773,7.711,0,10.763
	l160,176c2.376,2.614,6.298,3.355,9.467,1.788c2.701-1.335,4.453-4.157,4.453-7.17V80C512,76.695,509.968,73.73,506.885,72.538z"/>
<path style="fill:#F48A16;" d="M507.547,407.185c-3.168,1.566-7.09,0.825-9.467-1.788L347.727,240.008l-9.646,10.611
	c-2.773,3.051-2.773,7.711,0,10.763l160,176c2.376,2.614,6.298,3.354,9.467,1.788c2.701-1.335,4.453-4.156,4.453-7.17v-31.985
	C512,403.029,510.248,405.85,507.547,407.185z"/>
<path style="fill:#55D3FA;" d="M173.92,250.619l-160-176c-2.236-2.459-5.863-3.28-8.939-2.026C2.001,73.808,0,76.781,0,80v352
	c0,3.013,1.753,5.835,4.453,7.17c3.168,1.566,7.09,0.825,9.467-1.788l160-176C176.693,258.33,176.693,253.67,173.92,250.619z"/>
<path style="fill:#56C4F0;" d="M164.273,240.008L13.92,405.396c-2.376,2.613-6.299,3.354-9.467,1.788
	C1.753,405.85,0,403.029,0,400.016V432c0,3.013,1.753,5.835,4.453,7.17c3.168,1.566,7.09,0.825,9.467-1.788l160-176
	c2.773-3.051,2.773-7.711,0-10.763L164.273,240.008z"/>
<g>
	<path style="fill:#B9AEB1;" d="M256,18c-4.418,0-8-3.582-8-8V8c0-4.418,3.582-8,8-8s8,3.582,8,8v2C264,14.418,260.418,18,256,18z"
		/>
	<path style="fill:#B9AEB1;" d="M256,47.366c-4.418,0-8-3.582-8-8v-4.195c0-4.418,3.582-8,8-8s8,3.582,8,8v4.195
		C264,43.785,260.418,47.366,256,47.366z"/>
	<path style="fill:#B9AEB1;" d="M256,164.829c-4.418,0-8-3.582-8-8v-4.195c0-4.418,3.582-8,8-8s8,3.582,8,8v4.195
		C264,161.248,260.418,164.829,256,164.829z M256,135.463c-4.418,0-8-3.582-8-8v-4.195c0-4.418,3.582-8,8-8s8,3.582,8,8v4.195
		C264,131.882,260.418,135.463,256,135.463z M256,106.098c-4.418,0-8-3.582-8-8v-4.195c0-4.418,3.582-8,8-8s8,3.582,8,8v4.195
		C264,102.516,260.418,106.098,256,106.098z M256,76.732c-4.418,0-8-3.582-8-8v-4.195c0-4.418,3.582-8,8-8s8,3.582,8,8v4.195
		C264,73.15,260.418,76.732,256,76.732z"/>
	<path style="fill:#B9AEB1;" d="M256,192c-4.418,0-8-3.582-8-8v-2c0-4.418,3.582-8,8-8s8,3.582,8,8v2
		C264,188.418,260.418,192,256,192z"/>
	<path style="fill:#B9AEB1;" d="M256,338c-4.418,0-8-3.582-8-8v-2c0-4.418,3.582-8,8-8s8,3.582,8,8v2
		C264,334.418,260.418,338,256,338z"/>
	<path style="fill:#B9AEB1;" d="M256,367.366c-4.418,0-8-3.582-8-8v-4.195c0-4.418,3.582-8,8-8s8,3.582,8,8v4.195
		C264,363.785,260.418,367.366,256,367.366z"/>
	<path style="fill:#B9AEB1;" d="M256,484.829c-4.418,0-8-3.582-8-8v-4.195c0-4.418,3.582-8,8-8s8,3.582,8,8v4.195
		C264,481.248,260.418,484.829,256,484.829z M256,455.464c-4.418,0-8-3.582-8-8v-4.195c0-4.418,3.582-8,8-8s8,3.582,8,8v4.195
		C264,451.882,260.418,455.464,256,455.464z M256,426.098c-4.418,0-8-3.582-8-8v-4.195c0-4.418,3.582-8,8-8s8,3.582,8,8v4.195
		C264,422.516,260.418,426.098,256,426.098z M256,396.732c-4.418,0-8-3.582-8-8v-4.195c0-4.418,3.582-8,8-8s8,3.582,8,8v4.195
		C264,393.15,260.418,396.732,256,396.732z"/>
	<path style="fill:#B9AEB1;" d="M256,512c-4.418,0-8-3.582-8-8v-2c0-4.418,3.582-8,8-8s8,3.582,8,8v2
		C264,508.418,260.418,512,256,512z"/>
</g>
<path style="fill:#725E63;" d="M304,248h-16c-0.338,0-0.669,0.028-0.996,0.069c-2.882-11.261-11.753-20.15-23.004-23.056V208
	c0-4.418-3.582-8-8-8s-8,3.582-8,8v17.013c-11.228,2.901-20.087,11.759-22.987,22.987H208c-4.418,0-8,3.582-8,8s3.582,8,8,8h17.013
	c2.901,11.229,11.759,20.087,22.987,22.987V304c0,4.418,3.582,8,8,8s8-3.582,8-8v-17.013c11.251-2.906,20.122-11.795,23.004-23.056
	c0.327,0.041,0.658,0.069,0.996,0.069h16c4.418,0,8-3.582,8-8S308.418,248,304,248z M256,272c-8.822,0-16-7.178-16-16
	s7.178-16,16-16c8.822,0,16,7.178,16,16C272,264.823,264.822,272,256,272z"/>
<g>
</g>
<g>
</g>
<g>
</g>
<g>
</g>
<g>
</g>
<g>
</g>
<g>
</g>
<g>
</g>
<g>
</g>
<g>
</g>
<g>
</g>
<g>
</g>
<g>
</g>
<g>
</g>
<g>
</g>
</svg>
