<?xml version="1.0" encoding="iso-8859-1"?>
<!-- Generator: Adobe Illustrator 19.0.0, SVG Export Plug-In . SVG Version: 6.00 Build 0)  -->
<svg version="1.1" id="Capa_1" xmlns="http://www.w3.org/2000/svg" xmlns:xlink="http://www.w3.org/1999/xlink" x="0px" y="0px"
	 viewBox="0 0 512 512" style="enable-background:new 0 0 512 512;" xml:space="preserve">
<path style="fill:#847277;" d="M47.904,239.515c-24.699,0-36.511-13.254-42.07-24.373c-5.766-11.534-5.833-23.046-5.833-23.53
	c0-4.409,3.575-7.984,7.984-7.984c4.4,0,7.969,3.559,7.984,7.956c0.004,0.291,0.179,8.76,4.363,16.842
	c5.27,10.175,14.289,15.121,27.572,15.121c57.47,0,111.317-57.021,163.391-112.163c25.588-27.096,52.048-55.114,78.615-75.845
	C320.56,11.625,348.344,0,374.847,0c18.803,0,33.319,5.744,43.146,17.075c16.559,19.091,12.828,46.756,12.661,47.924
	c-0.624,4.365-4.673,7.399-9.033,6.774c-4.365-0.624-7.398-4.668-6.774-9.033c0.026-0.193,2.817-21.756-8.975-35.272
	c-6.661-7.632-17.098-11.502-31.025-11.502c-51.481,0-100.279,51.673-151.943,106.381
	C168.507,179.951,112.258,239.515,47.904,239.515z M15.968,191.612h0.01H15.968z"/>
<path style="fill:#FF9D4A;" d="M398.437,308.861l-45.164-101.617c-1.449-3.262-4.893-5.164-8.422-4.662
	c-18.129,2.584-36.359,2.585-54.182,0.002c-47.336-6.858-82.203-30.37-103.116-48.885c-3.16-2.798-7.952-2.654-10.938,0.332
	l-5.646,5.646l92.149,92.149c2.134,2.134,5.274,2.845,8.15,1.929c2.973-0.947,6.17-1.392,9.492-1.233
	c14.387,0.691,25.852,12.955,25.62,27.357c-0.235,14.53-11.968,26.264-26.496,26.499c-14.402,0.234-26.668-11.231-27.359-25.619
	c-0.16-3.323,0.286-6.52,1.234-9.493c0.916-2.874,0.205-6.016-1.929-8.15l-92.151-92.148l-5.646,5.646
	c-2.984,2.985-3.131,7.777-0.331,10.938c18.516,20.913,42.026,55.777,48.885,103.114c2.58,17.817,2.581,36.038,0.001,54.159
	c-0.505,3.544,1.387,6.993,4.658,8.447l101.617,45.164c1.043,0.463,2.146,0.689,3.24,0.688c2.075,0,4.119-0.809,5.648-2.338
	l79.035-79.036C399.121,315.413,399.778,311.88,398.437,308.861z"/>
<path style="fill:#F48A16;" d="M328.071,383.225c-1.095,0-2.198-0.225-3.24-0.688l-101.617-45.164
	c-3.27-1.454-5.163-4.903-4.658-8.447c2.58-18.121,2.579-36.343-0.001-54.159c-3.972-27.41-13.53-50.629-24.465-69.388
	l-34.412-34.411l-5.646,5.646c-2.984,2.985-3.131,7.777-0.331,10.938c18.516,20.913,42.026,55.777,48.885,103.114
	c2.58,17.817,2.581,36.038,0,54.159c-0.504,3.544,1.387,6.993,4.658,8.447l101.617,45.164c1.043,0.463,2.146,0.689,3.24,0.688
	c2.075,0,4.119-0.809,5.648-2.338l15.326-15.326C331.641,382.615,329.867,383.225,328.071,383.225z"/>
<path style="fill:#95868A;" d="M396.786,306.458l-90.327,90.327l112.909,112.909c3.077,3.076,8.214,3.076,11.291,0l79.036-79.036
	c3.074-3.074,3.074-8.216,0-11.29L396.786,306.458z"/>
<path style="fill:#847277;" d="M306.459,396.785l112.909,112.909c3.077,3.076,8.214,3.076,11.291,0l10.078-10.078L322.182,381.062
	L306.459,396.785z"/>
<path style="fill:#F74FA4;" d="M167.662,393.459v44.631c0,3.278-2.658,5.935-5.935,5.935H5.936c-3.278,0-5.935-2.658-5.935-5.935
	v-44.631c0-3.278,2.658-5.935,5.935-5.935h155.791C165.005,387.524,167.662,390.181,167.662,393.459z"/>
<path style="fill:#F2387F;" d="M12.898,431.128v-43.604H5.936c-3.278,0-5.935,2.658-5.935,5.935v44.631
	c0,3.278,2.658,5.935,5.935,5.935h155.791c3.278,0,5.935-2.658,5.935-5.935v-6.962H12.898z"/>
<g>
</g>
<g>
</g>
<g>
</g>
<g>
</g>
<g>
</g>
<g>
</g>
<g>
</g>
<g>
</g>
<g>
</g>
<g>
</g>
<g>
</g>
<g>
</g>
<g>
</g>
<g>
</g>
<g>
</g>
</svg>
