<?xml version="1.0" encoding="iso-8859-1"?>
<!-- Generator: Adobe Illustrator 19.0.0, SVG Export Plug-In . SVG Version: 6.00 Build 0)  -->
<svg version="1.1" id="Capa_1" xmlns="http://www.w3.org/2000/svg" xmlns:xlink="http://www.w3.org/1999/xlink" x="0px" y="0px"
	 viewBox="0 0 512.001 512.001" style="enable-background:new 0 0 512.001 512.001;" xml:space="preserve">
<path style="fill:#DCD7D8;" d="M386,0H107v96h311c4.418,0,8-3.582,8-8V40C426,17.909,408.091,0,386,0z"/>
<path style="fill:#EDEBEC;" d="M348,0H114C78.654,0,50,28.654,50,64v376c0,4.418,3.582,8,8,8h280c4.418,0,8-3.582,8-8V40
	c0-22.091,17.909-40,40-40H348z"/>
<path style="fill:#DCD7D8;" d="M74,440V64c0-35.346,28.654-64,64-64h-24C78.654,0,50,28.654,50,64v376c0,4.418,3.582,8,8,8h24
	C77.582,448,74,444.418,74,440z"/>
<g>
	<path style="fill:#B9AEB1;" d="M204,104H100c-4.418,0-8-3.582-8-8s3.582-8,8-8h104c4.418,0,8,3.582,8,8S208.418,104,204,104z"/>
	<path style="fill:#B9AEB1;" d="M156,176h-56c-4.418,0-8-3.582-8-8s3.582-8,8-8h56c4.418,0,8,3.582,8,8S160.418,176,156,176z"/>
	<path style="fill:#B9AEB1;" d="M204,248H100c-4.418,0-8-3.582-8-8s3.582-8,8-8h104c4.418,0,8,3.582,8,8S208.418,248,204,248z"/>
	<path style="fill:#B9AEB1;" d="M292,104h-56c-4.418,0-8-3.582-8-8s3.582-8,8-8h56c4.418,0,8,3.582,8,8S296.418,104,292,104z"/>
	<path style="fill:#B9AEB1;" d="M292,176H188c-4.418,0-8-3.582-8-8s3.582-8,8-8h104c4.418,0,8,3.582,8,8S296.418,176,292,176z"/>
	<path style="fill:#B9AEB1;" d="M292,248h-56c-4.418,0-8-3.582-8-8s3.582-8,8-8h56c4.418,0,8,3.582,8,8S296.418,248,292,248z"/>
	<path style="fill:#B9AEB1;" d="M204,320H100c-4.418,0-8-3.582-8-8s3.582-8,8-8h104c4.418,0,8,3.582,8,8S208.418,320,204,320z"/>
	<path style="fill:#B9AEB1;" d="M252,320h-16c-4.418,0-8-3.582-8-8s3.582-8,8-8h16c4.418,0,8,3.582,8,8S256.418,320,252,320z"/>
</g>
<path style="fill:#55D3FA;" d="M458.785,379.245l-28.085-5.618c-1.12-3.249-2.459-6.466-4-9.608l15.9-23.851
	c1.058-1.587,0.849-3.699-0.5-5.047l-25.22-25.22c-1.349-1.349-3.46-1.558-5.047-0.5l-23.85,15.899
	c-3.145-1.542-6.362-2.882-9.609-4l-5.617-28.085c-0.374-1.87-2.016-3.216-3.922-3.216h-35.667c-1.907,0-3.548,1.346-3.922,3.216
	l-5.617,28.085c-3.247,1.118-6.464,2.458-9.609,4l-23.85-15.899c-1.587-1.058-3.699-0.849-5.047,0.5l-25.22,25.22
	c-1.348,1.348-1.557,3.46-0.5,5.047l15.9,23.851c-1.542,3.143-2.881,6.359-4,9.608l-28.085,5.618
	c-1.87,0.373-3.215,2.016-3.215,3.922v35.666c0,1.906,1.346,3.549,3.215,3.922l28.085,5.618c1.12,3.25,2.459,6.467,4,9.609
	l-15.899,23.85c-1.058,1.587-0.849,3.699,0.5,5.047l25.22,25.22c1.349,1.349,3.46,1.558,5.047,0.5l23.85-15.899
	c3.145,1.542,6.362,2.882,9.609,4l5.617,28.085c0.374,1.87,2.016,3.216,3.922,3.216h35.667c1.907,0,3.548-1.346,3.922-3.216
	l5.617-28.085c3.247-1.118,6.464-2.458,9.609-4l23.85,15.899c1.587,1.058,3.698,0.849,5.047-0.5l25.22-25.22
	c1.348-1.348,1.557-3.46,0.5-5.047l-15.899-23.85c1.541-3.143,2.88-6.359,4-9.609l28.085-5.618c1.87-0.373,3.215-2.016,3.215-3.922
	v-35.666C462,381.261,460.654,379.618,458.785,379.245z M382.667,401c0,17.461-14.206,31.667-31.667,31.667
	S319.333,418.461,319.333,401s14.206-31.667,31.667-31.667S382.667,383.539,382.667,401z"/>
<path style="fill:#56C4F0;" d="M351,345c-30.928,0-56,25.072-56,56s25.072,56,56,56s56-25.072,56-56S381.928,345,351,345z
	 M351,432.667c-17.461,0-31.667-14.206-31.667-31.667s14.206-31.667,31.667-31.667s31.667,14.206,31.667,31.667
	S368.461,432.667,351,432.667z"/>
<g>
</g>
<g>
</g>
<g>
</g>
<g>
</g>
<g>
</g>
<g>
</g>
<g>
</g>
<g>
</g>
<g>
</g>
<g>
</g>
<g>
</g>
<g>
</g>
<g>
</g>
<g>
</g>
<g>
</g>
</svg>
