<?xml version="1.0" encoding="iso-8859-1"?>
<!-- Generator: Adobe Illustrator 19.0.0, SVG Export Plug-In . SVG Version: 6.00 Build 0)  -->
<svg version="1.1" id="Capa_1" xmlns="http://www.w3.org/2000/svg" xmlns:xlink="http://www.w3.org/1999/xlink" x="0px" y="0px"
	 viewBox="0 0 512 512" style="enable-background:new 0 0 512 512;" xml:space="preserve">
<path style="fill:#55D3FA;" d="M128,256C57.42,256,0,313.421,0,384s57.42,128,128,128s128-57.421,128-128S198.58,256,128,256z"/>
<path style="fill:#56C4F0;" d="M144,496c-70.58,0-128-57.421-128-128c0-31.225,11.245-59.869,29.89-82.111
	C17.858,309.388,0,344.646,0,384c0,70.579,57.42,128,128,128c39.354,0,74.612-17.857,98.11-45.889
	C203.869,484.755,175.225,496,144,496z"/>
<path style="fill:#855FB8;" d="M328,128H184c-30.878,0-56,25.121-56,56v144c0,30.879,25.122,56,56,56h144c30.878,0,56-25.121,56-56
	V184C384,153.121,358.878,128,328,128z"/>
<path style="fill:#7B49AD;" d="M344,368H200c-30.878,0-56-25.121-56-56V168c0-11.355,3.407-21.926,9.239-30.761
	C138.049,147.265,128,164.477,128,184v144c0,30.879,25.122,56,56,56h144c19.523,0,36.735-10.049,46.761-25.239
	C365.926,364.593,355.356,368,344,368z"/>
<path style="fill:#F74FA4;" d="M504,0H248c-4.418,0-8,3.582-8,8v256c0,4.418,3.582,8,8,8h256c4.418,0,8-3.582,8-8V8
	C512,3.582,508.418,0,504,0z"/>
<path style="fill:#F2387F;" d="M264,256c-4.418,0-8-3.582-8-8V0h-8c-4.418,0-8,3.582-8,8v256c0,4.418,3.582,8,8,8h256
	c4.418,0,8-3.582,8-8v-8H264z"/>
<path style="fill:#DCD7D8;" d="M392,112h-40c-4.418,0-8,3.582-8,8s3.582,8,8,8h20.686L122.343,378.343
	c-2.888,2.889-3.104,7.636-0.491,10.776c2.969,3.566,8.524,3.818,11.804,0.539L384,139.314V160c0,4.418,3.582,8,8,8s8-3.582,8-8v-40
	C400,115.582,396.418,112,392,112z"/>
<g>
</g>
<g>
</g>
<g>
</g>
<g>
</g>
<g>
</g>
<g>
</g>
<g>
</g>
<g>
</g>
<g>
</g>
<g>
</g>
<g>
</g>
<g>
</g>
<g>
</g>
<g>
</g>
<g>
</g>
</svg>
