<?xml version="1.0" encoding="iso-8859-1"?>
<!-- Generator: Adobe Illustrator 19.0.0, SVG Export Plug-In . SVG Version: 6.00 Build 0)  -->
<svg version="1.1" id="Capa_1" xmlns="http://www.w3.org/2000/svg" xmlns:xlink="http://www.w3.org/1999/xlink" x="0px" y="0px"
	 viewBox="0 0 512 512" style="enable-background:new 0 0 512 512;" xml:space="preserve">
<path id="SVGCleanerId_0" style="fill:#EDEBEC;" d="M460.529,51.471C427.338,18.279,383.141,0,336.078,0
	c-47.062,0-91.259,18.279-124.451,51.471L30.608,232.489c-3.124,3.125-3.124,8.189,0,11.314l56.568,56.569
	c3.082,3.08,8.233,3.08,11.314,0l181.02-181.02c15.083-15.084,35.173-23.391,56.568-23.391s41.484,8.307,56.567,23.391
	c15.084,15.083,23.391,35.173,23.391,56.567c0,21.396-8.307,41.485-23.391,56.568l-181.02,181.02c-3.08,3.082-3.08,8.233,0,11.314
	l56.569,56.568c3.083,3.081,8.231,3.081,11.314,0L460.527,300.37C493.721,267.181,512,222.983,512,175.922
	C512,128.859,493.721,84.662,460.529,51.471z"/>
<g>
	<path id="SVGCleanerId_0_1_" style="fill:#EDEBEC;" d="M460.529,51.471C427.338,18.279,383.141,0,336.078,0
		c-47.062,0-91.259,18.279-124.451,51.471L30.608,232.489c-3.124,3.125-3.124,8.189,0,11.314l56.568,56.569
		c3.082,3.08,8.233,3.08,11.314,0l181.02-181.02c15.083-15.084,35.173-23.391,56.568-23.391s41.484,8.307,56.567,23.391
		c15.084,15.083,23.391,35.173,23.391,56.567c0,21.396-8.307,41.485-23.391,56.568l-181.02,181.02c-3.08,3.082-3.08,8.233,0,11.314
		l56.569,56.568c3.083,3.081,8.231,3.081,11.314,0L460.527,300.37C493.721,267.181,512,222.983,512,175.922
		C512,128.859,493.721,84.662,460.529,51.471z"/>
</g>
<g>
	<path style="fill:#DCD7D8;" d="M336.079,95.963c16.587,0,32.378,5.013,45.672,14.286c-2.688-3.853-5.715-7.506-9.104-10.896
		c-15.083-15.084-35.173-23.391-56.567-23.391c-21.396,0-41.485,8.307-56.568,23.391l-181.02,181.02
		c-3.081,3.079-8.229,3.08-11.311,0.003l19.997,19.997c3.082,3.08,8.233,3.08,11.314,0l181.02-181.02
		C294.594,104.27,314.684,95.963,336.079,95.963z"/>
	<path style="fill:#DCD7D8;" d="M460.529,51.471c-3.356-3.356-6.829-6.551-10.402-9.598C477.222,73.634,492,113.618,492,155.922
		c0,47.062-18.279,91.259-51.471,124.451L259.511,461.392c-3.083,3.082-8.231,3.082-11.314,0l-36.573-36.572
		c0.001,0.001,0.002,0.002,0.003,0.003l56.569,56.568c3.083,3.082,8.231,3.082,11.314,0l181.019-181.019
		C493.721,267.181,512,222.983,512,175.922C512,128.859,493.721,84.662,460.529,51.471z"/>
</g>
<path style="fill:#F74FA4;" d="M512,175.922c0-47.063-18.279-91.26-51.471-124.451S383.141,0,336.078,0
	c-47.062,0-91.259,18.279-124.451,51.471L85.549,177.549l67.883,67.883l126.079-126.079c15.083-15.084,35.173-23.391,56.568-23.391
	s41.484,8.307,56.567,23.391c15.084,15.083,23.391,35.173,23.391,56.567c0,21.396-8.307,41.485-23.391,56.568l-126.078,126.08
	l67.883,67.883l126.078-126.078C493.721,267.181,512,222.983,512,175.922z"/>
<g>
	<path style="fill:#F2387F;" d="M316.079,75.963c-21.396,0-41.485,8.307-56.568,23.391L133.432,225.432l20,20l126.079-126.079
		c15.083-15.084,35.173-23.391,56.568-23.391c16.587,0,32.378,5.013,45.672,14.286c-2.688-3.853-5.715-7.506-9.104-10.896
		C357.563,84.27,337.474,75.963,316.079,75.963z"/>
	<path style="fill:#F2387F;" d="M460.529,51.471c-3.356-3.356-6.829-6.551-10.402-9.598C477.222,73.634,492,113.618,492,155.922
		c0,47.062-18.279,91.259-51.471,124.451L314.451,406.451l20,20l126.078-126.078C493.721,267.181,512,222.983,512,175.922
		C512,128.859,493.721,84.662,460.529,51.471z"/>
</g>
<path style="fill:#FFB577;" d="M72,344H8c-4.418,0-8,3.582-8,8v64c0,4.418,3.582,8,8,8h64c4.418,0,8-3.582,8-8v-64
	C80,347.582,76.418,344,72,344z"/>
<path style="fill:#FF9D4A;" d="M24,408c-4.418,0-8-3.582-8-8v-56H8c-4.418,0-8,3.582-8,8v64c0,4.418,3.582,8,8,8h64
	c4.418,0,8-3.582,8-8v-8H24z"/>
<path style="fill:#FFB577;" d="M160,432H96c-4.418,0-8,3.582-8,8v64c0,4.418,3.582,8,8,8h64c4.418,0,8-3.582,8-8v-64
	C168,435.582,164.418,432,160,432z"/>
<path style="fill:#FF9D4A;" d="M112,496c-4.418,0-8-3.582-8-8v-56h-8c-4.418,0-8,3.582-8,8v64c0,4.418,3.582,8,8,8h64
	c4.418,0,8-3.582,8-8v-8H112z"/>
<path style="fill:#A487C9;" d="M160,344H96c-4.418,0-8,3.582-8,8v64c0,4.418,3.582,8,8,8h64c4.418,0,8-3.582,8-8v-64
	C168,347.582,164.418,344,160,344z"/>
<path style="fill:#855FB8;" d="M112,408c-4.418,0-8-3.582-8-8v-56h-8c-4.418,0-8,3.582-8,8v64c0,4.418,3.582,8,8,8h64
	c4.418,0,8-3.582,8-8v-8H112z"/>
<path style="fill:#A487C9;" d="M72,432H8c-4.418,0-8,3.582-8,8v64c0,4.418,3.582,8,8,8h64c4.418,0,8-3.582,8-8v-64
	C80,435.582,76.418,432,72,432z"/>
<path style="fill:#855FB8;" d="M24,496c-4.418,0-8-3.582-8-8v-56H8c-4.418,0-8,3.582-8,8v64c0,4.418,3.582,8,8,8h64
	c4.418,0,8-3.582,8-8v-8H24z"/>
<g>
</g>
<g>
</g>
<g>
</g>
<g>
</g>
<g>
</g>
<g>
</g>
<g>
</g>
<g>
</g>
<g>
</g>
<g>
</g>
<g>
</g>
<g>
</g>
<g>
</g>
<g>
</g>
<g>
</g>
</svg>
