<?xml version="1.0" encoding="iso-8859-1"?>
<!-- Generator: Adobe Illustrator 19.0.0, SVG Export Plug-In . SVG Version: 6.00 Build 0)  -->
<svg version="1.1" id="Capa_1" xmlns="http://www.w3.org/2000/svg" xmlns:xlink="http://www.w3.org/1999/xlink" x="0px" y="0px"
	 viewBox="0 0 512 512" style="enable-background:new 0 0 512 512;" xml:space="preserve">
<path style="fill:#A79A9E;" d="M288,0h-64c-24.262,0-44,19.738-44,44v32c0,6.627,5.373,12,12,12s12-5.373,12-12V44
	c0-11.028,8.972-20,20-20h64c11.028,0,20,8.972,20,20v32c0,6.627,5.373,12,12,12s12-5.373,12-12V44C332,19.738,312.262,0,288,0z"/>
<path style="fill:#CAC3C5;" d="M424,152H88c-4.418,0-8,3.582-8,8v280c0,39.701,32.299,72,72,72h208c39.701,0,72-32.299,72-72V160
	C432,155.582,428.418,152,424,152z"/>
<path style="fill:#B9AEB1;" d="M104,440V160c0-4.418,3.582-8,8-8H88c-4.418,0-8,3.582-8,8v280c0,39.701,32.299,72,72,72h24
	C136.299,512,104,479.701,104,440z"/>
<path style="fill:#847277;" d="M464,72H48c-4.418,0-8,3.582-8,8v80c0,4.418,3.582,8,8,8h416c4.418,0,8-3.582,8-8V80
	C472,75.582,468.418,72,464,72z"/>
<path style="fill:#725E63;" d="M64,160V80c0-4.418,3.582-8,8-8H48c-4.418,0-8,3.582-8,8v80c0,4.418,3.582,8,8,8h24
	C67.582,168,64,164.418,64,160z"/>
<g>
	<path style="fill:#A79A9E;" d="M256,456L256,456c-13.255,0-24-10.745-24-24V224c0-13.255,10.745-24,24-24l0,0
		c13.255,0,24,10.745,24,24v208C280,445.255,269.255,456,256,456z"/>
	<path style="fill:#A79A9E;" d="M352,456L352,456c-13.255,0-24-10.745-24-24V224c0-13.255,10.745-24,24-24l0,0
		c13.255,0,24,10.745,24,24v208C376,445.255,365.255,456,352,456z"/>
	<path style="fill:#A79A9E;" d="M160,456L160,456c-13.255,0-24-10.745-24-24V224c0-13.255,10.745-24,24-24l0,0
		c13.255,0,24,10.745,24,24v208C184,445.255,173.255,456,160,456z"/>
</g>
<g>
</g>
<g>
</g>
<g>
</g>
<g>
</g>
<g>
</g>
<g>
</g>
<g>
</g>
<g>
</g>
<g>
</g>
<g>
</g>
<g>
</g>
<g>
</g>
<g>
</g>
<g>
</g>
<g>
</g>
</svg>
