<?xml version="1.0" encoding="iso-8859-1"?>
<!-- Generator: Adobe Illustrator 19.0.0, SVG Export Plug-In . SVG Version: 6.00 Build 0)  -->
<svg version="1.1" id="Capa_1" xmlns="http://www.w3.org/2000/svg" xmlns:xlink="http://www.w3.org/1999/xlink" x="0px" y="0px"
	 viewBox="0 0 512 512" style="enable-background:new 0 0 512 512;" xml:space="preserve">
<rect x="191.875" y="191.875" style="fill:#EDEBEC;" width="312.611" height="312.611"/>
<polygon style="fill:#DCD7D8;" points="215.922,480.438 215.922,191.875 191.875,191.875 191.875,504.485 504.485,504.485 
	504.485,480.438 "/>
<rect x="7.515" y="7.515" style="fill:#EDEBEC;" width="312.611" height="312.611"/>
<path style="fill:#DCD7D8;" d="M31.562,296.078V7.515H7.515v312.611H312.11c4.427,0,8.016-3.589,8.016-8.016v-16.031H31.562z"/>
<path style="fill:#FF9D4A;" d="M320.125,191.875H199.89c-4.427,0-8.016,3.589-8.016,8.016v120.235H312.11
	c4.427,0,8.016-3.589,8.016-8.016V191.875z"/>
<path style="fill:#F48A16;" d="M215.922,296.078V191.875H199.89c-4.427,0-8.016,3.589-8.016,8.016v120.235H312.11
	c4.427,0,8.016-3.589,8.016-8.016v-16.031H215.922z"/>
<g>
	<path style="fill:#95868A;" d="M349.182,199.389h-4.008c-4.151,0-7.515-3.365-7.515-7.515s3.364-7.515,7.515-7.515h4.008
		c4.151,0,7.515,3.365,7.515,7.515S353.333,199.389,349.182,199.389z"/>
	<path style="fill:#95868A;" d="M476.588,199.389h-7.963c-4.151,0-7.515-3.365-7.515-7.515s3.364-7.515,7.515-7.515h7.963
		c4.151,0,7.515,3.365,7.515,7.515S480.739,199.389,476.588,199.389z M444.737,199.389h-7.963c-4.151,0-7.515-3.365-7.515-7.515
		s3.364-7.515,7.515-7.515h7.963c4.151,0,7.515,3.365,7.515,7.515S448.888,199.389,444.737,199.389z M412.885,199.389h-7.964
		c-4.151,0-7.515-3.365-7.515-7.515s3.364-7.515,7.515-7.515h7.964c4.151,0,7.515,3.365,7.515,7.515
		S417.036,199.389,412.885,199.389z M381.033,199.389h-7.963c-4.151,0-7.515-3.365-7.515-7.515s3.364-7.515,7.515-7.515h7.963
		c4.151,0,7.515,3.365,7.515,7.515S385.184,199.389,381.033,199.389z"/>
	<path style="fill:#95868A;" d="M504.485,203.397c-3.114,0-5.787-1.896-6.927-4.596c-2.7-1.139-4.596-3.811-4.596-6.927
		c0-4.15,3.364-7.515,7.515-7.515h4.008c4.151,0,7.515,3.365,7.515,7.515v4.008C512,200.033,508.636,203.397,504.485,203.397z"/>
	<path style="fill:#95868A;" d="M504.485,484.562c-4.151,0-7.515-3.365-7.515-7.515v-7.81c0-4.15,3.364-7.515,7.515-7.515
		s7.515,3.365,7.515,7.515v7.81C512,481.198,508.636,484.562,504.485,484.562z M504.485,453.321c-4.151,0-7.515-3.365-7.515-7.515
		v-7.81c0-4.15,3.364-7.515,7.515-7.515s7.515,3.365,7.515,7.515v7.81C512,449.957,508.636,453.321,504.485,453.321z
		 M504.485,422.08c-4.151,0-7.515-3.365-7.515-7.515v-7.809c0-4.15,3.364-7.515,7.515-7.515s7.515,3.365,7.515,7.515v7.809
		C512,418.716,508.636,422.08,504.485,422.08z M504.485,390.84c-4.151,0-7.515-3.365-7.515-7.515v-7.81
		c0-4.15,3.364-7.515,7.515-7.515s7.515,3.365,7.515,7.515v7.81C512,387.476,508.636,390.84,504.485,390.84z M504.485,359.599
		c-4.151,0-7.515-3.365-7.515-7.515v-7.81c0-4.15,3.364-7.515,7.515-7.515s7.515,3.365,7.515,7.515v7.81
		C512,356.236,508.636,359.599,504.485,359.599z M504.485,328.359c-4.151,0-7.515-3.365-7.515-7.515v-7.81
		c0-4.15,3.364-7.515,7.515-7.515s7.515,3.365,7.515,7.515v7.81C512,324.995,508.636,328.359,504.485,328.359z M504.485,297.119
		c-4.151,0-7.515-3.365-7.515-7.515v-7.81c0-4.15,3.364-7.515,7.515-7.515s7.515,3.365,7.515,7.515v7.81
		C512,293.755,508.636,297.119,504.485,297.119z M504.485,265.878c-4.151,0-7.515-3.365-7.515-7.515v-7.809
		c0-4.15,3.364-7.515,7.515-7.515s7.515,3.365,7.515,7.515v7.809C512,262.514,508.636,265.878,504.485,265.878z M504.485,234.638
		c-4.151,0-7.515-3.365-7.515-7.515v-7.81c0-4.15,3.364-7.515,7.515-7.515s7.515,3.365,7.515,7.515v7.81
		C512,231.274,508.636,234.638,504.485,234.638z"/>
	<path style="fill:#95868A;" d="M504.485,512h-4.008c-4.151,0-7.515-3.365-7.515-7.515c0-3.115,1.896-5.787,4.596-6.927
		c1.139-2.7,3.812-4.596,6.927-4.596c4.151,0,7.515,3.365,7.515,7.515v4.008C512,508.635,508.636,512,504.485,512z"/>
	<path style="fill:#95868A;" d="M477.047,512h-7.81c-4.151,0-7.515-3.365-7.515-7.515s3.364-7.515,7.515-7.515h7.81
		c4.151,0,7.515,3.365,7.515,7.515S481.198,512,477.047,512z M445.807,512h-7.81c-4.151,0-7.515-3.365-7.515-7.515
		s3.364-7.515,7.515-7.515h7.81c4.151,0,7.515,3.365,7.515,7.515S449.957,512,445.807,512z M414.566,512h-7.81
		c-4.151,0-7.515-3.365-7.515-7.515s3.364-7.515,7.515-7.515h7.81c4.151,0,7.515,3.365,7.515,7.515S418.716,512,414.566,512z
		 M383.326,512h-7.81c-4.151,0-7.515-3.365-7.515-7.515s3.364-7.515,7.515-7.515h7.81c4.151,0,7.515,3.365,7.515,7.515
		S387.477,512,383.326,512z M352.085,512h-7.81c-4.151,0-7.515-3.365-7.515-7.515s3.364-7.515,7.515-7.515h7.81
		c4.151,0,7.515,3.365,7.515,7.515S356.236,512,352.085,512z M320.845,512h-7.81c-4.151,0-7.515-3.365-7.515-7.515
		s3.364-7.515,7.515-7.515h7.81c4.151,0,7.515,3.365,7.515,7.515S324.995,512,320.845,512z M289.604,512h-7.81
		c-4.151,0-7.515-3.365-7.515-7.515s3.364-7.515,7.515-7.515h7.81c4.151,0,7.515,3.365,7.515,7.515S293.755,512,289.604,512z
		 M258.363,512h-7.809c-4.15,0-7.515-3.365-7.515-7.515s3.365-7.515,7.515-7.515h7.809c4.151,0,7.515,3.365,7.515,7.515
		S262.514,512,258.363,512z M227.123,512h-7.81c-4.15,0-7.515-3.365-7.515-7.515s3.365-7.515,7.515-7.515h7.81
		c4.15,0,7.515,3.365,7.515,7.515S231.273,512,227.123,512z"/>
	<path style="fill:#95868A;" d="M195.883,512h-4.008c-4.15,0-7.515-3.365-7.515-7.515v-4.008c0-4.15,3.365-7.515,7.515-7.515
		c3.115,0,5.787,1.896,6.927,4.596c2.7,1.139,4.596,3.811,4.596,6.927C203.397,508.635,200.033,512,195.883,512z"/>
	<path style="fill:#95868A;" d="M191.875,484.104c-4.15,0-7.515-3.365-7.515-7.515v-7.963c0-4.15,3.365-7.515,7.515-7.515
		s7.515,3.365,7.515,7.515v7.963C199.389,480.739,196.025,484.104,191.875,484.104z M191.875,452.252
		c-4.15,0-7.515-3.365-7.515-7.515v-7.963c0-4.15,3.365-7.515,7.515-7.515s7.515,3.365,7.515,7.515v7.963
		C199.389,448.888,196.025,452.252,191.875,452.252z M191.875,420.4c-4.15,0-7.515-3.365-7.515-7.515v-7.963
		c0-4.15,3.365-7.515,7.515-7.515s7.515,3.365,7.515,7.515v7.963C199.389,417.036,196.025,420.4,191.875,420.4z M191.875,388.549
		c-4.15,0-7.515-3.365-7.515-7.515v-7.963c0-4.15,3.365-7.515,7.515-7.515s7.515,3.365,7.515,7.515v7.963
		C199.389,385.184,196.025,388.549,191.875,388.549z"/>
	<path style="fill:#95868A;" d="M191.875,356.697c-4.15,0-7.515-3.365-7.515-7.515v-4.008c0-4.15,3.365-7.515,7.515-7.515
		s7.515,3.365,7.515,7.515v4.008C199.389,353.332,196.025,356.697,191.875,356.697z"/>
	<path style="fill:#95868A;" d="M168.161,327.64h-4.008c-4.15,0-7.515-3.365-7.515-7.515s3.365-7.515,7.515-7.515h4.008
		c4.15,0,7.515,3.365,7.515,7.515S172.313,327.64,168.161,327.64z"/>
	<path style="fill:#95868A;" d="M140.055,327.64h-8.034c-4.15,0-7.515-3.365-7.515-7.515s3.365-7.515,7.515-7.515h8.034
		c4.15,0,7.515,3.365,7.515,7.515S144.205,327.64,140.055,327.64z M107.921,327.64h-8.034c-4.15,0-7.515-3.365-7.515-7.515
		s3.365-7.515,7.515-7.515h8.034c4.15,0,7.515,3.365,7.515,7.515S112.072,327.64,107.921,327.64z M75.789,327.64h-8.034
		c-4.15,0-7.515-3.365-7.515-7.515s3.365-7.515,7.515-7.515h8.034c4.15,0,7.515,3.365,7.515,7.515S79.939,327.64,75.789,327.64z
		 M43.655,327.64h-8.034c-4.15,0-7.515-3.365-7.515-7.515s3.365-7.515,7.515-7.515h8.034c4.15,0,7.515,3.365,7.515,7.515
		S47.805,327.64,43.655,327.64z"/>
	<path style="fill:#95868A;" d="M11.523,327.64H7.515c-4.15,0-7.515-3.365-7.515-7.515v-4.008c0-4.15,3.365-7.515,7.515-7.515
		c3.115,0,5.787,1.896,6.927,4.596c2.7,1.139,4.596,3.811,4.596,6.927C19.037,324.275,15.673,327.64,11.523,327.64z"/>
	<path style="fill:#95868A;" d="M7.515,300.201c-4.15,0-7.515-3.365-7.515-7.515v-7.81c0-4.15,3.365-7.515,7.515-7.515
		s7.515,3.365,7.515,7.515v7.81C15.029,296.837,11.665,300.201,7.515,300.201z M7.515,268.961c-4.15,0-7.515-3.365-7.515-7.515
		v-7.809c0-4.15,3.365-7.515,7.515-7.515s7.515,3.365,7.515,7.515v7.809C15.029,265.597,11.665,268.961,7.515,268.961z
		 M7.515,237.72c-4.15,0-7.515-3.365-7.515-7.515v-7.81c0-4.15,3.365-7.515,7.515-7.515s7.515,3.365,7.515,7.515v7.81
		C15.029,234.356,11.665,237.72,7.515,237.72z M7.515,206.48c-4.15,0-7.515-3.365-7.515-7.515v-7.81c0-4.15,3.365-7.515,7.515-7.515
		s7.515,3.365,7.515,7.515v7.81C15.029,203.116,11.665,206.48,7.515,206.48z M7.515,175.239c-4.15,0-7.515-3.365-7.515-7.515v-7.81
		c0-4.15,3.365-7.515,7.515-7.515s7.515,3.365,7.515,7.515v7.81C15.029,171.876,11.665,175.239,7.515,175.239z M7.515,143.999
		c-4.15,0-7.515-3.365-7.515-7.515v-7.81c0-4.15,3.365-7.515,7.515-7.515s7.515,3.365,7.515,7.515v7.81
		C15.029,140.635,11.665,143.999,7.515,143.999z M7.515,112.758c-4.15,0-7.515-3.365-7.515-7.515v-7.809
		c0-4.15,3.365-7.515,7.515-7.515s7.515,3.365,7.515,7.515v7.809C15.029,109.394,11.665,112.758,7.515,112.758z M7.515,81.518
		C3.365,81.518,0,78.154,0,74.004v-7.81c0-4.15,3.365-7.515,7.515-7.515s7.515,3.365,7.515,7.515v7.81
		C15.029,78.154,11.665,81.518,7.515,81.518z M7.515,50.277C3.365,50.277,0,46.913,0,42.763v-7.81c0-4.15,3.365-7.515,7.515-7.515
		s7.515,3.365,7.515,7.515v7.81C15.029,46.913,11.665,50.277,7.515,50.277z"/>
	<path style="fill:#95868A;" d="M7.515,19.037C3.365,19.037,0,15.673,0,11.523V7.515C0,3.365,3.365,0,7.515,0h4.008
		c4.15,0,7.515,3.365,7.515,7.515c0,3.115-1.896,5.787-4.596,6.927C13.302,17.141,10.63,19.037,7.515,19.037z"/>
	<path style="fill:#95868A;" d="M292.687,15.029h-7.81c-4.151,0-7.515-3.365-7.515-7.515S280.725,0,284.876,0h7.81
		c4.151,0,7.515,3.365,7.515,7.515S296.838,15.029,292.687,15.029z M261.448,15.029h-7.81c-4.15,0-7.515-3.365-7.515-7.515
		S249.487,0,253.637,0h7.81c4.151,0,7.515,3.365,7.515,7.515S265.598,15.029,261.448,15.029z M230.206,15.029h-7.809
		c-4.15,0-7.515-3.365-7.515-7.515S218.246,0,222.396,0h7.809c4.15,0,7.515,3.365,7.515,7.515S234.356,15.029,230.206,15.029z
		 M198.966,15.029h-7.81c-4.15,0-7.515-3.365-7.515-7.515S187.005,0,191.155,0h7.81c4.15,0,7.515,3.365,7.515,7.515
		S203.116,15.029,198.966,15.029z M167.725,15.029h-7.81c-4.15,0-7.515-3.365-7.515-7.515S155.764,0,159.914,0h7.81
		c4.15,0,7.515,3.365,7.515,7.515S171.876,15.029,167.725,15.029z M136.485,15.029h-7.81c-4.15,0-7.515-3.365-7.515-7.515
		S124.524,0,128.674,0h7.81c4.15,0,7.515,3.365,7.515,7.515S140.635,15.029,136.485,15.029z M105.245,15.029h-7.81
		c-4.15,0-7.515-3.365-7.515-7.515S93.284,0,97.434,0h7.81c4.15,0,7.515,3.365,7.515,7.515S109.395,15.029,105.245,15.029z
		 M74.004,15.029h-7.809c-4.15,0-7.515-3.365-7.515-7.515S62.044,0,66.194,0h7.809c4.15,0,7.515,3.365,7.515,7.515
		S78.154,15.029,74.004,15.029z M42.764,15.029h-7.81c-4.15,0-7.515-3.365-7.515-7.515S30.803,0,34.953,0h7.81
		c4.15,0,7.515,3.365,7.515,7.515S46.914,15.029,42.764,15.029z"/>
	<path style="fill:#95868A;" d="M320.125,19.037c-3.114,0-5.787-1.896-6.927-4.596c-2.7-1.139-4.596-3.811-4.596-6.927
		c0-4.15,3.364-7.515,7.515-7.515h4.008c4.151,0,7.515,3.365,7.515,7.515v4.008C327.64,15.673,324.276,19.037,320.125,19.037z"/>
	<path style="fill:#95868A;" d="M320.125,147.006c-4.151,0-7.515-3.365-7.515-7.515v-7.998c0-4.15,3.364-7.515,7.515-7.515
		s7.515,3.365,7.515,7.515v7.998C327.64,143.642,324.276,147.006,320.125,147.006z M320.125,115.015
		c-4.151,0-7.515-3.365-7.515-7.515v-7.998c0-4.15,3.364-7.515,7.515-7.515s7.515,3.365,7.515,7.515v7.998
		C327.64,111.65,324.276,115.015,320.125,115.015z M320.125,83.021c-4.151,0-7.515-3.365-7.515-7.515v-7.998
		c0-4.15,3.364-7.515,7.515-7.515s7.515,3.365,7.515,7.515v7.998C327.64,79.657,324.276,83.021,320.125,83.021z M320.125,51.03
		c-4.151,0-7.515-3.365-7.515-7.515v-7.998c0-4.15,3.364-7.515,7.515-7.515s7.515,3.365,7.515,7.515v7.998
		C327.64,47.665,324.276,51.03,320.125,51.03z"/>
	<path style="fill:#95868A;" d="M320.125,175.009c-4.151,0-7.515-3.365-7.515-7.515v-4.008c0-4.15,3.364-7.515,7.515-7.515
		s7.515,3.365,7.515,7.515v4.008C327.64,171.644,324.276,175.009,320.125,175.009z"/>
</g>
<g>
</g>
<g>
</g>
<g>
</g>
<g>
</g>
<g>
</g>
<g>
</g>
<g>
</g>
<g>
</g>
<g>
</g>
<g>
</g>
<g>
</g>
<g>
</g>
<g>
</g>
<g>
</g>
<g>
</g>
</svg>
