<?xml version="1.0" encoding="iso-8859-1"?>
<!-- Generator: Adobe Illustrator 19.0.0, SVG Export Plug-In . SVG Version: 6.00 Build 0)  -->
<svg version="1.1" id="Capa_1" xmlns="http://www.w3.org/2000/svg" xmlns:xlink="http://www.w3.org/1999/xlink" x="0px" y="0px"
	 viewBox="0 0 512.001 512.001" style="enable-background:new 0 0 512.001 512.001;" xml:space="preserve">
<path style="fill:#FFCEA4;" d="M463.063,142.875c-8.699-5.903-20.039-7.154-29.808-3.272c-5.725,2.275-10.719,6.193-14.283,11.219
	l-35.546,50.122l-20.975,29.576l-0.4-4.022l29.527-82.967l13.5-37.934c3.31-9.3,2.069-19.814-3.283-28.103
	c-5.427-8.403-14.691-13.869-24.674-14.559c-5.972-0.413-12.014,0.897-17.292,3.72c-6.771,3.622-12.268,9.679-15.046,17.483
	l-37.929,106.574V32c0-13.379-8.644-25.65-21.25-30.145c-12.688-4.524-27.194-0.418-35.649,10.043
	c-4.578,5.664-7.1,12.82-7.1,20.102v172.793l-0.125-0.001l-6.076,1.249l-34.719-141.65c-1.611-6.574-5.505-12.464-10.71-16.755
	c-4.389-3.618-9.502-5.86-15.024-7.061c-13.222-2.876-27.013,4.483-33.406,16.095c-3.829,6.956-4.903,15.242-3.013,22.954
	l38.435,156.844l-0.028,0.199l0,0L170.855,288l-0.177,0.309l-19.486-13.856l-65.79-46.783c-10.792-7.674-25.69-7.847-36.62-0.327
	c-11.009,7.574-16.249,21.539-12.878,34.488c1.884,7.237,6.313,13.663,12.409,17.997l90.676,64.479l47.895,64.063L194.855,512h16
	h25.5h134.5V408l30.385-121.54l33.719-47.546l36.218-51.07c4.436-6.255,5.694-15.679,5.9-18.902
	C477.688,159.333,471.494,148.596,463.063,142.875z"/>
<g>
	<path style="fill:#FFB577;" d="M258.855,32c0-14.911,10.198-27.439,24-30.992c-2.602-0.669-5.314-1.008-8-1.008
		c-17.673,0-32,14.327-32,32v172.793l1.834,0.019c7.8,0.081,14.166-6.22,14.166-14.02V32z"/>
	<path style="fill:#FFB577;" d="M306.855,190.713l0.944,0.557c7.589,4.474,17.376,0.923,20.33-7.377l32.655-91.754
		c5.339-15.002,20.724-23.539,35.897-20.749c-5.999-5.563-14.097-8.659-22.278-8.526c-8.528,0.138-16.829,3.798-22.699,9.982
		c-3.066,3.23-5.428,7.099-6.921,11.293L306.855,190.713z"/>
	<path style="fill:#FFB577;" d="M418.972,150.822l-56.52,79.698l1.904,1.48l0,0c6.25,5.492,15.879,4.365,20.692-2.421l45.924-64.757
		c9.933-14.006,29.069-17.609,43.37-8.426c-3.467-7.862-10.133-14.115-18.192-17.093c-8.575-3.169-18.311-2.446-26.344,1.908
		C425.518,143.536,421.793,146.843,418.972,150.822z"/>
	<path style="fill:#FFB577;" d="M152.027,329.55l-87.714-61.722c-10.744-7.64-15.771-21.514-12.394-34.264
		c0.959-3.62,2.561-7.058,4.704-10.128c-8.499,2.848-15.504,9.321-19.094,17.522c-3.831,8.754-3.482,19.03,0.91,27.516
		c2.328,4.499,5.746,8.419,9.874,11.354l90.676,64.479l0,0l47.895,64.063l0.472,0.631l7.5,103h16l-6-114.5L152.027,329.55z"/>
	<path style="fill:#FFB577;" d="M196.893,231.069L196.893,231.069L196.893,231.069l-37.12-151.445
		c-2.987-12.191,1.502-25.3,11.555-32.885c2.869-2.165,6.106-3.828,9.526-4.931c0,0.064-4.811-1.637-9.291-1.831
		c-5.27-0.228-9.422,0.902-13.619,2.747c-8.613,3.787-15.219,11.392-17.836,20.419c-1.55,5.348-1.652,11.073-0.327,16.48
		l38.435,156.844l0.043,0.177l-0.072,0.021l0,0L170.855,288h4.235c6.804,0,12.626-4.885,13.808-11.586L196.893,231.069z"/>
</g>
<g>
</g>
<g>
</g>
<g>
</g>
<g>
</g>
<g>
</g>
<g>
</g>
<g>
</g>
<g>
</g>
<g>
</g>
<g>
</g>
<g>
</g>
<g>
</g>
<g>
</g>
<g>
</g>
<g>
</g>
</svg>
