<?xml version="1.0" encoding="iso-8859-1"?>
<!-- Generator: Adobe Illustrator 19.0.0, SVG Export Plug-In . SVG Version: 6.00 Build 0)  -->
<svg version="1.1" id="Capa_1" xmlns="http://www.w3.org/2000/svg" xmlns:xlink="http://www.w3.org/1999/xlink" x="0px" y="0px"
	 viewBox="0 0 512 512" style="enable-background:new 0 0 512 512;" xml:space="preserve">
<polygon style="fill:#EDEBEC;" points="312,504 136,504 304,32 480,32 "/>
<polygon style="fill:#DCD7D8;" points="160,488 322.305,32 304,32 136,504 312,504 317.695,488 "/>
<g>
	<path style="fill:#95868A;" d="M315.354,494.579c-3.1-1.103-6.426-0.182-8.534,2.078c-2.836,1.23-4.82,4.055-4.82,7.343
		c0,4.418,3.582,8,8,8h2c3.384,0,6.401-2.129,7.536-5.316l0.671-1.884C321.689,500.637,319.517,496.061,315.354,494.579z"/>
	<path style="fill:#95868A;" d="M284.829,496h-4.195c-4.418,0-8,3.582-8,8s3.582,8,8,8h4.195c4.418,0,8-3.582,8-8
		S289.247,496,284.829,496z"/>
	<path style="fill:#95868A;" d="M196.731,496h-4.195c-4.418,0-8,3.582-8,8s3.582,8,8,8h4.195c4.418,0,8-3.582,8-8
		S201.149,496,196.731,496z"/>
	<path style="fill:#95868A;" d="M255.463,496h-4.195c-4.418,0-8,3.582-8,8s3.582,8,8,8h4.195c4.418,0,8-3.582,8-8
		S259.881,496,255.463,496z"/>
	<path style="fill:#95868A;" d="M226.097,496h-4.194c-4.418,0-8,3.582-8,8s3.582,8,8,8h4.194c4.418,0,8-3.582,8-8
		S230.515,496,226.097,496z"/>
	<path style="fill:#95868A;" d="M167.365,496h-4.195c-4.418,0-8,3.582-8,8s3.582,8,8,8h4.195c4.418,0,8-3.582,8-8
		S171.783,496,167.365,496z"/>
	<path style="fill:#95868A;" d="M139.354,494.579c-4.166-1.484-8.738,0.691-10.22,4.853l-0.671,1.884
		c-0.873,2.45-0.5,5.17,0.999,7.295s3.937,3.389,6.537,3.389h2c4.418,0,8-3.582,8-8c0-2.133-0.835-4.071-2.195-5.505
		C142.91,496.731,141.364,495.295,139.354,494.579z"/>
	<path style="fill:#95868A;" d="M148.685,468.357c-4.162-1.481-8.737,0.692-10.219,4.855l-1.333,3.746
		c-1.481,4.163,0.692,8.738,4.855,10.219c0.887,0.315,1.791,0.465,2.682,0.465c3.289,0,6.371-2.044,7.537-5.32l1.333-3.746
		C155.021,474.414,152.848,469.839,148.685,468.357z"/>
	<path style="fill:#95868A;" d="M288.679,75.043c-4.162-1.482-8.737,0.692-10.219,4.855l-1.333,3.746
		c-1.481,4.163,0.692,8.738,4.855,10.219c0.887,0.315,1.791,0.465,2.682,0.465c3.289,0,6.371-2.044,7.537-5.32l1.333-3.746
		C295.016,81.1,292.842,76.525,288.679,75.043z"/>
	<path style="fill:#95868A;" d="M298.013,48.823c-4.163-1.48-8.738,0.691-10.22,4.855l-1.333,3.746
		c-1.481,4.163,0.692,8.738,4.854,10.219c0.887,0.315,1.792,0.465,2.683,0.465c3.289,0,6.371-2.044,7.537-5.32l1.333-3.746
		C304.349,54.879,302.175,50.304,298.013,48.823z"/>
	<path style="fill:#95868A;" d="M204.684,311.032c-4.161-1.481-8.738,0.692-10.22,4.855l-1.333,3.746
		c-1.481,4.163,0.692,8.738,4.854,10.219c0.887,0.315,1.792,0.465,2.683,0.465c3.289,0,6.371-2.044,7.537-5.32l1.333-3.746
		C211.02,317.089,208.846,312.514,204.684,311.032z"/>
	<path style="fill:#95868A;" d="M232.684,232.37c-4.161-1.482-8.738,0.69-10.22,4.853l-1.334,3.746
		c-1.482,4.162,0.69,8.738,4.853,10.22c0.887,0.316,1.793,0.465,2.684,0.465c3.288,0,6.37-2.043,7.536-5.318l1.334-3.746
		C239.019,238.428,236.846,233.852,232.684,232.37z"/>
	<path style="fill:#95868A;" d="M245.536,220.113l1.333-3.746c1.481-4.163-0.692-8.738-4.854-10.219s-8.738,0.692-10.22,4.855
		l-1.333,3.746c-1.481,4.163,0.692,8.738,4.854,10.219c0.887,0.315,1.792,0.465,2.683,0.465
		C241.288,225.433,244.37,223.389,245.536,220.113z"/>
	<path style="fill:#95868A;" d="M217.536,298.778l1.334-3.746c1.482-4.162-0.69-8.738-4.853-10.22
		c-4.162-1.484-8.738,0.69-10.22,4.853l-1.334,3.746c-1.482,4.162,0.69,8.738,4.853,10.22c0.887,0.316,1.793,0.465,2.684,0.465
		C213.288,304.096,216.37,302.053,217.536,298.778z"/>
	<path style="fill:#95868A;" d="M260.681,153.707c-4.164-1.48-8.738,0.691-10.22,4.855l-1.333,3.746
		c-1.481,4.163,0.692,8.738,4.854,10.219c0.887,0.315,1.792,0.465,2.683,0.465c3.289,0,6.371-2.044,7.537-5.32l1.333-3.746
		C267.017,159.763,264.843,155.188,260.681,153.707z"/>
	<path style="fill:#95868A;" d="M189.539,377.439l1.333-3.746c1.481-4.163-0.692-8.738-4.854-10.219
		c-4.162-1.482-8.738,0.692-10.22,4.855l-1.333,3.746c-1.481,4.162,0.692,8.738,4.854,10.219c0.887,0.315,1.792,0.465,2.683,0.465
		C185.291,382.759,188.373,380.715,189.539,377.439z"/>
	<path style="fill:#95868A;" d="M274.868,137.705c1.481-4.163-0.692-8.738-4.855-10.219c-4.162-1.48-8.737,0.692-10.219,4.855
		l-1.333,3.746c-1.481,4.163,0.692,8.738,4.855,10.219c0.887,0.315,1.791,0.465,2.682,0.465c3.289,0,6.371-2.044,7.537-5.32
		L274.868,137.705z"/>
	<path style="fill:#95868A;" d="M160.653,434.736c0.887,0.315,1.792,0.465,2.683,0.465c3.289,0,6.371-2.044,7.537-5.32l1.333-3.746
		c1.481-4.163-0.692-8.738-4.854-10.219s-8.738,0.692-10.22,4.855l-1.333,3.746C154.317,428.679,156.491,433.254,160.653,434.736z"
		/>
	<path style="fill:#95868A;" d="M244.65,198.748c0.887,0.315,1.791,0.465,2.682,0.465c3.289,0,6.371-2.044,7.537-5.32l1.333-3.746
		c1.481-4.163-0.692-8.738-4.855-10.219s-8.737,0.692-10.219,4.855l-1.333,3.746C238.313,192.691,240.487,197.266,244.65,198.748z"
		/>
	<path style="fill:#95868A;" d="M272.648,120.084c0.887,0.315,1.792,0.465,2.683,0.465c3.289,0,6.371-2.044,7.537-5.32l1.333-3.746
		c1.481-4.163-0.692-8.738-4.854-10.219c-4.163-1.481-8.738,0.692-10.22,4.855l-1.333,3.746
		C266.313,114.028,268.486,118.603,272.648,120.084z"/>
	<path style="fill:#95868A;" d="M216.649,277.409c0.887,0.316,1.792,0.466,2.684,0.466c3.288,0,6.37-2.043,7.536-5.318l1.334-3.746
		c1.482-4.162-0.689-8.738-4.853-10.22c-4.158-1.483-8.738,0.689-10.22,4.852l-1.334,3.746
		C210.314,271.351,212.486,275.927,216.649,277.409z"/>
	<path style="fill:#95868A;" d="M188.653,356.073c0.887,0.315,1.791,0.465,2.682,0.465c3.289,0,6.371-2.044,7.537-5.32l1.333-3.746
		c1.481-4.163-0.692-8.738-4.855-10.219c-4.163-1.482-8.737,0.692-10.219,4.855l-1.333,3.746
		C182.316,350.017,184.49,354.592,188.653,356.073z"/>
	<path style="fill:#95868A;" d="M176.684,389.695c-4.164-1.481-8.737,0.692-10.219,4.855l-1.333,3.746
		c-1.481,4.163,0.692,8.738,4.855,10.219c0.887,0.315,1.791,0.465,2.682,0.465c3.289,0,6.371-2.044,7.537-5.32l1.333-3.746
		C183.021,395.751,180.847,391.176,176.684,389.695z"/>
	<path style="fill:#95868A;" d="M161.54,456.102l1.333-3.746c1.481-4.163-0.692-8.738-4.855-10.219
		c-4.162-1.482-8.737,0.691-10.219,4.855l-1.333,3.746c-1.481,4.163,0.692,8.738,4.855,10.219c0.887,0.315,1.791,0.465,2.682,0.465
		C157.292,461.422,160.374,459.378,161.54,456.102z"/>
	<path style="fill:#95868A;" d="M331.171,40h4.195c4.418,0,8-3.582,8-8s-3.582-8-8-8h-4.195c-4.418,0-8,3.582-8,8
		S326.753,40,331.171,40z"/>
	<path style="fill:#95868A;" d="M448.635,40h4.195c4.418,0,8-3.582,8-8s-3.582-8-8-8h-4.195c-4.418,0-8,3.582-8,8
		S444.217,40,448.635,40z"/>
	<path style="fill:#95868A;" d="M419.269,40h4.195c4.418,0,8-3.582,8-8s-3.582-8-8-8h-4.195c-4.418,0-8,3.582-8,8
		S414.851,40,419.269,40z"/>
	<path style="fill:#95868A;" d="M360.537,40h4.195c4.418,0,8-3.582,8-8s-3.582-8-8-8h-4.195c-4.418,0-8,3.582-8,8
		S356.119,40,360.537,40z"/>
	<path style="fill:#95868A;" d="M389.903,40h4.194c4.418,0,8-3.582,8-8s-3.582-8-8-8h-4.194c-4.418,0-8,3.582-8,8
		S385.485,40,389.903,40z"/>
	<path style="fill:#95868A;" d="M474.013,48.822c-4.162-1.482-8.738,0.692-10.22,4.855l-1.333,3.746
		c-1.481,4.163,0.692,8.738,4.854,10.219c0.887,0.315,1.792,0.465,2.683,0.465c3.289,0,6.371-2.044,7.537-5.32l1.333-3.746
		C480.349,54.879,478.175,50.304,474.013,48.822z"/>
	<path style="fill:#95868A;" d="M418.015,206.148c-4.163-1.481-8.738,0.692-10.22,4.855l-1.333,3.746
		c-1.481,4.162,0.692,8.738,4.854,10.219c0.887,0.315,1.792,0.465,2.683,0.465c3.289,0,6.371-2.044,7.537-5.32l1.333-3.746
		C424.351,212.205,422.177,207.629,418.015,206.148z"/>
	<path style="fill:#95868A;" d="M436.681,153.706c-4.163-1.482-8.738,0.691-10.22,4.855l-1.333,3.746
		c-1.481,4.163,0.692,8.738,4.854,10.219c0.887,0.315,1.792,0.465,2.683,0.465c3.289,0,6.371-2.044,7.537-5.32l1.333-3.746
		C443.017,159.763,440.843,155.188,436.681,153.706z"/>
	<path style="fill:#95868A;" d="M427.347,179.927c-4.162-1.481-8.737,0.692-10.219,4.855l-1.333,3.746
		c-1.481,4.163,0.692,8.738,4.855,10.219c0.887,0.315,1.791,0.465,2.682,0.465c3.289,0,6.371-2.044,7.537-5.32l1.333-3.746
		C433.684,185.983,431.51,181.408,427.347,179.927z"/>
	<path style="fill:#95868A;" d="M408.681,232.369c-4.163-1.482-8.737,0.692-10.219,4.855l-1.333,3.746
		c-1.481,4.163,0.692,8.738,4.855,10.219c0.887,0.315,1.791,0.465,2.682,0.465c3.289,0,6.371-2.044,7.537-5.32l1.333-3.746
		C415.018,238.425,412.844,233.85,408.681,232.369z"/>
	<path style="fill:#95868A;" d="M455.347,101.264c-4.162-1.481-8.738,0.692-10.22,4.855l-1.333,3.746
		c-1.481,4.163,0.692,8.738,4.854,10.219c0.887,0.315,1.792,0.465,2.683,0.465c3.289,0,6.371-2.044,7.537-5.32l1.333-3.746
		C461.683,107.321,459.509,102.746,455.347,101.264z"/>
	<path style="fill:#95868A;" d="M464.679,75.043c-4.164-1.481-8.737,0.692-10.219,4.855l-1.333,3.746
		c-1.481,4.163,0.692,8.738,4.855,10.219c0.887,0.315,1.791,0.465,2.682,0.465c3.289,0,6.371-2.044,7.537-5.32l1.333-3.746
		C471.016,81.1,468.842,76.524,464.679,75.043z"/>
	<path style="fill:#95868A;" d="M446.013,127.485c-4.162-1.482-8.737,0.691-10.219,4.855l-1.333,3.746
		c-1.481,4.163,0.692,8.738,4.855,10.219c0.887,0.315,1.791,0.465,2.682,0.465c3.289,0,6.371-2.044,7.537-5.32l1.333-3.746
		C452.35,133.542,450.176,128.966,446.013,127.485z"/>
	<path style="fill:#95868A;" d="M399.351,258.591c-4.158-1.484-8.738,0.689-10.22,4.852l-1.334,3.746
		c-1.482,4.162,0.689,8.738,4.853,10.22c0.887,0.316,1.792,0.466,2.684,0.466c3.288,0,6.37-2.043,7.536-5.318l1.334-3.746
		C405.686,264.649,403.514,260.073,399.351,258.591z"/>
	<path style="fill:#95868A;" d="M343.352,415.916c-4.162-1.48-8.738,0.691-10.22,4.855l-1.333,3.746
		c-1.481,4.163,0.692,8.738,4.854,10.219c0.887,0.315,1.792,0.465,2.683,0.465c3.289,0,6.371-2.044,7.537-5.32l1.333-3.746
		C349.688,421.972,347.514,417.397,343.352,415.916z"/>
	<path style="fill:#95868A;" d="M334.019,442.136c-4.162-1.481-8.738,0.692-10.22,4.855l-1.333,3.746
		c-1.481,4.163,0.692,8.738,4.854,10.219c0.887,0.315,1.792,0.465,2.683,0.465c3.289,0,6.371-2.044,7.537-5.32l1.333-3.746
		C340.354,448.193,338.181,443.618,334.019,442.136z"/>
	<path style="fill:#95868A;" d="M352.684,389.694c-4.163-1.48-8.737,0.692-10.219,4.855l-1.333,3.746
		c-1.481,4.163,0.692,8.738,4.855,10.219c0.887,0.315,1.791,0.465,2.682,0.465c3.289,0,6.371-2.044,7.537-5.32l1.333-3.746
		C359.021,395.751,356.847,391.176,352.684,389.694z"/>
	<path style="fill:#95868A;" d="M324.686,468.357c-4.162-1.481-8.738,0.692-10.22,4.855l-1.333,3.746
		c-1.481,4.163,0.692,8.738,4.854,10.219c0.887,0.315,1.792,0.465,2.683,0.465c3.289,0,6.371-2.044,7.537-5.32l1.333-3.746
		C331.021,474.414,328.848,469.839,324.686,468.357z"/>
	<path style="fill:#95868A;" d="M362.018,363.474c-4.161-1.481-8.738,0.692-10.22,4.855l-1.333,3.746
		c-1.481,4.163,0.692,8.738,4.854,10.219c0.887,0.315,1.792,0.465,2.683,0.465c3.289,0,6.371-2.044,7.537-5.32l1.333-3.746
		C368.354,369.53,366.18,364.955,362.018,363.474z"/>
	<path style="fill:#95868A;" d="M380.685,311.033c-4.156-1.483-8.737,0.689-10.22,4.852l-1.334,3.746
		c-1.482,4.162,0.689,8.738,4.853,10.22c0.887,0.316,1.792,0.466,2.684,0.466c3.288,0,6.37-2.043,7.536-5.318l1.334-3.746
		C387.02,317.091,384.848,312.515,380.685,311.033z"/>
	<path style="fill:#95868A;" d="M371.35,337.252c-4.162-1.482-8.737,0.691-10.219,4.855l-1.333,3.746
		c-1.481,4.163,0.692,8.738,4.855,10.219c0.887,0.315,1.791,0.465,2.682,0.465c3.289,0,6.371-2.044,7.537-5.32l1.333-3.746
		C377.687,343.309,375.513,338.734,371.35,337.252z"/>
	<path style="fill:#95868A;" d="M390.018,284.811c-4.161-1.483-8.738,0.69-10.22,4.853l-1.334,3.746
		c-1.482,4.162,0.69,8.738,4.853,10.22c0.887,0.316,1.793,0.465,2.684,0.465c3.288,0,6.37-2.043,7.536-5.318l1.334-3.746
		C396.353,290.869,394.18,286.293,390.018,284.811z"/>
	<path style="fill:#95868A;" d="M504,24h-16V8c0-4.418-3.582-8-8-8s-8,3.582-8,8v18.721c-1.241,1.409-2,3.254-2,5.279
		c0,2.133,0.835,4.071,2.195,5.505c0.895,1.763,2.44,3.2,4.45,3.916c0.888,0.316,1.793,0.466,2.684,0.465
		c1.888,0,3.696-0.692,5.124-1.886H504c4.418,0,8-3.582,8-8S508.418,24,504,24z"/>
	<path style="fill:#95868A;" d="M280,40h18.183c0.712,0.599,1.534,1.09,2.463,1.421c0.888,0.316,1.793,0.465,2.684,0.465
		c2.22,0,4.346-0.931,5.851-2.543c2.836-1.23,4.82-4.055,4.82-7.343c0-2.026-0.759-3.87-2-5.279V8c0-4.418-3.582-8-8-8s-8,3.582-8,8
		v16h-16c-4.418,0-8,3.582-8,8S275.582,40,280,40z"/>
</g>
<path style="fill:#855FB8;" d="M184,24H8c-4.418,0-8,3.582-8,8v472c0,4.418,3.582,8,8,8h176c4.418,0,8-3.582,8-8V32
	C192,27.582,188.418,24,184,24z"/>
<path style="fill:#7B49AD;" d="M32,488c-4.418,0-8-3.582-8-8V24H8c-4.418,0-8,3.582-8,8v472c0,4.418,3.582,8,8,8h176
	c4.418,0,8-3.582,8-8v-16H32z"/>
<g>
</g>
<g>
</g>
<g>
</g>
<g>
</g>
<g>
</g>
<g>
</g>
<g>
</g>
<g>
</g>
<g>
</g>
<g>
</g>
<g>
</g>
<g>
</g>
<g>
</g>
<g>
</g>
<g>
</g>
</svg>
