<?xml version="1.0" encoding="iso-8859-1"?>
<!-- Generator: Adobe Illustrator 19.0.0, SVG Export Plug-In . SVG Version: 6.00 Build 0)  -->
<svg version="1.1" id="Capa_1" xmlns="http://www.w3.org/2000/svg" xmlns:xlink="http://www.w3.org/1999/xlink" x="0px" y="0px"
	 viewBox="0 0 512 512" style="enable-background:new 0 0 512 512;" xml:space="preserve">
<path style="fill:#55D3FA;" d="M400,0H80c-4.418,0-8,3.582-8,8v448c0,4.418,3.582,8,8,8h320c22.056,0,40-17.944,40-40V40
	C440,17.944,422.056,0,400,0z"/>
<path style="fill:#DCD7D8;" d="M384,0H80c-4.418,0-8,3.582-8,8v208c0,4.418,3.582,8,8,8h304c4.418,0,8-3.582,8-8V8
	C392,3.582,388.418,0,384,0z"/>
<path style="fill:#AAE9FC;" d="M400,72H80c-4.418,0-8,3.582-8,8v424c0,4.418,3.582,8,8,8h320c22.056,0,40-17.944,40-40V112
	C440,89.944,422.056,72,400,72z"/>
<path style="fill:#55D3FA;" d="M400,482H80c-4.418,0-8-3.582-8-8v30c0,4.418,3.582,8,8,8h320c22.056,0,40-17.944,40-40v-30
	C440,464.056,422.056,482,400,482z"/>
<path style="fill:#F74FA4;" d="M280,72h-96v151.766c0,3.312,1.897,6.393,4.999,7.648c2.946,1.193,6.41,0.491,8.658-1.758
	L232,195.313l34.343,34.343c2.4,2.4,6.148,3.014,9.193,1.518c2.802-1.377,4.464-4.354,4.464-7.441L280,72L280,72z"/>
<g>
	<rect x="72" y="16" style="fill:#A79A9E;" width="320" height="16"/>
	<rect x="72" y="40" style="fill:#A79A9E;" width="320" height="16"/>
</g>
<path style="fill:#56C4F0;" d="M142,72H80c-4.418,0-8,3.582-8,8v424c0,4.418,3.582,8,8,8h62V72z"/>
<path style="fill:#3AB7DD;" d="M72,474v30c0,4.418,3.582,8,8,8h62v-30H80C75.582,482,72,478.418,72,474z"/>
<path style="fill:#55D3FA;" d="M344,304c-2.714,0-5.394,0.271-8.006,0.802c0.004-0.267,0.006-0.534,0.006-0.802
	c0-26.467-21.533-48-48-48s-48,21.533-48,48c0,0.268,0.002,0.535,0.006,0.802C237.394,304.271,234.714,304,232,304
	c-22.056,0-40,17.944-40,40s17.944,40,40,40h112c22.056,0,40-17.944,40-40S366.056,304,344,304z"/>
<g>
	<path style="fill:#D4F4FE;" d="M257,352h-1c-4.418,0-8-3.582-8-8s3.582-8,8-8h1c4.418,0,8,3.582,8,8S261.418,352,257,352z"/>
	<path style="fill:#D4F4FE;" d="M289,352h-1c-4.418,0-8-3.582-8-8s3.582-8,8-8h1c4.418,0,8,3.582,8,8S293.418,352,289,352z"/>
	<path style="fill:#D4F4FE;" d="M321,352h-1c-4.418,0-8-3.582-8-8s3.582-8,8-8h1c4.418,0,8,3.582,8,8S325.418,352,321,352z"/>
</g>
<g>
</g>
<g>
</g>
<g>
</g>
<g>
</g>
<g>
</g>
<g>
</g>
<g>
</g>
<g>
</g>
<g>
</g>
<g>
</g>
<g>
</g>
<g>
</g>
<g>
</g>
<g>
</g>
<g>
</g>
</svg>
