<?xml version="1.0" encoding="iso-8859-1"?>
<!-- Generator: Adobe Illustrator 19.0.0, SVG Export Plug-In . SVG Version: 6.00 Build 0)  -->
<svg version="1.1" id="Capa_1" xmlns="http://www.w3.org/2000/svg" xmlns:xlink="http://www.w3.org/1999/xlink" x="0px" y="0px"
	 viewBox="0 0 511.999 511.999" style="enable-background:new 0 0 511.999 511.999;" xml:space="preserve">
<path style="fill:#F74FA4;" d="M457.326,225.169l-10.258,10.312c-4.723-52.063-27.306-100.445-64.665-137.806
	c-42.308-42.309-98.562-65.61-158.397-65.61S107.919,55.366,65.61,97.675S0,196.237,0,256.072s23.301,116.087,65.61,158.397
	c40.341,40.341,93.358,63.401,150.07,65.46c4.543,0.165,8.326-3.453,8.326-7.999v-48.047c0-4.26-3.34-7.783-7.596-7.983
	c-84.714-3.978-152.408-74.146-152.408-159.827c0-88.227,71.778-160.005,160.005-160.005c80.074,0,147.13,59.803,158.344,137.087
	l-7.712-7.711c-12.477-12.476-32.777-12.475-45.256,0c-12.476,12.477-12.476,32.779,0,45.256l64.003,64.002
	c9.062,9.061,23.4,11.719,35.181,6.775c3.782-1.587,7.241-3.927,10.133-6.835l64.002-64.335
	c12.443-12.509,12.391-32.812-0.118-45.256C490.073,212.608,469.773,212.662,457.326,225.169z"/>
<g>
	<path style="fill:#F2387F;" d="M215.68,456.073c-56.713-2.058-109.729-25.119-150.07-65.46
		C26.125,351.128,3.203,299.496,0.318,244.144C0.112,248.103,0,252.079,0,256.072c0,59.835,23.301,116.087,65.61,158.397
		c40.341,40.341,93.358,63.401,150.07,65.46c4.543,0.165,8.326-3.453,8.326-7.999v-23.855
		C224.007,452.62,220.223,456.237,215.68,456.073z"/>
	<path style="fill:#F2387F;" d="M374.238,201.207c0.133,0.128,0.269,0.249,0.4,0.38l7.712,7.711
		c-11.213-77.284-78.269-137.087-158.344-137.087c-88.227,0-160.005,71.778-160.005,160.005c0,4.021,0.149,8.009,0.442,11.957
		c6.108-82.691,75.338-148.106,159.563-148.106C292.635,96.067,351.694,139.996,374.238,201.207z"/>
	<path style="fill:#F2387F;" d="M502.702,246.452L438.7,310.786c-2.892,2.907-6.351,5.248-10.133,6.835
		c-11.782,4.944-26.12,2.286-35.181-6.775l-64.003-64.002c-3.151-3.151-5.503-6.803-7.063-10.7
		c-4.614,11.533-2.262,25.23,7.063,34.556l64.003,64.002c9.062,9.061,23.4,11.719,35.181,6.775
		c3.782-1.587,7.241-3.927,10.133-6.835l64.002-64.335c9.278-9.328,11.605-22.987,7.004-34.492
		C508.156,239.686,505.822,243.314,502.702,246.452z"/>
	<path style="fill:#F2387F;" d="M279.908,472.72c-3.532,0-6.765-2.357-7.723-5.931l-12.424-46.366
		c-1.144-4.268,1.39-8.655,5.657-9.798s8.654,1.389,9.798,5.657l12.424,46.366C288.981,467.65,285.094,472.72,279.908,472.72z"/>
	<path style="fill:#F2387F;" d="M332.018,451.141c-2.766,0-5.454-1.435-6.936-4.001l-24.001-41.57
		c-2.21-3.826-0.898-8.719,2.928-10.928c3.828-2.208,8.72-0.897,10.928,2.928l24.001,41.57
		C341.954,444.361,338.084,451.141,332.018,451.141z"/>
	<path style="fill:#F2387F;" d="M376.746,416.812c-2.048,0-4.095-0.781-5.657-2.343l-33.942-33.942
		c-3.124-3.124-3.124-8.189,0-11.313c3.125-3.124,8.189-3.124,11.314,0l33.942,33.942
		C387.329,408.08,383.741,416.812,376.746,416.812z"/>
</g>
<path style="fill:#725E63;" d="M272.008,248.072h-17.013c-2.901-11.229-11.759-20.088-22.988-22.988V208.07c0-4.418-3.582-8-8-8
	c-4.418,0-8,3.582-8,8v17.014c-11.229,2.901-20.088,11.759-22.988,22.988h-17.014c-4.418,0-8,3.582-8,8c0,4.418,3.582,8,8,8h17.014
	c2.901,11.229,11.759,20.088,22.988,22.988v17.013c0,4.418,3.582,8,8,8c4.418,0,8-3.582,8-8V287.06
	c11.229-2.901,20.088-11.759,22.988-22.988h17.013c4.418,0,8-3.582,8-8C280.008,251.654,276.426,248.072,272.008,248.072z
	 M224.007,272.072c-8.822,0-16-7.178-16-16c0-8.822,7.178-16,16-16c8.822,0,16,7.178,16,16
	C240.007,264.894,232.829,272.072,224.007,272.072z"/>
<g>
</g>
<g>
</g>
<g>
</g>
<g>
</g>
<g>
</g>
<g>
</g>
<g>
</g>
<g>
</g>
<g>
</g>
<g>
</g>
<g>
</g>
<g>
</g>
<g>
</g>
<g>
</g>
<g>
</g>
</svg>
