<?xml version="1.0" encoding="iso-8859-1"?>
<!-- Generator: Adobe Illustrator 19.0.0, SVG Export Plug-In . SVG Version: 6.00 Build 0)  -->
<svg version="1.1" id="Capa_1" xmlns="http://www.w3.org/2000/svg" xmlns:xlink="http://www.w3.org/1999/xlink" x="0px" y="0px"
	 viewBox="0 0 512.001 512.001" style="enable-background:new 0 0 512.001 512.001;" xml:space="preserve">
<path style="fill:#A79A9E;" d="M87.983,476.009c-60.254,0-86.088-50.284-87.158-52.424c-1.949-3.898-0.322-8.784,3.577-10.733
	c3.892-1.946,8.768-0.327,10.725,3.56c0.915,1.804,22.697,43.598,72.857,43.598c66.562,0,118.246-32.534,168.23-63.998
	c49.989-31.468,101.682-64.006,167.782-64.006c36.679,0,58.651,18.97,70.625,34.883c12.769,16.971,16.98,33.904,17.152,34.617
	c1.042,4.293-1.594,8.619-5.888,9.661c-4.293,1.041-8.619-1.593-9.661-5.887c-0.031-0.128-3.768-14.852-14.721-29.209
	c-14.205-18.623-33.554-28.065-57.508-28.065c-61.484,0-108.978,29.896-159.259,61.547
	C212.833,442.224,159.162,476.009,87.983,476.009z"/>
<path style="fill:#55D3FA;" d="M327.804,328.086c-0.777-3.511-3.801-6.072-7.392-6.261l-44.223-2.323l-96.165-181.185l42.554-22.586
	l27.622,2.772c6.23,0.623,10.806-6.168,7.865-11.71l-35.321-66.549c-2.072-3.902-6.914-5.387-10.817-3.316L4.885,146.815
	c-3.902,2.071-5.387,6.914-3.315,10.817l35.321,66.549c2.94,5.54,11.129,5.568,14.106,0.048l13.183-24.431l42.555-22.586
	L202.902,358.4l-22.86,37.926c-1.749,2.902-1.447,6.698,0.738,9.287c2.401,2.844,6.572,3.657,9.865,1.91l133.099-70.642
	C326.919,335.194,328.58,331.597,327.804,328.086z"/>
<path style="fill:#56C4F0;" d="M196.042,396.326l22.86-37.926L110.538,159.413l-56.556,31.586L40.799,215.43
	c-1.367,2.534-3.834,3.884-6.386,4.083l2.478,4.669c2.94,5.54,11.129,5.568,14.106,0.048l13.183-24.431l42.555-22.586L202.901,358.4
	l-22.86,37.926c-1.749,2.902-1.448,6.698,0.738,9.287c2.401,2.844,6.572,3.657,9.865,1.91l5.438-2.886
	C194.556,402.129,194.501,398.882,196.042,396.326z"/>
<g>
</g>
<g>
</g>
<g>
</g>
<g>
</g>
<g>
</g>
<g>
</g>
<g>
</g>
<g>
</g>
<g>
</g>
<g>
</g>
<g>
</g>
<g>
</g>
<g>
</g>
<g>
</g>
<g>
</g>
</svg>
