<?xml version="1.0" encoding="iso-8859-1"?>
<!-- Generator: Adobe Illustrator 19.0.0, SVG Export Plug-In . SVG Version: 6.00 Build 0)  -->
<svg version="1.1" id="Capa_1" xmlns="http://www.w3.org/2000/svg" xmlns:xlink="http://www.w3.org/1999/xlink" x="0px" y="0px"
	 viewBox="0 0 512 512" style="enable-background:new 0 0 512 512;" xml:space="preserve">
<rect x="48" y="48" style="fill:#EDEBEC;" width="416" height="416"/>
<path style="fill:#95868A;" d="M464,472h-8c-4.418,0-8-3.582-8-8s3.582-8,8-8h8c4.418,0,8,3.582,8,8S468.418,472,464,472z M432,472
	h-8c-4.418,0-8-3.582-8-8s3.582-8,8-8h8c4.418,0,8,3.582,8,8S436.418,472,432,472z M400,472h-8c-4.418,0-8-3.582-8-8s3.582-8,8-8h8
	c4.418,0,8,3.582,8,8S404.418,472,400,472z M368,472h-8c-4.418,0-8-3.582-8-8s3.582-8,8-8h8c4.418,0,8,3.582,8,8
	S372.418,472,368,472z M336,472h-8c-4.418,0-8-3.582-8-8s3.582-8,8-8h8c4.418,0,8,3.582,8,8S340.418,472,336,472z M304,472h-8
	c-4.418,0-8-3.582-8-8s3.582-8,8-8h8c4.418,0,8,3.582,8,8S308.418,472,304,472z M272,472h-8c-4.418,0-8-3.582-8-8s3.582-8,8-8h8
	c4.418,0,8,3.582,8,8S276.418,472,272,472z M240,472h-8c-4.418,0-8-3.582-8-8s3.582-8,8-8h8c4.418,0,8,3.582,8,8
	S244.418,472,240,472z M208,472h-8c-4.418,0-8-3.582-8-8s3.582-8,8-8h8c4.418,0,8,3.582,8,8S212.418,472,208,472z M176,472h-8
	c-4.418,0-8-3.582-8-8s3.582-8,8-8h8c4.418,0,8,3.582,8,8S180.418,472,176,472z M144,472h-8c-4.418,0-8-3.582-8-8s3.582-8,8-8h8
	c4.418,0,8,3.582,8,8S148.418,472,144,472z M112,472h-8c-4.418,0-8-3.582-8-8s3.582-8,8-8h8c4.418,0,8,3.582,8,8
	S116.418,472,112,472z M80,472h-8c-4.418,0-8-3.582-8-8s3.582-8,8-8h8c4.418,0,8,3.582,8,8S84.418,472,80,472z M48,472
	c-4.418,0-8-3.582-8-8v-8c0-4.418,3.582-8,8-8s8,3.582,8,8v8C56,468.418,52.418,472,48,472z M464,448c-4.418,0-8-3.582-8-8v-8
	c0-4.418,3.582-8,8-8s8,3.582,8,8v8C472,444.418,468.418,448,464,448z M48,440c-4.418,0-8-3.582-8-8v-8c0-4.418,3.582-8,8-8
	s8,3.582,8,8v8C56,436.418,52.418,440,48,440z M464,416c-4.418,0-8-3.582-8-8v-8c0-4.418,3.582-8,8-8s8,3.582,8,8v8
	C472,412.418,468.418,416,464,416z M48,408c-4.418,0-8-3.582-8-8v-8c0-4.418,3.582-8,8-8s8,3.582,8,8v8
	C56,404.418,52.418,408,48,408z M464,384c-4.418,0-8-3.582-8-8v-8c0-4.418,3.582-8,8-8s8,3.582,8,8v8
	C472,380.418,468.418,384,464,384z M48,376c-4.418,0-8-3.582-8-8v-8c0-4.418,3.582-8,8-8s8,3.582,8,8v8
	C56,372.418,52.418,376,48,376z M464,352c-4.418,0-8-3.582-8-8v-8c0-4.418,3.582-8,8-8s8,3.582,8,8v8
	C472,348.418,468.418,352,464,352z M48,344c-4.418,0-8-3.582-8-8v-8c0-4.418,3.582-8,8-8s8,3.582,8,8v8
	C56,340.418,52.418,344,48,344z M464,320c-4.418,0-8-3.582-8-8v-8c0-4.418,3.582-8,8-8s8,3.582,8,8v8
	C472,316.418,468.418,320,464,320z M48,312c-4.418,0-8-3.582-8-8v-8c0-4.418,3.582-8,8-8s8,3.582,8,8v8
	C56,308.418,52.418,312,48,312z M464,288c-4.418,0-8-3.582-8-8v-8c0-4.418,3.582-8,8-8s8,3.582,8,8v8
	C472,284.418,468.418,288,464,288z M48,280c-4.418,0-8-3.582-8-8v-8c0-4.418,3.582-8,8-8s8,3.582,8,8v8
	C56,276.418,52.418,280,48,280z M464,256c-4.418,0-8-3.582-8-8v-8c0-4.418,3.582-8,8-8s8,3.582,8,8v8
	C472,252.418,468.418,256,464,256z M48,248c-4.418,0-8-3.582-8-8v-8c0-4.418,3.582-8,8-8s8,3.582,8,8v8
	C56,244.418,52.418,248,48,248z M464,224c-4.418,0-8-3.582-8-8v-8c0-4.418,3.582-8,8-8s8,3.582,8,8v8
	C472,220.418,468.418,224,464,224z M48,216c-4.418,0-8-3.582-8-8v-8c0-4.418,3.582-8,8-8s8,3.582,8,8v8
	C56,212.418,52.418,216,48,216z M464,192c-4.418,0-8-3.582-8-8v-8c0-4.418,3.582-8,8-8s8,3.582,8,8v8
	C472,188.418,468.418,192,464,192z M48,184c-4.418,0-8-3.582-8-8v-8c0-4.418,3.582-8,8-8s8,3.582,8,8v8
	C56,180.418,52.418,184,48,184z M464,160c-4.418,0-8-3.582-8-8v-8c0-4.418,3.582-8,8-8s8,3.582,8,8v8
	C472,156.418,468.418,160,464,160z M48,152c-4.418,0-8-3.582-8-8v-8c0-4.418,3.582-8,8-8s8,3.582,8,8v8
	C56,148.418,52.418,152,48,152z M464,128c-4.418,0-8-3.582-8-8v-8c0-4.418,3.582-8,8-8s8,3.582,8,8v8
	C472,124.418,468.418,128,464,128z M48,120c-4.418,0-8-3.582-8-8v-8c0-4.418,3.582-8,8-8s8,3.582,8,8v8
	C56,116.418,52.418,120,48,120z M464,96c-4.418,0-8-3.582-8-8v-8c0-4.418,3.582-8,8-8s8,3.582,8,8v8C472,92.418,468.418,96,464,96z
	 M48,88c-4.418,0-8-3.582-8-8v-8c0-4.418,3.582-8,8-8s8,3.582,8,8v8C56,84.418,52.418,88,48,88z M464,64c-4.418,0-8-3.582-8-8v-8
	c0-4.418,3.582-8,8-8s8,3.582,8,8v8C472,60.418,468.418,64,464,64z M440,56h-8c-4.418,0-8-3.582-8-8s3.582-8,8-8h8
	c4.418,0,8,3.582,8,8S444.418,56,440,56z M408,56h-8c-4.418,0-8-3.582-8-8s3.582-8,8-8h8c4.418,0,8,3.582,8,8S412.418,56,408,56z
	 M376,56h-8c-4.418,0-8-3.582-8-8s3.582-8,8-8h8c4.418,0,8,3.582,8,8S380.418,56,376,56z M344,56h-8c-4.418,0-8-3.582-8-8
	s3.582-8,8-8h8c4.418,0,8,3.582,8,8S348.418,56,344,56z M312,56h-8c-4.418,0-8-3.582-8-8s3.582-8,8-8h8c4.418,0,8,3.582,8,8
	S316.418,56,312,56z M280,56h-8c-4.418,0-8-3.582-8-8s3.582-8,8-8h8c4.418,0,8,3.582,8,8S284.418,56,280,56z M248,56h-8
	c-4.418,0-8-3.582-8-8s3.582-8,8-8h8c4.418,0,8,3.582,8,8S252.418,56,248,56z M216,56h-8c-4.418,0-8-3.582-8-8s3.582-8,8-8h8
	c4.418,0,8,3.582,8,8S220.418,56,216,56z M184,56h-8c-4.418,0-8-3.582-8-8s3.582-8,8-8h8c4.418,0,8,3.582,8,8S188.418,56,184,56z
	 M152,56h-8c-4.418,0-8-3.582-8-8s3.582-8,8-8h8c4.418,0,8,3.582,8,8S156.418,56,152,56z M120,56h-8c-4.418,0-8-3.582-8-8
	s3.582-8,8-8h8c4.418,0,8,3.582,8,8S124.418,56,120,56z M88,56h-8c-4.418,0-8-3.582-8-8s3.582-8,8-8h8c4.418,0,8,3.582,8,8
	S92.418,56,88,56z M56,56h-8c-4.418,0-8-3.582-8-8s3.582-8,8-8h8c4.418,0,8,3.582,8,8S60.418,56,56,56z"/>
<polygon style="fill:#DCD7D8;" points="72,440 72,48 48,48 48,464 464,464 464,440 "/>
<g>
	<path style="fill:#95868A;" d="M48,320c-4.418,0-8,3.582-8,8v8c0,4.418,3.582,8,8,8s8-3.582,8-8v-8C56,323.582,52.418,320,48,320z"
		/>
	<path style="fill:#95868A;" d="M48,288c-4.418,0-8,3.582-8,8v8c0,4.418,3.582,8,8,8s8-3.582,8-8v-8C56,291.582,52.418,288,48,288z"
		/>
	<path style="fill:#95868A;" d="M48,384c-4.418,0-8,3.582-8,8v8c0,4.418,3.582,8,8,8s8-3.582,8-8v-8C56,387.582,52.418,384,48,384z"
		/>
	<path style="fill:#95868A;" d="M48,352c-4.418,0-8,3.582-8,8v8c0,4.418,3.582,8,8,8s8-3.582,8-8v-8C56,355.582,52.418,352,48,352z"
		/>
	<path style="fill:#95868A;" d="M48,416c-4.418,0-8,3.582-8,8v8c0,4.418,3.582,8,8,8s8-3.582,8-8v-8C56,419.582,52.418,416,48,416z"
		/>
	<path style="fill:#95868A;" d="M48,256c-4.418,0-8,3.582-8,8v8c0,4.418,3.582,8,8,8s8-3.582,8-8v-8C56,259.582,52.418,256,48,256z"
		/>
	<path style="fill:#95868A;" d="M48,96c-4.418,0-8,3.582-8,8v8c0,4.418,3.582,8,8,8s8-3.582,8-8v-8C56,99.582,52.418,96,48,96z"/>
	<path style="fill:#95868A;" d="M48,224c-4.418,0-8,3.582-8,8v8c0,4.418,3.582,8,8,8s8-3.582,8-8v-8C56,227.582,52.418,224,48,224z"
		/>
	<path style="fill:#95868A;" d="M48,448c-4.418,0-8,3.582-8,8H8c-4.418,0-8,3.582-8,8s3.582,8,8,8h32v32c0,4.418,3.582,8,8,8
		s8-3.582,8-8v-48C56,451.582,52.418,448,48,448z"/>
	<path style="fill:#95868A;" d="M48,128c-4.418,0-8,3.582-8,8v8c0,4.418,3.582,8,8,8s8-3.582,8-8v-8C56,131.582,52.418,128,48,128z"
		/>
	<path style="fill:#95868A;" d="M48,160c-4.418,0-8,3.582-8,8v8c0,4.418,3.582,8,8,8s8-3.582,8-8v-8C56,163.582,52.418,160,48,160z"
		/>
	<path style="fill:#95868A;" d="M48,192c-4.418,0-8,3.582-8,8v8c0,4.418,3.582,8,8,8s8-3.582,8-8v-8C56,195.582,52.418,192,48,192z"
		/>
	<path style="fill:#95868A;" d="M464,256c4.418,0,8-3.582,8-8v-8c0-4.418-3.582-8-8-8s-8,3.582-8,8v8
		C456,252.418,459.582,256,464,256z"/>
	<path style="fill:#95868A;" d="M464,224c4.418,0,8-3.582,8-8v-8c0-4.418-3.582-8-8-8s-8,3.582-8,8v8
		C456,220.418,459.582,224,464,224z"/>
	<path style="fill:#95868A;" d="M464,128c4.418,0,8-3.582,8-8v-8c0-4.418-3.582-8-8-8s-8,3.582-8,8v8
		C456,124.418,459.582,128,464,128z"/>
	<path style="fill:#95868A;" d="M464,192c4.418,0,8-3.582,8-8v-8c0-4.418-3.582-8-8-8s-8,3.582-8,8v8
		C456,188.418,459.582,192,464,192z"/>
	<path style="fill:#95868A;" d="M464,160c4.418,0,8-3.582,8-8v-8c0-4.418-3.582-8-8-8s-8,3.582-8,8v8
		C456,156.418,459.582,160,464,160z"/>
	<path style="fill:#95868A;" d="M464,64c4.418,0,8-3.582,8-8h32c4.418,0,8-3.582,8-8s-3.582-8-8-8h-32V8c0-4.418-3.582-8-8-8
		s-8,3.582-8,8v48C456,60.418,459.582,64,464,64z"/>
	<path style="fill:#95868A;" d="M464,96c4.418,0,8-3.582,8-8v-8c0-4.418-3.582-8-8-8s-8,3.582-8,8v8C456,92.418,459.582,96,464,96z"
		/>
	<path style="fill:#95868A;" d="M464,320c4.418,0,8-3.582,8-8v-8c0-4.418-3.582-8-8-8s-8,3.582-8,8v8
		C456,316.418,459.582,320,464,320z"/>
	<path style="fill:#95868A;" d="M464,384c4.418,0,8-3.582,8-8v-8c0-4.418-3.582-8-8-8s-8,3.582-8,8v8
		C456,380.418,459.582,384,464,384z"/>
	<path style="fill:#95868A;" d="M464,352c4.418,0,8-3.582,8-8v-8c0-4.418-3.582-8-8-8s-8,3.582-8,8v8
		C456,348.418,459.582,352,464,352z"/>
	<path style="fill:#95868A;" d="M464,416c4.418,0,8-3.582,8-8v-8c0-4.418-3.582-8-8-8s-8,3.582-8,8v8
		C456,412.418,459.582,416,464,416z"/>
	<path style="fill:#95868A;" d="M464,448c4.418,0,8-3.582,8-8v-8c0-4.418-3.582-8-8-8s-8,3.582-8,8v8
		C456,444.418,459.582,448,464,448z"/>
	<path style="fill:#95868A;" d="M48,64c-4.418,0-8,3.582-8,8v8c0,4.418,3.582,8,8,8s8-3.582,8-8v-8C56,67.582,52.418,64,48,64z"/>
	<path style="fill:#95868A;" d="M464,288c4.418,0,8-3.582,8-8v-8c0-4.418-3.582-8-8-8s-8,3.582-8,8v8
		C456,284.418,459.582,288,464,288z"/>
	<path style="fill:#95868A;" d="M120,40h-8c-4.418,0-8,3.582-8,8s3.582,8,8,8h8c4.418,0,8-3.582,8-8S124.418,40,120,40z"/>
	<path style="fill:#95868A;" d="M336,456h-8c-4.418,0-8,3.582-8,8s3.582,8,8,8h8c4.418,0,8-3.582,8-8S340.418,456,336,456z"/>
	<path style="fill:#95868A;" d="M344,40h-8c-4.418,0-8,3.582-8,8s3.582,8,8,8h8c4.418,0,8-3.582,8-8S348.418,40,344,40z"/>
	<path style="fill:#95868A;" d="M312,40h-8c-4.418,0-8,3.582-8,8s3.582,8,8,8h8c4.418,0,8-3.582,8-8S316.418,40,312,40z"/>
	<path style="fill:#95868A;" d="M272,456h-8c-4.418,0-8,3.582-8,8s3.582,8,8,8h8c4.418,0,8-3.582,8-8S276.418,456,272,456z"/>
	<path style="fill:#95868A;" d="M304,456h-8c-4.418,0-8,3.582-8,8s3.582,8,8,8h8c4.418,0,8-3.582,8-8S308.418,456,304,456z"/>
	<path style="fill:#95868A;" d="M368,456h-8c-4.418,0-8,3.582-8,8s3.582,8,8,8h8c4.418,0,8-3.582,8-8S372.418,456,368,456z"/>
	<path style="fill:#95868A;" d="M280,40h-8c-4.418,0-8,3.582-8,8s3.582,8,8,8h8c4.418,0,8-3.582,8-8S284.418,40,280,40z"/>
	<path style="fill:#95868A;" d="M440,40h-8c-4.418,0-8,3.582-8,8s3.582,8,8,8h8c4.418,0,8-3.582,8-8S444.418,40,440,40z"/>
	<path style="fill:#95868A;" d="M432,456h-8c-4.418,0-8,3.582-8,8s3.582,8,8,8h8c4.418,0,8-3.582,8-8S436.418,456,432,456z"/>
	<path style="fill:#95868A;" d="M408,40h-8c-4.418,0-8,3.582-8,8s3.582,8,8,8h8c4.418,0,8-3.582,8-8S412.418,40,408,40z"/>
	<path style="fill:#95868A;" d="M400,456h-8c-4.418,0-8,3.582-8,8s3.582,8,8,8h8c4.418,0,8-3.582,8-8S404.418,456,400,456z"/>
	<path style="fill:#95868A;" d="M376,40h-8c-4.418,0-8,3.582-8,8s3.582,8,8,8h8c4.418,0,8-3.582,8-8S380.418,40,376,40z"/>
	<path style="fill:#95868A;" d="M144,456h-8c-4.418,0-8,3.582-8,8s3.582,8,8,8h8c4.418,0,8-3.582,8-8S148.418,456,144,456z"/>
	<path style="fill:#95868A;" d="M112,456h-8c-4.418,0-8,3.582-8,8s3.582,8,8,8h8c4.418,0,8-3.582,8-8S116.418,456,112,456z"/>
	<path style="fill:#95868A;" d="M56,40V8c0-4.418-3.582-8-8-8s-8,3.582-8,8v32H8c-4.418,0-8,3.582-8,8s3.582,8,8,8h48
		c4.418,0,8-3.582,8-8S60.418,40,56,40z"/>
	<path style="fill:#95868A;" d="M152,40h-8c-4.418,0-8,3.582-8,8s3.582,8,8,8h8c4.418,0,8-3.582,8-8S156.418,40,152,40z"/>
	<path style="fill:#95868A;" d="M80,456h-8c-4.418,0-8,3.582-8,8s3.582,8,8,8h8c4.418,0,8-3.582,8-8S84.418,456,80,456z"/>
	<path style="fill:#95868A;" d="M88,40h-8c-4.418,0-8,3.582-8,8s3.582,8,8,8h8c4.418,0,8-3.582,8-8S92.418,40,88,40z"/>
	<path style="fill:#95868A;" d="M216,40h-8c-4.418,0-8,3.582-8,8s3.582,8,8,8h8c4.418,0,8-3.582,8-8S220.418,40,216,40z"/>
	<path style="fill:#95868A;" d="M248,40h-8c-4.418,0-8,3.582-8,8s3.582,8,8,8h8c4.418,0,8-3.582,8-8S252.418,40,248,40z"/>
	<path style="fill:#95868A;" d="M240,456h-8c-4.418,0-8,3.582-8,8s3.582,8,8,8h8c4.418,0,8-3.582,8-8S244.418,456,240,456z"/>
	<path style="fill:#95868A;" d="M208,456h-8c-4.418,0-8,3.582-8,8s3.582,8,8,8h8c4.418,0,8-3.582,8-8S212.418,456,208,456z"/>
	<path style="fill:#95868A;" d="M176,456h-8c-4.418,0-8,3.582-8,8s3.582,8,8,8h8c4.418,0,8-3.582,8-8S180.418,456,176,456z"/>
	<path style="fill:#95868A;" d="M184,40h-8c-4.418,0-8,3.582-8,8s3.582,8,8,8h8c4.418,0,8-3.582,8-8S188.418,40,184,40z"/>
	<path style="fill:#95868A;" d="M504,456h-48c-4.418,0-8,3.582-8,8s3.582,8,8,8v32c0,4.418,3.582,8,8,8s8-3.582,8-8v-32h32
		c4.418,0,8-3.582,8-8S508.418,456,504,456z"/>
</g>
<path style="fill:#55D3FA;" d="M368,104H144c-4.418,0-8,3.582-8,8v72c0,6.257,7.215,10.141,12.438,6.656L170.423,176H216v195.471
	l-36.116,21.669c-3.093,1.856-4.577,5.673-3.554,9.131c0.994,3.359,4.166,5.729,7.67,5.729h144c3.476,0,6.683-2.396,7.67-5.729
	c1.015-3.43-0.486-7.29-3.554-9.131L296,371.471V176h45.578l21.984,14.656C368.785,194.138,376,190.258,376,184v-72
	C376,107.582,372.418,104,368,104z"/>
<path style="fill:#56C4F0;" d="M192.33,402.271c-1.023-3.458,0.461-7.275,3.554-9.131L232,371.471V160.032h-77.577L136,172.314V184
	c0,6.257,7.215,10.141,12.438,6.656L170.423,176H216v195.471l-36.116,21.669c-3.093,1.856-4.577,5.673-3.554,9.131
	c0.994,3.359,4.166,5.729,7.67,5.729h16C196.496,408,193.324,405.63,192.33,402.271z"/>
<g>
</g>
<g>
</g>
<g>
</g>
<g>
</g>
<g>
</g>
<g>
</g>
<g>
</g>
<g>
</g>
<g>
</g>
<g>
</g>
<g>
</g>
<g>
</g>
<g>
</g>
<g>
</g>
<g>
</g>
</svg>
