<?xml version="1.0" encoding="iso-8859-1"?>
<!-- Generator: Adobe Illustrator 19.0.0, SVG Export Plug-In . SVG Version: 6.00 Build 0)  -->
<svg version="1.1" id="Capa_1" xmlns="http://www.w3.org/2000/svg" xmlns:xlink="http://www.w3.org/1999/xlink" x="0px" y="0px"
	 viewBox="0 0 512 512" style="enable-background:new 0 0 512 512;" xml:space="preserve">
<path style="fill:#55D3FA;" d="M456,0H56c-4.418,0-8,3.582-8,8v120c0,6.565,7.854,10.36,12.998,6.247L98.806,104H200v332.687
	l-61.657,61.657C133.404,503.283,137.037,512,144,512h224c6.963,0,10.597-8.717,5.657-13.657L312,436.687V104h101.194l37.809,30.247
	C456.144,138.361,464,134.565,464,128V8C464,3.582,460.418,0,456,0z"/>
<path style="fill:#56C4F0;" d="M154.343,498.343L216,436.687V88H82.806L48,115.845V128c0,6.565,7.854,10.36,12.998,6.247L98.806,104
	H200v332.687l-61.657,61.657C133.404,503.283,137.037,512,144,512h16C153.037,512,149.404,503.283,154.343,498.343z"/>
<g>
</g>
<g>
</g>
<g>
</g>
<g>
</g>
<g>
</g>
<g>
</g>
<g>
</g>
<g>
</g>
<g>
</g>
<g>
</g>
<g>
</g>
<g>
</g>
<g>
</g>
<g>
</g>
<g>
</g>
</svg>
