<?xml version="1.0" encoding="iso-8859-1"?>
<!-- Generator: Adobe Illustrator 19.0.0, SVG Export Plug-In . SVG Version: 6.00 Build 0)  -->
<svg version="1.1" id="Capa_1" xmlns="http://www.w3.org/2000/svg" xmlns:xlink="http://www.w3.org/1999/xlink" x="0px" y="0px"
	 viewBox="0 0 512 512" style="enable-background:new 0 0 512 512;" xml:space="preserve">
<path style="fill:#D2D6E3;" d="M0,30.266v320.003c0,8.284,6.716,15,15,15h320.884c8.284,0,15-6.716,15-15V30.266
	c0-8.284-6.716-15-15-15H15C6.716,15.266,0,21.982,0,30.266z"/>
<path style="fill:#B1B4BF;" d="M350.884,97.205V30.266c0-8.284-6.716-15-15-15H15c-8.284,0-15,6.716-15,15v66.939H350.884z"/>
<path style="fill:#F2F4F9;" d="M187.949,15.266H15c-8.284,0-15,6.716-15,15v320.003c0,8.284,6.716,15,15,15h172.949V15.266z"/>
<path style="fill:#D2D6E3;" d="M187.949,15.266H15c-8.284,0-15,6.716-15,15v66.939h187.949V15.266z"/>
<path style="fill:#FFDF63;" d="M50.814,227.144h88.774c8.284,0,15-6.716,15-15v-46.641c0-8.284-6.716-15-15-15H50.814
	c-8.284,0-15,6.716-15,15v46.641C35.814,220.428,42.53,227.144,50.814,227.144z"/>
<g>
	<path style="fill:#3A458F;" d="M51.383,296.054h274.27c8.284,0,15-6.716,15-15s-6.716-15-15-15H51.383c-8.284,0-15,6.716-15,15
		S43.099,296.054,51.383,296.054z"/>
	<path style="fill:#3A458F;" d="M325.084,310.162H50.814c-8.284,0-15,6.716-15,15s6.716,15,15,15h274.27c8.284,0,15-6.716,15-15
		S333.368,310.162,325.084,310.162z"/>
</g>
<path style="fill:#FFDF63;" d="M37.054,39.234H28.48c-8.284,0-15,6.716-15,15s6.716,15,15,15h8.574c8.284,0,15-6.716,15-15
	S45.338,39.234,37.054,39.234z"/>
<path style="fill:#FF5CA5;" d="M80.821,39.234h-8.575c-8.284,0-15,6.716-15,15s6.716,15,15,15h8.575c8.284,0,15-6.716,15-15
	S89.105,39.234,80.821,39.234z"/>
<path style="fill:#52CCA5;" d="M124.587,39.234h-8.574c-8.284,0-15,6.716-15,15s6.716,15,15,15h8.574c8.284,0,15-6.716,15-15
	S132.872,39.234,124.587,39.234z"/>
<path style="fill:#D2D6E3;" d="M118.189,95.945v310.003c0,8.284,6.716,15,15,15H414.07c8.284,0,15-6.716,15-15V95.945
	c0-8.284-6.716-15-15-15H133.189C124.905,80.945,118.189,87.661,118.189,95.945z"/>
<path style="fill:#B1B4BF;" d="M429.07,162.883V95.945c0-8.284-6.716-15-15-15H133.189c-8.284,0-15,6.716-15,15v66.939H429.07
	V162.883z"/>
<path style="fill:#F2F4F9;" d="M273.63,80.945H133.189c-8.284,0-15,6.716-15,15v310.003c0,8.284,6.716,15,15,15H273.63V80.945z"/>
<path style="fill:#D2D6E3;" d="M273.63,80.945H133.189c-8.284,0-15,6.716-15,15v66.939H273.63V80.945z"/>
<path style="fill:#FFDF63;" d="M169.003,292.823h127.214c8.284,0,15-6.716,15-15v-46.641c0-8.284-6.716-15-15-15H169.003
	c-8.284,0-15,6.716-15,15v46.641C154.003,286.107,160.719,292.823,169.003,292.823z"/>
<g>
	<path style="fill:#3A458F;" d="M169.003,351.732h234.268c8.284,0,15-6.716,15-15s-6.716-15-15-15H169.003c-8.284,0-15,6.716-15,15
		S160.719,351.732,169.003,351.732z"/>
	<path style="fill:#3A458F;" d="M403.271,365.84H169.003c-8.284,0-15,6.716-15,15s6.716,15,15,15h234.268c8.284,0,15-6.716,15-15
		S411.555,365.84,403.271,365.84z"/>
</g>
<path style="fill:#FFDF63;" d="M155.243,104.913h-8.574c-8.284,0-15,6.716-15,15s6.716,15,15,15h8.574c8.284,0,15-6.716,15-15
	S163.527,104.913,155.243,104.913z"/>
<path style="fill:#FF5CA5;" d="M200.01,104.913h-8.575c-8.284,0-15,6.716-15,15s6.716,15,15,15h8.575c8.284,0,15-6.716,15-15
	S208.294,104.913,200.01,104.913z"/>
<path style="fill:#52CCA5;" d="M245.777,104.913h-8.574c-8.284,0-15,6.716-15,15s6.716,15,15,15h8.574c8.284,0,15-6.716,15-15
	S254.061,104.913,245.777,104.913z"/>
<path style="fill:#D2D6E3;" d="M261.123,161.731v320.003c0,8.284,6.716,15,15,15H497c8.284,0,15-6.716,15-15V161.731
	c0-8.284-6.716-15-15-15H276.123C267.838,146.731,261.123,153.447,261.123,161.731z"/>
<path style="fill:#B1B4BF;" d="M512,228.669V161.73c0-8.284-6.716-15-15-15H276.123c-8.284,0-15,6.716-15,15v66.939H512z"/>
<path style="fill:#F2F4F9;" d="M386.561,146.731H276.123c-8.284,0-15,6.716-15,15v320.003c0,8.284,6.716,15,15,15h110.439
	L386.561,146.731L386.561,146.731z"/>
<path style="fill:#D2D6E3;" d="M386.561,146.731H276.123c-8.284,0-15,6.716-15,15v66.939h125.439L386.561,146.731L386.561,146.731z"
	/>
<path style="fill:#3A2370;" d="M299.429,427.519h174.264c8.284,0,15-6.716,15-15s-6.716-15-15-15H299.429c-8.284,0-15,6.716-15,15
	S291.145,427.519,299.429,427.519z"/>
<path style="fill:#3A458F;" d="M386.561,397.519h-87.132c-8.284,0-15,6.716-15,15s6.716,15,15,15h87.132L386.561,397.519
	L386.561,397.519z"/>
<path style="fill:#3A2370;" d="M299.429,471.626h174.264c8.284,0,15-6.716,15-15s-6.716-15-15-15H299.429c-8.284,0-15,6.716-15,15
	S291.145,471.626,299.429,471.626z"/>
<path style="fill:#3A458F;" d="M386.561,441.626h-87.132c-8.284,0-15,6.716-15,15s6.716,15,15,15h87.132L386.561,441.626
	L386.561,441.626z"/>
<path style="fill:#FF5CA5;" d="M308.004,170.699h-8.575c-8.284,0-15,6.716-15,15s6.716,15,15,15h8.575c8.284,0,15-6.716,15-15
	S316.288,170.699,308.004,170.699z"/>
<path style="fill:#52CCA5;" d="M350.771,170.699h-8.574c-8.284,0-15,6.716-15,15s6.716,15,15,15h8.574c8.284,0,15-6.716,15-15
	S359.055,170.699,350.771,170.699z"/>
<path style="fill:#FFAE42;" d="M320.159,358.609h132.804c8.284,0,15-6.716,15-15v-46.641c0-8.284-6.716-15-15-15H320.159
	c-8.284,0-15,6.716-15,15v46.641C305.159,351.893,311.875,358.609,320.159,358.609z"/>
<path style="fill:#FFDF63;" d="M386.561,281.968h-66.402c-8.284,0-15,6.716-15,15v46.641c0,8.284,6.716,15,15,15h66.402V281.968z"/>
<g>
</g>
<g>
</g>
<g>
</g>
<g>
</g>
<g>
</g>
<g>
</g>
<g>
</g>
<g>
</g>
<g>
</g>
<g>
</g>
<g>
</g>
<g>
</g>
<g>
</g>
<g>
</g>
<g>
</g>
</svg>
