<?xml version="1.0" encoding="iso-8859-1"?>
<!-- Generator: Adobe Illustrator 19.0.0, SVG Export Plug-In . SVG Version: 6.00 Build 0)  -->
<svg version="1.1" id="Capa_1" xmlns="http://www.w3.org/2000/svg" xmlns:xlink="http://www.w3.org/1999/xlink" x="0px" y="0px"
	 viewBox="0 0 512 512" style="enable-background:new 0 0 512 512;" xml:space="preserve">
<path style="fill:#D2D6E3;" d="M0,77v358c0,16.569,13.431,30,30,30h452c16.569,0,30-13.431,30-30V77c0-16.569-13.431-30-30-30H30
	C13.431,47,0,60.432,0,77z"/>
<path style="fill:#F2F4F9;" d="M256,47H30C13.432,47,0,60.432,0,77v358c0,16.569,13.432,30,30,30h226V47z"/>
<path style="fill:#B1B4BF;" d="M512,149.238V77c0-16.569-13.432-30-30-30H30C13.432,47,0,60.432,0,77v72.238H512z"/>
<path style="fill:#D2D6E3;" d="M256,47H30C13.432,47,0,60.432,0,77v72.238h256V47z"/>
<path style="fill:#FFDF63;" d="M58.772,81.991h-10.71c-8.284,0-15,6.716-15,15s6.716,15,15,15h10.71c8.284,0,15-6.716,15-15
	S67.057,81.991,58.772,81.991z"/>
<path style="fill:#FF5CA5;" d="M114.688,81.991h-10.709c-8.284,0-15,6.716-15,15s6.716,15,15,15h10.709c8.284,0,15-6.716,15-15
	S122.972,81.991,114.688,81.991z"/>
<path style="fill:#52CCA5;" d="M170.603,81.991h-10.709c-8.284,0-15,6.716-15,15s6.716,15,15,15h10.709c8.284,0,15-6.716,15-15
	S178.887,81.991,170.603,81.991z"/>
<path style="fill:#D2D6E3;" d="M140.369,196.448H77.75c-11.028,0-20,8.972-20,20v53.813c0,11.028,8.972,20,20,20h62.619
	c11.028,0,20-8.972,20-20v-53.813C160.369,205.42,151.396,196.448,140.369,196.448z"/>
<path style="fill:#FFAE42;" d="M287.31,196.448h-62.62c-11.028,0-20,8.972-20,20v53.813c0,11.028,8.972,20,20,20h62.619
	c11.028,0,20-8.972,20-20v-53.813C307.31,205.42,298.337,196.448,287.31,196.448z"/>
<path style="fill:#FFDF63;" d="M256,196.448h-31.31c-11.028,0-20,8.972-20,20v53.813c0,11.028,8.972,20,20,20H256V196.448z"/>
<path style="fill:#B1B4BF;" d="M434.25,196.448h-62.619c-11.028,0-20,8.972-20,20v53.813c0,11.028,8.972,20,20,20h62.619
	c11.028,0,20-8.972,20-20v-53.813C454.25,205.42,445.278,196.448,434.25,196.448z"/>
<path style="fill:#3A2370;" d="M72.75,356.824h366.5c8.284,0,15-6.716,15-15s-6.716-15-15-15H72.75c-8.284,0-15,6.716-15,15
	S64.465,356.824,72.75,356.824z"/>
<path style="fill:#3A458F;" d="M256,326.824H72.75c-8.284,0-15,6.716-15,15s6.716,15,15,15H256V326.824z"/>
<path style="fill:#3A2370;" d="M72.75,417.386h366.5c8.284,0,15-6.716,15-15s-6.716-15-15-15H72.75c-8.284,0-15,6.716-15,15
	S64.465,417.386,72.75,417.386z"/>
<path style="fill:#3A458F;" d="M256,387.386H72.75c-8.284,0-15,6.716-15,15s6.716,15,15,15H256V387.386z"/>
<g>
</g>
<g>
</g>
<g>
</g>
<g>
</g>
<g>
</g>
<g>
</g>
<g>
</g>
<g>
</g>
<g>
</g>
<g>
</g>
<g>
</g>
<g>
</g>
<g>
</g>
<g>
</g>
<g>
</g>
</svg>
