<?xml version="1.0" encoding="iso-8859-1"?>
<!-- Generator: Adobe Illustrator 19.0.0, SVG Export Plug-In . SVG Version: 6.00 Build 0)  -->
<svg version="1.1" id="Capa_1" xmlns="http://www.w3.org/2000/svg" xmlns:xlink="http://www.w3.org/1999/xlink" x="0px" y="0px"
	 viewBox="0 0 512 512" style="enable-background:new 0 0 512 512;" xml:space="preserve">
<path style="fill:#D2D6E3;" d="M0,77v358c0,16.569,13.431,30,30,30h452c16.569,0,30-13.431,30-30V77c0-16.569-13.431-30-30-30H30
	C13.431,47,0,60.432,0,77z"/>
<path style="fill:#F2F4F9;" d="M256,47H30C13.432,47,0,60.432,0,77v358c0,16.569,13.432,30,30,30h226V47z"/>
<path style="fill:#B1B4BF;" d="M512,149.238V77c0-16.569-13.432-30-30-30H30C13.432,47,0,60.432,0,77v72.238H512z"/>
<path style="fill:#D2D6E3;" d="M256,47H30C13.432,47,0,60.432,0,77v72.238h256V47z"/>
<path style="fill:#FFDF63;" d="M58.772,81.991h-10.71c-8.284,0-15,6.716-15,15s6.716,15,15,15h10.71c8.284,0,15-6.716,15-15
	S67.057,81.991,58.772,81.991z"/>
<path style="fill:#FF5CA5;" d="M114.688,81.991h-10.709c-8.284,0-15,6.716-15,15s6.716,15,15,15h10.709c8.284,0,15-6.716,15-15
	S122.972,81.991,114.688,81.991z"/>
<path style="fill:#52CCA5;" d="M170.603,81.991h-10.709c-8.284,0-15,6.716-15,15s6.716,15,15,15h10.709c8.284,0,15-6.716,15-15
	S178.887,81.991,170.603,81.991z"/>
<path style="fill:#319CD6;" d="M365.379,320.22l-5.269-16.217l5.271-16.226c1.186-3.657,1.186-7.523-0.003-11.189l-4.774-14.692
	c-1.188-3.661-3.462-6.794-6.583-9.065l-13.795-10.022l-5.268-16.211c-1.189-3.666-3.467-6.801-6.584-9.064l-12.502-9.083
	c-3.115-2.264-6.799-3.46-10.65-3.46h-17.051l-13.794-10.023c-0.004-0.002-0.007-0.005-0.011-0.007
	c-3.114-2.259-6.793-3.453-10.64-3.453h-15.455c-3.847,0-7.525,1.194-10.65,3.46l-13.794,10.023h-17.051
	c-3.852,0-7.535,1.197-10.649,3.46l-12.501,9.082c-3.119,2.265-5.396,5.4-6.584,9.061l-5.27,16.217l-13.803,10.028
	c-3.113,2.265-5.387,5.397-6.573,9.053l-4.779,14.708c-1.186,3.657-1.186,7.523,0.003,11.189l5.269,16.217l-5.271,16.222
	c-1.188,3.658-1.188,7.525,0.002,11.193l4.773,14.688c1.188,3.667,3.465,6.802,6.584,9.068l13.795,10.023l5.267,16.208
	c1.189,3.668,3.467,6.805,6.585,9.068l12.495,9.078c3.116,2.268,6.802,3.466,10.657,3.466h17.051l13.798,10.024
	c3.115,2.263,6.797,3.458,10.646,3.458h15.455c3.85,0,7.531-1.196,10.649-3.46l13.795-10.022h17.051
	c3.855,0,7.541-1.199,10.649-3.46l12.501-9.082c3.12-2.266,5.397-5.402,6.584-9.062l5.27-16.216l13.796-10.023
	c3.118-2.266,5.395-5.401,6.58-9.058l4.779-14.707C366.568,327.75,366.568,323.883,365.379,320.22z M256,363.192
	c-32.637,0-59.188-26.552-59.188-59.188s26.552-59.188,59.188-59.188s59.188,26.552,59.188,59.188S288.637,363.192,256,363.192z"/>
<path style="fill:#55D8EF;" d="M256,363.192c-32.637,0-59.188-26.552-59.188-59.188s26.552-59.188,59.188-59.188v-53.309h-7.728
	c-3.847,0-7.525,1.194-10.65,3.46l-13.794,10.023h-17.051c-3.852,0-7.535,1.197-10.649,3.46l-12.501,9.082
	c-3.119,2.265-5.396,5.4-6.584,9.061l-5.27,16.217l-13.803,10.028c-3.113,2.265-5.387,5.397-6.573,9.053l-4.779,14.708
	c-1.186,3.657-1.186,7.523,0.003,11.189l5.269,16.217l-5.271,16.222c-1.188,3.658-1.188,7.525,0.002,11.193l4.773,14.688
	c1.188,3.667,3.465,6.802,6.584,9.068l13.795,10.023l5.267,16.208c1.189,3.668,3.467,6.805,6.585,9.068l12.495,9.078
	c3.116,2.268,6.802,3.466,10.657,3.466h17.051l13.798,10.024c3.115,2.263,6.797,3.458,10.646,3.458H256V363.192z"/>
<g>
</g>
<g>
</g>
<g>
</g>
<g>
</g>
<g>
</g>
<g>
</g>
<g>
</g>
<g>
</g>
<g>
</g>
<g>
</g>
<g>
</g>
<g>
</g>
<g>
</g>
<g>
</g>
<g>
</g>
</svg>
