<?xml version="1.0" encoding="iso-8859-1"?>
<!-- Generator: Adobe Illustrator 19.0.0, SVG Export Plug-In . SVG Version: 6.00 Build 0)  -->
<svg version="1.1" id="Capa_1" xmlns="http://www.w3.org/2000/svg" xmlns:xlink="http://www.w3.org/1999/xlink" x="0px" y="0px"
	 viewBox="0 0 512 512" style="enable-background:new 0 0 512 512;" xml:space="preserve">
<path style="fill:#D2D6E3;" d="M383.808,0H57.427C40.865,0,27.439,13.426,27.439,29.989v452.023
	c0,16.563,13.426,29.989,29.989,29.989h397.145c16.563,0,29.989-13.426,29.989-29.989V110.33c0-6.614-2.419-12.998-6.802-17.951
	L404.094,9.137C398.953,3.327,391.566,0,383.808,0z"/>
<path style="fill:#F2F4F9;" d="M254.281,0H57.427C40.865,0,27.439,13.426,27.439,29.989v452.023
	c0,16.563,13.426,29.989,29.989,29.989h196.854V0z"/>
<g>
	<path style="fill:#3A2370;" d="M102.662,401.829h303.239c8.281,0,14.994-6.713,14.994-14.994c0-8.281-6.714-14.994-14.994-14.994
		H102.662c-8.281,0-14.994,6.713-14.994,14.994C87.668,395.116,94.381,401.829,102.662,401.829z"/>
	<path style="fill:#3A2370;" d="M405.901,429.221H102.662c-8.281,0-14.994,6.713-14.994,14.994s6.713,14.994,14.994,14.994h303.239
		c8.281,0,14.994-6.713,14.994-14.994S414.182,429.221,405.901,429.221z"/>
</g>
<g>
	<path style="fill:#3A458F;" d="M254.281,371.841H102.662c-8.281,0-14.994,6.713-14.994,14.994c0,8.281,6.713,14.994,14.994,14.994
		h151.619L254.281,371.841L254.281,371.841z"/>
	<path style="fill:#3A458F;" d="M254.281,429.221H102.662c-8.281,0-14.994,6.713-14.994,14.994s6.713,14.994,14.994,14.994h151.619
		L254.281,429.221L254.281,429.221z"/>
</g>
<path style="fill:#FF5CA5;" d="M154.928,224.946h21.306c8.281,0,14.994-6.713,14.994-14.994c0-8.281-6.713-14.994-14.994-14.994
	h-21.306c-37.088,0-67.26,30.173-67.26,67.26s30.173,67.26,67.26,67.26h21.306c8.281,0,14.994-6.713,14.994-14.994
	c0-8.281-6.713-14.994-14.994-14.994h-21.306c-20.552,0-37.271-16.72-37.271-37.271S134.376,224.946,154.928,224.946z"/>
<path style="fill:#C745A3;" d="M245.162,224.946H292.6c8.281,0,14.994-6.713,14.994-14.994c0-8.281-6.713-14.994-14.994-14.994
	h-47.438c-22.678,0-41.128,18.45-41.128,41.128s18.449,41.128,41.128,41.128h21.305c6.143,0,11.139,4.997,11.139,11.139
	s-4.996,11.139-11.139,11.139h-47.438c-8.281,0-14.994,6.713-14.994,14.994c0,8.281,6.713,14.994,14.994,14.994h47.438
	c22.678,0,41.128-18.45,41.128-41.128s-18.449-41.128-41.128-41.128h-21.305c-6.142,0-11.139-4.997-11.139-11.139
	C234.023,229.943,239.02,224.946,245.162,224.946z"/>
<g>
	<path style="fill:#FF5CA5;" d="M245.162,277.212h9.121v-29.989h-9.121c-6.142,0-11.139-4.997-11.139-11.139
		c0-6.142,4.997-11.139,11.139-11.139h9.121v-29.989h-9.121c-22.678,0-41.128,18.45-41.128,41.128S222.483,277.212,245.162,277.212z
		"/>
	<path style="fill:#FF5CA5;" d="M254.281,299.488h-35.253c-8.281,0-14.994,6.713-14.994,14.994c0,8.281,6.713,14.994,14.994,14.994
		h35.253L254.281,299.488L254.281,299.488z"/>
</g>
<path style="fill:#C745A3;" d="M379.768,247.223h-21.305c-6.142,0-11.139-4.997-11.139-11.139c0-6.142,4.997-11.139,11.139-11.139
	h47.438c8.281,0,14.994-6.713,14.994-14.994c0-8.281-6.714-14.994-14.994-14.994h-47.438c-22.678,0-41.128,18.45-41.128,41.128
	s18.449,41.127,41.128,41.127h21.305c6.143,0,11.139,4.997,11.139,11.139s-4.996,11.139-11.139,11.139H332.33
	c-8.281,0-14.994,6.713-14.994,14.994c0,8.281,6.713,14.994,14.994,14.994h47.438c22.678,0,41.128-18.45,41.128-41.128
	S402.445,247.223,379.768,247.223z"/>
<path style="fill:#B1B4BF;" d="M404.094,9.137C398.953,3.327,391.566,0,383.808,0v95.336c0,8.281,6.713,14.994,14.994,14.994h85.759
	c0-6.614-2.419-12.998-6.802-17.951L404.094,9.137z"/>
<g>
</g>
<g>
</g>
<g>
</g>
<g>
</g>
<g>
</g>
<g>
</g>
<g>
</g>
<g>
</g>
<g>
</g>
<g>
</g>
<g>
</g>
<g>
</g>
<g>
</g>
<g>
</g>
<g>
</g>
</svg>
