<?xml version="1.0" encoding="iso-8859-1"?>
<!-- Generator: Adobe Illustrator 19.0.0, SVG Export Plug-In . SVG Version: 6.00 Build 0)  -->
<svg version="1.1" id="Capa_1" xmlns="http://www.w3.org/2000/svg" xmlns:xlink="http://www.w3.org/1999/xlink" x="0px" y="0px"
	 viewBox="0 0 512 512" style="enable-background:new 0 0 512 512;" xml:space="preserve">
<path style="fill:#319CD6;" d="M0,371.583V140.417c0-16.569,13.431-30,30-30h452c16.569,0,30,13.431,30,30v231.166
	c0,16.569-13.431,30-30,30H30C13.431,401.583,0,388.152,0,371.583z"/>
<path style="fill:#55D8EF;" d="M265.738,110.417H30c-16.569,0-30,13.431-30,30v231.166c0,16.569,13.431,30,30,30h235.738V110.417z"
	/>
<path style="fill:#D2D6E3;" d="M438.075,401.583H482c16.569,0,30-13.431,30-30V140.417c0-16.569-13.431-30-30-30h-43.925V401.583z"
	/>
<path style="fill:#F2F4F9;" d="M100.047,110.417H30c-16.569,0-30,13.431-30,30v231.166c0,16.569,13.431,30,30,30h70.047V110.417z"/>
<path style="fill:#B1B4BF;" d="M57.43,265.648v-19.297c0-8.284-6.716-15-15-15s-15,6.716-15,15v19.297c0,8.284,6.716,15,15,15
	S57.43,273.933,57.43,265.648z"/>
<path style="fill:#D2D6E3;" d="M42.43,231.352c-8.284,0-15,6.716-15,15v19.297c0,8.284,6.716,15,15,15V231.352z"/>
<g>
	<path style="fill:#FFFFFF;" d="M373.27,273.463H158.207c-8.284,0-15,6.716-15,15s6.716,15,15,15H373.27c8.284,0,15-6.716,15-15
		S381.554,273.463,373.27,273.463z"/>
	<path style="fill:#FFFFFF;" d="M373.27,324.865H158.207c-8.284,0-15,6.716-15,15s6.716,15,15,15H373.27c8.284,0,15-6.716,15-15
		S381.554,324.865,373.27,324.865z"/>
	<path style="fill:#FFFFFF;" d="M368.27,157.135H163.207c-11.028,0-20,8.972-20,20v47.02c0,11.028,8.972,20,20,20H368.27
		c11.028,0,20-8.972,20-20v-47.02C388.27,166.107,379.298,157.135,368.27,157.135z"/>
</g>
<g>
	<path style="fill:#3A2370;" d="M373.27,273.463H158.207c-8.284,0-15,6.716-15,15s6.716,15,15,15H373.27c8.284,0,15-6.716,15-15
		S381.554,273.463,373.27,273.463z"/>
	<path style="fill:#3A2370;" d="M373.27,324.865H158.207c-8.284,0-15,6.716-15,15s6.716,15,15,15H373.27c8.284,0,15-6.716,15-15
		S381.554,324.865,373.27,324.865z"/>
</g>
<path style="fill:#FFAE42;" d="M368.27,157.135H163.207c-11.028,0-20,8.972-20,20v47.02c0,11.028,8.972,20,20,20H368.27
	c11.028,0,20-8.972,20-20v-47.02C388.27,166.107,379.298,157.135,368.27,157.135z"/>
<g>
	<path style="fill:#3A458F;" d="M265.738,273.463H158.207c-8.284,0-15,6.716-15,15s6.716,15,15,15h107.531V273.463z"/>
	<path style="fill:#3A458F;" d="M265.738,324.865H158.207c-8.284,0-15,6.716-15,15s6.716,15,15,15h107.531V324.865z"/>
</g>
<path style="fill:#FFDF63;" d="M265.738,157.135H163.207c-11.028,0-20,8.972-20,20v47.02c0,11.028,8.972,20,20,20h102.531V157.135z"
	/>
<g>
</g>
<g>
</g>
<g>
</g>
<g>
</g>
<g>
</g>
<g>
</g>
<g>
</g>
<g>
</g>
<g>
</g>
<g>
</g>
<g>
</g>
<g>
</g>
<g>
</g>
<g>
</g>
<g>
</g>
</svg>
