<?xml version="1.0" encoding="iso-8859-1"?>
<!-- Generator: Adobe Illustrator 19.0.0, SVG Export Plug-In . SVG Version: 6.00 Build 0)  -->
<svg version="1.1" id="Capa_1" xmlns="http://www.w3.org/2000/svg" xmlns:xlink="http://www.w3.org/1999/xlink" x="0px" y="0px"
	 viewBox="0 0 512 512" style="enable-background:new 0 0 512 512;" xml:space="preserve">
<path style="fill:#319CD6;" d="M482,384.129H30c-16.569,0-30-13.431-30-30V65.855c0-16.569,13.431-30,30-30h452
	c16.569,0,30,13.431,30,30v288.274C512,370.698,498.569,384.129,482,384.129z"/>
<path style="fill:#55D8EF;" d="M256,35.855H30c-16.569,0-30,13.431-30,30v288.274c0,16.569,13.431,30,30,30h226V35.855z"/>
<rect x="211.49" y="372" style="fill:#B1B4BF;" width="89.01" height="79.16"/>
<g>
	<rect x="211.49" y="372" style="fill:#D2D6E3;" width="44.506" height="79.16"/>
	<path style="fill:#D2D6E3;" d="M0,300.851v53.278c0,16.569,13.431,30,30,30h452c16.569,0,30-13.431,30-30v-53.278H0z"/>
</g>
<path style="fill:#F2F4F9;" d="M256,300.851H0v53.278c0,16.569,13.431,30,30,30h226V300.851z"/>
<path style="fill:#D2D6E3;" d="M338.093,446.145H173.907c-8.284,0-15,6.716-15,15s6.716,15,15,15h164.187c8.284,0,15-6.716,15-15
	S346.377,446.145,338.093,446.145z"/>
<path style="fill:#F2F4F9;" d="M256,446.145h-82.093c-8.284,0-15,6.716-15,15s6.716,15,15,15H256V446.145z"/>
<path style="fill:#FFFFFF;" d="M135.876,78.13H64.162c-10.959,0-19.876,8.917-19.876,19.876v137.967
	c0,10.959,8.917,19.876,19.876,19.876h71.714c10.959,0,19.876-8.917,19.876-19.876V98.006
	C155.752,87.047,146.836,78.13,135.876,78.13z"/>
<path style="fill:#FFAE42;" d="M291.857,78.13h-71.714c-10.96,0-19.876,8.917-19.876,19.876v137.967
	c0,10.959,8.917,19.876,19.876,19.876h71.714c10.96,0,19.876-8.917,19.876-19.876V98.006
	C311.733,87.047,302.817,78.13,291.857,78.13z"/>
<path style="fill:#FFDF63;" d="M256,78.13h-35.857c-10.96,0-19.876,8.917-19.876,19.876v137.967
	c0,10.959,8.917,19.876,19.876,19.876H256V78.13z"/>
<path style="fill:#D2D6E3;" d="M447.838,78.13h-71.714c-10.959,0-19.876,8.917-19.876,19.876v137.967
	c0,10.959,8.917,19.876,19.876,19.876h71.714c10.959,0,19.876-8.917,19.876-19.876V98.006
	C467.714,87.047,458.797,78.13,447.838,78.13z"/>
<g>
</g>
<g>
</g>
<g>
</g>
<g>
</g>
<g>
</g>
<g>
</g>
<g>
</g>
<g>
</g>
<g>
</g>
<g>
</g>
<g>
</g>
<g>
</g>
<g>
</g>
<g>
</g>
<g>
</g>
</svg>
