<?xml version="1.0" encoding="iso-8859-1"?>
<!-- Generator: Adobe Illustrator 19.0.0, SVG Export Plug-In . SVG Version: 6.00 Build 0)  -->
<svg version="1.1" id="Capa_1" xmlns="http://www.w3.org/2000/svg" xmlns:xlink="http://www.w3.org/1999/xlink" x="0px" y="0px"
	 viewBox="0 0 512 512" style="enable-background:new 0 0 512 512;" xml:space="preserve">
<path style="fill:#319CD6;" d="M317.765,512H86.599c-16.569,0-30-13.431-30-30V30c0-16.569,13.431-30,30-30h231.166
	c16.569,0,30,13.431,30,30v452C347.765,498.569,334.334,512,317.765,512z"/>
<path style="fill:#55D8EF;" d="M202.182,0H86.599c-16.569,0-30,13.431-30,30v452c0,16.569,13.431,30,30,30h115.583V0z"/>
<g>
	<path style="fill:#3A458F;" d="M259.806,93.768h40.91c8.284,0,15-6.716,15-15s-6.716-15-15-15h-40.91c-8.284,0-15,6.716-15,15
		S251.522,93.768,259.806,93.768z"/>
	<path style="fill:#3A458F;" d="M300.716,120.623h-40.91c-8.284,0-15,6.716-15,15s6.716,15,15,15h40.91c8.284,0,15-6.716,15-15
		S309,120.623,300.716,120.623z"/>
	<path style="fill:#3A458F;" d="M300.716,177.48h-40.91c-8.284,0-15,6.716-15,15s6.716,15,15,15h40.91c8.284,0,15-6.716,15-15
		S309,177.48,300.716,177.48z"/>
</g>
<path style="fill:#FFDF63;" d="M167.414,56.572h-60.648c-9.99,0-18.118,8.128-18.118,18.118v121.868
	c0,9.99,8.128,18.118,18.118,18.118h60.648c9.99,0,18.118-8.128,18.118-18.118V74.69C185.532,64.7,177.404,56.572,167.414,56.572z"
	/>
<g>
	<path style="fill:#3A458F;" d="M300.716,280.182h-40.91c-8.284,0-15,6.716-15,15s6.716,15,15,15h40.91c8.284,0,15-6.716,15-15
		S309,280.182,300.716,280.182z"/>
	<path style="fill:#3A458F;" d="M300.716,337.038h-40.91c-8.284,0-15,6.716-15,15s6.716,15,15,15h40.91c8.284,0,15-6.716,15-15
		S309,337.038,300.716,337.038z"/>
	<path style="fill:#3A458F;" d="M300.716,393.893h-40.91c-8.284,0-15,6.716-15,15s6.716,15,15,15h40.91c8.284,0,15-6.716,15-15
		S309,393.893,300.716,393.893z"/>
</g>
<path style="fill:#FFDF63;" d="M167.414,272.985h-60.648c-9.99,0-18.118,8.128-18.118,18.119v121.868
	c0,9.99,8.128,18.118,18.118,18.118h60.648c9.99,0,18.118-8.128,18.118-18.118V291.104
	C185.532,281.113,177.404,272.985,167.414,272.985z"/>
<g>
	<path style="fill:#FF5CA5;" d="M428.379,165.356c-8.284,0-15,6.716-15,15v198.496c0,8.284,6.716,15,15,15s15-6.716,15-15V180.356
		C443.379,172.072,436.663,165.356,428.379,165.356z"/>
	<path style="fill:#FF5CA5;" d="M428.379,98.451c-8.284,0-15,6.716-15,15v23.813c0,8.284,6.716,15,15,15s15-6.716,15-15v-23.813
		C443.379,105.167,436.663,98.451,428.379,98.451z"/>
</g>
<path style="fill:#D2D6E3;" d="M347.765,73.925V30c0-16.569-13.431-30-30-30H86.599c-16.569,0-30,13.431-30,30v43.925H347.765z"/>
<path style="fill:#F2F4F9;" d="M202.182,0H86.599c-16.569,0-30,13.431-30,30v43.925h145.583L202.182,0L202.182,0z"/>
<path style="fill:#D2D6E3;" d="M56.599,411.953V482c0,16.569,13.431,30,30,30h231.166c16.569,0,30-13.431,30-30v-70.047H56.599z"/>
<path style="fill:#F2F4F9;" d="M202.182,411.953H56.599V482c0,16.569,13.431,30,30,30h115.583V411.953z"/>
<path style="fill:#B1B4BF;" d="M211.83,454.57h-19.297c-8.284,0-15,6.716-15,15s6.716,15,15,15h19.297c8.284,0,15-6.716,15-15
	S220.115,454.57,211.83,454.57z"/>
<path style="fill:#D2D6E3;" d="M202.182,454.57h-9.648c-8.284,0-15,6.716-15,15s6.716,15,15,15h9.648V454.57z"/>
<g>
	<polygon style="fill:#FF5CA5;" points="427.951,378.948 427.942,378.961 427.951,378.949 	"/>
	<path style="fill:#FF5CA5;" d="M453.574,378.449c-3.051-6.313-9.302-10.235-16.314-10.235h-17.764
		c-7.012,0-13.263,3.922-16.314,10.235c-3.05,6.313-2.239,13.647,2.118,19.141l8.882,11.2c3.458,4.359,8.632,6.859,14.196,6.859
		s10.738-2.5,14.196-6.86l8.882-11.198C455.813,392.097,456.625,384.763,453.574,378.449z M427.951,378.948L427.951,378.948
		l-0.009,0.013C427.945,378.956,427.948,378.952,427.951,378.948z"/>
</g>
<g>
</g>
<g>
</g>
<g>
</g>
<g>
</g>
<g>
</g>
<g>
</g>
<g>
</g>
<g>
</g>
<g>
</g>
<g>
</g>
<g>
</g>
<g>
</g>
<g>
</g>
<g>
</g>
<g>
</g>
</svg>
