<?xml version="1.0" encoding="iso-8859-1"?>
<!-- Generator: Adobe Illustrator 19.0.0, SVG Export Plug-In . SVG Version: 6.00 Build 0)  -->
<svg version="1.1" id="Capa_1" xmlns="http://www.w3.org/2000/svg" xmlns:xlink="http://www.w3.org/1999/xlink" x="0px" y="0px"
	 viewBox="0 0 512 512" style="enable-background:new 0 0 512 512;" xml:space="preserve">
<path style="fill:#319CD6;" d="M464.193,29.409H47.807c-16.51,0-29.892,13.384-29.892,29.892v368.039h476.171V59.302
	C494.085,42.792,480.703,29.409,464.193,29.409z"/>
<path style="fill:#55D8EF;" d="M256,29.409H47.807c-16.51,0-29.892,13.384-29.892,29.892v368.039H256V29.409z"/>
<path style="fill:#3A2370;" d="M494.085,92.709V59.302c0-16.509-13.383-29.892-29.892-29.892H47.807
	c-16.51,0-29.892,13.384-29.892,29.892v33.408H494.085z"/>
<path style="fill:#3A458F;" d="M256,29.409H47.807c-16.51,0-29.892,13.384-29.892,29.892v33.408H256V29.409z"/>
<path style="fill:#FFAE42;" d="M90.346,233.911h186.888c10.988,0,19.928-8.94,19.928-19.928v-53.62
	c0-10.988-8.94-19.928-19.928-19.928H90.346c-10.988,0-19.928,8.94-19.928,19.928v53.62
	C70.418,224.972,79.357,233.911,90.346,233.911z"/>
<path style="fill:#FFFFFF;" d="M421.654,140.434H359.26c-10.988,0-19.928,8.94-19.928,19.928v53.62
	c0,10.988,8.94,19.928,19.928,19.928h62.395c10.988,0,19.928-8.94,19.928-19.928v-53.62
	C441.582,149.374,432.643,140.434,421.654,140.434z"/>
<path style="fill:#D2D6E3;" d="M421.654,262.246H234.766c-10.988,0-19.928,8.94-19.928,19.928v53.62
	c0,10.988,8.94,19.928,19.928,19.928h186.888c10.988,0,19.928-8.94,19.928-19.928v-53.62
	C441.582,271.184,432.643,262.246,421.654,262.246z"/>
<path id="SVGCleanerId_0" style="fill:#FFFFFF;" d="M152.74,262.246H90.346c-10.988,0-19.928,8.94-19.928,19.928v53.62
	c0,10.988,8.94,19.928,19.928,19.928h62.395c10.988,0,19.928-8.94,19.928-19.928v-53.62
	C172.669,271.184,163.729,262.246,152.74,262.246z"/>
<path style="fill:#FFDF63;" d="M256,140.434H90.346c-10.988,0-19.928,8.94-19.928,19.928v53.62c0,10.988,8.94,19.928,19.928,19.928
	H256V140.434z"/>
<path style="fill:#D2D6E3;" d="M421.654,140.434H359.26c-10.988,0-19.928,8.94-19.928,19.928v53.62
	c0,10.988,8.94,19.928,19.928,19.928h62.395c10.988,0,19.928-8.94,19.928-19.928v-53.62
	C441.582,149.374,432.643,140.434,421.654,140.434z"/>
<path style="fill:#FFFFFF;" d="M256,262.246h-21.234c-10.988,0-19.928,8.94-19.928,19.928v53.62c0,10.988,8.94,19.928,19.928,19.928
	H256V262.246z"/>
<g>
	<path id="SVGCleanerId_0_1_" style="fill:#FFFFFF;" d="M152.74,262.246H90.346c-10.988,0-19.928,8.94-19.928,19.928v53.62
		c0,10.988,8.94,19.928,19.928,19.928h62.395c10.988,0,19.928-8.94,19.928-19.928v-53.62
		C172.669,271.184,163.729,262.246,152.74,262.246z"/>
</g>
<path style="fill:#3A2370;" d="M497.054,411.145H14.946C6.705,411.145,0,417.85,0,426.091v41.553
	c0,8.241,6.705,14.946,14.946,14.946h482.108c8.241,0,14.946-6.705,14.946-14.946v-41.553
	C512,417.85,505.294,411.145,497.054,411.145z"/>
<path style="fill:#3A458F;" d="M256,411.145H14.946C6.705,411.145,0,417.85,0,426.091v41.553c0,8.241,6.705,14.946,14.946,14.946
	H256L256,411.145L256,411.145z"/>
<g>
</g>
<g>
</g>
<g>
</g>
<g>
</g>
<g>
</g>
<g>
</g>
<g>
</g>
<g>
</g>
<g>
</g>
<g>
</g>
<g>
</g>
<g>
</g>
<g>
</g>
<g>
</g>
<g>
</g>
</svg>
