<?xml version="1.0" encoding="iso-8859-1"?>
<!-- Generator: Adobe Illustrator 19.0.0, SVG Export Plug-In . SVG Version: 6.00 Build 0)  -->
<svg version="1.1" id="Capa_1" xmlns="http://www.w3.org/2000/svg" xmlns:xlink="http://www.w3.org/1999/xlink" x="0px" y="0px"
	 viewBox="0 0 512 512" style="enable-background:new 0 0 512 512;" xml:space="preserve">
<path style="fill:#319CD6;" d="M281.626,207.281h-51.254c-9.979,0-18.098,8.119-18.098,18.099v51.254
	c0,9.979,8.119,18.098,18.098,18.098h51.254c9.979,0,18.098-8.119,18.098-18.098v-51.254
	C299.724,215.4,291.606,207.281,281.626,207.281z"/>
<path style="fill:#55D8EF;" d="M256,207.281h-25.626c-9.979,0-18.098,8.119-18.098,18.099v51.254
	c0,9.979,8.119,18.098,18.098,18.098H256V207.281z"/>
<path style="fill:#319CD6;" d="M473.864,81.417H38.136c-9.98,0-18.099,8.119-18.099,18.098v312.97
	c0,9.979,8.119,18.098,18.099,18.098h435.729c9.98,0,18.099-8.119,18.099-18.098V99.514
	C491.964,89.536,483.845,81.417,473.864,81.417z M461.997,400.616H50.004V111.383h411.993L461.997,400.616L461.997,400.616z"/>
<path style="fill:#55D8EF;" d="M256,400.616H50.004V111.383H256V81.417H38.136c-9.98,0-18.099,8.119-18.099,18.098v312.97
	c0,9.979,8.119,18.098,18.099,18.098H256V400.616z"/>
<path style="fill:#3A2370;" d="M493.902,380.579h-33.846c-9.979,0-18.098,8.119-18.098,18.098v33.846
	c0,9.979,8.119,18.098,18.098,18.098h33.846c9.979,0,18.098-8.119,18.098-18.098v-33.846
	C512,388.698,503.881,380.579,493.902,380.579z"/>
<path style="fill:#3A458F;" d="M476.979,380.579h-16.923c-9.979,0-18.098,8.119-18.098,18.098v33.846
	c0,9.979,8.119,18.098,18.098,18.098h16.923V380.579z"/>
<path style="fill:#3A2370;" d="M51.944,380.579H18.098C8.119,380.579,0,388.698,0,398.677v33.846
	c0,9.979,8.119,18.098,18.098,18.098h33.846c9.979,0,18.098-8.119,18.098-18.098v-33.846
	C70.041,388.698,61.923,380.579,51.944,380.579z"/>
<path style="fill:#3A458F;" d="M35.021,380.579H18.098C8.119,380.579,0,388.698,0,398.677v33.846
	c0,9.979,8.119,18.098,18.098,18.098h16.923V380.579z"/>
<path style="fill:#3A2370;" d="M493.902,61.379h-33.846c-9.979,0-18.098,8.119-18.098,18.098v33.846
	c0,9.979,8.119,18.098,18.098,18.098h33.846c9.979,0,18.098-8.119,18.098-18.098V79.477C512,69.498,503.881,61.379,493.902,61.379z"
	/>
<path style="fill:#3A458F;" d="M476.979,61.379h-16.923c-9.979,0-18.098,8.119-18.098,18.098v33.846
	c0,9.979,8.119,18.098,18.098,18.098h16.923V61.379z"/>
<path style="fill:#3A2370;" d="M51.944,61.379H18.098C8.119,61.379,0,69.498,0,79.477v33.846c0,9.979,8.119,18.098,18.098,18.098
	h33.846c9.979,0,18.098-8.119,18.098-18.098V79.477C70.041,69.498,61.923,61.379,51.944,61.379z"/>
<path style="fill:#3A458F;" d="M35.021,61.379H18.098C8.119,61.379,0,69.498,0,79.477v33.846c0,9.979,8.119,18.098,18.098,18.098
	h16.923V61.379z"/>
<g>
</g>
<g>
</g>
<g>
</g>
<g>
</g>
<g>
</g>
<g>
</g>
<g>
</g>
<g>
</g>
<g>
</g>
<g>
</g>
<g>
</g>
<g>
</g>
<g>
</g>
<g>
</g>
<g>
</g>
</svg>
