<?xml version="1.0" encoding="iso-8859-1"?>
<!-- Generator: Adobe Illustrator 19.0.0, SVG Export Plug-In . SVG Version: 6.00 Build 0)  -->
<svg version="1.1" id="Capa_1" xmlns="http://www.w3.org/2000/svg" xmlns:xlink="http://www.w3.org/1999/xlink" x="0px" y="0px"
	 viewBox="0 0 512 512" style="enable-background:new 0 0 512 512;" xml:space="preserve">
<path style="fill:#D2D6E3;" d="M62.01,15v482c0,8.284,6.716,15,15,15h357.98c8.284,0,15-6.716,15-15V15c0-8.284-6.716-15-15-15
	H77.01C68.726,0,62.01,6.716,62.01,15z"/>
<path style="fill:#F2F4F9;" d="M256,0H77.01c-8.284,0-15,6.716-15,15v482c0,8.284,6.716,15,15,15H256V0z"/>
<path style="fill:#B1B4BF;" d="M449.99,111.245V15c0-8.284-6.716-15-15-15H77.01c-8.284,0-15,6.716-15,15v96.245H449.99z"/>
<g>
	<path style="fill:#D2D6E3;" d="M256,0H77.01c-8.284,0-15,6.716-15,15v96.245H256V0z"/>
	<path style="fill:#D2D6E3;" d="M399.523,37.246H200.739c-8.284,0-15,6.716-15,15s6.716,15,15,15h198.784c8.284,0,15-6.716,15-15
		S407.808,37.246,399.523,37.246z"/>
</g>
<path style="fill:#FFFFFF;" d="M256,37.246h-55.261c-8.284,0-15,6.716-15,15s6.716,15,15,15H256V37.246z"/>
<path style="fill:#FF5CA5;" d="M138.407,37.246h-25.931c-8.284,0-15,6.716-15,15s6.716,15,15,15h25.931c8.284,0,15-6.716,15-15
	S146.691,37.246,138.407,37.246z"/>
<g>
	<path style="fill:#3A2370;" d="M397.276,324.824H114.724c-8.284,0-15,6.716-15,15s6.716,15,15,15h282.553c8.284,0,15-6.716,15-15
		S405.561,324.824,397.276,324.824z"/>
	<path style="fill:#3A2370;" d="M397.276,378.386H114.724c-8.284,0-15,6.716-15,15s6.716,15,15,15h282.553c8.284,0,15-6.716,15-15
		S405.561,378.386,397.276,378.386z"/>
	<path style="fill:#3A2370;" d="M397.276,431.947H114.724c-8.284,0-15,6.716-15,15s6.716,15,15,15h282.553c8.284,0,15-6.716,15-15
		S405.561,431.947,397.276,431.947z"/>
</g>
<path style="fill:#D2D6E3;" d="M114.724,286.457h54.32c8.284,0,15-6.716,15-15v-69.009c0-8.284-6.716-15-15-15h-54.32
	c-8.284,0-15,6.716-15,15v69.009C99.724,279.741,106.439,286.457,114.724,286.457z"/>
<path style="fill:#FFAE42;" d="M228.84,286.457h54.32c8.284,0,15-6.716,15-15v-69.009c0-8.284-6.716-15-15-15h-54.32
	c-8.284,0-15,6.716-15,15v69.009C213.84,279.741,220.556,286.457,228.84,286.457z"/>
<path style="fill:#B1B4BF;" d="M397.276,187.448h-54.32c-8.284,0-15,6.716-15,15v69.009c0,8.284,6.716,15,15,15h54.32
	c8.284,0,15-6.716,15-15v-69.009C412.276,194.164,405.561,187.448,397.276,187.448z"/>
<g>
	<path style="fill:#3A458F;" d="M256,324.824H114.724c-8.284,0-15,6.716-15,15s6.716,15,15,15H256V324.824z"/>
	<path style="fill:#3A458F;" d="M256,378.386H114.724c-8.284,0-15,6.716-15,15s6.716,15,15,15H256V378.386z"/>
	<path style="fill:#3A458F;" d="M256,431.947H114.724c-8.284,0-15,6.716-15,15s6.716,15,15,15H256V431.947z"/>
</g>
<path style="fill:#FFDF63;" d="M256,187.448h-27.16c-8.284,0-15,6.716-15,15v69.009c0,8.284,6.716,15,15,15H256V187.448z"/>
<g>
</g>
<g>
</g>
<g>
</g>
<g>
</g>
<g>
</g>
<g>
</g>
<g>
</g>
<g>
</g>
<g>
</g>
<g>
</g>
<g>
</g>
<g>
</g>
<g>
</g>
<g>
</g>
<g>
</g>
</svg>
