<?xml version="1.0" encoding="iso-8859-1"?>
<!-- Generator: Adobe Illustrator 19.0.0, SVG Export Plug-In . SVG Version: 6.00 Build 0)  -->
<svg version="1.1" id="Capa_1" xmlns="http://www.w3.org/2000/svg" xmlns:xlink="http://www.w3.org/1999/xlink" x="0px" y="0px"
	 viewBox="0 0 512 512" style="enable-background:new 0 0 512 512;" xml:space="preserve">
<path style="fill:#D2D6E3;" d="M512,93.266v325.469c0,16.569-13.431,30-30,30H30c-16.569,0-30-13.431-30-30V93.266
	c0-16.569,13.431-30,30-30h452C498.569,63.266,512,76.697,512,93.266z"/>
<path style="fill:#F2F4F9;" d="M256,63.266H30c-16.569,0-30,13.432-30,30v325.469c0,16.569,13.431,30,30,30h226V63.266z"/>
<g>
	<path style="fill:#55D8EF;" d="M70.356,186.664c8.284,0,15-6.716,15-15v-23.53h26.143c8.284,0,15-6.716,15-15s-6.716-15-15-15
		H73.474c-9.99,0-18.118,8.128-18.118,18.118v35.412C55.356,179.948,62.072,186.664,70.356,186.664z"/>
	<path style="fill:#55D8EF;" d="M111.5,363.866H85.356v-23.53c0-8.284-6.716-15-15-15s-15,6.716-15,15v35.412
		c0,9.99,8.128,18.118,18.118,18.118H111.5c8.284,0,15-6.716,15-15S119.784,363.866,111.5,363.866z"/>
</g>
<g>
	<path style="fill:#319CD6;" d="M441.644,325.336c-8.284,0-15,6.716-15,15v23.53h-26.143c-8.284,0-15,6.716-15,15s6.716,15,15,15
		h38.025c9.99,0,18.118-8.128,18.118-18.118v-35.412C456.644,332.052,449.928,325.336,441.644,325.336z"/>
	<path style="fill:#319CD6;" d="M438.526,118.134H400.5c-8.284,0-15,6.716-15,15s6.716,15,15,15h26.144v23.531
		c0,8.284,6.716,15,15,15s15-6.716,15-15v-35.413C456.644,126.262,448.516,118.134,438.526,118.134z"/>
</g>
<g>
</g>
<g>
</g>
<g>
</g>
<g>
</g>
<g>
</g>
<g>
</g>
<g>
</g>
<g>
</g>
<g>
</g>
<g>
</g>
<g>
</g>
<g>
</g>
<g>
</g>
<g>
</g>
<g>
</g>
</svg>
