<?xml version="1.0" encoding="iso-8859-1"?>
<!-- Generator: Adobe Illustrator 19.0.0, SVG Export Plug-In . SVG Version: 6.00 Build 0)  -->
<svg version="1.1" id="Capa_1" xmlns="http://www.w3.org/2000/svg" xmlns:xlink="http://www.w3.org/1999/xlink" x="0px" y="0px"
	 viewBox="0 0 512 512" style="enable-background:new 0 0 512 512;" xml:space="preserve">
<path style="fill:#FFAE42;" d="M247.736,223.965V46.125c0-9.99-8.128-18.118-18.119-18.118h-211.5C8.128,28.007,0,36.135,0,46.125
	v177.84c0,9.99,8.128,18.118,18.118,18.118h211.5C239.608,242.083,247.736,233.955,247.736,223.965z"/>
<path style="fill:#FFDF63;" d="M123.868,28.007H18.118C8.128,28.007,0,36.135,0,46.125v177.84c0,9.99,8.128,18.118,18.118,18.118
	h105.75V28.007z"/>
<path style="fill:#FFAE42;" d="M512,465.875v-177.84c0-9.99-8.128-18.118-18.119-18.118h-211.5c-9.99,0-18.118,8.128-18.118,18.118
	v177.84c0,9.99,8.128,18.118,18.118,18.118h211.5C503.872,483.993,512,475.865,512,465.875z"/>
<path style="fill:#FFDF63;" d="M388.132,269.917h-105.75c-9.99,0-18.118,8.128-18.118,18.118v177.84
	c0,9.99,8.128,18.118,18.118,18.118h105.75V269.917z"/>
<path style="fill:#C745A3;" d="M218.427,68.305c-4.777-6.769-14.137-8.382-20.904-3.605l-73.655,51.985L50.213,64.7
	c-6.767-4.777-16.127-3.163-20.904,3.605c-4.777,6.768-3.163,16.127,3.605,20.904l64.941,45.835l-64.94,45.836
	c-6.769,4.777-8.383,14.136-3.605,20.904c2.922,4.14,7.559,6.352,12.268,6.352c2.989,0,6.008-0.892,8.636-2.747l73.655-51.985
	l73.655,51.985c2.628,1.855,5.646,2.747,8.636,2.747c4.709,0,9.346-2.212,12.268-6.352c4.777-6.768,3.163-16.127-3.605-20.904
	l-64.941-45.835l64.941-45.835C221.59,84.433,223.205,75.073,218.427,68.305z"/>
<path style="fill:#FF5CA5;" d="M123.868,116.685L50.213,64.7c-6.767-4.777-16.127-3.163-20.904,3.605
	c-4.777,6.768-3.163,16.127,3.605,20.904l64.941,45.835l-64.94,45.836c-6.769,4.777-8.383,14.136-3.605,20.904
	c2.922,4.14,7.559,6.352,12.268,6.352c2.989,0,6.008-0.892,8.636-2.747l73.655-51.985v-36.719H123.868z"/>
<path style="fill:#C745A3;" d="M479.085,422.79l-64.941-45.835l64.941-45.835c6.769-4.777,8.383-14.136,3.605-20.904
	c-4.776-6.769-14.136-8.384-20.904-3.605l-73.655,51.985l-73.655-51.985c-6.769-4.778-16.128-3.162-20.904,3.605
	c-4.777,6.769-3.163,16.127,3.605,20.904l64.941,45.835l-64.941,45.835c-6.769,4.777-8.383,14.136-3.605,20.904
	c2.922,4.141,7.559,6.352,12.268,6.352c2.989,0,6.008-0.891,8.636-2.746l73.655-51.985l73.655,51.985
	c2.628,1.855,5.646,2.746,8.636,2.746c4.709,0,9.347-2.212,12.268-6.352C487.468,436.926,485.854,427.567,479.085,422.79z"/>
<path style="fill:#FF5CA5;" d="M388.132,358.595l-73.655-51.985c-6.769-4.778-16.128-3.162-20.904,3.605
	c-4.777,6.769-3.163,16.127,3.605,20.904l64.941,45.835l-64.941,45.835c-6.769,4.777-8.383,14.136-3.605,20.904
	c2.922,4.141,7.559,6.352,12.268,6.352c2.989,0,6.008-0.891,8.636-2.746l73.655-51.985V358.595z"/>
<path style="fill:#3A2370;" d="M227.61,269.917H20.127c-8.284,0-15,6.716-15,15s6.716,15,15,15H227.61c8.284,0,15-6.716,15-15
	S235.894,269.917,227.61,269.917z"/>
<path style="fill:#3A458F;" d="M123.868,269.917H20.127c-8.284,0-15,6.716-15,15s6.716,15,15,15h103.741V269.917z"/>
<path style="fill:#3A2370;" d="M227.61,331.276H20.127c-8.284,0-15,6.716-15,15s6.716,15,15,15H227.61c8.284,0,15-6.716,15-15
	S235.894,331.276,227.61,331.276z"/>
<path style="fill:#3A458F;" d="M123.868,331.276H20.127c-8.284,0-15,6.716-15,15s6.716,15,15,15h103.741V331.276z"/>
<path style="fill:#3A2370;" d="M227.61,392.635H20.127c-8.284,0-15,6.716-15,15s6.716,15,15,15H227.61c8.284,0,15-6.716,15-15
	S235.894,392.635,227.61,392.635z"/>
<path style="fill:#3A458F;" d="M123.868,392.635H20.127c-8.284,0-15,6.716-15,15s6.716,15,15,15h103.741V392.635z"/>
<path style="fill:#3A2370;" d="M227.61,453.993H20.127c-8.284,0-15,6.716-15,15s6.716,15,15,15H227.61c8.284,0,15-6.716,15-15
	S235.894,453.993,227.61,453.993z"/>
<path style="fill:#3A458F;" d="M123.868,453.993H20.127c-8.284,0-15,6.716-15,15s6.716,15,15,15h103.741V453.993z"/>
<path style="fill:#3A2370;" d="M491.873,28.007H284.39c-8.284,0-15,6.716-15,15s6.716,15,15,15h207.483c8.284,0,15-6.716,15-15
	S500.157,28.007,491.873,28.007z"/>
<path style="fill:#3A458F;" d="M388.132,28.007H284.39c-8.284,0-15,6.716-15,15s6.716,15,15,15h103.741L388.132,28.007
	L388.132,28.007z"/>
<path style="fill:#3A2370;" d="M491.873,89.366H284.39c-8.284,0-15,6.716-15,15s6.716,15,15,15h207.483c8.284,0,15-6.716,15-15
	S500.157,89.366,491.873,89.366z"/>
<path style="fill:#3A458F;" d="M388.132,89.366H284.39c-8.284,0-15,6.716-15,15s6.716,15,15,15h103.741L388.132,89.366
	L388.132,89.366z"/>
<path style="fill:#3A2370;" d="M491.873,150.724H284.39c-8.284,0-15,6.716-15,15s6.716,15,15,15h207.483c8.284,0,15-6.716,15-15
	S500.157,150.724,491.873,150.724z"/>
<path style="fill:#3A458F;" d="M388.132,150.724H284.39c-8.284,0-15,6.716-15,15s6.716,15,15,15h103.741L388.132,150.724
	L388.132,150.724z"/>
<path style="fill:#3A2370;" d="M491.873,212.083H284.39c-8.284,0-15,6.716-15,15s6.716,15,15,15h207.483c8.284,0,15-6.716,15-15
	S500.157,212.083,491.873,212.083z"/>
<path style="fill:#3A458F;" d="M388.132,212.083H284.39c-8.284,0-15,6.716-15,15s6.716,15,15,15h103.741L388.132,212.083
	L388.132,212.083z"/>
<g>
</g>
<g>
</g>
<g>
</g>
<g>
</g>
<g>
</g>
<g>
</g>
<g>
</g>
<g>
</g>
<g>
</g>
<g>
</g>
<g>
</g>
<g>
</g>
<g>
</g>
<g>
</g>
<g>
</g>
</svg>
