<?xml version="1.0" encoding="iso-8859-1"?>
<!-- Generator: Adobe Illustrator 19.0.0, SVG Export Plug-In . SVG Version: 6.00 Build 0)  -->
<svg version="1.1" id="Capa_1" xmlns="http://www.w3.org/2000/svg" xmlns:xlink="http://www.w3.org/1999/xlink" x="0px" y="0px"
	 viewBox="0 0 512 512" style="enable-background:new 0 0 512 512;" xml:space="preserve">
<path style="fill:#D2D6E3;" d="M0,77v358c0,16.569,13.431,30,30,30h452c16.569,0,30-13.431,30-30V77c0-16.569-13.431-30-30-30H30
	C13.431,47,0,60.432,0,77z"/>
<path style="fill:#F2F4F9;" d="M256,47H30C13.432,47,0,60.432,0,77v358c0,16.569,13.432,30,30,30h226V47z"/>
<path style="fill:#B1B4BF;" d="M512,149.238V77c0-16.569-13.432-30-30-30H30C13.432,47,0,60.432,0,77v72.238H512z"/>
<path style="fill:#D2D6E3;" d="M256,47H30C13.432,47,0,60.432,0,77v72.238h256V47z"/>
<path style="fill:#FFDF63;" d="M58.772,81.991h-10.71c-8.284,0-15,6.716-15,15s6.716,15,15,15h10.71c8.284,0,15-6.716,15-15
	S67.057,81.991,58.772,81.991z"/>
<path style="fill:#FF5CA5;" d="M114.688,81.991h-10.709c-8.284,0-15,6.716-15,15s6.716,15,15,15h10.709c8.284,0,15-6.716,15-15
	S122.972,81.991,114.688,81.991z"/>
<path style="fill:#52CCA5;" d="M170.603,81.991h-10.709c-8.284,0-15,6.716-15,15s6.716,15,15,15h10.709c8.284,0,15-6.716,15-15
	S178.887,81.991,170.603,81.991z"/>
<path style="fill:#3A2370;" d="M456.717,401.583c-2.1-7.048-8.184-12.092-15.499-12.849c-4.799-0.495-9.446,0.929-13.068,3.784
	l-140.624-76.066l140.614-76.061c3.146,2.481,7.069,3.877,11.188,3.877c0.625,0,1.256-0.032,1.888-0.098
	c7.315-0.757,13.399-5.8,15.5-12.848c0,0,0,0,0-0.001l3.152-10.581c2.853-9.574-2.616-19.685-12.191-22.537l-10.582-3.153
	c-7.046-2.097-14.599,0.233-19.235,5.941c-3.04,3.742-4.391,8.412-3.983,13.008L256,299.398l-157.878-85.4
	c0.408-4.596-0.943-9.266-3.983-13.008c-4.637-5.708-12.187-8.04-19.236-5.94l-10.582,3.152
	c-9.575,2.853-15.043,12.963-12.191,22.537l3.152,10.581v0.001c2.101,7.048,8.185,12.091,15.5,12.848
	c0.632,0.065,1.263,0.098,1.888,0.098c4.119,0,8.042-1.396,11.188-3.877l140.614,76.061L83.848,392.519
	c-3.622-2.855-8.269-4.28-13.067-3.785c-7.315,0.757-13.398,5.801-15.499,12.849l-3.152,10.581
	c-2.852,9.572,2.615,19.682,12.191,22.538l10.582,3.152c1.72,0.512,3.469,0.761,5.199,0.761c5.359,0,10.53-2.386,14.036-6.7
	c3.04-3.742,4.392-8.413,3.984-13.009L256,333.506l157.878,85.4c-0.408,4.596,0.943,9.267,3.984,13.009
	c3.506,4.314,8.676,6.7,14.036,6.7c1.729,0,3.48-0.249,5.199-0.761l10.585-3.154c9.572-2.854,15.039-12.964,12.187-22.536
	L456.717,401.583z"/>
<path style="fill:#3A458F;" d="M256,299.398l-157.878-85.4c0.408-4.596-0.943-9.266-3.983-13.008
	c-4.637-5.708-12.187-8.04-19.236-5.94l-10.582,3.152c-9.575,2.853-15.043,12.963-12.191,22.537l3.152,10.581v0.001
	c2.101,7.048,8.185,12.091,15.5,12.848c0.632,0.065,1.263,0.098,1.888,0.098c4.119,0,8.042-1.396,11.188-3.877l140.614,76.061
	L83.848,392.519c-3.622-2.855-8.269-4.28-13.067-3.785c-7.315,0.757-13.398,5.801-15.499,12.849l-3.152,10.581
	c-2.852,9.572,2.615,19.682,12.191,22.538l10.582,3.152c1.72,0.512,3.469,0.761,5.199,0.761c5.359,0,10.53-2.386,14.036-6.7
	c3.04-3.742,4.392-8.413,3.984-13.009L256,333.506V299.398z"/>
<g>
</g>
<g>
</g>
<g>
</g>
<g>
</g>
<g>
</g>
<g>
</g>
<g>
</g>
<g>
</g>
<g>
</g>
<g>
</g>
<g>
</g>
<g>
</g>
<g>
</g>
<g>
</g>
<g>
</g>
</svg>
