<?xml version="1.0" encoding="iso-8859-1"?>
<!-- Generator: Adobe Illustrator 19.0.0, SVG Export Plug-In . SVG Version: 6.00 Build 0)  -->
<svg version="1.1" id="Capa_1" xmlns="http://www.w3.org/2000/svg" xmlns:xlink="http://www.w3.org/1999/xlink" x="0px" y="0px"
	 viewBox="0 0 512 512" style="enable-background:new 0 0 512 512;" xml:space="preserve">
<path style="fill:#319CD6;" d="M464.193,29.409H47.807c-16.51,0-29.892,13.383-29.892,29.892v370.355h476.171V59.302
	C494.085,42.792,480.703,29.409,464.193,29.409z"/>
<path style="fill:#55D8EF;" d="M265.964,29.409H47.807c-16.51,0-29.892,13.383-29.892,29.892v370.355h248.051V29.409H265.964z"/>
<path style="fill:#3A2370;" d="M497.054,411.145H14.946C6.705,411.145,0,417.85,0,426.091v41.553
	c0,8.241,6.705,14.946,14.946,14.946h482.108c8.241,0,14.946-6.705,14.946-14.946v-41.553
	C512,417.85,505.294,411.145,497.054,411.145z"/>
<path style="fill:#3A458F;" d="M265.964,411.145H14.946C6.705,411.145,0,417.85,0,426.091v41.553
	c0,8.241,6.705,14.946,14.946,14.946h251.018L265.964,411.145L265.964,411.145z"/>
<path style="fill:#FFDF63;" d="M125.565,317.39c-1.838-4.438-5.29-7.835-9.511-9.656V182.059c4.221-1.821,7.672-5.219,9.511-9.656
	c2.804-6.77,1.269-14.492-3.914-19.676l-7.779-7.778c-3.41-3.41-7.943-5.288-12.766-5.288c-4.822,0-9.355,1.877-12.764,5.287
	l-7.78,7.779c-0.001,0.001-0.002,0.001-0.003,0.002c-5.18,5.182-6.715,12.905-3.911,19.674c1.838,4.438,5.291,7.836,9.512,9.657
	v125.673c-4.221,1.821-7.673,5.219-9.512,9.657c-2.804,6.77-1.269,14.492,3.913,19.676l7.78,7.779
	c3.41,3.41,7.943,5.288,12.765,5.288c4.823,0,9.356-1.878,12.766-5.288l7.78-7.779l0.001-0.001
	C126.835,331.882,128.369,324.16,125.565,317.39z"/>
<path style="fill:#D2D6E3;" d="M399.559,311.518H200.646c-8.254,0-14.946,6.692-14.946,14.946s6.692,14.946,14.946,14.946h198.912
	c8.254,0,14.946-6.692,14.946-14.946S407.813,311.518,399.559,311.518z"/>
<g>
	<path style="fill:#FFFFFF;" d="M265.964,311.518h-65.318c-8.254,0-14.946,6.692-14.946,14.946s6.692,14.946,14.946,14.946h65.318
		V311.518z"/>
	<path style="fill:#FFFFFF;" d="M195.008,302.008c-6.772-2.805-14.493-1.268-19.675,3.913l-7.779,7.779
		c-3.41,3.41-5.288,7.943-5.288,12.766c0,4.822,1.878,9.355,5.287,12.765l7.78,7.779l0.001,0.001
		c3.463,3.462,8.058,5.295,12.746,5.295c2.33,0,4.681-0.453,6.928-1.384c6.77-2.804,11.144-9.351,11.144-16.679v-15.558
		C206.152,311.358,201.778,304.811,195.008,302.008z"/>
</g>
<g>
	<path style="fill:#D2D6E3;" d="M433.217,313.698l-7.78-7.779c-5.18-5.18-12.902-6.718-19.673-3.914
		c-6.771,2.804-11.146,9.351-11.146,16.68v15.558c0,7.329,4.375,13.875,11.146,16.68c2.247,0.931,4.598,1.383,6.927,1.383
		c4.688,0,9.285-1.834,12.746-5.296l7.78-7.78c3.41-3.41,5.288-7.943,5.288-12.765C438.505,321.643,436.627,317.109,433.217,313.698
		z"/>
	<path style="fill:#D2D6E3;" d="M414.099,146.014H180.363c-9.955,0-18.054,8.099-18.054,18.053v77.722
		c0,9.954,8.099,18.053,18.054,18.053h233.736c9.954,0,18.053-8.099,18.053-18.053v-77.722
		C432.152,154.113,424.053,146.014,414.099,146.014z"/>
</g>
<path style="fill:#FFFFFF;" d="M265.964,146.014h-85.602c-9.955,0-18.054,8.099-18.054,18.053v77.722
	c0,9.954,8.099,18.053,18.054,18.053h85.602V146.014z"/>
<path style="fill:#3A2370;" d="M494.085,98.074V59.302c0-16.51-13.383-29.892-29.892-29.892H47.807
	c-16.51,0-29.892,13.383-29.892,29.892v38.774L494.085,98.074L494.085,98.074z"/>
<path style="fill:#3A458F;" d="M265.964,29.409H47.807c-16.51,0-29.892,13.383-29.892,29.892v38.774h248.051V29.409H265.964z"/>
<g>
</g>
<g>
</g>
<g>
</g>
<g>
</g>
<g>
</g>
<g>
</g>
<g>
</g>
<g>
</g>
<g>
</g>
<g>
</g>
<g>
</g>
<g>
</g>
<g>
</g>
<g>
</g>
<g>
</g>
</svg>
