<?xml version="1.0" encoding="iso-8859-1"?>
<!-- Generator: Adobe Illustrator 19.0.0, SVG Export Plug-In . SVG Version: 6.00 Build 0)  -->
<svg version="1.1" id="Capa_1" xmlns="http://www.w3.org/2000/svg" xmlns:xlink="http://www.w3.org/1999/xlink" x="0px" y="0px"
	 viewBox="0 0 512 512" style="enable-background:new 0 0 512 512;" xml:space="preserve">
<path style="fill:#319CD6;" d="M0,432.771V79.229c0-16.569,13.431-30,30-30h452c16.569,0,30,13.431,30,30v353.542
	c0,16.569-13.431,30-30,30H30C13.431,462.771,0,449.34,0,432.771z"/>
<path style="fill:#55D8EF;" d="M266,49.229H30c-16.569,0-30,13.431-30,30v353.542c0,16.569,13.431,30,30,30h236V49.229z"/>
<path style="fill:#D2D6E3;" d="M431.666,462.771H482c16.569,0,30-13.431,30-30V79.229c0-16.569-13.431-30-30-30h-50.334
	L431.666,462.771L431.666,462.771z"/>
<path style="fill:#F2F4F9;" d="M95.011,49.229H30c-16.569,0-30,13.431-30,30v353.542c0,16.569,13.431,30,30,30h65.011V49.229z"/>
<path style="fill:#B1B4BF;" d="M57.43,265.648v-19.297c0-8.284-6.716-15-15-15s-15,6.716-15,15v19.297c0,8.284,6.716,15,15,15
	S57.43,273.933,57.43,265.648z"/>
<path style="fill:#D2D6E3;" d="M42.43,231.352c-8.284,0-15,6.716-15,15v19.297c0,8.284,6.716,15,15,15V231.352z"/>
<path style="fill:#3A2370;" d="M365.334,288.661H166.667c-8.284,0-15,6.716-15,15s6.716,15,15,15h198.667c8.284,0,15-6.716,15-15
	S373.618,288.661,365.334,288.661z"/>
<path style="fill:#3A458F;" d="M266,288.661h-99.333c-8.284,0-15,6.716-15,15s6.716,15,15,15H266V288.661z"/>
<path style="fill:#3A2370;" d="M365.334,343.686H166.667c-8.284,0-15,6.716-15,15s6.716,15,15,15h198.667c8.284,0,15-6.716,15-15
	S373.618,343.686,365.334,343.686z"/>
<path style="fill:#3A458F;" d="M266,343.686h-99.333c-8.284,0-15,6.716-15,15s6.716,15,15,15H266V343.686z"/>
<path style="fill:#3A2370;" d="M365.334,398.427H166.667c-8.284,0-15,6.716-15,15s6.716,15,15,15h198.667c8.284,0,15-6.716,15-15
	S373.618,398.427,365.334,398.427z"/>
<path style="fill:#3A458F;" d="M266,398.427h-99.333c-8.284,0-15,6.716-15,15s6.716,15,15,15H266V398.427z"/>
<path style="fill:#FFAE42;" d="M360.334,85.663H171.667c-11.028,0-20,8.972-20,20v95.208c0,11.028,8.972,20,20,20h188.667
	c11.028,0,20-8.972,20-20v-95.208C380.334,94.635,371.362,85.663,360.334,85.663z"/>
<path style="fill:#FFDF63;" d="M266,85.663h-94.333c-11.028,0-20,8.972-20,20v95.208c0,11.028,8.972,20,20,20H266V85.663z"/>
<g>
</g>
<g>
</g>
<g>
</g>
<g>
</g>
<g>
</g>
<g>
</g>
<g>
</g>
<g>
</g>
<g>
</g>
<g>
</g>
<g>
</g>
<g>
</g>
<g>
</g>
<g>
</g>
<g>
</g>
</svg>
