<?xml version="1.0" encoding="iso-8859-1"?>
<!-- Generator: Adobe Illustrator 19.0.0, SVG Export Plug-In . SVG Version: 6.00 Build 0)  -->
<svg version="1.1" id="Capa_1" xmlns="http://www.w3.org/2000/svg" xmlns:xlink="http://www.w3.org/1999/xlink" x="0px" y="0px"
	 viewBox="0 0 512 512" style="enable-background:new 0 0 512 512;" xml:space="preserve">
<path style="fill:#319CD6;" d="M432.771,512H79.229c-16.569,0-30-13.431-30-30V30c0-16.569,13.431-30,30-30h353.542
	c16.569,0,30,13.431,30,30v452C462.771,498.569,449.34,512,432.771,512z"/>
<path style="fill:#55D8EF;" d="M256,0H79.229c-16.569,0-30,13.431-30,30v452c0,16.569,13.431,30,30,30H256V0z"/>
<g>
	<path style="fill:#D2D6E3;" d="M462.771,80.334V30c0-16.569-13.431-30-30-30H79.229c-16.569,0-30,13.431-30,30v50.334H462.771z"/>
	<path style="fill:#D2D6E3;" d="M49.229,416.989V482c0,16.569,13.431,30,30,30h353.542c16.569,0,30-13.431,30-30v-65.011H49.229z"/>
</g>
<g>
	<path style="fill:#F2F4F9;" d="M256,0H79.229c-16.569,0-30,13.431-30,30v50.334H256V0z"/>
	<path style="fill:#F2F4F9;" d="M256,416.989H49.229V482c0,16.569,13.431,30,30,30H256V416.989z"/>
</g>
<path style="fill:#B1B4BF;" d="M265.648,454.57h-19.297c-8.284,0-15,6.716-15,15s6.716,15,15,15h19.297c8.284,0,15-6.716,15-15
	S273.933,454.57,265.648,454.57z"/>
<path style="fill:#D2D6E3;" d="M256,454.57h-9.648c-8.284,0-15,6.716-15,15s6.716,15,15,15H256V454.57z"/>
<path style="fill:#FFAE42;" d="M402.609,124.131h-95.208c-11.028,0-20,8.972-20,20v203.737c0,11.028,8.972,20,20,20h95.208
	c11.028,0,20-8.972,20-20V144.131C422.609,133.103,413.637,124.131,402.609,124.131z"/>
<path style="fill:#FFDF63;" d="M355.006,124.131h-47.604c-11.028,0-20,8.972-20,20v203.737c0,11.028,8.972,20,20,20h47.604V124.131z
	"/>
<path style="fill:#3A2370;" d="M235.494,134.151H104.391c-8.284,0-15,6.716-15,15s6.716,15,15,15h131.103c8.284,0,15-6.716,15-15
	S243.778,134.151,235.494,134.151z"/>
<path style="fill:#3A458F;" d="M169.942,134.151H104.39c-8.284,0-15,6.716-15,15s6.716,15,15,15h65.552V134.151z"/>
<path style="fill:#3A2370;" d="M235.494,198.717H104.391c-8.284,0-15,6.716-15,15s6.716,15,15,15h131.103c8.284,0,15-6.716,15-15
	S243.778,198.717,235.494,198.717z"/>
<path style="fill:#3A458F;" d="M169.942,198.717H104.39c-8.284,0-15,6.716-15,15s6.716,15,15,15h65.552V198.717z"/>
<path style="fill:#3A2370;" d="M235.494,263.282H104.391c-8.284,0-15,6.716-15,15s6.716,15,15,15h131.103c8.284,0,15-6.716,15-15
	S243.778,263.282,235.494,263.282z"/>
<path style="fill:#3A458F;" d="M169.942,263.282H104.39c-8.284,0-15,6.716-15,15s6.716,15,15,15h65.552V263.282z"/>
<path style="fill:#3A2370;" d="M235.494,327.848H104.391c-8.284,0-15,6.716-15,15s6.716,15,15,15h131.103c8.284,0,15-6.716,15-15
	S243.778,327.848,235.494,327.848z"/>
<path style="fill:#3A458F;" d="M169.942,327.848H104.39c-8.284,0-15,6.716-15,15s6.716,15,15,15h65.552V327.848z"/>
<g>
</g>
<g>
</g>
<g>
</g>
<g>
</g>
<g>
</g>
<g>
</g>
<g>
</g>
<g>
</g>
<g>
</g>
<g>
</g>
<g>
</g>
<g>
</g>
<g>
</g>
<g>
</g>
<g>
</g>
</svg>
