<?xml version="1.0" encoding="iso-8859-1"?>
<!-- Generator: Adobe Illustrator 19.0.0, SVG Export Plug-In . SVG Version: 6.00 Build 0)  -->
<svg version="1.1" id="Capa_1" xmlns="http://www.w3.org/2000/svg" xmlns:xlink="http://www.w3.org/1999/xlink" x="0px" y="0px"
	 viewBox="0 0 512 512" style="enable-background:new 0 0 512 512;" xml:space="preserve">
<g>
	<path style="fill:#95868A;" d="M428.461,226.439c-3.271-2.973-8.33-2.732-11.304,0.538l-17.441,19.187
		c-2.287-32.512-15.473-63.209-37.705-87.348c-24.4-26.49-57.522-42.8-93.265-45.925c-4.396-0.37-8.283,2.873-8.668,7.274
		c-0.385,4.402,2.873,8.283,7.274,8.668c61.554,5.38,110.562,55.251,116.177,115.899l-18.347-18.073
		c-3.148-3.103-8.215-3.064-11.315,0.085c-3.101,3.149-3.064,8.215,0.085,11.315l33.506,33.006
		c3.193,3.145,8.522,2.997,11.536-0.317L429,237.742C431.972,234.474,431.73,229.413,428.461,226.439z"/>
	<path style="fill:#95868A;" d="M248.077,388.073l-19.004-35.007c-2.108-3.884-6.968-5.325-10.85-3.216
		c-3.885,2.108-5.323,6.966-3.216,10.85l10.925,20.125c-55.347-13.345-95.96-62.584-97.841-120.203
		c-0.142-4.328-3.694-7.74-7.992-7.74c-0.088,0-0.177,0.001-0.266,0.004c-4.417,0.145-7.88,3.842-7.736,8.259
		c2.113,64.723,47.67,120.043,109.792,135.165l-18.168,13.696c-3.221,2.428-4.128,7.036-2.051,10.498
		c2.41,4.02,7.936,5.108,11.684,2.281l32.506-24.505C249.025,395.895,249.967,391.554,248.077,388.073z"/>
</g>
<path style="fill:#EDEBEC;" d="M264.049,0.317H8.001C3.583,0.317,0,3.9,0,8.319v248.046c0,4.419,3.583,8.001,8.001,8.001h256.048
	c4.419,0,8.001-3.583,8.001-8.001V8.319C272.05,3.9,268.468,0.317,264.049,0.317z"/>
<path style="fill:#DCD7D8;" d="M24.004,256.365V8.319c0-4.419,3.583-8.001,8.001-8.001H8.001C3.583,0.317,0,3.9,0,8.319v248.046
	c0,4.419,3.583,8.001,8.001,8.001h24.004C27.587,264.366,24.004,260.784,24.004,256.365z"/>
<path style="fill:#A79A9E;" d="M240.045,24.322H32.006c-4.419,0-8.001,3.583-8.001,8.001v176.033c0,4.419,3.583,8.001,8.001,8.001
	h208.039c4.419,0,8.001-3.583,8.001-8.001V32.323C248.046,27.904,244.463,24.322,240.045,24.322z"/>
<rect x="40.007" y="40.328" style="fill:#B9AEB1;" width="192.036" height="160.03"/>
<path style="fill:#F74FA4;" d="M186.038,59.464c-12.756-7.605-31.955-8.89-50.012,8.023c-18.056-16.914-37.254-15.632-50.012-8.023
	c-18.758,11.184-26.99,36.103-18.738,56.73c13.408,33.524,62.488,63.897,64.57,65.173c2.539,1.557,5.823,1.557,8.363,0
	c2.082-1.276,51.16-31.65,64.57-65.172C213.028,95.567,204.796,70.648,186.038,59.464z"/>
<path style="fill:#F2387F;" d="M83.213,118.011c-8.252-20.627-0.02-45.545,18.738-56.73c4.518-2.694,9.845-4.588,15.641-5.168
	c-11.881-3.94-23.14-1.681-31.58,3.352c-18.758,11.184-26.99,36.103-18.738,56.73c13.408,33.524,62.488,63.897,64.57,65.173
	c2.539,1.557,5.823,1.557,8.363,0c0.236-0.145,1.082-0.667,2.406-1.522C129.263,170.925,94.221,145.532,83.213,118.011z"/>
<path style="fill:#F74FA4;" d="M473.554,289.713c-14.646-8.73-31.047-11.418-47.433-7.771c-15.801,3.518-30.752,12.633-44.544,27.14
	c-13.793-14.507-28.744-23.622-44.544-27.14c-16.387-3.646-32.787-0.962-47.434,7.772c-32.896,19.612-47.313,63.354-32.82,99.581
	c24.775,61.938,116.715,118.829,120.617,121.219c2.539,1.557,5.823,1.557,8.363,0c3.902-2.391,95.842-59.282,120.617-121.219
	C520.867,353.068,506.449,309.326,473.554,289.713z"/>
<path style="fill:#F2387F;" d="M280.878,397.306c-14.492-36.228-0.075-79.969,32.82-99.581c13.076-7.797,27.551-10.757,42.166-8.712
	c-6.124-3.269-12.406-5.641-18.832-7.071c-16.387-3.646-32.787-0.962-47.434,7.772c-32.896,19.612-47.313,63.354-32.82,99.581
	c24.775,61.938,116.715,118.829,120.617,121.219c2.539,1.557,5.823,1.557,8.363,0c0.25-0.153,0.864-0.532,1.793-1.118
	C360.046,490.599,300.148,445.481,280.878,397.306z"/>
<g>
</g>
<g>
</g>
<g>
</g>
<g>
</g>
<g>
</g>
<g>
</g>
<g>
</g>
<g>
</g>
<g>
</g>
<g>
</g>
<g>
</g>
<g>
</g>
<g>
</g>
<g>
</g>
<g>
</g>
</svg>
