<?xml version="1.0" encoding="iso-8859-1"?>
<!-- Generator: Adobe Illustrator 19.0.0, SVG Export Plug-In . SVG Version: 6.00 Build 0)  -->
<svg version="1.1" id="Capa_1" xmlns="http://www.w3.org/2000/svg" xmlns:xlink="http://www.w3.org/1999/xlink" x="0px" y="0px"
	 viewBox="0 0 512 512" style="enable-background:new 0 0 512 512;" xml:space="preserve">
<path style="fill:#855FB8;" d="M144,168H64c-4.418,0-8,3.582-8,8v328c0,4.418,3.582,8,8,8h80c4.418,0,8-3.582,8-8V176
	C152,171.582,148.418,168,144,168z"/>
<path style="fill:#7B49AD;" d="M80,504V176c0-4.418,3.582-8,8-8H64c-4.418,0-8,3.582-8,8v328c0,4.418,3.582,8,8,8h24
	C83.582,512,80,508.418,80,504z"/>
<path style="fill:#55D3FA;" d="M296,272h-80c-4.418,0-8,3.582-8,8v224c0,4.418,3.582,8,8,8h80c4.418,0,8-3.582,8-8V280
	C304,275.582,300.418,272,296,272z"/>
<path style="fill:#56C4F0;" d="M232,504V280c0-4.418,3.582-8,8-8h-24c-4.418,0-8,3.582-8,8v224c0,4.418,3.582,8,8,8h24
	C235.582,512,232,508.418,232,504z"/>
<path style="fill:#FF9D4A;" d="M448,216h-80c-4.418,0-8,3.582-8,8v280c0,4.418,3.582,8,8,8h80c4.418,0,8-3.582,8-8V224
	C456,219.582,452.418,216,448,216z"/>
<path style="fill:#F48A16;" d="M384,504V224c0-4.418,3.582-8,8-8h-24c-4.418,0-8,3.582-8,8v280c0,4.418,3.582,8,8,8h24
	C387.582,512,384,508.418,384,504z"/>
<path style="fill:#95868A;" d="M408,128c-13.233,0-24,10.767-24,24c0,0.854,0.047,1.698,0.134,2.53l-106.706,42.682
	C273.471,189.384,265.355,184,256,184c-6.127,0-11.722,2.311-15.968,6.103l-112.324-82.371C127.899,106.516,128,105.27,128,104
	c0-13.233-10.766-24-24-24s-24,10.767-24,24s10.766,24,24,24c6.127,0,11.722-2.311,15.968-6.103l112.324,82.371
	C232.101,205.484,232,206.73,232,208c0,13.233,10.766,24,24,24c11.272,0,20.75-7.814,23.313-18.309l111.753-44.701
	C395.41,173.32,401.398,176,408,176c13.233,0,24-10.767,24-24S421.233,128,408,128z M104,112c-4.411,0-8-3.589-8-8s3.589-8,8-8
	s8,3.589,8,8S108.411,112,104,112z M256,216c-4.411,0-8-3.589-8-8s3.589-8,8-8c4.411,0,8,3.589,8,8S260.411,216,256,216z M408,160
	c-4.411,0-8-3.589-8-8s3.589-8,8-8s8,3.589,8,8S412.411,160,408,160z"/>
<path style="fill:#614A50;" d="M504,512H8c-4.418,0-8-3.582-8-8V8c0-4.418,3.582-8,8-8s8,3.582,8,8v488h488c4.418,0,8,3.582,8,8
	S508.418,512,504,512z"/>
<g>
</g>
<g>
</g>
<g>
</g>
<g>
</g>
<g>
</g>
<g>
</g>
<g>
</g>
<g>
</g>
<g>
</g>
<g>
</g>
<g>
</g>
<g>
</g>
<g>
</g>
<g>
</g>
<g>
</g>
</svg>
