<?xml version="1.0" encoding="iso-8859-1"?>
<!-- Generator: Adobe Illustrator 19.0.0, SVG Export Plug-In . SVG Version: 6.00 Build 0)  -->
<svg version="1.1" id="Capa_1" xmlns="http://www.w3.org/2000/svg" xmlns:xlink="http://www.w3.org/1999/xlink" x="0px" y="0px"
	 viewBox="0 0 512 512" style="enable-background:new 0 0 512 512;" xml:space="preserve">
<path style="fill:#FFB577;" d="M158.839,54.87L132.823,4.357c-1.831-3.554-5.997-5.222-9.776-3.913L92.677,10.972
	c-3.778,1.31-6.019,5.199-5.256,9.124l10.832,55.777c0.444,2.286,1.859,4.268,3.877,5.43c1.233,0.711,2.619,1.073,4.012,1.073
	c0.886,0,1.776-0.147,2.632-0.443l45.553-15.793c2.201-0.763,3.963-2.444,4.828-4.606C160.021,59.372,159.905,56.94,158.839,54.87z"
	/>
<path style="fill:#FF9D4A;" d="M92.677,10.972c-3.778,1.31-6.019,5.199-5.256,9.124l10.832,55.777
	c0.444,2.286,1.859,4.268,3.877,5.43c1.233,0.711,2.619,1.073,4.012,1.073c0.886,0,1.776-0.147,2.632-0.443l6.166-2.137
	L97.849,9.179L92.677,10.972z"/>
<path style="fill:#725E63;" d="M159.351,56.108L98.618,77.163l112.874,301.055c1.51,4.028,6.089,6.182,10.156,4.771l30.368-10.527
	c4.119-1.428,6.348-5.88,5.023-10.033L159.351,56.108z"/>
<path style="fill:#614A50;" d="M98.618,77.163l112.874,301.055c1.51,4.028,6.089,6.182,10.156,4.771l3.599-1.247L112.762,72.259
	L98.618,77.163z"/>
<path style="fill:#FFB577;" d="M349.231,47.549c-29.831-22.372-61.135-25.714-77.141-25.714c-37.288,0-64.336,16.11-77.141,25.714
	c-3.468,2.601-4.248,7.485-1.762,11.037l54.795,75.746c1.504,2.148,5.414,8.035,8.037,8.035h32.142c2.622,0,6.531-5.887,8.034-8.035
	l54.796-75.747C353.479,55.034,352.7,50.15,349.231,47.549z"/>
<path style="fill:#FF9D4A;" d="M194.95,47.549c-3.468,2.601-4.248,7.485-1.762,11.037l54.795,75.746
	c1.504,2.148,5.414,8.035,8.037,8.035h12.353L204.67,40.97C200.851,43.307,197.593,45.567,194.95,47.549z"/>
<g>
	<path style="fill:#F48A16;" d="M272.091,78.084c4.438,0,8.035-3.598,8.035-8.035V22.108c-2.973-0.196-5.674-0.272-8.035-0.272
		c-2.736,0-5.411,0.096-8.035,0.261v47.952C264.055,74.486,267.652,78.084,272.091,78.084z"/>
	<path style="fill:#F48A16;" d="M292.603,77.235c3.919,1.96,8.823,0.322,10.781-3.593l20.454-40.909
		c-5.202-2.276-10.298-4.091-15.2-5.536l-19.629,39.256C287.025,70.424,288.634,75.251,292.603,77.235z"/>
	<path style="fill:#F48A16;" d="M247.99,78.086c1.207,0,2.434-0.273,3.587-0.851c3.97-1.985,5.579-6.811,3.594-10.781
		l-19.635-39.269c-5.477,1.637-10.544,3.547-15.175,5.585l20.436,40.872C242.205,76.458,245.042,78.086,247.99,78.086z"/>
</g>
<path style="fill:#F97BBB;" d="M247.984,134.332v176.781c0,4.438,3.598,8.035,8.035,8.035h32.142c4.438,0,8.035-3.598,8.035-8.035
	V134.332"/>
<path style="fill:#F74FA4;" d="M264.055,311.113V134.332h-16.071v176.781c0,4.438,3.598,8.035,8.035,8.035h16.071
	C267.652,319.148,264.055,315.55,264.055,311.113z"/>
<path style="fill:#725E63;" d="M333.18,324.188l-29.969-11.617c4.05-23.765,11.247-53.167,24.456-85.319
	c10.547-25.671,22.502-47.2,33.632-64.526c9.99,3.872,19.979,7.745,29.969,11.617c-3.456,20.3-9.134,44.262-18.646,70.335
	C360.707,277.332,346.207,303.902,333.18,324.188z"/>
<path style="fill:#614A50;" d="M337.058,238.283c10.547-25.672,22.502-47.201,33.632-64.526c6.445,2.499,12.891,4.997,19.336,7.496
	c0.441-2.344,0.858-4.654,1.241-6.91c-9.99-3.872-19.979-7.745-29.969-11.617c-11.129,17.326-23.085,38.855-33.632,64.526
	c-13.208,32.153-20.406,61.554-24.456,85.319l10.637,4.123C318.078,294.234,325.099,267.395,337.058,238.283z"/>
<path style="fill:#FFB577;" d="M416.046,84.251c-1.284-5.367-7.752-7.887-12.329-4.779c-8.159,5.54-49.213,34.088-56.182,52.064
	c-8.007,20.655,2.283,43.975,22.939,51.983c15.752,6.108,34.139,1.439,45.099-11.394c2.925-3.425,5.255-7.345,6.883-11.545
	C429.425,142.603,418.34,93.843,416.046,84.251z"/>
<path style="fill:#FF9D4A;" d="M386.137,175.448c-20.655-8.007-30.947-31.326-22.939-51.983
	c5.399-13.929,31.251-34.194,46.42-45.197c-1.971-0.367-4.084-0.032-5.902,1.202c-8.159,5.54-49.213,34.088-56.182,52.064
	c-8.007,20.655,2.283,43.975,22.939,51.983c13.686,5.307,29.361,2.474,40.427-6.778
	C402.847,178.868,394.152,178.555,386.137,175.448z"/>
<path style="fill:#DCD7D8;" d="M400.658,222.722H143.523c-4.438,0-8.035,3.598-8.035,8.035v208.923
	c0,39.877,32.442,72.319,72.319,72.319h128.568c39.877,0,72.319-32.442,72.319-72.319V230.758
	C408.694,226.32,405.096,222.722,400.658,222.722z"/>
<path style="fill:#CAC3C5;" d="M159.594,439.681V230.758c0-4.438,3.598-8.035,8.035-8.035h-24.106c-4.438,0-8.035,3.598-8.035,8.035
	v208.923c0,39.877,32.442,72.319,72.319,72.319h24.106C192.036,512,159.594,479.558,159.594,439.681z"/>
<g>
</g>
<g>
</g>
<g>
</g>
<g>
</g>
<g>
</g>
<g>
</g>
<g>
</g>
<g>
</g>
<g>
</g>
<g>
</g>
<g>
</g>
<g>
</g>
<g>
</g>
<g>
</g>
<g>
</g>
</svg>
