<?xml version="1.0" encoding="iso-8859-1"?>
<!-- Generator: Adobe Illustrator 19.0.0, SVG Export Plug-In . SVG Version: 6.00 Build 0)  -->
<svg version="1.1" id="Capa_1" xmlns="http://www.w3.org/2000/svg" xmlns:xlink="http://www.w3.org/1999/xlink" x="0px" y="0px"
	 viewBox="0 0 512 512" style="enable-background:new 0 0 512 512;" xml:space="preserve">
<path style="fill:#FF9D4A;" d="M268,0h-24c-46.317,0-84,37.683-84,84v144c0,11.046,8.954,20,20,20s20-8.954,20-20V84
	c0-24.262,19.738-44,44-44h24c24.262,0,44,19.738,44,44v144c0,11.046,8.954,20,20,20s20-8.954,20-20V84C352,37.683,314.317,0,268,0z
	"/>
<g>
	<path style="fill:#F48A16;" d="M160,228c0,11.046,8.954,20,20,20s20-8.954,20-20v-29h-40V228z"/>
	<path style="fill:#F48A16;" d="M312,199v29c0,11.046,8.954,20,20,20s20-8.954,20-20v-29H312z"/>
</g>
<path style="fill:#55D3FA;" d="M352,224H160c-39.701,0-72,32.299-72,72v208c0,4.418,3.582,8,8,8h320c4.418,0,8-3.582,8-8V296
	C424,256.299,391.701,224,352,224z"/>
<path style="fill:#56C4F0;" d="M112,504V296c0-39.701,32.299-72,72-72h-24c-39.701,0-72,32.299-72,72v208c0,4.418,3.582,8,8,8h24
	C115.582,512,112,508.418,112,504z"/>
<path style="fill:#725E63;" d="M291.145,371.591C304.299,361.003,312,345.097,312,328c0-30.879-25.121-56-56-56s-56,25.121-56,56
	c0,17.097,7.701,33.003,20.855,43.591l-20.616,82.469c-1.243,4.97,2.642,9.94,7.761,9.94h96c5.119,0,9.004-4.97,7.761-9.94
	L291.145,371.591z"/>
<path style="fill:#614A50;" d="M224.239,454.06l20.616-82.469C231.701,361.003,224,345.097,224,328
	c0-26.759,18.871-49.182,44-54.692c-3.869-0.848-7.881-1.308-12-1.308c-30.879,0-56,25.121-56,56
	c0,17.097,7.701,33.003,20.855,43.591l-20.616,82.469c-1.243,4.971,2.642,9.94,7.761,9.94h24
	C226.881,464,222.996,459.03,224.239,454.06z"/>
<g>
</g>
<g>
</g>
<g>
</g>
<g>
</g>
<g>
</g>
<g>
</g>
<g>
</g>
<g>
</g>
<g>
</g>
<g>
</g>
<g>
</g>
<g>
</g>
<g>
</g>
<g>
</g>
<g>
</g>
</svg>
