<?xml version="1.0" encoding="iso-8859-1"?>
<!-- Generator: Adobe Illustrator 19.0.0, SVG Export Plug-In . SVG Version: 6.00 Build 0)  -->
<svg version="1.1" id="Capa_1" xmlns="http://www.w3.org/2000/svg" xmlns:xlink="http://www.w3.org/1999/xlink" x="0px" y="0px"
	 viewBox="0 0 512.001 512.001" style="enable-background:new 0 0 512.001 512.001;" xml:space="preserve">
<path style="fill:#EDEBEC;" d="M510.387,251.183C447.505,167.815,354.784,120,256,120c-98.785,0-191.505,47.814-254.387,131.183
	c-2.151,2.852-2.151,6.783,0,9.635C64.495,344.186,157.215,392,256,392c98.784,0,191.505-47.814,254.387-131.183
	C512.538,257.966,512.538,254.034,510.387,251.183z"/>
<path style="fill:#DCD7D8;" d="M288,377c-104.959,0-203.474-50.803-270.286-139.381c-0.98-1.3-1.514-2.813-1.653-4.353
	c-4.972,5.776-9.793,11.747-14.448,17.917c-2.151,2.852-2.151,6.783,0,9.635C64.495,344.186,157.215,392,256,392
	c48.08,0,94.722-11.331,137.188-32.571C359.579,370.964,324.172,377,288,377z"/>
<path style="fill:#55D3FA;" d="M256,136c-66.168,0-120,53.832-120,120s53.832,120,120,120s120-53.832,120-120S322.168,136,256,136z"
	/>
<path style="fill:#56C4F0;" d="M272,360c-66.168,0-120-53.832-120-120c0-29.019,10.356-55.664,27.563-76.437
	C152.97,185.592,136,218.851,136,256c0,66.168,53.832,120,120,120c37.149,0,70.408-16.97,92.437-43.563
	C327.663,349.645,301.019,360,272,360z"/>
<path style="fill:#614A50;" d="M256,208c-26.467,0-48,21.532-48,48s21.533,48,48,48c26.468,0,48-21.532,48-48S282.468,208,256,208z"
	/>
<g>
</g>
<g>
</g>
<g>
</g>
<g>
</g>
<g>
</g>
<g>
</g>
<g>
</g>
<g>
</g>
<g>
</g>
<g>
</g>
<g>
</g>
<g>
</g>
<g>
</g>
<g>
</g>
<g>
</g>
</svg>
