<?xml version="1.0" encoding="iso-8859-1"?>
<!-- Generator: Adobe Illustrator 19.0.0, SVG Export Plug-In . SVG Version: 6.00 Build 0)  -->
<svg version="1.1" id="Capa_1" xmlns="http://www.w3.org/2000/svg" xmlns:xlink="http://www.w3.org/1999/xlink" x="0px" y="0px"
	 viewBox="0 0 512 512" style="enable-background:new 0 0 512 512;" xml:space="preserve">
<path style="fill:#FF9D4A;" d="M383.362,128.638C336.521,81.797,274.243,56,208,56H8c-4.418,0-8,3.582-8,8v440c0,4.418,3.582,8,8,8
	h440c4.418,0,8-3.582,8-8V304C456,237.757,430.204,175.479,383.362,128.638z"/>
<g>
	<path style="fill:#F48A16;" d="M32,488c-4.418,0-8-3.582-8-8V56H8c-4.418,0-8,3.582-8,8v440c0,4.418,3.582,8,8,8h440
		c4.418,0,8-3.582,8-8v-16H32z"/>
	<path style="fill:#F48A16;" d="M208,240c-4.418,0-8-3.582-8-8v-4c0-4.418,3.582-8,8-8s8,3.582,8,8v4
		C216,236.418,212.418,240,208,240z"/>
	<path style="fill:#F48A16;" d="M208,207.2c-4.418,0-8-3.582-8-8v-9.6c0-4.418,3.582-8,8-8s8,3.582,8,8v9.6
		C216,203.618,212.418,207.2,208,207.2z"/>
	<path style="fill:#F48A16;" d="M208,168.8c-4.418,0-8-3.582-8-8v-9.6c0-4.418,3.582-8,8-8s8,3.582,8,8v9.6
		C216,165.218,212.418,168.8,208,168.8z M208,130.399c-4.418,0-8-3.582-8-8v-9.6c0-4.418,3.582-8,8-8s8,3.582,8,8v9.6
		C216,126.817,212.418,130.399,208,130.399z"/>
	<path style="fill:#F48A16;" d="M208,92c-4.418,0-8-3.582-8-8v-4c0-4.418,3.582-8,8-8s8,3.582,8,8v4C216,88.418,212.418,92,208,92z"
		/>
	<path style="fill:#F48A16;" d="M432,312h-4c-4.418,0-8-3.582-8-8s3.582-8,8-8h4c4.418,0,8,3.582,8,8S436.418,312,432,312z"/>
	<path style="fill:#F48A16;" d="M399.2,312h-9.6c-4.418,0-8-3.582-8-8s3.582-8,8-8h9.6c4.418,0,8,3.582,8,8S403.619,312,399.2,312z"
		/>
	<path style="fill:#F48A16;" d="M360.8,312h-9.6c-4.418,0-8-3.582-8-8s3.582-8,8-8h9.6c4.418,0,8,3.582,8,8S365.218,312,360.8,312z
		 M322.4,312h-9.6c-4.418,0-8-3.582-8-8s3.582-8,8-8h9.6c4.418,0,8,3.582,8,8S326.818,312,322.4,312z"/>
	<path style="fill:#F48A16;" d="M284,312h-4c-4.418,0-8-3.582-8-8s3.582-8,8-8h4c4.418,0,8,3.582,8,8S288.418,312,284,312z"/>
</g>
<g>
	<path style="fill:#95868A;" d="M208,0c-4.418,0-8,3.582-8,8v24h-24c-4.418,0-8,3.582-8,8s3.582,8,8,8h32c4.418,0,8-3.582,8-8V8
		C216,3.582,212.418,0,208,0z"/>
	<path style="fill:#95868A;" d="M504,296h-32c-4.418,0-8,3.582-8,8v32c0,4.418,3.582,8,8,8s8-3.582,8-8v-24h24c4.418,0,8-3.582,8-8
		S508.418,296,504,296z"/>
</g>
<path style="fill:#614A50;" d="M248,296h-17.376c-2.414-6.807-7.816-12.209-14.624-14.624V264c0-4.418-3.582-8-8-8s-8,3.582-8,8
	v17.376c-6.807,2.415-12.209,7.817-14.624,14.624H168c-4.418,0-8,3.582-8,8s3.582,8,8,8h17.376
	c2.414,6.807,7.816,12.209,14.624,14.624V344c0,4.418,3.582,8,8,8s8-3.582,8-8v-17.376c6.807-2.415,12.209-7.817,14.624-14.624H248
	c4.418,0,8-3.582,8-8S252.418,296,248,296z M208,312c-4.411,0-8-3.589-8-8s3.589-8,8-8s8,3.589,8,8S212.411,312,208,312z"/>
<g>
</g>
<g>
</g>
<g>
</g>
<g>
</g>
<g>
</g>
<g>
</g>
<g>
</g>
<g>
</g>
<g>
</g>
<g>
</g>
<g>
</g>
<g>
</g>
<g>
</g>
<g>
</g>
<g>
</g>
</svg>
