<?xml version="1.0" encoding="iso-8859-1"?>
<!-- Generator: Adobe Illustrator 19.0.0, SVG Export Plug-In . SVG Version: 6.00 Build 0)  -->
<svg version="1.1" id="Capa_1" xmlns="http://www.w3.org/2000/svg" xmlns:xlink="http://www.w3.org/1999/xlink" x="0px" y="0px"
	 viewBox="0 0 512 512" style="enable-background:new 0 0 512 512;" xml:space="preserve">
<path style="fill:#855FB8;" d="M504,56H64c-4.418,0-8,3.582-8,8v440c0,4.418,3.582,8,8,8h72c4.418,0,8-3.582,8-8V144h360
	c4.418,0,8-3.582,8-8V64C512,59.582,508.418,56,504,56z"/>
<path style="fill:#7B49AD;" d="M80,496c-4.418,0-8-3.582-8-8V56h-8c-4.418,0-8,3.582-8,8v440c0,4.418,3.582,8,8,8h72
	c4.418,0,8-3.582,8-8v-8H80z"/>
<path style="fill:#55D3FA;" d="M448,0h-72c-4.418,0-8,3.582-8,8v360H8c-4.418,0-8,3.582-8,8v72c0,4.418,3.582,8,8,8h440
	c4.418,0,8-3.582,8-8V8C456,3.582,452.418,0,448,0z"/>
<path style="fill:#56C4F0;" d="M24,440c-4.418,0-8-3.582-8-8v-64H8c-4.418,0-8,3.582-8,8v72c0,4.418,3.582,8,8,8h440
	c4.418,0,8-3.582,8-8v-8H24z"/>
<g>
	<path style="fill:#95868A;" d="M160,360c-2.048,0-4.095-0.781-5.657-2.344c-3.124-3.124-3.124-8.189,0.001-11.313l2.829-2.828
		c3.125-3.123,8.19-3.123,11.313,0.001c3.124,3.124,3.124,8.189-0.001,11.313l-2.829,2.828C164.094,359.219,162.047,360,160,360z"/>
	<path style="fill:#95868A;" d="M178.801,341.199c-2.047,0-4.095-0.781-5.657-2.343c-3.125-3.125-3.125-8.189,0-11.314l5.324-5.324
		c3.124-3.123,8.189-3.123,11.313,0c3.125,3.125,3.125,8.189,0,11.314l-5.324,5.324
		C182.896,340.418,180.848,341.199,178.801,341.199z M200.097,319.903c-2.047,0-4.095-0.781-5.657-2.343
		c-3.125-3.125-3.125-8.189,0-11.314l5.324-5.324c3.124-3.123,8.189-3.123,11.313,0c3.125,3.125,3.125,8.189,0,11.314l-5.324,5.324
		C204.192,319.122,202.145,319.903,200.097,319.903z M221.394,298.606c-2.047,0-4.095-0.781-5.657-2.343
		c-3.125-3.125-3.125-8.189,0-11.314l5.324-5.324c3.124-3.123,8.189-3.123,11.313,0c3.125,3.125,3.125,8.189,0,11.314l-5.324,5.324
		C225.488,297.825,223.441,298.606,221.394,298.606z M242.69,277.311c-2.047,0-4.095-0.781-5.657-2.343
		c-3.125-3.125-3.125-8.189,0-11.314l5.324-5.324c3.124-3.123,8.189-3.123,11.313,0c3.125,3.125,3.125,8.189,0,11.314l-5.324,5.324
		C246.785,276.529,244.737,277.311,242.69,277.311z M263.986,256.014c-2.047,0-4.095-0.781-5.657-2.343
		c-3.125-3.125-3.125-8.189,0-11.314l5.324-5.324c3.124-3.123,8.189-3.123,11.313,0c3.125,3.125,3.125,8.189,0,11.314l-5.324,5.324
		C268.081,255.232,266.034,256.014,263.986,256.014z M285.283,234.718c-2.047,0-4.094-0.781-5.657-2.343
		c-3.124-3.124-3.125-8.189,0-11.313l5.324-5.324c3.124-3.125,8.189-3.124,11.314-0.001c3.124,3.124,3.125,8.189,0,11.313
		l-5.324,5.324C289.378,233.937,287.33,234.718,285.283,234.718z M306.579,213.421c-2.047,0-4.094-0.781-5.657-2.343
		c-3.124-3.124-3.125-8.189,0-11.313l5.324-5.324c3.124-3.125,8.189-3.124,11.314-0.001c3.124,3.124,3.125,8.189,0,11.313
		l-5.324,5.324C310.674,212.64,308.626,213.421,306.579,213.421z M327.875,192.125c-2.047,0-4.094-0.781-5.657-2.343
		c-3.124-3.124-3.125-8.189,0-11.313l5.324-5.324c3.124-3.125,8.189-3.124,11.314-0.001c3.124,3.124,3.125,8.189,0,11.313
		l-5.324,5.324C331.971,191.344,329.923,192.125,327.875,192.125z"/>
	<path style="fill:#95868A;" d="M349.171,170.828c-2.048,0-4.095-0.781-5.657-2.344c-3.124-3.124-3.124-8.189,0.001-11.313
		l2.829-2.828c3.125-3.123,8.19-3.123,11.313,0.001c3.124,3.124,3.124,8.189-0.001,11.313l-2.829,2.828
		C353.266,170.047,351.219,170.828,349.171,170.828z"/>
</g>
<g>
</g>
<g>
</g>
<g>
</g>
<g>
</g>
<g>
</g>
<g>
</g>
<g>
</g>
<g>
</g>
<g>
</g>
<g>
</g>
<g>
</g>
<g>
</g>
<g>
</g>
<g>
</g>
<g>
</g>
</svg>
