<?xml version="1.0" encoding="iso-8859-1"?>
<!-- Generator: Adobe Illustrator 19.0.0, SVG Export Plug-In . SVG Version: 6.00 Build 0)  -->
<svg version="1.1" id="Capa_1" xmlns="http://www.w3.org/2000/svg" xmlns:xlink="http://www.w3.org/1999/xlink" x="0px" y="0px"
	 viewBox="0 0 512 512" style="enable-background:new 0 0 512 512;" xml:space="preserve">
<path style="fill:#FF9D4A;" d="M507.571,352.832L259.486,232.79c-2.201-1.064-4.771-1.064-6.971,0L4.428,352.832
	c-5.904,2.857-5.905,11.55,0,14.407L252.514,487.28c1.1,0.532,2.293,0.799,3.485,0.799c1.192,0,2.385-0.267,3.485-0.799
	L507.57,367.239C513.475,364.383,513.476,355.689,507.571,352.832z"/>
<path style="fill:#F48A16;" d="M507.571,352.832l-9.921-4.801L259.486,463.272c-1.1,0.532-2.293,0.799-3.485,0.799
	c-1.192,0-2.385-0.267-3.485-0.799L14.35,348.031l-9.921,4.801c-5.904,2.856-5.905,11.55,0,14.407L252.514,487.28
	c1.1,0.532,2.293,0.799,3.485,0.799c1.192,0,2.385-0.267,3.485-0.799L507.57,367.239
	C513.475,364.383,513.476,355.689,507.571,352.832z"/>
<path style="fill:#F74FA4;" d="M507.571,248.796L259.486,128.754c-2.201-1.064-4.771-1.064-6.971,0L4.428,248.796
	c-5.904,2.857-5.905,11.55,0,14.407l248.086,120.041c1.1,0.532,2.293,0.799,3.485,0.799c1.192,0,2.385-0.267,3.485-0.799
	L507.57,263.203C513.475,260.347,513.476,251.653,507.571,248.796z"/>
<path style="fill:#F2387F;" d="M507.571,248.796l-9.921-4.801L259.486,359.236c-1.1,0.532-2.293,0.799-3.485,0.799
	c-1.192,0-2.385-0.267-3.485-0.799L14.35,243.995l-9.921,4.801c-5.904,2.856-5.905,11.55,0,14.407l248.086,120.041
	c1.1,0.532,2.293,0.799,3.485,0.799c1.192,0,2.385-0.267,3.485-0.799L507.57,263.203
	C513.475,260.347,513.476,251.653,507.571,248.796z"/>
<path style="fill:#FF9D4A;" d="M507.571,144.76L259.486,24.718c-2.201-1.064-4.771-1.064-6.971,0L4.428,144.76
	c-5.904,2.857-5.905,11.55,0,14.407l248.086,120.042c1.1,0.532,2.293,0.799,3.485,0.799c1.192,0,2.385-0.267,3.485-0.799
	L507.57,159.167C513.475,156.311,513.476,147.617,507.571,144.76z"/>
<path style="fill:#F48A16;" d="M507.571,144.76l-9.921-4.801L259.486,255.2c-1.1,0.532-2.293,0.799-3.485,0.799
	c-1.192,0-2.385-0.267-3.485-0.799L14.35,139.959l-9.921,4.801c-5.904,2.856-5.905,11.55,0,14.407l248.086,120.042
	c1.1,0.532,2.293,0.799,3.485,0.799c1.192,0,2.385-0.267,3.485-0.799L507.57,159.167
	C513.475,156.311,513.476,147.617,507.571,144.76z"/>
<g>
</g>
<g>
</g>
<g>
</g>
<g>
</g>
<g>
</g>
<g>
</g>
<g>
</g>
<g>
</g>
<g>
</g>
<g>
</g>
<g>
</g>
<g>
</g>
<g>
</g>
<g>
</g>
<g>
</g>
</svg>
