<?xml version="1.0" encoding="iso-8859-1"?>
<!-- Generator: Adobe Illustrator 19.0.0, SVG Export Plug-In . SVG Version: 6.00 Build 0)  -->
<svg version="1.1" id="Capa_1" xmlns="http://www.w3.org/2000/svg" xmlns:xlink="http://www.w3.org/1999/xlink" x="0px" y="0px"
	 viewBox="0 0 512 512" style="enable-background:new 0 0 512 512;" xml:space="preserve">
<path style="fill:#95868A;" d="M511.486,459.091c0.585-1.548,0.676-3.285,0.247-4.886l-11.713-43.714
	c-1.144-4.268-5.53-6.799-9.798-5.657c-4.268,1.144-6.801,5.53-5.657,9.798l6.942,25.91L263.998,319.185V47.289l18.344,18.345
	c3.286,3.284,8.829,3.021,11.805-0.539c2.619-3.134,2.393-7.891-0.491-10.776l-32.001-32.001c-3.07-3.063-8.247-3.088-11.314,0
	l-32.001,32.001c-3.125,3.125-3.125,8.189,0,11.314c3.124,3.123,8.189,3.123,11.313,0l18.344-18.345v271.896L20.487,440.542
	l6.943-25.91c1.144-4.268-1.389-8.654-5.657-9.798c-4.264-1.141-8.654,1.39-9.798,5.657L0.261,454.205
	c-1.113,4.153,1.437,8.743,5.657,9.798l43.714,11.713c4.32,1.156,8.864-1.58,9.867-5.936c0.954-4.142-1.623-8.42-5.727-9.519
	l-24.134-6.467l226.358-120.743l226.358,120.743l-24.134,6.467c-4.103,1.1-6.681,5.378-5.727,9.519
	c1.004,4.356,5.547,7.092,9.867,5.936l43.714-11.713C508.549,463.313,510.578,461.497,511.486,459.091z"/>
<polygon style="fill:#FFCEA4;" points="95.992,211.981 255.998,139.979 424.003,211.981 424.003,411.988 255.998,491.99 
	95.992,411.988 "/>
<polygon style="fill:#FFB577;" points="255.998,491.99 424.003,411.988 424.003,211.981 255.998,291.984 "/>
<polygon style="fill:#FF9D4A;" points="95.992,411.988 255.998,491.99 255.998,291.984 95.992,211.981 "/>
<g>
</g>
<g>
</g>
<g>
</g>
<g>
</g>
<g>
</g>
<g>
</g>
<g>
</g>
<g>
</g>
<g>
</g>
<g>
</g>
<g>
</g>
<g>
</g>
<g>
</g>
<g>
</g>
<g>
</g>
</svg>
