<?xml version="1.0" encoding="iso-8859-1"?>
<!-- Generator: Adobe Illustrator 19.0.0, SVG Export Plug-In . SVG Version: 6.00 Build 0)  -->
<svg version="1.1" id="Capa_1" xmlns="http://www.w3.org/2000/svg" xmlns:xlink="http://www.w3.org/1999/xlink" x="0px" y="0px"
	 viewBox="0 0 512 512" style="enable-background:new 0 0 512 512;" xml:space="preserve">
<path style="fill:#B9AEB1;" d="M472,480H40c-4.418,0-8-3.582-8-8V40c0-4.418,3.582-8,8-8h432c4.418,0,8,3.582,8,8v432
	C480,476.418,476.418,480,472,480z M48,464h416V48H48V464z"/>
<path style="fill:#56C4F0;" d="M72,0H8C3.582,0,0,3.582,0,8v64c0,4.418,3.582,8,8,8h64c4.418,0,8-3.582,8-8V8
	C80,3.582,76.418,0,72,0z"/>
<rect x="16" y="16" style="fill:#55D3FA;" width="48" height="48"/>
<path style="fill:#56C4F0;" d="M288,0h-64c-4.418,0-8,3.582-8,8v64c0,4.418,3.582,8,8,8h64c4.418,0,8-3.582,8-8V8
	C296,3.582,292.418,0,288,0z"/>
<rect x="232" y="16" style="fill:#55D3FA;" width="48" height="48"/>
<path style="fill:#56C4F0;" d="M504,0h-64c-4.418,0-8,3.582-8,8v64c0,4.418,3.582,8,8,8h64c4.418,0,8-3.582,8-8V8
	C512,3.582,508.418,0,504,0z"/>
<rect x="448" y="16" style="fill:#55D3FA;" width="48" height="48"/>
<path style="fill:#56C4F0;" d="M72,216H8c-4.418,0-8,3.582-8,8v64c0,4.418,3.582,8,8,8h64c4.418,0,8-3.582,8-8v-64
	C80,219.582,76.418,216,72,216z"/>
<rect x="16" y="232" style="fill:#55D3FA;" width="48" height="48"/>
<path style="fill:#56C4F0;" d="M504,216h-64c-4.418,0-8,3.582-8,8v64c0,4.418,3.582,8,8,8h64c4.418,0,8-3.582,8-8v-64
	C512,219.582,508.418,216,504,216z"/>
<rect x="448" y="232" style="fill:#55D3FA;" width="48" height="48"/>
<path style="fill:#56C4F0;" d="M72,432H8c-4.418,0-8,3.582-8,8v64c0,4.418,3.582,8,8,8h64c4.418,0,8-3.582,8-8v-64
	C80,435.582,76.418,432,72,432z"/>
<rect x="16" y="448" style="fill:#55D3FA;" width="48" height="48"/>
<path style="fill:#56C4F0;" d="M288,432h-64c-4.418,0-8,3.582-8,8v64c0,4.418,3.582,8,8,8h64c4.418,0,8-3.582,8-8v-64
	C296,435.582,292.418,432,288,432z"/>
<rect x="232" y="448" style="fill:#55D3FA;" width="48" height="48"/>
<path style="fill:#56C4F0;" d="M504,432h-64c-4.418,0-8,3.582-8,8v64c0,4.418,3.582,8,8,8h64c4.418,0,8-3.582,8-8v-64
	C512,435.582,508.418,432,504,432z"/>
<rect x="448" y="448" style="fill:#55D3FA;" width="48" height="48"/>
<path style="fill:#95868A;" d="M312,248h-16.805c-3.19-15.65-15.545-28.005-31.195-31.195V200c0-4.418-3.582-8-8-8s-8,3.582-8,8
	v16.805c-15.65,3.19-28.006,15.545-31.195,31.195H200c-4.418,0-8,3.582-8,8s3.582,8,8,8h16.805
	c3.19,15.65,15.545,28.005,31.195,31.195V312c0,4.418,3.582,8,8,8s8-3.582,8-8v-16.805c15.65-3.19,28.006-15.545,31.195-31.195H312
	c4.418,0,8-3.582,8-8S316.418,248,312,248z M256,280c-13.233,0-24-10.767-24-24s10.767-24,24-24s24,10.767,24,24
	S269.233,280,256,280z"/>
<g>
</g>
<g>
</g>
<g>
</g>
<g>
</g>
<g>
</g>
<g>
</g>
<g>
</g>
<g>
</g>
<g>
</g>
<g>
</g>
<g>
</g>
<g>
</g>
<g>
</g>
<g>
</g>
<g>
</g>
</svg>
