<?xml version="1.0" encoding="iso-8859-1"?>
<!-- Generator: Adobe Illustrator 19.0.0, SVG Export Plug-In . SVG Version: 6.00 Build 0)  -->
<svg version="1.1" id="Capa_1" xmlns="http://www.w3.org/2000/svg" xmlns:xlink="http://www.w3.org/1999/xlink" x="0px" y="0px"
	 viewBox="0 0 512 512" style="enable-background:new 0 0 512 512;" xml:space="preserve">
<path style="fill:#855FB8;" d="M320,0H8C3.582,0,0,3.582,0,8v312c0,4.418,3.582,8,8,8h152c4.418,0,8-3.582,8-8V168h152
	c4.418,0,8-3.582,8-8V8C328,3.582,324.418,0,320,0z"/>
<path style="fill:#7B49AD;" d="M32,304c-4.418,0-8-3.582-8-8V0H8C3.582,0,0,3.582,0,8v312c0,4.418,3.582,8,8,8h152
	c4.418,0,8-3.582,8-8v-16H32z"/>
<path style="fill:#855FB8;" d="M504,184H352c-4.418,0-8,3.582-8,8v152H192c-4.418,0-8,3.582-8,8v152c0,4.418,3.582,8,8,8h312
	c4.418,0,8-3.582,8-8V192C512,187.582,508.418,184,504,184z"/>
<path style="fill:#7B49AD;" d="M216,488c-4.418,0-8-3.582-8-8V344h-16c-4.418,0-8,3.582-8,8v152c0,4.418,3.582,8,8,8h312
	c4.418,0,8-3.582,8-8v-16H216z"/>
<path style="fill:#C2AFDB;" d="M320,184H192c-4.418,0-8,3.582-8,8v128c0,4.418,3.582,8,8,8h128c4.418,0,8-3.582,8-8V192
	C328,187.582,324.418,184,320,184z"/>
<path style="fill:#A487C9;" d="M216,304c-4.418,0-8-3.582-8-8V184h-16c-4.418,0-8,3.582-8,8v128c0,4.418,3.582,8,8,8h128
	c4.418,0,8-3.582,8-8v-16H216z"/>
<g>
</g>
<g>
</g>
<g>
</g>
<g>
</g>
<g>
</g>
<g>
</g>
<g>
</g>
<g>
</g>
<g>
</g>
<g>
</g>
<g>
</g>
<g>
</g>
<g>
</g>
<g>
</g>
<g>
</g>
</svg>
