<?xml version="1.0" encoding="iso-8859-1"?>
<!-- Generator: Adobe Illustrator 19.0.0, SVG Export Plug-In . SVG Version: 6.00 Build 0)  -->
<svg version="1.1" id="Capa_1" xmlns="http://www.w3.org/2000/svg" xmlns:xlink="http://www.w3.org/1999/xlink" x="0px" y="0px"
	 viewBox="0 0 512 512" style="enable-background:new 0 0 512 512;" xml:space="preserve">
<path style="fill:#55D3FA;" d="M503.919,184.107H327.977V7.997c0-4.417-3.581-7.997-7.997-7.997H8.081
	C3.664,0,0.083,3.581,0.083,7.997v311.898c0,4.417,3.581,7.997,7.997,7.997h175.943v176.11c0,4.417,3.581,7.997,7.997,7.997h311.898
	c4.417,0,7.997-3.581,7.997-7.997V192.104C511.917,187.687,508.337,184.107,503.919,184.107z"/>
<g>
	<path style="fill:#56C4F0;" d="M216.013,488.008c-4.417,0-7.997-3.581-7.997-7.997v-176.11H32.073
		c-4.417,0-7.997-3.581-7.997-7.997V0H8.081C3.664,0,0.083,3.581,0.083,7.997v311.898c0,4.417,3.581,7.997,7.997,7.997h175.943
		v176.11c0,4.417,3.581,7.997,7.997,7.997h311.898c4.417,0,7.997-3.581,7.997-7.997v-15.995H216.013z"/>
	<path style="fill:#56C4F0;" d="M327.977,203.434c-4.141,0-7.498-3.357-7.498-7.498v-3.999c0-4.141,3.357-7.498,7.498-7.498
		s7.498,3.357,7.498,7.498v3.999C335.474,200.077,332.117,203.434,327.977,203.434z"/>
	<path style="fill:#56C4F0;" d="M327.977,299.402c-4.141,0-7.498-3.357-7.498-7.498v-7.997c0-4.141,3.357-7.498,7.498-7.498
		s7.498,3.357,7.498,7.498v7.997C335.474,296.045,332.117,299.402,327.977,299.402z M327.977,267.413
		c-4.141,0-7.498-3.357-7.498-7.498v-7.997c0-4.141,3.357-7.498,7.498-7.498s7.498,3.357,7.498,7.498v7.997
		C335.474,264.056,332.117,267.413,327.977,267.413z M327.977,235.423c-4.141,0-7.498-3.357-7.498-7.498v-7.997
		c0-4.141,3.357-7.498,7.498-7.498s7.498,3.357,7.498,7.498v7.997C335.474,232.066,332.117,235.423,327.977,235.423z"/>
	<path style="fill:#56C4F0;" d="M327.977,327.393h-3.999c-4.141,0-7.498-3.357-7.498-7.498c0-3.108,1.891-5.774,4.586-6.911
		c1.137-2.694,3.803-4.586,6.911-4.586c4.141,0,7.498,3.357,7.498,7.498v3.999C335.474,324.036,332.117,327.393,327.977,327.393z"/>
	<path style="fill:#56C4F0;" d="M298.386,327.393h-8.53c-4.141,0-7.498-3.357-7.498-7.498c0-4.141,3.357-7.498,7.498-7.498h8.53
		c4.141,0,7.498,3.357,7.498,7.498C305.884,324.036,302.527,327.393,298.386,327.393z M264.264,327.393h-8.53
		c-4.141,0-7.498-3.357-7.498-7.498c0-4.141,3.357-7.498,7.498-7.498h8.53c4.141,0,7.498,3.357,7.498,7.498
		C271.762,324.036,268.405,327.393,264.264,327.393z M230.142,327.393h-8.53c-4.141,0-7.498-3.357-7.498-7.498
		c0-4.141,3.357-7.498,7.498-7.498h8.53c4.141,0,7.498,3.357,7.498,7.498C237.64,324.036,234.283,327.393,230.142,327.393z"/>
	<path style="fill:#56C4F0;" d="M196.02,327.393h-3.999c-4.141,0-7.498-3.357-7.498-7.498v-3.999c0-4.141,3.357-7.498,7.498-7.498
		c3.108,0,5.774,1.891,6.911,4.586c2.694,1.137,4.585,3.803,4.585,6.911C203.517,324.036,200.16,327.393,196.02,327.393z"/>
	<path style="fill:#56C4F0;" d="M192.021,299.402c-4.141,0-7.498-3.357-7.498-7.498v-7.997c0-4.141,3.357-7.498,7.498-7.498
		c4.141,0,7.498,3.357,7.498,7.498v7.997C199.518,296.045,196.162,299.402,192.021,299.402z M192.021,267.413
		c-4.141,0-7.498-3.357-7.498-7.498v-7.997c0-4.141,3.357-7.498,7.498-7.498c4.141,0,7.498,3.357,7.498,7.498v7.997
		C199.518,264.056,196.162,267.413,192.021,267.413z M192.021,235.423c-4.141,0-7.498-3.357-7.498-7.498v-7.997
		c0-4.141,3.357-7.498,7.498-7.498c4.141,0,7.498,3.357,7.498,7.498v7.997C199.518,232.066,196.162,235.423,192.021,235.423z"/>
	<path style="fill:#56C4F0;" d="M192.021,203.434c-4.141,0-7.498-3.357-7.498-7.498v-3.999c0-4.141,3.357-7.498,7.498-7.498h3.999
		c4.141,0,7.498,3.357,7.498,7.498c0,3.108-1.891,5.774-4.585,6.911C197.795,201.542,195.129,203.434,192.021,203.434z"/>
	<path style="fill:#56C4F0;" d="M298.386,199.435h-8.53c-4.141,0-7.498-3.357-7.498-7.498c0-4.141,3.357-7.498,7.498-7.498h8.53
		c4.141,0,7.498,3.357,7.498,7.498C305.884,196.078,302.527,199.435,298.386,199.435z M264.264,199.435h-8.53
		c-4.141,0-7.498-3.357-7.498-7.498c0-4.141,3.357-7.498,7.498-7.498h8.53c4.141,0,7.498,3.357,7.498,7.498
		C271.762,196.078,268.405,199.435,264.264,199.435z M230.142,199.435h-8.53c-4.141,0-7.498-3.357-7.498-7.498
		c0-4.141,3.357-7.498,7.498-7.498h8.53c4.141,0,7.498,3.357,7.498,7.498C237.64,196.078,234.283,199.435,230.142,199.435z"/>
	<path style="fill:#56C4F0;" d="M327.977,199.435h-3.999c-4.141,0-7.498-3.357-7.498-7.498c0-4.141,3.357-7.498,7.498-7.498h3.999
		c4.141,0,7.498,3.357,7.498,7.498C335.474,196.078,332.117,199.435,327.977,199.435z"/>
</g>
<g>
</g>
<g>
</g>
<g>
</g>
<g>
</g>
<g>
</g>
<g>
</g>
<g>
</g>
<g>
</g>
<g>
</g>
<g>
</g>
<g>
</g>
<g>
</g>
<g>
</g>
<g>
</g>
<g>
</g>
</svg>
