<?xml version="1.0" encoding="iso-8859-1"?>
<!-- Generator: Adobe Illustrator 19.0.0, SVG Export Plug-In . SVG Version: 6.00 Build 0)  -->
<svg version="1.1" id="Capa_1" xmlns="http://www.w3.org/2000/svg" xmlns:xlink="http://www.w3.org/1999/xlink" x="0px" y="0px"
	 viewBox="0 0 512 512" style="enable-background:new 0 0 512 512;" xml:space="preserve">
<path style="fill:#CAC3C5;" d="M232,32h-80c-4.418,0-8,3.582-8,8v80c0,4.418,3.582,8,8,8h80c4.418,0,8-3.582,8-8V40
	C240,35.582,236.418,32,232,32z"/>
<path style="fill:#B9AEB1;" d="M168,120V40c0-4.418,3.582-8,8-8h-24c-4.418,0-8,3.582-8,8v80c0,4.418,3.582,8,8,8h24
	C171.582,128,168,124.418,168,120z"/>
<path style="fill:#847277;" d="M192,56c-13.234,0-24,10.766-24,24s10.766,24,24,24s24-10.766,24-24S205.234,56,192,56z"/>
<path style="fill:#725E63;" d="M192,72c-4.411,0-8,3.589-8,8s3.589,8,8,8s8-3.589,8-8S196.411,72,192,72z"/>
<path style="fill:#A79A9E;" d="M216,0h-48c-22.056,0-40,17.944-40,40c0,4.418,3.582,8,8,8h112c4.418,0,8-3.582,8-8
	C256,17.944,238.056,0,216,0z"/>
<path style="fill:#95868A;" d="M152,40c0-22.056,17.944-40,40-40h-24c-22.056,0-40,17.944-40,40c0,4.418,3.582,8,8,8h24
	C155.582,48,152,44.418,152,40z"/>
<path style="fill:#DCD7D8;" d="M240,112h-96c-48.523,0-88,39.477-88,88v304c0,4.418,3.582,8,8,8h256c4.418,0,8-3.582,8-8V200
	C328,151.477,288.523,112,240,112z"/>
<path style="fill:#CAC3C5;" d="M80,504V200c0-48.523,39.477-88,88-88h-24c-48.523,0-88,39.477-88,88v304c0,4.418,3.582,8,8,8h24
	C83.582,512,80,508.418,80,504z"/>
<rect x="56" y="208" style="fill:#FF9D4A;" width="272" height="248"/>
<g>
	<rect x="56" y="208" style="fill:#F48A16;" width="24" height="248"/>
	<path style="fill:#F48A16;" d="M448,88h-8c-4.418,0-8-3.582-8-8s3.582-8,8-8h8c4.418,0,8,3.582,8,8S452.418,88,448,88z M416,88h-8
		c-4.418,0-8-3.582-8-8s3.582-8,8-8h8c4.418,0,8,3.582,8,8S420.418,88,416,88z M384,88h-8c-4.418,0-8-3.582-8-8s3.582-8,8-8h8
		c4.418,0,8,3.582,8,8S388.418,88,384,88z M352,88h-8c-4.418,0-8-3.582-8-8s3.582-8,8-8h8c4.418,0,8,3.582,8,8S356.418,88,352,88z
		 M320,88h-8c-4.418,0-8-3.582-8-8s3.582-8,8-8h8c4.418,0,8,3.582,8,8S324.418,88,320,88z"/>
	<path style="fill:#F48A16;" d="M423.34,159.755c-0.934,0-1.883-0.164-2.809-0.511l-7.49-2.809c-4.137-1.552-6.232-6.163-4.681-10.3
		c1.552-4.137,6.163-6.232,10.3-4.682l7.49,2.809c3.497,1.312,5.669,5.005,5.1,8.7C430.657,156.819,427.244,159.755,423.34,159.755z
		 M393.377,148.519c-0.934,0-1.883-0.164-2.808-0.511l-7.49-2.809c-4.137-1.551-6.233-6.163-4.682-10.299
		c1.551-4.138,6.164-6.233,10.299-4.682l7.49,2.809c3.497,1.312,5.669,5.004,5.101,8.699
		C400.694,145.582,397.281,148.519,393.377,148.519z M363.415,137.283c-0.934,0-1.883-0.164-2.808-0.511l-7.491-2.809
		c-4.138-1.551-6.233-6.163-4.682-10.3s6.166-6.231,10.299-4.682l7.491,2.809c3.498,1.311,5.67,5.004,5.101,8.7
		C370.732,134.347,367.319,137.283,363.415,137.283z M333.452,126.047c-0.934,0-1.883-0.164-2.809-0.511l-7.49-2.809
		c-4.137-1.552-6.232-6.163-4.681-10.3s6.164-6.232,10.3-4.682l7.49,2.809c4.137,1.552,6.232,6.163,4.681,10.3
		C339.739,124.065,336.69,126.047,333.452,126.047z M303.489,114.811c-0.934,0-1.883-0.164-2.809-0.511l-7.49-2.809
		c-4.137-1.552-6.232-6.163-4.681-10.3c1.552-4.137,6.164-6.231,10.3-4.682l7.49,2.809c4.137,1.552,6.232,6.163,4.681,10.3
		C309.776,112.83,306.728,114.811,303.489,114.811z"/>
	<path style="fill:#F48A16;" d="M296.001,64.002c-3.904,0-7.317-2.936-7.911-6.793c-0.569-3.695,1.603-7.388,5.1-8.7l7.49-2.809
		c4.137-1.55,8.748,0.544,10.3,4.682c1.552,4.137-0.544,8.748-4.681,10.3l-7.49,2.809C297.884,63.837,296.935,64.002,296.001,64.002
		z M325.964,52.766c-3.238,0-6.287-1.981-7.491-5.193c-1.552-4.137,0.544-8.748,4.681-10.3l7.49-2.809
		c4.137-1.549,8.749,0.544,10.3,4.682c1.552,4.137-0.544,8.748-4.681,10.3l-7.49,2.809
		C327.847,52.602,326.897,52.766,325.964,52.766z M355.926,41.53c-3.239,0-6.287-1.981-7.491-5.193
		c-1.552-4.137,0.544-8.749,4.682-10.3l7.491-2.809c4.133-1.551,8.748,0.544,10.299,4.682c1.552,4.137-0.544,8.749-4.682,10.3
		l-7.491,2.809C357.809,41.366,356.859,41.53,355.926,41.53z M385.889,30.294c-3.239,0-6.287-1.981-7.491-5.193
		c-1.552-4.137,0.545-8.748,4.682-10.299l7.49-2.809c4.132-1.55,8.747,0.544,10.299,4.682c1.552,4.137-0.545,8.748-4.682,10.299
		l-7.49,2.809C387.771,30.129,386.822,30.294,385.889,30.294z M415.852,19.058c-3.238,0-6.287-1.981-7.491-5.193
		c-1.552-4.137,0.544-8.748,4.681-10.3l7.49-2.809c4.139-1.549,8.749,0.544,10.3,4.682c1.552,4.137-0.544,8.748-4.681,10.3
		l-7.49,2.809C417.734,18.894,416.785,19.058,415.852,19.058z"/>
</g>
<g>
</g>
<g>
</g>
<g>
</g>
<g>
</g>
<g>
</g>
<g>
</g>
<g>
</g>
<g>
</g>
<g>
</g>
<g>
</g>
<g>
</g>
<g>
</g>
<g>
</g>
<g>
</g>
<g>
</g>
</svg>
