<?xml version="1.0" encoding="iso-8859-1"?>
<!-- Generator: Adobe Illustrator 19.0.0, SVG Export Plug-In . SVG Version: 6.00 Build 0)  -->
<svg version="1.1" id="Capa_1" xmlns="http://www.w3.org/2000/svg" xmlns:xlink="http://www.w3.org/1999/xlink" x="0px" y="0px"
	 viewBox="0 0 512 512" style="enable-background:new 0 0 512 512;" xml:space="preserve">
<path style="fill:#EDEBEC;" d="M137.241,153.124l67.885-67.885c3.124-3.124,8.189-3.124,11.313,0l177.404,177.404
	c13.66,13.66,15.355,34.822,5.089,50.345l17.54,17.54c9.358,9.357,9.358,24.584,0,33.942c-9.238,9.238-24.704,9.238-33.942,0
	l-17.54-17.54c-15.524,10.266-36.686,8.569-50.345-5.089L137.241,164.438C134.117,161.314,134.117,156.248,137.241,153.124z"/>
<path style="fill:#DCD7D8;" d="M137.241,153.124l11.056-11.056c0.361,1.266,1.036,2.461,2.033,3.457l177.404,177.404
	c13.659,13.658,34.821,15.355,50.345,5.089l17.54,17.54c7.388,7.388,18.753,8.85,27.737,4.421
	c-0.545,5.295-2.835,10.443-6.883,14.492c-9.238,9.238-24.704,9.238-33.942,0l-17.54-17.54
	c-15.524,10.266-36.686,8.569-50.345-5.089L137.241,164.438C134.117,161.314,134.117,156.248,137.241,153.124z"/>
<path style="fill:#FF9D4A;" d="M322.689,191.488l71.155,71.155c13.66,13.66,15.355,34.822,5.089,50.345l17.54,17.54
	c9.358,9.357,9.358,24.584,0,33.942c-9.238,9.238-24.704,9.238-33.942,0l-17.54-17.54c-15.524,10.266-36.686,8.569-50.345-5.089
	L164.291,191.488H322.689z"/>
<path style="fill:#F48A16;" d="M377.497,328.018l17.54,17.54c7.557,7.557,19.277,8.923,28.35,4.117
	c-0.488,5.401-2.789,10.668-6.915,14.795c-9.238,9.238-24.704,9.238-33.942,0l-17.54-17.54
	c-15.524,10.266-36.686,8.569-50.345-5.089L164.291,191.488h31.419l131.442,131.441
	C340.811,336.588,361.973,338.284,377.497,328.018z"/>
<path style="fill:#F74FA4;" d="M63.699,23.012l11.314-11.314c15.597-15.597,40.974-15.597,56.57,0l33.942,33.942
	c3.081,3.08,3.081,8.234,0,11.313l-56.571,56.571c-3.08,3.081-8.234,3.081-11.313,0L63.699,79.582
	C48.103,63.985,48.103,38.608,63.699,23.012z"/>
<path style="fill:#F2387F;" d="M63.699,23.012l11.314-11.314c0.748-0.748,1.525-1.448,2.315-2.125
	c-13.19,15.7-12.412,39.224,2.352,53.99l33.942,33.942c3.08,3.081,8.234,3.081,11.313,0l40.933-40.933
	c-0.112,0.128-0.221,0.259-0.343,0.381l-56.571,56.571c-3.08,3.081-8.234,3.081-11.313,0L63.699,79.582
	C48.103,63.985,48.103,38.608,63.699,23.012z"/>
<path style="fill:#F97BBB;" d="M75.014,124.839L176.841,23.012c3.123-3.124,8.188-3.125,11.313,0l45.257,45.256
	c3.081,3.08,3.081,8.234,0,11.313L131.584,181.41c-3.08,3.081-8.234,3.081-11.313,0l-45.256-45.257
	C71.89,133.029,71.89,127.963,75.014,124.839z"/>
<path style="fill:#F74FA4;" d="M75.014,124.839l9.662-9.662l56.57,56.57l-9.662,9.662c-3.08,3.081-8.234,3.081-11.313,0
	l-45.256-45.257C71.89,133.029,71.89,127.963,75.014,124.839z"/>
<path style="fill:#FF9D4A;" d="M405.754,386.992c3.153-3.933,9.333-3.933,12.485,0c4.274,5.333,41.759,52.802,41.759,77.006
	c0,26.468-21.534,48.002-48.002,48.002s-48.002-21.534-48.002-48.002C363.995,439.795,401.48,392.326,405.754,386.992z"/>
<path style="fill:#F48A16;" d="M395.996,504c26.468,0,48.002-21.534,48.002-48.002c0-19.875-25.271-55.431-36.679-70.47
	c3.337-2.375,8.229-1.894,10.92,1.464c4.274,5.333,41.759,52.802,41.759,77.006c0,26.468-21.534,48.002-48.002,48.002
	c-10.907,0-20.972-3.663-29.041-9.815C387.105,503.359,391.476,504,395.996,504z"/>
<g>
</g>
<g>
</g>
<g>
</g>
<g>
</g>
<g>
</g>
<g>
</g>
<g>
</g>
<g>
</g>
<g>
</g>
<g>
</g>
<g>
</g>
<g>
</g>
<g>
</g>
<g>
</g>
<g>
</g>
</svg>
