<?xml version="1.0" encoding="iso-8859-1"?>
<!-- Generator: Adobe Illustrator 19.0.0, SVG Export Plug-In . SVG Version: 6.00 Build 0)  -->
<svg version="1.1" id="Capa_1" xmlns="http://www.w3.org/2000/svg" xmlns:xlink="http://www.w3.org/1999/xlink" x="0px" y="0px"
	 viewBox="0 0 512 512" style="enable-background:new 0 0 512 512;" xml:space="preserve">
<path style="fill:#DCD7D8;" d="M331.18,0.659c-2.924-1.267-6.325-0.677-8.652,1.504l-128,120C192.916,123.676,192,125.789,192,128
	v288c0,3.189,1.894,6.073,4.82,7.341c1.023,0.443,2.105,0.659,3.179,0.659c1.995,0,3.96-0.746,5.473-2.164l128-120
	c1.613-1.513,2.528-3.625,2.528-5.836V8C336,4.811,334.107,1.927,331.18,0.659z"/>
<g>
	<path style="fill:#CAC3C5;" d="M194.528,122.164C192.916,123.676,192,125.789,192,128v288c0,3.189,1.894,6.073,4.82,7.341
		c1.023,0.443,2.105,0.659,3.179,0.659c1.995,0,3.96-0.746,5.473-2.164L217,411.029V101.097L194.528,122.164z"/>
	<path style="fill:#CAC3C5;" d="M336,8c0-3.189-1.894-6.073-4.82-7.341c-2.924-1.267-6.325-0.677-8.652,1.504l-128,120
		C192.916,123.676,192,125.789,192,128v109.715l144-134.438V8z"/>
	<path style="fill:#CAC3C5;" d="M192,344.236V416c0,3.189,1.894,6.073,4.82,7.341c1.023,0.443,2.105,0.659,3.179,0.659
		c1.995,0,3.96-0.746,5.473-2.164l128-120c1.613-1.513,2.528-3.625,2.528-5.836v-86.456L192,344.236z"/>
</g>
<g>
	<path style="fill:#B9AEB1;" d="M194.528,122.164C192.916,123.676,192,125.789,192,128v109.715l25-23.34V101.097L194.528,122.164z"
		/>
	<path style="fill:#B9AEB1;" d="M192,344.236V416c0,3.189,1.894,6.073,4.82,7.341c1.023,0.443,2.105,0.659,3.179,0.659
		c1.995,0,3.96-0.746,5.473-2.164L217,411.029v-90.177L192,344.236z"/>
</g>
<path style="fill:#855FB8;" d="M363.14,256.642c-2.949-1.257-6.361-0.636-8.675,1.582l-192,184C160.89,443.733,160,445.819,160,448
	v56c0,4.418,3.582,8,8,8h192c4.418,0,8-3.582,8-8V264C368,260.796,366.087,257.9,363.14,256.642z"/>
<path style="fill:#7B49AD;" d="M162.465,442.224C160.89,443.733,160,445.819,160,448v56c0,4.418,3.582,8,8,8h16v-90.414
	L162.465,442.224z"/>
<path style="fill:#FF9D4A;" d="M200,72c-41.764,0-48-40.098-48-64c0-4.418-3.582-8-8-8s-8,3.582-8,8c0,23.902-6.236,64-48,64
	c-4.418,0-8,3.582-8,8s3.582,8,8,8c41.764,0,48,40.098,48,64c0,4.418,3.582,8,8,8s8-3.582,8-8c0-23.902,6.236-64,48-64
	c4.418,0,8-3.582,8-8S204.419,72,200,72z"/>
<g>
	<path style="fill:#FFB577;" d="M120,344c-13.737,0-32-4.976-32-48c0-4.418-3.582-8-8-8s-8,3.582-8,8c0,43.024-18.263,48-32,48
		c-4.418,0-8,3.582-8,8s3.582,8,8,8c13.737,0,32,4.976,32,48c0,4.418,3.582,8,8,8s8-3.582,8-8c0-43.024,18.263-48,32-48
		c4.418,0,8-3.582,8-8S124.419,344,120,344z"/>
	<path style="fill:#FFB577;" d="M472,112c-14.406,0-24-6.802-24-40c0-4.418-3.582-8-8-8s-8,3.582-8,8c0,33.198-9.594,40-24,40
		c-4.418,0-8,3.582-8,8s3.582,8,8,8c14.406,0,24,6.802,24,40c0,4.418,3.582,8,8,8s8-3.582,8-8c0-33.198,9.594-40,24-40
		c4.418,0,8-3.582,8-8S476.419,112,472,112z"/>
</g>
<g>
</g>
<g>
</g>
<g>
</g>
<g>
</g>
<g>
</g>
<g>
</g>
<g>
</g>
<g>
</g>
<g>
</g>
<g>
</g>
<g>
</g>
<g>
</g>
<g>
</g>
<g>
</g>
<g>
</g>
</svg>
