<?xml version="1.0"?>
<svg xmlns="http://www.w3.org/2000/svg" xmlns:xlink="http://www.w3.org/1999/xlink" version="1.1" id="Layer_1" x="0px" y="0px" viewBox="0 0 512 512" style="enable-background:new 0 0 512 512;" xml:space="preserve" width="512px" height="512px" class=""><g><path style="fill:#9D51E9" d="M433.479,205.747c75.09,43.351,100.812,139.37,57.461,214.46s-139.37,100.812-214.46,57.461  c-7.304-4.21-14.135-8.93-20.48-14.074l31.824-170.903l123.221-97.645C418.677,197.97,426.175,201.537,433.479,205.747z" data-original="#FFCE47" class="" data-old_color="#9d51e9"/><path style="fill:#FF4181;" d="M78.521,205.747c-75.09,43.351-100.812,139.37-57.461,214.46s139.37,100.812,214.46,57.461  c7.304-4.21,14.135-8.93,20.48-14.074l-31.824-170.903l-123.221-97.645C93.323,197.97,85.825,201.537,78.521,205.747z" data-original="#FF4181" class=""/><path style="fill:#4EB9FF;" d="M412.999,170.271c0,8.432-0.667,16.707-1.953,24.775L256,256.196l-155.046-61.15  c-1.286-8.068-1.953-16.343-1.953-24.775c0-86.713,70.298-156.999,156.999-156.999S412.999,83.557,412.999,170.271z" data-original="#4EB9FF" class=""/><path style="fill:#7777EC" d="M312.09,316.957H199.91C191.21,371.482,211.933,427.9,256,463.594  C300.066,427.9,320.789,371.482,312.09,316.957z" data-original="#FF755C" class="active-path" data-old_color="#7777ec"/><path style="fill:#6E80ED" d="M256,219.797l56.09,97.16c51.577-19.74,90.086-65.906,98.955-121.911  C358.098,174.724,298.865,185,256,219.797z" data-original="#85C250" class="" data-old_color="#6e80ed"/><path style="fill:#3B8BC0;" d="M100.954,195.046c8.869,56.005,47.379,102.171,98.955,121.911l56.09-97.16  C213.134,185,153.902,174.724,100.954,195.046z" data-original="#3B8BC0"/><path style="fill:#174461" d="M292.981,263.208c9.876,17.119,16.173,35.331,19.109,53.748  c-17.423,6.661-36.326,10.313-56.09,10.313s-38.667-3.652-56.09-10.313c2.936-18.418,9.233-36.629,19.109-53.749  c9.876-17.107,22.494-31.667,36.981-43.411C270.486,231.542,283.105,246.101,292.981,263.208z" data-original="#174461" class=""/></g> </svg>
