<?xml version="1.0" encoding="iso-8859-1"?>
<!-- Generator: Adobe Illustrator 19.0.0, SVG Export Plug-In . SVG Version: 6.00 Build 0)  -->
<svg version="1.1" id="Capa_1" xmlns="http://www.w3.org/2000/svg" xmlns:xlink="http://www.w3.org/1999/xlink" x="0px" y="0px"
	 viewBox="0 0 512 512" style="enable-background:new 0 0 512 512;" xml:space="preserve">
<path style="fill:#DCD7D8;" d="M400.78,0.007C378.355-0.421,360,18.361,360,40.79V96h72c4.418,0,8-3.582,8-8V40
	C440,18.169,422.511,0.423,400.78,0.007z"/>
<path style="fill:#EDEBEC;" d="M360,0H128C92.654,0,64,28.654,64,64v360c0,4.418,3.582,8,8,8h288V40c0-22.091,17.909-40,40-40H360z"
	/>
<path style="fill:#DCD7D8;" d="M88,424V64c0-35.346,28.654-64,64-64h-24C92.654,0,64,28.654,64,64v360c0,4.418,3.582,8,8,8h24
	C91.582,432,88,428.418,88,424z"/>
<g>
	<path style="fill:#847277;" d="M120,104h-8c-4.418,0-8-3.582-8-8s3.582-8,8-8h8c4.418,0,8,3.582,8,8S124.418,104,120,104z"/>
	<path style="fill:#847277;" d="M120,176h-8c-4.418,0-8-3.582-8-8s3.582-8,8-8h8c4.418,0,8,3.582,8,8S124.418,176,120,176z"/>
	<path style="fill:#847277;" d="M120,248h-8c-4.418,0-8-3.582-8-8s3.582-8,8-8h8c4.418,0,8,3.582,8,8S124.418,248,120,248z"/>
	<path style="fill:#847277;" d="M120,320h-8c-4.418,0-8-3.582-8-8s3.582-8,8-8h8c4.418,0,8,3.582,8,8S124.418,320,120,320z"/>
</g>
<g>
	<path style="fill:#B9AEB1;" d="M304,104H152c-4.418,0-8-3.582-8-8s3.582-8,8-8h152c4.418,0,8,3.582,8,8S308.418,104,304,104z"/>
	<path style="fill:#B9AEB1;" d="M240,176h-88c-4.418,0-8-3.582-8-8s3.582-8,8-8h88c4.418,0,8,3.582,8,8S244.418,176,240,176z"/>
	<path style="fill:#B9AEB1;" d="M304,248H152c-4.418,0-8-3.582-8-8s3.582-8,8-8h152c4.418,0,8,3.582,8,8S308.418,248,304,248z"/>
	<path style="fill:#B9AEB1;" d="M192,320h-40c-4.418,0-8-3.582-8-8s3.582-8,8-8h40c4.418,0,8,3.582,8,8S196.418,320,192,320z"/>
	<path style="fill:#B9AEB1;" d="M272,320h-56c-4.418,0-8-3.582-8-8s3.582-8,8-8h56c4.418,0,8,3.582,8,8S276.418,320,272,320z"/>
	<path style="fill:#B9AEB1;" d="M304,176h-40c-4.418,0-8-3.582-8-8s3.582-8,8-8h40c4.418,0,8,3.582,8,8S308.418,176,304,176z"/>
</g>
<path style="fill:#FF9D4A;" d="M344,304c-57.346,0-104,46.654-104,104s46.654,104,104,104s104-46.654,104-104S401.346,304,344,304z"
	/>
<path style="fill:#F48A16;" d="M368,504c-57.346,0-104-46.654-104-104c0-41.405,24.325-77.232,59.432-93.954
	C275.904,315.619,240,357.694,240,408c0,57.346,46.654,104,104,104c15.94,0,31.052-3.609,44.568-10.046
	C381.917,503.293,375.04,504,368,504z"/>
<path style="fill:#EDEBEC;" d="M394.033,402.262l-70.04-49.028c-4.558-3.188-11.021,0.184-10.021,5.738v98.056
	c-1,5.546,5.459,8.93,10.021,5.738l70.04-49.028C397.949,410.997,397.949,405.004,394.033,402.262z"/>
<g>
</g>
<g>
</g>
<g>
</g>
<g>
</g>
<g>
</g>
<g>
</g>
<g>
</g>
<g>
</g>
<g>
</g>
<g>
</g>
<g>
</g>
<g>
</g>
<g>
</g>
<g>
</g>
<g>
</g>
</svg>
