<?xml version="1.0" encoding="iso-8859-1"?>
<!-- Generator: Adobe Illustrator 19.0.0, SVG Export Plug-In . SVG Version: 6.00 Build 0)  -->
<svg version="1.1" id="Capa_1" xmlns="http://www.w3.org/2000/svg" xmlns:xlink="http://www.w3.org/1999/xlink" x="0px" y="0px"
	 viewBox="0 0 512 512" style="enable-background:new 0 0 512 512;" xml:space="preserve">
<path style="fill:#FF9D4A;" d="M156,0h-24C85.683,0,48,37.683,48,84v144c0,11.046,8.954,20,20,20s20-8.954,20-20V84
	c0-24.262,19.738-44,44-44h24c24.262,0,44,19.738,44,44v144c0,11.046,8.954,20,20,20s20-8.954,20-20V84C240,37.683,202.317,0,156,0z
	"/>
<path style="fill:#F48A16;" d="M200,199.667V228c0,11.046,8.954,20,20,20s20-8.954,20-20v-28.333L200,199.667L200,199.667z"/>
<path style="fill:#55D3FA;" d="M392,224H200c-39.701,0-72,32.299-72,72v208c0,4.418,3.582,8,8,8h320c4.418,0,8-3.582,8-8V296
	C464,256.299,431.701,224,392,224z"/>
<path style="fill:#56C4F0;" d="M152,504V296c0-39.701,32.299-72,72-72h-24c-39.701,0-72,32.299-72,72v208c0,4.418,3.582,8,8,8h24
	C155.582,512,152,508.418,152,504z"/>
<path style="fill:#725E63;" d="M331.144,371.591C344.299,361.003,352,345.096,352,328c0-30.879-25.122-56-56-56s-56,25.121-56,56
	c0,17.096,7.701,33.003,20.856,43.591l-20.617,82.469c-1.242,4.97,2.642,9.94,7.761,9.94h96c5.12,0,9.003-4.97,7.761-9.94
	L331.144,371.591z"/>
<path style="fill:#614A50;" d="M264.239,454.06l20.617-82.469C271.701,361.003,264,345.096,264,328
	c0-26.759,18.871-49.182,44-54.692c-3.869-0.848-7.881-1.308-12-1.308c-30.878,0-56,25.121-56,56
	c0,17.096,7.701,33.003,20.856,43.591l-20.617,82.469c-1.242,4.97,2.642,9.94,7.761,9.94h24
	C266.88,464,262.997,459.03,264.239,454.06z"/>
<g>
</g>
<g>
</g>
<g>
</g>
<g>
</g>
<g>
</g>
<g>
</g>
<g>
</g>
<g>
</g>
<g>
</g>
<g>
</g>
<g>
</g>
<g>
</g>
<g>
</g>
<g>
</g>
<g>
</g>
</svg>
