<?xml version="1.0" encoding="iso-8859-1"?>
<!-- Generator: Adobe Illustrator 19.0.0, SVG Export Plug-In . SVG Version: 6.00 Build 0)  -->
<svg version="1.1" id="Capa_1" xmlns="http://www.w3.org/2000/svg" xmlns:xlink="http://www.w3.org/1999/xlink" x="0px" y="0px"
	 viewBox="0 0 512 512" style="enable-background:new 0 0 512 512;" xml:space="preserve">
<path style="fill:#FF9D4A;" d="M279.587,290.905c2.002,2.001,4.915,2.794,7.652,2.09c9.67-2.488,18.515-7.538,25.576-14.599
	l37.14-37.139c2.182-2.182,2.915-5.425,1.883-8.334c-5.985-16.872-15.466-31.873-28.178-44.585
	c-12.713-12.712-27.713-22.193-44.585-28.178c-34.655-12.293-73.791-7.895-104.696,11.764c-7.379,4.695-14.263,10.218-20.46,16.413
	L35.102,307.158C12.467,329.794,0,359.934,0,392.027s12.467,62.235,35.102,84.869C57.738,499.533,87.879,512,119.973,512
	s62.235-12.467,84.87-35.102L323.662,358.08c6.196-6.197,11.719-13.082,16.414-20.462c2.013-3.164,1.558-7.301-1.093-9.953
	c-2.652-2.651-6.788-3.107-9.953-1.093c-16.647,10.59-35.948,16.187-55.82,16.187c-11.952,0-23.707-2.02-34.935-6.003
	c-2.909-1.03-6.15-0.3-8.334,1.883l-81.678,81.679c-11.716,11.711-30.341,14.982-45.296,7.952
	c-4.174-1.962-7.972-4.638-11.284-7.951c-7.557-7.558-11.718-17.606-11.718-28.291s4.162-20.733,11.718-28.29L210.5,244.92
	c11.738-11.74,30.43-14.968,45.456-7.853c4.124,1.952,7.866,4.595,11.123,7.853c9.948,9.947,13.94,24.636,10.415,38.332
	C276.79,285.994,277.586,288.903,279.587,290.905z"/>
<path style="fill:#F48A16;" d="M329.029,326.572c-0.781,0.497-1.573,0.971-2.365,1.445c-3.383,4.496-7.078,8.761-11.057,12.741
	L196.787,459.575c-22.636,22.636-52.777,35.102-84.87,35.102s-62.235-12.467-84.87-35.103c-7.754-7.754-14.313-16.388-19.588-25.68
	c5.919,15.975,15.253,30.614,27.643,43.003C57.737,499.533,87.878,512,119.972,512s62.235-12.467,84.87-35.102L323.661,358.08
	c6.196-6.197,11.719-13.082,16.414-20.462c2.013-3.164,1.558-7.301-1.093-9.953C336.331,325.014,332.194,324.558,329.029,326.572z"
	/>
<path style="fill:#55D3FA;" d="M476.898,35.102C454.262,12.467,424.121,0,392.027,0s-62.235,12.467-84.87,35.102L188.339,153.92
	c-5.777,5.778-10.96,12.16-15.441,18.978c0.494-0.324,0.984-0.655,1.482-0.972c30.904-19.658,70.04-24.057,104.696-11.764
	c3.918,1.39,7.731,2.977,11.442,4.741l73.219-73.22c7.558-7.557,17.606-11.718,28.291-11.718s20.733,4.162,28.29,11.717
	c7.557,7.559,11.718,17.606,11.718,28.291s-4.162,20.733-11.718,28.29L301.5,267.079c-11.857,11.859-30.398,14.949-45.525,7.781
	c-4.094-1.94-7.852-4.577-11.055-7.781c-8.762-8.761-12.895-21.197-11.351-33.396c-8.592,1.146-16.816,4.984-23.068,11.236
	l-45.598,45.598c5.831,12.27,13.678,23.382,23.437,33.143c12.713,12.712,27.713,22.193,44.585,28.178
	c12.951,4.594,26.505,6.923,40.285,6.923c22.919,0,45.191-6.462,64.41-18.688c7.379-4.695,14.263-10.218,20.46-16.413
	l118.818-118.818C499.533,182.206,512,152.065,512,119.972S499.533,57.738,476.898,35.102z"/>
<path style="fill:#56C4F0;" d="M476.898,182.096L358.08,300.916c-6.197,6.195-13.082,11.718-20.46,16.413
	c-19.22,12.225-41.492,18.688-64.41,18.688c-13.78,0-27.335-2.329-40.285-6.923c-16.872-5.985-31.873-15.466-44.585-28.178
	c-5.747-5.748-10.812-11.976-15.211-18.622l-8.226,8.226c5.831,12.27,13.678,23.382,23.437,33.143
	c12.713,12.712,27.713,22.193,44.585,28.178c12.951,4.594,26.505,6.923,40.285,6.923c22.919,0,45.191-6.462,64.41-18.688
	c7.379-4.695,14.263-10.218,20.46-16.413l118.817-118.82C499.533,182.206,512,152.065,512,119.972c0-3.822-0.182-7.616-0.532-11.373
	C508.88,136.391,496.837,162.156,476.898,182.096z"/>
<g>
	<path style="fill:#FF9D4A;" d="M173.016,184.335c2.652,2.65,6.788,3.106,9.953,1.093c26.778-17.035,60.707-20.843,90.755-10.184
		c2.908,1.03,6.15,0.298,8.334-1.883l8.46-8.46c-3.711-1.764-7.524-3.351-11.442-4.741c-34.655-12.293-73.791-7.895-104.696,11.764
		c-0.498,0.317-0.988,0.647-1.482,0.972c-0.325,0.495-0.656,0.985-0.973,1.484C169.911,177.545,170.366,181.683,173.016,184.335z"/>
	<path style="fill:#FF9D4A;" d="M233.568,233.684c0.209-1.652,0.515-3.302,0.936-4.936c0.705-2.741-0.09-5.65-2.091-7.652
		c-2.001-2-4.913-2.795-7.652-2.091c-9.67,2.489-18.515,7.537-25.577,14.599l-37.14,37.139c-2.182,2.182-2.915,5.425-1.883,8.334
		c1.39,3.919,2.977,7.732,4.741,11.442L210.5,244.92C216.752,238.668,224.976,234.83,233.568,233.684z"/>
</g>
<g>
</g>
<g>
</g>
<g>
</g>
<g>
</g>
<g>
</g>
<g>
</g>
<g>
</g>
<g>
</g>
<g>
</g>
<g>
</g>
<g>
</g>
<g>
</g>
<g>
</g>
<g>
</g>
<g>
</g>
</svg>
