<?xml version="1.0" encoding="iso-8859-1"?>
<!-- Generator: Adobe Illustrator 19.0.0, SVG Export Plug-In . SVG Version: 6.00 Build 0)  -->
<svg version="1.1" id="Capa_1" xmlns="http://www.w3.org/2000/svg" xmlns:xlink="http://www.w3.org/1999/xlink" x="0px" y="0px"
	 viewBox="0 0 512 512" style="enable-background:new 0 0 512 512;" xml:space="preserve">
<path style="fill:#95868A;" d="M504,0H8C3.582,0,0,3.582,0,8v496c0,4.418,3.582,8,8,8h496c4.418,0,8-3.582,8-8V8
	C512,3.582,508.418,0,504,0z"/>
<rect x="40" y="40" style="fill:#DCD7D8;" width="432" height="432"/>
<rect x="64" y="64" style="fill:#EDEBEC;" width="384" height="384"/>
<g>
	<path style="fill:#725E63;" d="M472,480h-4c-4.418,0-8-3.582-8-8c0-3.244,1.932-6.038,4.707-7.293
		c1.255-2.775,4.049-4.707,7.293-4.707c4.418,0,8,3.582,8,8v4C480,476.418,476.418,480,472,480z"/>
	<path style="fill:#725E63;" d="M444.873,480h-7.709c-4.418,0-8-3.582-8-8s3.582-8,8-8h7.709c4.418,0,8,3.582,8,8
		S449.291,480,444.873,480z M414.037,480h-7.71c-4.418,0-8-3.582-8-8s3.582-8,8-8h7.71c4.418,0,8,3.582,8,8S418.455,480,414.037,480
		z M383.2,480h-7.709c-4.418,0-8-3.582-8-8s3.582-8,8-8h7.709c4.418,0,8,3.582,8,8S387.618,480,383.2,480z M352.364,480h-7.709
		c-4.418,0-8-3.582-8-8s3.582-8,8-8h7.709c4.418,0,8,3.582,8,8S356.782,480,352.364,480z M321.527,480h-7.709c-4.418,0-8-3.582-8-8
		s3.582-8,8-8h7.709c4.418,0,8,3.582,8,8S325.945,480,321.527,480z M290.691,480h-7.709c-4.418,0-8-3.582-8-8s3.582-8,8-8h7.709
		c4.418,0,8,3.582,8,8S295.109,480,290.691,480z M259.854,480h-7.709c-4.418,0-8-3.582-8-8s3.582-8,8-8h7.709c4.418,0,8,3.582,8,8
		S264.272,480,259.854,480z M229.019,480h-7.709c-4.418,0-8-3.582-8-8s3.582-8,8-8h7.709c4.418,0,8,3.582,8,8
		S233.437,480,229.019,480z M198.183,480h-7.71c-4.418,0-8-3.582-8-8s3.582-8,8-8h7.71c4.418,0,8,3.582,8,8S202.601,480,198.183,480
		z M167.346,480h-7.709c-4.418,0-8-3.582-8-8s3.582-8,8-8h7.709c4.418,0,8,3.582,8,8S171.764,480,167.346,480z M136.51,480h-7.709
		c-4.418,0-8-3.582-8-8s3.582-8,8-8h7.709c4.418,0,8,3.582,8,8S140.928,480,136.51,480z M105.673,480h-7.709c-4.418,0-8-3.582-8-8
		s3.582-8,8-8h7.709c4.418,0,8,3.582,8,8S110.091,480,105.673,480z M74.837,480h-7.709c-4.418,0-8-3.582-8-8s3.582-8,8-8h7.709
		c4.418,0,8,3.582,8,8S79.255,480,74.837,480z"/>
	<path style="fill:#725E63;" d="M44,480h-4c-4.418,0-8-3.582-8-8v-4c0-4.418,3.582-8,8-8c3.244,0,6.038,1.932,7.293,4.707
		C50.068,465.962,52,468.756,52,472C52,476.418,48.418,480,44,480z"/>
	<path style="fill:#725E63;" d="M40,452.873c-4.418,0-8-3.582-8-8v-7.709c0-4.418,3.582-8,8-8s8,3.582,8,8v7.709
		C48,449.291,44.418,452.873,40,452.873z M40,422.037c-4.418,0-8-3.582-8-8v-7.71c0-4.418,3.582-8,8-8s8,3.582,8,8v7.71
		C48,418.455,44.418,422.037,40,422.037z M40,391.2c-4.418,0-8-3.582-8-8v-7.709c0-4.418,3.582-8,8-8s8,3.582,8,8v7.709
		C48,387.618,44.418,391.2,40,391.2z M40,360.364c-4.418,0-8-3.582-8-8v-7.709c0-4.418,3.582-8,8-8s8,3.582,8,8v7.709
		C48,356.782,44.418,360.364,40,360.364z M40,329.527c-4.418,0-8-3.582-8-8v-7.709c0-4.418,3.582-8,8-8s8,3.582,8,8v7.709
		C48,325.945,44.418,329.527,40,329.527z M40,298.691c-4.418,0-8-3.582-8-8v-7.709c0-4.418,3.582-8,8-8s8,3.582,8,8v7.709
		C48,295.109,44.418,298.691,40,298.691z M40,267.854c-4.418,0-8-3.582-8-8v-7.709c0-4.418,3.582-8,8-8s8,3.582,8,8v7.709
		C48,264.272,44.418,267.854,40,267.854z M40,237.019c-4.418,0-8-3.582-8-8v-7.709c0-4.418,3.582-8,8-8s8,3.582,8,8v7.709
		C48,233.437,44.418,237.019,40,237.019z M40,206.183c-4.418,0-8-3.582-8-8v-7.71c0-4.418,3.582-8,8-8s8,3.582,8,8v7.71
		C48,202.601,44.418,206.183,40,206.183z M40,175.346c-4.418,0-8-3.582-8-8v-7.709c0-4.418,3.582-8,8-8s8,3.582,8,8v7.709
		C48,171.764,44.418,175.346,40,175.346z M40,144.51c-4.418,0-8-3.582-8-8v-7.709c0-4.418,3.582-8,8-8s8,3.582,8,8v7.709
		C48,140.928,44.418,144.51,40,144.51z M40,113.673c-4.418,0-8-3.582-8-8v-7.709c0-4.418,3.582-8,8-8s8,3.582,8,8v7.709
		C48,110.091,44.418,113.673,40,113.673z M40,82.837c-4.418,0-8-3.582-8-8v-7.709c0-4.418,3.582-8,8-8s8,3.582,8,8v7.709
		C48,79.255,44.418,82.837,40,82.837z"/>
	<path style="fill:#725E63;" d="M40,52c-4.418,0-8-3.582-8-8v-4c0-4.418,3.582-8,8-8h4c4.418,0,8,3.582,8,8
		c0,3.244-1.932,6.038-4.707,7.293C46.038,50.068,43.244,52,40,52z"/>
	<path style="fill:#725E63;" d="M444.872,48h-7.709c-4.418,0-8-3.582-8-8s3.582-8,8-8h7.709c4.418,0,8,3.582,8,8
		S449.29,48,444.872,48z M414.036,48h-7.709c-4.418,0-8-3.582-8-8s3.582-8,8-8h7.709c4.418,0,8,3.582,8,8S418.454,48,414.036,48z
		 M383.199,48h-7.709c-4.418,0-8-3.582-8-8s3.582-8,8-8h7.709c4.418,0,8,3.582,8,8S387.617,48,383.199,48z M352.363,48h-7.709
		c-4.418,0-8-3.582-8-8s3.582-8,8-8h7.709c4.418,0,8,3.582,8,8S356.781,48,352.363,48z M321.527,48h-7.71c-4.418,0-8-3.582-8-8
		s3.582-8,8-8h7.71c4.418,0,8,3.582,8,8S325.945,48,321.527,48z M290.69,48h-7.709c-4.418,0-8-3.582-8-8s3.582-8,8-8h7.709
		c4.418,0,8,3.582,8,8S295.108,48,290.69,48z M259.854,48h-7.709c-4.418,0-8-3.582-8-8s3.582-8,8-8h7.709c4.418,0,8,3.582,8,8
		S264.272,48,259.854,48z M229.018,48h-7.709c-4.418,0-8-3.582-8-8s3.582-8,8-8h7.709c4.418,0,8,3.582,8,8S233.436,48,229.018,48z
		 M198.182,48h-7.709c-4.418,0-8-3.582-8-8s3.582-8,8-8h7.709c4.418,0,8,3.582,8,8S202.6,48,198.182,48z M167.345,48h-7.709
		c-4.418,0-8-3.582-8-8s3.582-8,8-8h7.709c4.418,0,8,3.582,8,8S171.763,48,167.345,48z M136.509,48H128.8c-4.418,0-8-3.582-8-8
		s3.582-8,8-8h7.709c4.418,0,8,3.582,8,8S140.927,48,136.509,48z M105.673,48h-7.71c-4.418,0-8-3.582-8-8s3.582-8,8-8h7.71
		c4.418,0,8,3.582,8,8S110.091,48,105.673,48z M74.836,48h-7.709c-4.418,0-8-3.582-8-8s3.582-8,8-8h7.709c4.418,0,8,3.582,8,8
		S79.254,48,74.836,48z"/>
	<path style="fill:#725E63;" d="M472,52c-3.244,0-6.038-1.932-7.293-4.707C461.932,46.038,460,43.244,460,40c0-4.418,3.582-8,8-8h4
		c4.418,0,8,3.582,8,8v4C480,48.418,476.418,52,472,52z"/>
	<path style="fill:#725E63;" d="M472,452.872c-4.418,0-8-3.582-8-8v-7.709c0-4.418,3.582-8,8-8s8,3.582,8,8v7.709
		C480,449.29,476.418,452.872,472,452.872z M472,422.036c-4.418,0-8-3.582-8-8v-7.709c0-4.418,3.582-8,8-8s8,3.582,8,8v7.709
		C480,418.454,476.418,422.036,472,422.036z M472,391.199c-4.418,0-8-3.582-8-8v-7.709c0-4.418,3.582-8,8-8s8,3.582,8,8v7.709
		C480,387.617,476.418,391.199,472,391.199z M472,360.363c-4.418,0-8-3.582-8-8v-7.709c0-4.418,3.582-8,8-8s8,3.582,8,8v7.709
		C480,356.781,476.418,360.363,472,360.363z M472,329.527c-4.418,0-8-3.582-8-8v-7.71c0-4.418,3.582-8,8-8s8,3.582,8,8v7.71
		C480,325.945,476.418,329.527,472,329.527z M472,298.69c-4.418,0-8-3.582-8-8v-7.709c0-4.418,3.582-8,8-8s8,3.582,8,8v7.709
		C480,295.108,476.418,298.69,472,298.69z M472,267.854c-4.418,0-8-3.582-8-8v-7.709c0-4.418,3.582-8,8-8s8,3.582,8,8v7.709
		C480,264.272,476.418,267.854,472,267.854z M472,237.018c-4.418,0-8-3.582-8-8v-7.709c0-4.418,3.582-8,8-8s8,3.582,8,8v7.709
		C480,233.436,476.418,237.018,472,237.018z M472,206.182c-4.418,0-8-3.582-8-8v-7.709c0-4.418,3.582-8,8-8s8,3.582,8,8v7.709
		C480,202.6,476.418,206.182,472,206.182z M472,175.345c-4.418,0-8-3.582-8-8v-7.709c0-4.418,3.582-8,8-8s8,3.582,8,8v7.709
		C480,171.763,476.418,175.345,472,175.345z M472,144.509c-4.418,0-8-3.582-8-8V128.8c0-4.418,3.582-8,8-8s8,3.582,8,8v7.709
		C480,140.927,476.418,144.509,472,144.509z M472,113.673c-4.418,0-8-3.582-8-8v-7.71c0-4.418,3.582-8,8-8s8,3.582,8,8v7.71
		C480,110.091,476.418,113.673,472,113.673z M472,82.836c-4.418,0-8-3.582-8-8v-7.709c0-4.418,3.582-8,8-8s8,3.582,8,8v7.709
		C480,79.254,476.418,82.836,472,82.836z"/>
</g>
<path style="fill:#FF9D4A;" d="M342.499,176.237C343.497,170.901,344,165.47,344,160c0-48.523-39.477-88-88-88s-88,39.477-88,88
	c0,5.47,0.503,10.901,1.501,16.237C124.001,179.574,88,217.662,88,264c0,48.523,39.477,88,88,88
	c19.505,0,37.902-6.255,52.948-17.644l-12.878,96.586c-0.63,4.727,3.164,9.058,7.93,9.058h64c4.765,0,8.56-4.331,7.93-9.058
	l-12.878-96.586C298.098,345.745,316.495,352,336,352c48.523,0,88-39.477,88-88C424,217.662,387.999,179.574,342.499,176.237z"/>
<path style="fill:#F48A16;" d="M232.07,438.942l12.878-120.586C229.902,329.745,211.505,336,192,336c-48.523,0-88-39.477-88-88
	c0-20.168,6.825-38.771,18.28-53.628C101.45,210.48,88,235.691,88,264c0,48.523,39.477,88,88,88
	c19.505,0,37.902-6.255,52.948-17.644l-12.878,96.586c-0.63,4.727,3.164,9.058,7.93,9.058h8.01
	C232.008,439.65,232.023,439.298,232.07,438.942z"/>
<g>
</g>
<g>
</g>
<g>
</g>
<g>
</g>
<g>
</g>
<g>
</g>
<g>
</g>
<g>
</g>
<g>
</g>
<g>
</g>
<g>
</g>
<g>
</g>
<g>
</g>
<g>
</g>
<g>
</g>
</svg>
