<?xml version="1.0" encoding="iso-8859-1"?>
<!-- Generator: Adobe Illustrator 19.0.0, SVG Export Plug-In . SVG Version: 6.00 Build 0)  -->
<svg version="1.1" id="Capa_1" xmlns="http://www.w3.org/2000/svg" xmlns:xlink="http://www.w3.org/1999/xlink" x="0px" y="0px"
	 viewBox="0 0 512 512" style="enable-background:new 0 0 512 512;" xml:space="preserve">
<path id="SVGCleanerId_0" style="fill:#EDEBEC;" d="M460.479,51.521C427.255,18.297,383.015,0,335.906,0
	c-47.108,0-91.348,18.297-124.573,51.521L30.137,232.716c-3.127,3.128-3.127,8.197,0,11.325l56.623,56.624
	c3.085,3.083,8.241,3.083,11.325,0l181.197-181.197c15.098-15.099,35.207-23.414,56.623-23.414s41.525,8.315,56.622,23.414
	c15.099,15.098,23.414,35.207,23.414,56.622c0,21.417-8.315,41.526-23.414,56.623L211.331,413.911
	c-3.083,3.085-3.083,8.241,0,11.325l56.624,56.623c3.086,3.084,8.239,3.084,11.325,0l181.196-181.196
	c33.223-33.224,51.521-77.466,51.521-124.573C512,128.985,493.703,84.745,460.479,51.521z"/>
<g>
	<path id="SVGCleanerId_0_1_" style="fill:#EDEBEC;" d="M460.479,51.521C427.255,18.297,383.015,0,335.906,0
		c-47.108,0-91.348,18.297-124.573,51.521L30.137,232.716c-3.127,3.128-3.127,8.197,0,11.325l56.623,56.624
		c3.085,3.083,8.241,3.083,11.325,0l181.197-181.197c15.098-15.099,35.207-23.414,56.623-23.414s41.525,8.315,56.622,23.414
		c15.099,15.098,23.414,35.207,23.414,56.622c0,21.417-8.315,41.526-23.414,56.623L211.331,413.911
		c-3.083,3.085-3.083,8.241,0,11.325l56.624,56.623c3.086,3.084,8.239,3.084,11.325,0l181.196-181.196
		c33.223-33.224,51.521-77.466,51.521-124.573C512,128.985,493.703,84.745,460.479,51.521z"/>
</g>
<g>
	<path style="fill:#DCD7D8;" d="M335.907,96.057c16.603,0,32.41,5.018,45.717,14.3c-2.691-3.857-5.721-7.513-9.113-10.907
		c-15.098-15.099-35.207-23.414-56.622-23.414c-21.417,0-41.526,8.315-56.623,23.414L78.068,280.647
		c-3.084,3.082-8.237,3.083-11.322,0.003l20.017,20.017c3.085,3.083,8.241,3.083,11.325,0L279.285,119.47
		C294.381,104.372,314.491,96.057,335.907,96.057z"/>
	<path style="fill:#DCD7D8;" d="M460.479,51.521c-3.359-3.359-6.836-6.557-10.412-9.607c27.12,31.792,41.913,71.815,41.913,114.161
		c0,47.108-18.297,91.348-51.521,124.573L259.264,461.843c-3.086,3.085-8.239,3.085-11.325,0l-36.609-36.608
		c0.001,0.001,0.002,0.002,0.003,0.003l56.624,56.623c3.086,3.085,8.239,3.085,11.325,0l181.196-181.196
		C493.702,267.441,512,223.2,512,176.093C512,128.985,493.703,84.745,460.479,51.521z"/>
</g>
<path style="fill:#F74FA4;" d="M512,176.094c0-47.109-18.297-91.349-51.521-124.573S383.015,0,335.906,0
	c-47.108,0-91.348,18.297-124.573,51.521L85.132,177.723l67.949,67.949L279.284,119.47c15.098-15.099,35.207-23.414,56.623-23.414
	s41.525,8.315,56.622,23.414c15.099,15.098,23.414,35.207,23.414,56.622c0,21.417-8.315,41.526-23.414,56.623L266.328,358.918
	l67.949,67.949l126.201-126.201C493.703,267.442,512,223.201,512,176.094z"/>
<g>
	<path style="fill:#F2387F;" d="M315.887,76.037c-21.417,0-41.526,8.315-56.623,23.414L133.062,225.652l20.02,20.02L279.284,119.47
		c15.098-15.099,35.207-23.414,56.623-23.414c16.603,0,32.41,5.018,45.717,14.3c-2.691-3.857-5.721-7.513-9.113-10.907
		C357.412,84.352,337.303,76.037,315.887,76.037z"/>
	<path style="fill:#F2387F;" d="M460.479,51.521c-3.359-3.359-6.836-6.557-10.412-9.607c27.12,31.792,41.913,71.815,41.913,114.161
		c0,47.108-18.297,91.348-51.521,124.573l-126.2,126.2l20.02,20.02l126.201-126.201C493.702,267.442,512,223.201,512,176.094
		C512,128.985,493.703,84.745,460.479,51.521z"/>
</g>
<g>
	<path style="fill:#855FB8;" d="M183.679,328.821h-16.516v-8.508c0-4.147-3.361-7.507-7.507-7.507h-8.508v-16.516
		c0-4.147-3.361-7.507-7.507-7.507s-7.507,3.36-7.507,7.507v16.516h-8.508c-4.146,0-7.507,3.36-7.507,7.507v8.508h-16.516
		c-4.146,0-7.507,3.36-7.507,7.507c0,4.147,3.361,7.507,7.507,7.507h16.516v8.508c0,4.147,3.361,7.507,7.507,7.507h8.508v16.516
		c0,4.147,3.361,7.507,7.507,7.507s7.507-3.36,7.507-7.507v-16.516h8.508c4.146,0,7.507-3.36,7.507-7.507v-8.508h16.516
		c4.146,0,7.507-3.36,7.507-7.507C191.187,332.181,187.825,328.821,183.679,328.821z M152.149,344.837h-17.017V327.82h17.017
		V344.837z"/>
	<path style="fill:#855FB8;" d="M207.703,456.946h-16.516v-8.508c0-4.147-3.361-7.507-7.507-7.507h-8.508v-16.516
		c0-4.147-3.361-7.507-7.507-7.507c-4.146,0-7.507,3.36-7.507,7.507v16.516h-8.508c-4.146,0-7.507,3.36-7.507,7.507v8.508h-16.516
		c-4.146,0-7.507,3.36-7.507,7.507c0,4.147,3.361,7.507,7.507,7.507h16.516v8.508c0,4.147,3.361,7.507,7.507,7.507h8.508v16.516
		c0,4.147,3.361,7.507,7.507,7.507c4.146,0,7.507-3.36,7.507-7.507v-16.516h8.508c4.146,0,7.507-3.36,7.507-7.507v-8.508h16.516
		c4.146,0,7.507-3.36,7.507-7.507C215.21,460.307,211.849,456.946,207.703,456.946z M176.172,472.962h-17.017v-17.017h17.017
		V472.962z"/>
	<path style="fill:#855FB8;" d="M87.586,400.892H71.069v-8.508c0-4.147-3.361-7.507-7.507-7.507h-8.508V368.36
		c0-4.147-3.361-7.507-7.507-7.507s-7.507,3.36-7.507,7.507v16.516h-8.508c-4.146,0-7.507,3.36-7.507,7.507v8.508H7.507
		c-4.146,0-7.507,3.36-7.507,7.507c0,4.147,3.361,7.507,7.507,7.507h16.516v8.508c0,4.147,3.361,7.507,7.507,7.507h8.508v16.516
		c0,4.147,3.361,7.507,7.507,7.507s7.507-3.36,7.507-7.507v-16.516h8.508c4.146,0,7.507-3.36,7.507-7.507v-8.508h16.516
		c4.146,0,7.507-3.36,7.507-7.507C95.093,404.252,91.732,400.892,87.586,400.892z M56.055,416.907H39.038v-17.017h17.017V416.907z"
		/>
</g>
<g>
</g>
<g>
</g>
<g>
</g>
<g>
</g>
<g>
</g>
<g>
</g>
<g>
</g>
<g>
</g>
<g>
</g>
<g>
</g>
<g>
</g>
<g>
</g>
<g>
</g>
<g>
</g>
<g>
</g>
</svg>
