<?xml version="1.0" encoding="iso-8859-1"?>
<!-- Generator: Adobe Illustrator 19.0.0, SVG Export Plug-In . SVG Version: 6.00 Build 0)  -->
<svg version="1.1" id="Capa_1" xmlns="http://www.w3.org/2000/svg" xmlns:xlink="http://www.w3.org/1999/xlink" x="0px" y="0px"
	 viewBox="0 0 512 512" style="enable-background:new 0 0 512 512;" xml:space="preserve">
<rect x="8" y="8" style="fill:#EDEBEC;" width="312" height="312"/>
<polygon style="fill:#DCD7D8;" points="32,296 32,8 8,8 8,320 320,320 320,296 "/>
<g>
	<path style="fill:#95868A;" d="M320,328h-4c-4.418,0-8-3.582-8-8c0-3.244,1.931-6.038,4.707-7.293
		c1.255-2.775,4.048-4.707,7.293-4.707c4.418,0,8,3.582,8,8v4C328,324.418,324.418,328,320,328z"/>
	<path style="fill:#95868A;" d="M292.615,328h-7.795c-4.418,0-8-3.582-8-8s3.582-8,8-8h7.795c4.418,0,8,3.582,8,8
		S297.034,328,292.615,328z M261.436,328h-7.794c-4.418,0-8-3.582-8-8s3.582-8,8-8h7.794c4.418,0,8,3.582,8,8
		S265.854,328,261.436,328z M230.256,328h-7.795c-4.418,0-8-3.582-8-8s3.582-8,8-8h7.795c4.418,0,8,3.582,8,8
		S234.675,328,230.256,328z M199.077,328h-7.795c-4.418,0-8-3.582-8-8s3.582-8,8-8h7.795c4.418,0,8,3.582,8,8
		S203.495,328,199.077,328z M167.897,328h-7.795c-4.418,0-8-3.582-8-8s3.582-8,8-8h7.795c4.418,0,8,3.582,8,8
		S172.316,328,167.897,328z M136.718,328h-7.795c-4.418,0-8-3.582-8-8s3.582-8,8-8h7.795c4.418,0,8,3.582,8,8
		S141.136,328,136.718,328z M105.538,328h-7.794c-4.418,0-8-3.582-8-8s3.582-8,8-8h7.794c4.418,0,8,3.582,8,8
		S109.957,328,105.538,328z M74.359,328h-7.795c-4.418,0-8-3.582-8-8s3.582-8,8-8h7.795c4.418,0,8,3.582,8,8S78.777,328,74.359,328z
		 M43.179,328h-7.795c-4.418,0-8-3.582-8-8s3.582-8,8-8h7.795c4.418,0,8,3.582,8,8S47.598,328,43.179,328z"/>
	<path style="fill:#95868A;" d="M12,328H8c-4.418,0-8-3.582-8-8v-4c0-4.418,3.582-8,8-8c3.245,0,6.038,1.932,7.293,4.707
		C18.069,313.962,20,316.756,20,320C20,324.418,16.418,328,12,328z"/>
	<path style="fill:#95868A;" d="M8,300.615c-4.418,0-8-3.582-8-8v-7.795c0-4.418,3.582-8,8-8s8,3.582,8,8v7.795
		C16,297.033,12.418,300.615,8,300.615z M8,269.436c-4.418,0-8-3.582-8-8v-7.795c0-4.418,3.582-8,8-8s8,3.582,8,8v7.795
		C16,265.854,12.418,269.436,8,269.436z M8,238.256c-4.418,0-8-3.582-8-8v-7.795c0-4.418,3.582-8,8-8s8,3.582,8,8v7.795
		C16,234.674,12.418,238.256,8,238.256z M8,207.077c-4.418,0-8-3.582-8-8v-7.795c0-4.418,3.582-8,8-8s8,3.582,8,8v7.795
		C16,203.495,12.418,207.077,8,207.077z M8,175.897c-4.418,0-8-3.582-8-8v-7.795c0-4.418,3.582-8,8-8s8,3.582,8,8v7.795
		C16,172.315,12.418,175.897,8,175.897z M8,144.718c-4.418,0-8-3.582-8-8v-7.795c0-4.418,3.582-8,8-8s8,3.582,8,8v7.795
		C16,141.136,12.418,144.718,8,144.718z M8,113.538c-4.418,0-8-3.582-8-8v-7.795c0-4.418,3.582-8,8-8s8,3.582,8,8v7.795
		C16,109.956,12.418,113.538,8,113.538z M8,82.358c-4.418,0-8-3.582-8-8v-7.795c0-4.418,3.582-8,8-8s8,3.582,8,8v7.795
		C16,78.776,12.418,82.358,8,82.358z M8,51.18c-4.418,0-8-3.582-8-8v-7.795c0-4.418,3.582-8,8-8s8,3.582,8,8v7.795
		C16,47.598,12.418,51.18,8,51.18z"/>
	<path style="fill:#95868A;" d="M8,20c-4.418,0-8-3.582-8-8V8c0-4.418,3.582-8,8-8h4c4.418,0,8,3.582,8,8
		c0,3.244-1.931,6.038-4.707,7.293C14.038,18.068,11.245,20,8,20z"/>
	<path style="fill:#95868A;" d="M292.616,16h-7.795c-4.418,0-8-3.582-8-8s3.582-8,8-8h7.795c4.418,0,8,3.582,8,8
		S297.034,16,292.616,16z M261.436,16h-7.795c-4.418,0-8-3.582-8-8s3.582-8,8-8h7.795c4.418,0,8,3.582,8,8S265.854,16,261.436,16z
		 M230.256,16h-7.794c-4.418,0-8-3.582-8-8s3.582-8,8-8h7.794c4.418,0,8,3.582,8,8S234.675,16,230.256,16z M199.077,16h-7.795
		c-4.418,0-8-3.582-8-8s3.582-8,8-8h7.795c4.418,0,8,3.582,8,8S203.496,16,199.077,16z M167.897,16h-7.795c-4.418,0-8-3.582-8-8
		s3.582-8,8-8h7.795c4.418,0,8,3.582,8,8S172.316,16,167.897,16z M136.718,16h-7.795c-4.418,0-8-3.582-8-8s3.582-8,8-8h7.795
		c4.418,0,8,3.582,8,8S141.137,16,136.718,16z M105.539,16h-7.795c-4.418,0-8-3.582-8-8s3.582-8,8-8h7.795c4.418,0,8,3.582,8,8
		S109.957,16,105.539,16z M74.359,16h-7.794c-4.418,0-8-3.582-8-8s3.582-8,8-8h7.794c4.418,0,8,3.582,8,8S78.777,16,74.359,16z
		 M43.18,16h-7.795c-4.418,0-8-3.582-8-8s3.582-8,8-8h7.795c4.418,0,8,3.582,8,8S47.598,16,43.18,16z"/>
	<path style="fill:#95868A;" d="M320,20c-3.245,0-6.038-1.932-7.293-4.707C309.931,14.038,308,11.244,308,8c0-4.418,3.582-8,8-8h4
		c4.418,0,8,3.582,8,8v4C328,16.418,324.418,20,320,20z"/>
	<path style="fill:#95868A;" d="M320,300.615c-4.418,0-8-3.582-8-8v-7.795c0-4.418,3.582-8,8-8s8,3.582,8,8v7.795
		C328,297.033,324.418,300.615,320,300.615z M320,269.437c-4.418,0-8-3.582-8-8v-7.795c0-4.418,3.582-8,8-8s8,3.582,8,8v7.795
		C328,265.854,324.418,269.437,320,269.437z M320,238.257c-4.418,0-8-3.582-8-8v-7.795c0-4.418,3.582-8,8-8s8,3.582,8,8v7.795
		C328,234.675,324.418,238.257,320,238.257z M320,207.077c-4.418,0-8-3.582-8-8v-7.795c0-4.418,3.582-8,8-8s8,3.582,8,8v7.795
		C328,203.495,324.418,207.077,320,207.077z M320,175.897c-4.418,0-8-3.582-8-8v-7.795c0-4.418,3.582-8,8-8s8,3.582,8,8v7.795
		C328,172.315,324.418,175.897,320,175.897z M320,144.718c-4.418,0-8-3.582-8-8v-7.795c0-4.418,3.582-8,8-8s8,3.582,8,8v7.795
		C328,141.136,324.418,144.718,320,144.718z M320,113.539c-4.418,0-8-3.582-8-8v-7.795c0-4.418,3.582-8,8-8s8,3.582,8,8v7.795
		C328,109.957,324.418,113.539,320,113.539z M320,82.359c-4.418,0-8-3.582-8-8v-7.795c0-4.418,3.582-8,8-8s8,3.582,8,8v7.795
		C328,78.777,324.418,82.359,320,82.359z M320,51.18c-4.418,0-8-3.582-8-8v-7.795c0-4.418,3.582-8,8-8s8,3.582,8,8v7.795
		C328,47.598,324.418,51.18,320,51.18z"/>
</g>
<path style="fill:#F74FA4;" d="M504,184H192c-4.418,0-8,3.582-8,8v312c0,4.418,3.582,8,8,8h312c4.418,0,8-3.582,8-8V192
	C512,187.582,508.418,184,504,184z"/>
<path style="fill:#F2387F;" d="M216,488c-4.418,0-8-3.582-8-8V184h-16c-4.418,0-8,3.582-8,8v312c0,4.418,3.582,8,8,8h312
	c4.418,0,8-3.582,8-8v-16H216z"/>
<g>
</g>
<g>
</g>
<g>
</g>
<g>
</g>
<g>
</g>
<g>
</g>
<g>
</g>
<g>
</g>
<g>
</g>
<g>
</g>
<g>
</g>
<g>
</g>
<g>
</g>
<g>
</g>
<g>
</g>
</svg>
