<?xml version="1.0" encoding="iso-8859-1"?>
<!-- Generator: Adobe Illustrator 19.0.0, SVG Export Plug-In . SVG Version: 6.00 Build 0)  -->
<svg version="1.1" id="Capa_1" xmlns="http://www.w3.org/2000/svg" xmlns:xlink="http://www.w3.org/1999/xlink" x="0px" y="0px"
	 viewBox="0 0 512 512" style="enable-background:new 0 0 512 512;" xml:space="preserve">
<path style="fill:#DCD7D8;" d="M488.988,455.047L262.706,228.764c-1.5-1.5-3.535-2.343-5.657-2.343
	c-2.122,0-4.157,0.843-5.657,2.343l-22.628,22.628c-1.5,1.5-2.343,3.535-2.343,5.657c0,2.122,0.843,4.157,2.343,5.657
	l226.283,226.282c1.562,1.562,3.609,2.343,5.657,2.343c2.048,0,4.095-0.781,5.657-2.343l22.628-22.628
	C492.113,463.236,492.113,458.171,488.988,455.047z"/>
<path style="fill:#CAC3C5;" d="M233.745,246.411l-4.98,4.98c-1.5,1.5-2.343,3.535-2.343,5.657c0,2.122,0.843,4.157,2.343,5.657
	l226.282,226.282c1.562,1.562,3.609,2.343,5.657,2.343c2.048,0,4.095-0.781,5.657-2.343l4.98-4.98L233.745,246.411z"/>
<path style="fill:#855FB8;" d="M500.303,443.733l-90.513-90.513c-3.124-3.124-8.189-3.124-11.313,0l-45.257,45.257
	c-3.125,3.124-3.125,8.189,0,11.313l90.513,90.513c7.798,7.798,18.042,11.697,28.285,11.697c10.243,0,20.487-3.899,28.285-11.697
	C515.899,484.706,515.899,459.329,500.303,443.733z"/>
<path style="fill:#7B49AD;" d="M508.322,484.321c-7.798,7.798-18.042,11.697-28.285,11.697c-10.243,0-20.487-3.899-28.285-11.697
	l-90.513-90.513c-0.583-0.583-1.057-1.234-1.423-1.928l-6.596,6.596c-3.125,3.124-3.125,8.189,0,11.313l90.513,90.513
	c7.798,7.798,18.042,11.697,28.285,11.697c10.243,0,20.487-3.899,28.285-11.697c5.368-5.368,8.888-11.895,10.561-18.784
	C510.067,482.482,509.223,483.419,508.322,484.321z"/>
<path style="fill:#847277;" d="M184.007,0C82.545,0,0,82.545,0,184.007s82.545,184.007,184.007,184.007
	s184.007-82.545,184.007-184.007S285.469,0,184.007,0z"/>
<path style="fill:#725E63;" d="M184.007,24.001c-88.227,0-160.006,71.779-160.006,160.006S95.78,344.013,184.007,344.013
	s160.006-71.779,160.006-160.006S272.234,24.001,184.007,24.001z"/>
<path style="fill:#DCD7D8;" d="M184.007,40.001c-79.405,0-144.005,64.6-144.005,144.005s64.6,144.005,144.005,144.005
	s144.005-64.6,144.005-144.005S263.412,40.001,184.007,40.001z"/>
<path style="fill:#EDEBEC;" d="M184.007,56.002c-70.582,0-128.005,57.423-128.005,128.005s57.423,128.005,128.005,128.005
	s128.005-57.423,128.005-128.005S254.588,56.002,184.007,56.002z"/>
<path style="fill:#FF9D4A;" d="M248.009,160.006h-40.001v-40.001c0-4.418-3.582-8-8-8h-32.001c-4.418,0-8,3.582-8,8v40.001h-40.001
	c-4.418,0-8,3.582-8,8v32.001c0,4.418,3.582,8,8,8h40.001v40.001c0,4.418,3.582,8,8,8h32.001c4.418,0,8-3.582,8-8v-40.001h40.001
	c4.418,0,8-3.582,8-8v-32.001C256.01,163.588,252.428,160.006,248.009,160.006z"/>
<path style="fill:#F48A16;" d="M176.007,240.009v-40.001h-40.001c-4.418,0-8-3.582-8-8v-32.001h-8c-4.418,0-8,3.582-8,8v32.001
	c0,4.418,3.582,8,8,8h40.001v40.001c0,4.418,3.582,8,8,8h32.001c4.418,0,8-3.582,8-8h-24.001
	C179.589,248.009,176.007,244.427,176.007,240.009z"/>
<g>
</g>
<g>
</g>
<g>
</g>
<g>
</g>
<g>
</g>
<g>
</g>
<g>
</g>
<g>
</g>
<g>
</g>
<g>
</g>
<g>
</g>
<g>
</g>
<g>
</g>
<g>
</g>
<g>
</g>
</svg>
