<?xml version="1.0" encoding="iso-8859-1"?>
<!-- Generator: Adobe Illustrator 19.0.0, SVG Export Plug-In . SVG Version: 6.00 Build 0)  -->
<svg version="1.1" id="Capa_1" xmlns="http://www.w3.org/2000/svg" xmlns:xlink="http://www.w3.org/1999/xlink" x="0px" y="0px"
	 viewBox="0 0 512 512" style="enable-background:new 0 0 512 512;" xml:space="preserve">
<path style="fill:#DCD7D8;" d="M340.483,335.595L23.662,18.775c-4.137-4.134-11.403-2.408-13.249,3.127L8.034,29.04
	c-19.968,59.903,0.484,125.701,50.894,163.729l242.791,183.158c1.435,1.082,3.129,1.613,4.817,1.613c2.06,0,4.108-0.792,5.66-2.343
	l28.287-28.287c1.5-1.5,2.343-3.535,2.343-5.658S341.983,337.095,340.483,335.595z"/>
<path style="fill:#CAC3C5;" d="M340.483,346.91c1.5-1.5,2.343-3.535,2.343-5.658s-0.843-4.158-2.343-5.658L23.662,18.775
	c-4.137-4.134-11.403-2.407-13.249,3.127l-1.605,4.816l328.407,323.46L340.483,346.91z"/>
<path style="fill:#55D3FA;" d="M493.317,375.279l-45.284-45.284c-31.229-31.228-82.037-31.228-113.265,0l-33.888,33.888
	c-3.124,3.124-3.124,8.19,0,11.314l113.151,113.15c11.693,11.693,29.94,14.953,44.974,8.073c4.309-1.972,8.25-4.722,11.601-8.073
	l22.712-22.712C518.228,440.725,518.228,400.191,493.317,375.279z M464.013,420.458c0,4.251-1.648,8.24-4.643,11.233l-17.054,17.054
	l-79.205-79.205l5.602-5.601c6.048-6.048,14.105-9.378,22.687-9.378s16.639,3.331,22.687,9.378l45.284,45.284c0,0,0,0,0.001,0
	C462.365,412.218,464.013,416.208,464.013,420.458z"/>
<path style="fill:#56C4F0;" d="M497.317,449.634l-22.712,22.712c-3.351,3.35-7.292,6.101-11.601,8.073
	c-15.035,6.881-33.281,3.62-44.974-8.073L305.224,359.539l-4.344,4.344c-3.124,3.124-3.124,8.19,0,11.314l113.151,113.15
	c11.693,11.693,29.94,14.953,44.974,8.073c4.309-1.972,8.25-4.722,11.601-8.073l22.712-22.712
	c10.554-10.554,16.619-23.916,18.23-37.703C508.436,435.841,503.7,443.253,497.317,449.634z"/>
<path style="fill:#EDEBEC;" d="M503.967,29.041l-2.379-7.139c-1.845-5.535-9.112-7.265-13.249-3.127l-316.821,316.82
	c-1.5,1.5-2.343,3.535-2.343,5.658s0.843,4.158,2.343,5.658l28.287,28.287c1.552,1.551,3.6,2.343,5.66,2.343
	c1.688,0,3.382-0.532,4.817-1.613l242.791-183.158C503.482,154.741,523.935,88.943,503.967,29.041z"/>
<path style="fill:#DCD7D8;" d="M503.967,29.041l-2.379-7.139c-1.845-5.535-9.112-7.265-13.249-3.127l-316.821,316.82
	c-1.5,1.5-2.343,3.535-2.343,5.658s0.843,4.158,2.343,5.658l4.295,4.294L504.116,29.503
	C504.065,29.349,504.018,29.194,503.967,29.041z"/>
<path style="fill:#55D3FA;" d="M211.121,363.882l-33.888-33.888c-31.229-31.228-82.037-31.228-113.265,0l-45.284,45.284
	c-24.911,24.912-24.911,65.446,0,90.358l22.712,22.712c11.694,11.692,29.94,14.954,44.975,8.073c4.31-1.972,8.25-4.722,11.601-8.073
	l113.15-113.15C214.245,372.073,214.245,367.007,211.121,363.882z M97.914,363.939c6.048-6.048,14.105-9.378,22.687-9.378
	s16.639,3.331,22.687,9.378l5.602,5.601l-79.205,79.205L52.63,431.691c-2.993-2.993-4.643-6.983-4.643-11.233
	c0-4.25,1.648-8.24,4.644-11.234L97.914,363.939z"/>
<path style="fill:#56C4F0;" d="M211.121,363.882l-4.344-4.344L93.97,472.346c-3.351,3.35-7.292,6.101-11.601,8.073
	c-15.035,6.881-33.281,3.62-44.975-8.073l-22.712-22.712c-6.381-6.382-11.116-13.794-14.229-21.702
	c1.611,13.788,7.676,27.148,18.23,37.703l22.712,22.712c11.694,11.692,29.94,14.954,44.975,8.073
	c4.31-1.972,8.25-4.722,11.601-8.073l113.15-113.15C214.245,372.073,214.245,367.007,211.121,363.882z"/>
<path style="fill:#B9AEB1;" d="M257,308.043h-1c-4.419,0-8.001-3.582-8.001-8.001s3.582-8.001,8.001-8.001h1
	c4.419,0,8.001,3.582,8.001,8.001S261.419,308.043,257,308.043z"/>
<path style="fill:#847277;" d="M256,228.034c-4.419,0-8.001-3.582-8.001-8.001v-8.001c0-4.419,3.582-8.001,8.001-8.001
	s8.001,3.582,8.001,8.001v8.001C264.001,224.451,260.419,228.034,256,228.034z M256,196.03c-4.419,0-8.001-3.582-8.001-8.001v-8.001
	c0-4.419,3.582-8.001,8.001-8.001s8.001,3.582,8.001,8.001v8.001C264.001,192.447,260.419,196.03,256,196.03z M256,164.026
	c-4.419,0-8.001-3.582-8.001-8.001v-8.001c0-4.419,3.582-8.001,8.001-8.001s8.001,3.582,8.001,8.001v8.001
	C264.001,160.444,260.419,164.026,256,164.026z M256,132.022c-4.419,0-8.001-3.582-8.001-8.001v-8.001
	c0-4.419,3.582-8.001,8.001-8.001s8.001,3.582,8.001,8.001v8.001C264.001,128.44,260.419,132.022,256,132.022z M256,100.019
	c-4.419,0-8.001-3.582-8.001-8.001v-8.001c0-4.419,3.582-8.001,8.001-8.001s8.001,3.582,8.001,8.001v8.001
	C264.001,96.436,260.419,100.019,256,100.019z M256,68.015c-4.419,0-8.001-3.582-8.001-8.001v-8.001
	c0-4.419,3.582-8.001,8.001-8.001s8.001,3.582,8.001,8.001v8.001C264.001,64.432,260.419,68.015,256,68.015z M256,36.011
	c-4.419,0-8.001-3.582-8.001-8.001v-8.001c0-4.419,3.582-8.001,8.001-8.001s8.001,3.582,8.001,8.001v8.001
	C264.001,32.429,260.419,36.011,256,36.011z"/>
<g>
</g>
<g>
</g>
<g>
</g>
<g>
</g>
<g>
</g>
<g>
</g>
<g>
</g>
<g>
</g>
<g>
</g>
<g>
</g>
<g>
</g>
<g>
</g>
<g>
</g>
<g>
</g>
<g>
</g>
</svg>
