<?xml version="1.0" encoding="iso-8859-1"?>
<!-- Generator: Adobe Illustrator 19.0.0, SVG Export Plug-In . SVG Version: 6.00 Build 0)  -->
<svg version="1.1" id="Capa_1" xmlns="http://www.w3.org/2000/svg" xmlns:xlink="http://www.w3.org/1999/xlink" x="0px" y="0px"
	 viewBox="0 0 512 512" style="enable-background:new 0 0 512 512;" xml:space="preserve">
<rect x="8" y="32" style="fill:#EDEBEC;" width="472" height="472"/>
<polygon style="fill:#DCD7D8;" points="24,488 24,32 8,32 8,504 480,504 480,488 "/>
<path style="fill:#55D3FA;" d="M224,504H8V288h208c4.418,0,8,3.582,8,8V504z"/>
<polygon style="fill:#56C4F0;" points="24,488 24,288 8,288 8,504 224,504 224,488 "/>
<g>
	<path style="fill:#95868A;" d="M8,40c4.418,0,8-3.582,8-8V8c0-4.418-3.582-8-8-8S0,3.582,0,8v24C0,36.418,3.582,40,8,40z"/>
	<path style="fill:#95868A;" d="M504,496h-24c-4.418,0-8,3.582-8,8s3.582,8,8,8h24c4.418,0,8-3.582,8-8S508.418,496,504,496z"/>
	<path style="fill:#95868A;" d="M504,24h-16V8c0-4.418-3.582-8-8-8s-8,3.582-8,8v24c0,4.418,3.582,8,8,8h24c4.418,0,8-3.582,8-8
		S508.418,24,504,24z"/>
	<path style="fill:#95868A;" d="M284,40h4c4.418,0,8-3.582,8-8s-3.582-8-8-8h-4c-4.418,0-8,3.582-8,8S279.582,40,284,40z"/>
	<path style="fill:#95868A;" d="M172,40h4c4.418,0,8-3.582,8-8s-3.582-8-8-8h-4c-4.418,0-8,3.582-8,8S167.582,40,172,40z"/>
	<path style="fill:#95868A;" d="M200,40h4c4.418,0,8-3.582,8-8s-3.582-8-8-8h-4c-4.418,0-8,3.582-8,8S195.582,40,200,40z"/>
	<path style="fill:#95868A;" d="M228,40h4c4.418,0,8-3.582,8-8s-3.582-8-8-8h-4c-4.418,0-8,3.582-8,8S223.582,40,228,40z"/>
	<path style="fill:#95868A;" d="M144,40h4c4.418,0,8-3.582,8-8s-3.582-8-8-8h-4c-4.418,0-8,3.582-8,8S139.582,40,144,40z"/>
	<path style="fill:#95868A;" d="M256,40h4c4.418,0,8-3.582,8-8s-3.582-8-8-8h-4c-4.418,0-8,3.582-8,8S251.582,40,256,40z"/>
	<path style="fill:#95868A;" d="M32,40h4c4.418,0,8-3.582,8-8s-3.582-8-8-8h-4c-4.418,0-8,3.582-8,8S27.582,40,32,40z"/>
	<path style="fill:#95868A;" d="M116,40h4c4.418,0,8-3.582,8-8s-3.582-8-8-8h-4c-4.418,0-8,3.582-8,8S111.582,40,116,40z"/>
	<path style="fill:#95868A;" d="M60,40h4c4.418,0,8-3.582,8-8s-3.582-8-8-8h-4c-4.418,0-8,3.582-8,8S55.582,40,60,40z"/>
	<path style="fill:#95868A;" d="M88,40h4c4.418,0,8-3.582,8-8s-3.582-8-8-8h-4c-4.418,0-8,3.582-8,8S83.582,40,88,40z"/>
	<path style="fill:#95868A;" d="M396,40h4c4.418,0,8-3.582,8-8s-3.582-8-8-8h-4c-4.418,0-8,3.582-8,8S391.582,40,396,40z"/>
	<path style="fill:#95868A;" d="M424,40h4c4.418,0,8-3.582,8-8s-3.582-8-8-8h-4c-4.418,0-8,3.582-8,8S419.582,40,424,40z"/>
	<path style="fill:#95868A;" d="M368,40h4c4.418,0,8-3.582,8-8s-3.582-8-8-8h-4c-4.418,0-8,3.582-8,8S363.582,40,368,40z"/>
	<path style="fill:#95868A;" d="M312,40h4c4.418,0,8-3.582,8-8s-3.582-8-8-8h-4c-4.418,0-8,3.582-8,8S307.582,40,312,40z"/>
	<path style="fill:#95868A;" d="M340,40h4c4.418,0,8-3.582,8-8s-3.582-8-8-8h-4c-4.418,0-8,3.582-8,8S335.582,40,340,40z"/>
	<path style="fill:#95868A;" d="M456,24h-4c-4.418,0-8,3.582-8,8s3.582,8,8,8h4c4.418,0,8-3.582,8-8S460.418,24,456,24z"/>
	<path style="fill:#95868A;" d="M479,488c4.418,0,8-3.582,8-8v-2c0-4.418-3.582-8-8-8s-8,3.582-8,8v2
		C471,484.418,474.582,488,479,488z"/>
	<path style="fill:#95868A;" d="M479,463.297c4.418,0,8-3.582,8-8v-3.784c0-4.418-3.582-8-8-8s-8,3.582-8,8v3.784
		C471,459.716,474.582,463.297,479,463.297z"/>
	<path style="fill:#95868A;" d="M479,92.486c4.418,0,8-3.582,8-8v-3.784c0-4.418-3.582-8-8-8s-8,3.582-8,8v3.784
		C471,88.905,474.582,92.486,479,92.486z"/>
	<path style="fill:#95868A;" d="M479,410.324c4.418,0,8-3.582,8-8v-3.784c0-4.418-3.582-8-8-8s-8,3.582-8,8v3.784
		C471,406.743,474.582,410.324,479,410.324z"/>
	<path style="fill:#95868A;" d="M479,198.432c4.418,0,8-3.582,8-8v-3.784c0-4.418-3.582-8-8-8s-8,3.582-8,8v3.784
		C471,194.851,474.582,198.432,479,198.432z"/>
	<path style="fill:#95868A;" d="M479,436.811c4.418,0,8-3.582,8-8v-3.784c0-4.418-3.582-8-8-8s-8,3.582-8,8v3.784
		C471,433.229,474.582,436.811,479,436.811z"/>
	<path style="fill:#95868A;" d="M479,251.405c4.418,0,8-3.582,8-8v-3.784c0-4.418-3.582-8-8-8s-8,3.582-8,8v3.784
		C471,247.824,474.582,251.405,479,251.405z"/>
	<path style="fill:#95868A;" d="M479,224.918c4.418,0,8-3.582,8-8v-3.784c0-4.418-3.582-8-8-8s-8,3.582-8,8v3.784
		C471,221.337,474.582,224.918,479,224.918z"/>
	<path style="fill:#95868A;" d="M479,357.351c4.418,0,8-3.582,8-8v-3.784c0-4.418-3.582-8-8-8s-8,3.582-8,8v3.784
		C471,353.77,474.582,357.351,479,357.351z"/>
	<path style="fill:#95868A;" d="M479,330.865c4.418,0,8-3.582,8-8v-3.784c0-4.418-3.582-8-8-8s-8,3.582-8,8v3.784
		C471,327.283,474.582,330.865,479,330.865z"/>
	<path style="fill:#95868A;" d="M479,277.892c4.418,0,8-3.582,8-8v-3.784c0-4.418-3.582-8-8-8s-8,3.582-8,8v3.784
		C471,274.31,474.582,277.892,479,277.892z"/>
	<path style="fill:#95868A;" d="M479,171.946c4.418,0,8-3.582,8-8v-3.784c0-4.418-3.582-8-8-8s-8,3.582-8,8v3.784
		C471,168.364,474.582,171.946,479,171.946z"/>
	<path style="fill:#95868A;" d="M479,383.837c4.418,0,8-3.582,8-8v-3.784c0-4.418-3.582-8-8-8s-8,3.582-8,8v3.784
		C471,380.256,474.582,383.837,479,383.837z"/>
	<path style="fill:#95868A;" d="M479,304.378c4.418,0,8-3.582,8-8v-3.784c0-4.418-3.582-8-8-8s-8,3.582-8,8v3.784
		C471,300.796,474.582,304.378,479,304.378z"/>
	<path style="fill:#95868A;" d="M479,118.973c4.418,0,8-3.582,8-8v-3.784c0-4.418-3.582-8-8-8s-8,3.582-8,8v3.784
		C471,115.391,474.582,118.973,479,118.973z"/>
	<path style="fill:#95868A;" d="M479,145.459c4.418,0,8-3.582,8-8v-3.784c0-4.418-3.582-8-8-8s-8,3.582-8,8v3.784
		C471,141.877,474.582,145.459,479,145.459z"/>
	<path style="fill:#95868A;" d="M479,66c4.418,0,8-3.582,8-8v-2c0-4.418-3.582-8-8-8s-8,3.582-8,8v2C471,62.418,474.582,66,479,66z"
		/>
	<path style="fill:#95868A;" d="M456,496h-2c-4.418,0-8,3.582-8,8s3.582,8,8,8h2c4.418,0,8-3.582,8-8S460.418,496,456,496z"/>
	<path style="fill:#95868A;" d="M430,496h-4c-4.418,0-8,3.582-8,8s3.582,8,8,8h4c4.418,0,8-3.582,8-8S434.418,496,430,496z"/>
	<path style="fill:#95868A;" d="M150,496h-4c-4.418,0-8,3.582-8,8s3.582,8,8,8h4c4.418,0,8-3.582,8-8S154.418,496,150,496z"/>
	<path style="fill:#95868A;" d="M178,496h-4c-4.418,0-8,3.582-8,8s3.582,8,8,8h4c4.418,0,8-3.582,8-8S182.418,496,178,496z"/>
	<path style="fill:#95868A;" d="M206,496h-4c-4.418,0-8,3.582-8,8s3.582,8,8,8h4c4.418,0,8-3.582,8-8S210.418,496,206,496z"/>
	<path style="fill:#95868A;" d="M38,496h-4c-4.418,0-8,3.582-8,8s3.582,8,8,8h4c4.418,0,8-3.582,8-8S42.418,496,38,496z"/>
	<path style="fill:#95868A;" d="M234,496h-4c-4.418,0-8,3.582-8,8s3.582,8,8,8h4c4.418,0,8-3.582,8-8S238.418,496,234,496z"/>
	<path style="fill:#95868A;" d="M94,496h-4c-4.418,0-8,3.582-8,8s3.582,8,8,8h4c4.418,0,8-3.582,8-8S98.418,496,94,496z"/>
	<path style="fill:#95868A;" d="M122,496h-4c-4.418,0-8,3.582-8,8s3.582,8,8,8h4c4.418,0,8-3.582,8-8S126.418,496,122,496z"/>
	<path style="fill:#95868A;" d="M66,496h-4c-4.418,0-8,3.582-8,8s3.582,8,8,8h4c4.418,0,8-3.582,8-8S70.418,496,66,496z"/>
	<path style="fill:#95868A;" d="M374,496h-4c-4.418,0-8,3.582-8,8s3.582,8,8,8h4c4.418,0,8-3.582,8-8S378.418,496,374,496z"/>
	<path style="fill:#95868A;" d="M402,496h-4c-4.418,0-8,3.582-8,8s3.582,8,8,8h4c4.418,0,8-3.582,8-8S406.418,496,402,496z"/>
	<path style="fill:#95868A;" d="M346,496h-4c-4.418,0-8,3.582-8,8s3.582,8,8,8h4c4.418,0,8-3.582,8-8S350.418,496,346,496z"/>
	<path style="fill:#95868A;" d="M262,496h-4c-4.418,0-8,3.582-8,8s3.582,8,8,8h4c4.418,0,8-3.582,8-8S266.418,496,262,496z"/>
	<path style="fill:#95868A;" d="M290,496h-4c-4.418,0-8,3.582-8,8s3.582,8,8,8h4c4.418,0,8-3.582,8-8S294.418,496,290,496z"/>
	<path style="fill:#95868A;" d="M318,496h-4c-4.418,0-8,3.582-8,8s3.582,8,8,8h4c4.418,0,8-3.582,8-8S322.418,496,318,496z"/>
	<path style="fill:#95868A;" d="M14.568,497.432C13.123,495.357,10.72,494,8,494c-4.418,0-8,3.582-8,8v2c0,4.418,3.582,8,8,8h2
		c4.418,0,8-3.582,8-8C18,501.28,16.643,498.877,14.568,497.432z"/>
	<path style="fill:#95868A;" d="M8,486c4.418,0,8-3.582,8-8v-4c0-4.418-3.582-8-8-8s-8,3.582-8,8v4C0,482.418,3.582,486,8,486z"/>
	<path style="fill:#95868A;" d="M8,318c4.418,0,8-3.582,8-8v-4c0-4.418-3.582-8-8-8s-8,3.582-8,8v4C0,314.418,3.582,318,8,318z"/>
	<path style="fill:#95868A;" d="M8,346c4.418,0,8-3.582,8-8v-4c0-4.418-3.582-8-8-8s-8,3.582-8,8v4C0,342.418,3.582,346,8,346z"/>
	<path style="fill:#95868A;" d="M8,290c4.418,0,8-3.582,8-8v-4c0-4.418-3.582-8-8-8s-8,3.582-8,8v4C0,286.418,3.582,290,8,290z"/>
	<path style="fill:#95868A;" d="M8,430c4.418,0,8-3.582,8-8v-4c0-4.418-3.582-8-8-8s-8,3.582-8,8v4C0,426.418,3.582,430,8,430z"/>
	<path style="fill:#95868A;" d="M8,374c4.418,0,8-3.582,8-8v-4c0-4.418-3.582-8-8-8s-8,3.582-8,8v4C0,370.418,3.582,374,8,374z"/>
	<path style="fill:#95868A;" d="M8,262c4.418,0,8-3.582,8-8v-4c0-4.418-3.582-8-8-8s-8,3.582-8,8v4C0,258.418,3.582,262,8,262z"/>
	<path style="fill:#95868A;" d="M8,458c4.418,0,8-3.582,8-8v-4c0-4.418-3.582-8-8-8s-8,3.582-8,8v4C0,454.418,3.582,458,8,458z"/>
	<path style="fill:#95868A;" d="M8,402c4.418,0,8-3.582,8-8v-4c0-4.418-3.582-8-8-8s-8,3.582-8,8v4C0,398.418,3.582,402,8,402z"/>
	<path style="fill:#95868A;" d="M8,122c4.418,0,8-3.582,8-8v-4c0-4.418-3.582-8-8-8s-8,3.582-8,8v4C0,118.418,3.582,122,8,122z"/>
	<path style="fill:#95868A;" d="M8,150c4.418,0,8-3.582,8-8v-4c0-4.418-3.582-8-8-8s-8,3.582-8,8v4C0,146.418,3.582,150,8,150z"/>
	<path style="fill:#95868A;" d="M8,234c4.418,0,8-3.582,8-8v-4c0-4.418-3.582-8-8-8s-8,3.582-8,8v4C0,230.418,3.582,234,8,234z"/>
	<path style="fill:#95868A;" d="M8,94c4.418,0,8-3.582,8-8v-4c0-4.418-3.582-8-8-8s-8,3.582-8,8v4C0,90.418,3.582,94,8,94z"/>
	<path style="fill:#95868A;" d="M8,178c4.418,0,8-3.582,8-8v-4c0-4.418-3.582-8-8-8s-8,3.582-8,8v4C0,174.418,3.582,178,8,178z"/>
	<path style="fill:#95868A;" d="M8,206c4.418,0,8-3.582,8-8v-4c0-4.418-3.582-8-8-8s-8,3.582-8,8v4C0,202.418,3.582,206,8,206z"/>
	<path style="fill:#95868A;" d="M8,66c4.418,0,8-3.582,8-8v-2c0-4.418-3.582-8-8-8s-8,3.582-8,8v2C0,62.418,3.582,66,8,66z"/>
</g>
<g>
</g>
<g>
</g>
<g>
</g>
<g>
</g>
<g>
</g>
<g>
</g>
<g>
</g>
<g>
</g>
<g>
</g>
<g>
</g>
<g>
</g>
<g>
</g>
<g>
</g>
<g>
</g>
<g>
</g>
</svg>
