<?xml version="1.0" encoding="iso-8859-1"?>
<!-- Generator: Adobe Illustrator 19.0.0, SVG Export Plug-In . SVG Version: 6.00 Build 0)  -->
<svg version="1.1" id="Capa_1" xmlns="http://www.w3.org/2000/svg" xmlns:xlink="http://www.w3.org/1999/xlink" x="0px" y="0px"
	 viewBox="0 0 512 512" style="enable-background:new 0 0 512 512;" xml:space="preserve">
<path style="fill:#A79A9E;" d="M48,240.016c-24.749,0-36.585-13.281-42.155-24.422C0.066,204.037,0,192.501,0,192.016
	c0-4.418,3.582-8,8-8c4.409,0,7.985,3.566,8,7.972c0.005,0.292,0.179,8.778,4.372,16.876c5.28,10.196,14.317,15.152,27.628,15.152
	c57.586,0,111.542-57.136,163.722-112.39c25.641-27.151,52.153-55.226,78.774-75.998c30.712-23.964,58.551-35.613,85.108-35.613
	c18.841,0,33.387,5.756,43.233,17.11c16.591,19.13,12.854,46.851,12.687,48.021c-0.625,4.374-4.676,7.413-9.052,6.788
	c-4.373-0.625-7.412-4.677-6.788-9.051c0.026-0.193,2.824-21.8-8.993-35.343c-6.673-7.648-17.132-11.526-31.087-11.526
	c-51.586,0-100.482,51.778-152.25,106.596C168.847,180.331,112.483,240.016,48,240.016z M16,192.016h0.01H16z"/>
<path style="fill:#7FDEFB;" d="M509.698,396.578L323.12,207.204c-1.497-1.519-3.537-2.377-5.67-2.385c-0.01,0-0.02,0-0.029,0
	c-2.121,0-4.156,0.843-5.657,2.343L209.94,308.986c-3.107,3.108-3.126,8.141-0.041,11.271l186.578,189.374
	c3.077,3.121,8.257,3.14,11.356,0.042L509.656,407.85C512.765,404.742,512.783,399.709,509.698,396.578z"/>
<path style="fill:#55D3FA;" d="M209.94,308.986c-3.107,3.108-3.126,8.141-0.041,11.271l186.578,189.374
	c3.077,3.121,8.257,3.14,11.356,0.042l12.411-12.411l-199.29-199.29L209.94,308.986z"/>
<path style="fill:#F74FA4;" d="M475.758,430.519L289.18,241.145c-1.497-1.519-3.537-2.377-5.67-2.385c-0.01,0-0.02,0-0.029,0
	c-2.121,0-4.156,0.843-5.657,2.343l-33.941,33.941c-3.107,3.107-3.126,8.141-0.042,11.271L430.419,475.69
	c1.497,1.519,3.537,2.377,5.67,2.385c0.01,0,0.02,0,0.029,0c2.121,0,4.156-0.843,5.657-2.343l33.94-33.941
	C478.823,438.682,478.842,433.65,475.758,430.519z"/>
<path style="fill:#FFB577;" d="M170.343,167.564c-2.043,2.043-2.826,5.031-2.047,7.814L207.894,316.8l111.685-111.684
	l-141.421-39.598C175.373,164.738,172.387,165.522,170.343,167.564z"/>
<path style="fill:#FF9D4A;" d="M170.343,167.564c-2.043,2.043-2.826,5.031-2.047,7.814L207.894,316.8l18.502-18.502l-50.271-133.071
	C173.988,165.194,171.894,166.014,170.343,167.564z"/>
<path style="fill:#725E63;" d="M170.343,167.564c-2.043,2.043-2.826,5.031-2.047,7.814l20.108,71.815l61.568-61.568l-71.815-20.108
	C175.373,164.738,172.387,165.522,170.343,167.564z"/>
<path style="fill:#614A50;" d="M170.343,167.564c-2.043,2.043-2.826,5.031-2.047,7.814l20.108,71.815l13.562-13.562l-25.842-68.406
	C173.988,165.194,171.894,166.014,170.343,167.564z"/>
<g>
</g>
<g>
</g>
<g>
</g>
<g>
</g>
<g>
</g>
<g>
</g>
<g>
</g>
<g>
</g>
<g>
</g>
<g>
</g>
<g>
</g>
<g>
</g>
<g>
</g>
<g>
</g>
<g>
</g>
</svg>
