<?xml version="1.0" encoding="iso-8859-1"?>
<!-- Generator: Adobe Illustrator 19.0.0, SVG Export Plug-In . SVG Version: 6.00 Build 0)  -->
<svg version="1.1" id="Capa_1" xmlns="http://www.w3.org/2000/svg" xmlns:xlink="http://www.w3.org/1999/xlink" x="0px" y="0px"
	 viewBox="0 0 512 512" style="enable-background:new 0 0 512 512;" xml:space="preserve">
<path style="fill:#C745A3;" d="M82.709,182.953H15c-8.284,0-15-6.716-15-15v-45.411c0-8.284,6.716-15,15-15h67.709
	c8.284,0,15,6.716,15,15v45.411C97.709,176.237,90.993,182.953,82.709,182.953z"/>
<path style="fill:#FF5CA5;" d="M49.773,107.542H15c-8.284,0-15,6.716-15,15v45.411c0,8.284,6.716,15,15,15h34.773V107.542z"/>
<path style="fill:#FFAE42;" d="M82.709,293.706H15c-8.284,0-15-6.716-15-15v-45.411c0-8.284,6.716-15,15-15h67.709
	c8.284,0,15,6.716,15,15v45.411C97.709,286.99,90.993,293.706,82.709,293.706z"/>
<path style="fill:#FFDF63;" d="M49.773,218.294H15c-8.284,0-15,6.716-15,15v45.411c0,8.284,6.716,15,15,15h34.773V218.294z"/>
<path style="fill:#C745A3;" d="M82.709,404.458H15c-8.284,0-15-6.716-15-15v-45.411c0-8.284,6.716-15,15-15h67.709
	c8.284,0,15,6.716,15,15v45.411C97.709,397.742,90.993,404.458,82.709,404.458z"/>
<path style="fill:#FF5CA5;" d="M49.773,329.047H15c-8.284,0-15,6.716-15,15v45.411c0,8.284,6.716,15,15,15h34.773V329.047z"/>
<path style="fill:#FFAE42;" d="M497,182.953H156.797c-8.284,0-15-6.716-15-15v-45.411c0-8.284,6.716-15,15-15H497
	c8.284,0,15,6.716,15,15v45.411C512,176.237,505.284,182.953,497,182.953z"/>
<path style="fill:#FFDF63;" d="M326.898,107.542H156.797c-8.284,0-15,6.716-15,15v45.411c0,8.284,6.716,15,15,15h170.102
	L326.898,107.542L326.898,107.542z"/>
<path style="fill:#C745A3;" d="M497,293.706H156.797c-8.284,0-15-6.716-15-15v-45.411c0-8.284,6.716-15,15-15H497
	c8.284,0,15,6.716,15,15v45.411C512,286.99,505.284,293.706,497,293.706z"/>
<path style="fill:#FF5CA5;" d="M326.898,218.294H156.797c-8.284,0-15,6.716-15,15v45.411c0,8.284,6.716,15,15,15h170.102
	L326.898,218.294L326.898,218.294z"/>
<path style="fill:#FFAE42;" d="M497,404.458H156.797c-8.284,0-15-6.716-15-15v-45.411c0-8.284,6.716-15,15-15H497
	c8.284,0,15,6.716,15,15v45.411C512,397.743,505.284,404.458,497,404.458z"/>
<path style="fill:#FFDF63;" d="M326.898,329.047H156.797c-8.284,0-15,6.716-15,15v45.411c0,8.284,6.716,15,15,15h170.102
	L326.898,329.047L326.898,329.047z"/>
<g>
</g>
<g>
</g>
<g>
</g>
<g>
</g>
<g>
</g>
<g>
</g>
<g>
</g>
<g>
</g>
<g>
</g>
<g>
</g>
<g>
</g>
<g>
</g>
<g>
</g>
<g>
</g>
<g>
</g>
</svg>
