<?xml version="1.0" encoding="iso-8859-1"?>
<!-- Generator: Adobe Illustrator 19.0.0, SVG Export Plug-In . SVG Version: 6.00 Build 0)  -->
<svg version="1.1" id="Capa_1" xmlns="http://www.w3.org/2000/svg" xmlns:xlink="http://www.w3.org/1999/xlink" x="0px" y="0px"
	 viewBox="0 0 512 512" style="enable-background:new 0 0 512 512;" xml:space="preserve">
<path style="fill:#D2D6E3;" d="M0,77v358c0,16.569,13.431,30,30,30h452c16.569,0,30-13.431,30-30V77c0-16.569-13.431-30-30-30H30
	C13.431,47,0,60.432,0,77z"/>
<path style="fill:#F2F4F9;" d="M256,47H30C13.432,47,0,60.432,0,77v358c0,16.569,13.432,30,30,30h226V47z"/>
<path style="fill:#B1B4BF;" d="M512,149.238V77c0-16.569-13.432-30-30-30H30C13.432,47,0,60.432,0,77v72.238H512z"/>
<path style="fill:#D2D6E3;" d="M256,47H30C13.432,47,0,60.432,0,77v72.238h256V47z"/>
<path style="fill:#FFDF63;" d="M58.772,81.991h-10.71c-8.284,0-15,6.716-15,15s6.716,15,15,15h10.71c8.284,0,15-6.716,15-15
	S67.057,81.991,58.772,81.991z"/>
<path style="fill:#FF5CA5;" d="M114.687,81.991h-10.709c-8.284,0-15,6.716-15,15s6.716,15,15,15h10.709c8.284,0,15-6.716,15-15
	S122.972,81.991,114.687,81.991z"/>
<path style="fill:#52CCA5;" d="M170.603,81.991h-10.709c-8.284,0-15,6.716-15,15s6.716,15,15,15h10.709c8.284,0,15-6.716,15-15
	S178.887,81.991,170.603,81.991z"/>
<path style="fill:#3A2370;" d="M459.78,404.433l-59.098-31.967c0.408-4.597-0.944-9.267-3.985-13.01
	c-4.638-5.708-12.19-8.038-19.234-5.938l-10.576,3.151c-4.641,1.381-8.466,4.487-10.769,8.746
	c-2.302,4.257-2.809,9.155-1.427,13.793l3.152,10.58c2.1,7.048,8.183,12.092,15.498,12.849c0.634,0.065,1.264,0.098,1.891,0.098
	c4.119,0,8.042-1.395,11.188-3.877l59.087,31.962c2.269,1.228,4.713,1.81,7.124,1.81c5.33,0,10.493-2.849,13.207-7.866
	C469.778,417.476,467.067,408.375,459.78,404.433z"/>
<g>
	<path style="fill:#3A458F;" d="M145.118,356.671l-10.577-3.15c-7.048-2.102-14.6,0.228-19.238,5.936
		c-3.041,3.743-4.393,8.414-3.985,13.01L52.22,404.433c-7.287,3.941-9.998,13.043-6.057,20.33c2.714,5.018,7.876,7.866,13.207,7.866
		c2.41,0,4.855-0.582,7.124-1.81l59.087-31.962c3.146,2.481,7.069,3.877,11.188,3.877c0.626,0,1.257-0.032,1.891-0.098
		c7.315-0.757,13.398-5.801,15.498-12.849l3.152-10.58c1.382-4.638,0.875-9.536-1.427-13.793
		C153.579,361.157,149.754,358.05,145.118,356.671z"/>
	<path style="fill:#3A458F;" d="M52.22,212.25l59.098,31.967c-0.408,4.597,0.944,9.267,3.985,13.01
		c3.506,4.314,8.676,6.699,14.035,6.699c1.73,0,3.48-0.249,5.2-0.761l10.58-3.152c4.639-1.382,8.462-4.487,10.765-8.745
		c2.302-4.256,2.809-9.154,1.427-13.793l-3.152-10.581c-2.1-7.048-8.183-12.092-15.498-12.849
		c-4.797-0.499-9.445,0.927-13.069,3.784l-59.097-31.967c-7.286-3.941-16.389-1.23-20.33,6.057
		C42.222,199.207,44.933,208.309,52.22,212.25z"/>
</g>
<path style="fill:#3A2370;" d="M366.882,260.013l10.579,3.151c1.721,0.513,3.471,0.762,5.202,0.762
	c5.359,0,10.529-2.385,14.035-6.699c3.041-3.742,4.392-8.413,3.985-13.01l59.098-31.967c7.287-3.941,9.998-13.043,6.057-20.33
	c-3.942-7.288-13.044-9.999-20.33-6.057L386.41,217.83c-3.623-2.856-8.27-4.28-13.068-3.784
	c-7.315,0.757-13.398,5.801-15.498,12.849l-3.152,10.582c-1.381,4.638-0.874,9.536,1.428,13.792
	C358.421,255.526,362.244,258.632,366.882,260.013z"/>
<g>
</g>
<g>
</g>
<g>
</g>
<g>
</g>
<g>
</g>
<g>
</g>
<g>
</g>
<g>
</g>
<g>
</g>
<g>
</g>
<g>
</g>
<g>
</g>
<g>
</g>
<g>
</g>
<g>
</g>
</svg>
