<?xml version="1.0" encoding="iso-8859-1"?>
<!-- Generator: Adobe Illustrator 19.0.0, SVG Export Plug-In . SVG Version: 6.00 Build 0)  -->
<svg version="1.1" id="Capa_1" xmlns="http://www.w3.org/2000/svg" xmlns:xlink="http://www.w3.org/1999/xlink" x="0px" y="0px"
	 viewBox="0 0 512 512" style="enable-background:new 0 0 512 512;" xml:space="preserve">
<path style="fill:#319CD6;" d="M401.073,314.212H29.995C13.429,314.212,0,300.783,0,284.216V50.985
	C0,34.419,13.429,20.99,29.995,20.99h371.078c16.566,0,29.995,13.429,29.995,29.995v233.232
	C431.068,300.783,417.638,314.212,401.073,314.212z"/>
<path style="fill:#55D8EF;" d="M215.533,20.99H29.995C13.429,20.99,0,34.419,0,50.985v233.232c0,16.566,13.429,29.995,29.995,29.995
	h185.538V20.99z"/>
<rect x="178.061" y="304.001" style="fill:#B1B4BF;" width="74.942" height="66.649"/>
<g>
	<rect x="178.061" y="304.001" style="fill:#D2D6E3;" width="37.471" height="66.649"/>
	<path style="fill:#D2D6E3;" d="M0,243.1v41.116c0,16.566,13.429,29.995,29.995,29.995h371.078
		c16.566,0,29.995-13.429,29.995-29.995V243.1L0,243.1L0,243.1z"/>
</g>
<path style="fill:#F2F4F9;" d="M215.533,243.1H0v41.116c0,16.566,13.429,29.995,29.995,29.995h185.538V243.1z"/>
<path style="fill:#D2D6E3;" d="M284.65,366.424H146.418c-6.975,0-12.629,5.654-12.629,12.629c0,6.975,5.654,12.629,12.629,12.629
	h138.234c6.975,0,12.629-5.654,12.629-12.629C297.279,372.078,291.625,366.424,284.65,366.424z"/>
<path style="fill:#F2F4F9;" d="M215.533,366.424h-69.117c-6.975,0-12.629,5.654-12.629,12.629c0,6.975,5.654,12.629,12.629,12.629
	h69.117V366.424z"/>
<path style="fill:#319CD6;" d="M497.002,193.167H377.271c-8.27,0-14.998,6.728-14.998,14.998v267.847
	c0,8.27,6.728,14.998,14.998,14.998h119.732c8.27,0,14.998-6.728,14.998-14.998V208.165
	C512,199.895,505.272,193.167,497.002,193.167z"/>
<path style="fill:#55D8EF;" d="M437.136,193.167h-59.865c-8.27,0-14.998,6.728-14.998,14.998v267.847
	c0,8.27,6.728,14.998,14.998,14.998h59.865V193.167z"/>
<g>
	<path style="fill:#D2D6E3;" d="M512,239.388v-31.223c0-8.27-6.728-14.998-14.998-14.998H377.271
		c-8.27,0-14.998,6.728-14.998,14.998v31.223H512z"/>
	<path style="fill:#D2D6E3;" d="M362.273,447.213v28.799c0,8.27,6.728,14.998,14.998,14.998h119.732
		c8.27,0,14.998-6.728,14.998-14.998v-28.799L362.273,447.213L362.273,447.213z"/>
</g>
<g>
	<path style="fill:#F2F4F9;" d="M437.136,193.167h-59.865c-8.27,0-14.998,6.728-14.998,14.998v31.223h74.863V193.167z"/>
	<path style="fill:#F2F4F9;" d="M437.136,447.213h-74.863v28.799c0,8.27,6.728,14.998,14.998,14.998h59.865V447.213z"/>
</g>
<path style="fill:#FFAE42;" d="M420.73,367.302v-50.427c0-2.34,2.482-3.845,4.557-2.766l48.452,25.214
	c2.238,1.165,2.238,4.366,0,5.531l-48.452,25.214C423.211,371.148,420.73,369.642,420.73,367.302z"/>
<path style="fill:#FFDF63;" d="M420.73,367.302v-50.427c0-2.34,2.482-3.845,4.557-2.766l11.849,6.166v43.627l-11.849,6.166
	C423.211,371.148,420.73,369.642,420.73,367.302z"/>
<path style="fill:#FFAE42;" d="M182.239,197.19l102.166-43.085c2.542-1.072,2.542-4.673,0-5.745l-102.166-43.085
	c-2.056-0.867-4.329,0.642-4.329,2.873v86.17C177.91,196.548,180.183,198.056,182.239,197.19z"/>
<path style="fill:#FFDF63;" d="M215.533,119.316l-33.296-14.041c-2.056-0.867-4.329,0.642-4.329,2.873v86.17
	c0,2.231,2.274,3.739,4.329,2.873l33.296-14.041V119.316z"/>
<g>
</g>
<g>
</g>
<g>
</g>
<g>
</g>
<g>
</g>
<g>
</g>
<g>
</g>
<g>
</g>
<g>
</g>
<g>
</g>
<g>
</g>
<g>
</g>
<g>
</g>
<g>
</g>
<g>
</g>
</svg>
