<?xml version="1.0" encoding="iso-8859-1"?>
<!-- Generator: Adobe Illustrator 19.0.0, SVG Export Plug-In . SVG Version: 6.00 Build 0)  -->
<svg version="1.1" id="Capa_1" xmlns="http://www.w3.org/2000/svg" xmlns:xlink="http://www.w3.org/1999/xlink" x="0px" y="0px"
	 viewBox="0 0 512 512" style="enable-background:new 0 0 512 512;" xml:space="preserve">
<path style="fill:#319CD6;" d="M432.771,512H79.229c-16.569,0-30-13.431-30-30V30c0-16.569,13.431-30,30-30h353.542
	c16.569,0,30,13.431,30,30v452C462.771,498.569,449.34,512,432.771,512z"/>
<path style="fill:#55D8EF;" d="M256,0H79.229c-16.569,0-30,13.431-30,30v452c0,16.569,13.431,30,30,30H256V0z"/>
<g>
	<path style="fill:#D2D6E3;" d="M462.771,80.334V30c0-16.569-13.431-30-30-30H79.229c-16.569,0-30,13.431-30,30v50.334H462.771z"/>
	<path style="fill:#D2D6E3;" d="M49.229,416.989V482c0,16.569,13.431,30,30,30h353.542c16.569,0,30-13.431,30-30v-65.011H49.229z"/>
</g>
<g>
	<path style="fill:#F2F4F9;" d="M256,0H79.229c-16.569,0-30,13.431-30,30v50.334H256V0z"/>
	<path style="fill:#F2F4F9;" d="M256,416.989H49.229V482c0,16.569,13.431,30,30,30H256V416.989z"/>
</g>
<path style="fill:#B1B4BF;" d="M265.648,454.57h-19.297c-8.284,0-15,6.716-15,15s6.716,15,15,15h19.297c8.284,0,15-6.716,15-15
	S273.933,454.57,265.648,454.57z"/>
<path style="fill:#D2D6E3;" d="M256,454.57h-9.648c-8.284,0-15,6.716-15,15s6.716,15,15,15H256V454.57z"/>
<path style="fill:#FFAE42;" d="M389.882,121.203H122.118c-11.028,0-20,8.972-20,20v55.795c0,11.028,8.972,20,20,20h267.764
	c11.028,0,20-8.972,20-20v-55.795C409.882,130.175,400.91,121.203,389.882,121.203z"/>
<g>
	<path style="fill:#3A2370;" d="M394.882,245.171H117.118c-8.284,0-15,6.716-15,15c0,8.284,6.716,15,15,15h277.764
		c8.284,0,15-6.716,15-15S403.166,245.171,394.882,245.171z"/>
	<path style="fill:#3A2370;" d="M394.882,296.823H117.118c-8.284,0-15,6.716-15,15s6.716,15,15,15h277.764c8.284,0,15-6.716,15-15
		S403.166,296.823,394.882,296.823z"/>
	<path style="fill:#3A2370;" d="M394.882,348.475H117.118c-8.284,0-15,6.716-15,15s6.716,15,15,15h277.764c8.284,0,15-6.716,15-15
		S403.166,348.475,394.882,348.475z"/>
</g>
<path style="fill:#FFDF63;" d="M256,121.203H122.118c-11.028,0-20,8.972-20,20v55.795c0,11.028,8.972,20,20,20H256V121.203z"/>
<g>
	<path style="fill:#3A458F;" d="M256,245.171H117.118c-8.284,0-15,6.716-15,15c0,8.284,6.716,15,15,15H256V245.171z"/>
	<path style="fill:#3A458F;" d="M256,296.823H117.118c-8.284,0-15,6.716-15,15s6.716,15,15,15H256V296.823z"/>
	<path style="fill:#3A458F;" d="M256,348.475H117.118c-8.284,0-15,6.716-15,15s6.716,15,15,15H256V348.475z"/>
</g>
<g>
</g>
<g>
</g>
<g>
</g>
<g>
</g>
<g>
</g>
<g>
</g>
<g>
</g>
<g>
</g>
<g>
</g>
<g>
</g>
<g>
</g>
<g>
</g>
<g>
</g>
<g>
</g>
<g>
</g>
</svg>
