<?xml version="1.0" encoding="iso-8859-1"?>
<!-- Generator: Adobe Illustrator 19.0.0, SVG Export Plug-In . SVG Version: 6.00 Build 0)  -->
<svg version="1.1" id="Capa_1" xmlns="http://www.w3.org/2000/svg" xmlns:xlink="http://www.w3.org/1999/xlink" x="0px" y="0px"
	 viewBox="0 0 512 512" style="enable-background:new 0 0 512 512;" xml:space="preserve">
<path style="fill:#319CD6;" d="M371.583,512H140.417c-16.569,0-30-13.431-30-30V30c0-16.569,13.431-30,30-30h231.166
	c16.569,0,30,13.431,30,30v452C401.583,498.569,388.152,512,371.583,512z"/>
<path style="fill:#55D8EF;" d="M256,0H140.417c-16.569,0-30,13.431-30,30v452c0,16.569,13.431,30,30,30H256V0z"/>
<g>
	<path style="fill:#D2D6E3;" d="M401.583,73.925V30c0-16.569-13.431-30-30-30H140.417c-16.569,0-30,13.431-30,30v43.925H401.583z"/>
	<path style="fill:#D2D6E3;" d="M110.417,411.953V482c0,16.569,13.431,30,30,30h231.166c16.569,0,30-13.431,30-30v-70.047H110.417z"
		/>
</g>
<g>
	<path style="fill:#F2F4F9;" d="M256,0H140.417c-16.569,0-30,13.431-30,30v43.925H256V0z"/>
	<path style="fill:#F2F4F9;" d="M256,411.953H110.417V482c0,16.569,13.431,30,30,30H256V411.953z"/>
</g>
<path style="fill:#B1B4BF;" d="M265.648,454.57h-19.297c-8.284,0-15,6.716-15,15s6.716,15,15,15h19.297c8.284,0,15-6.716,15-15
	S273.933,454.57,265.648,454.57z"/>
<path style="fill:#D2D6E3;" d="M256,454.57h-9.648c-8.284,0-15,6.716-15,15s6.716,15,15,15H256V454.57z"/>
<g>
	<path style="fill:#3A2370;" d="M303.758,149.87h46.19c8.284,0,15-6.716,15-15s-6.716-15-15-15h-46.19c-8.284,0-15,6.716-15,15
		S295.473,149.87,303.758,149.87z"/>
	<path style="fill:#3A2370;" d="M349.948,161.508h-46.19c-8.284,0-15,6.716-15,15s6.716,15,15,15h46.19c8.284,0,15-6.716,15-15
		S358.232,161.508,349.948,161.508z"/>
	<path style="fill:#3A2370;" d="M349.948,203.146h-46.19c-8.284,0-15,6.716-15,15s6.716,15,15,15h46.19c8.284,0,15-6.716,15-15
		S358.232,203.146,349.948,203.146z"/>
</g>
<path style="fill:#FFDF63;" d="M231.352,216.146V131.6c0-9.389-7.611-17-17-17h-58.408c-9.389,0-17,7.611-17,17v84.546
	c0,9.389,7.611,17,17,17h58.408C223.74,233.146,231.352,225.535,231.352,216.146z"/>
<path style="fill:#D2D6E3;" d="M373.057,354.675v-84.546c0-9.389-7.611-17-17-17h-58.408c-9.389,0-17,7.611-17,17v84.546
	c0,9.389,7.611,17,17,17h58.408C365.446,371.675,373.057,364.064,373.057,354.675z"/>
<g>
	<path style="fill:#3A458F;" d="M208.242,341.675h-46.19c-8.284,0-15,6.716-15,15s6.716,15,15,15h46.19c8.284,0,15-6.716,15-15
		S216.527,341.675,208.242,341.675z"/>
	<path style="fill:#3A458F;" d="M208.242,300.037h-46.19c-8.284,0-15,6.716-15,15s6.716,15,15,15h46.19c8.284,0,15-6.716,15-15
		S216.527,300.037,208.242,300.037z"/>
	<path style="fill:#3A458F;" d="M208.242,258.399h-46.19c-8.284,0-15,6.716-15,15s6.716,15,15,15h46.19c8.284,0,15-6.716,15-15
		S216.527,258.399,208.242,258.399z"/>
</g>
<g>
</g>
<g>
</g>
<g>
</g>
<g>
</g>
<g>
</g>
<g>
</g>
<g>
</g>
<g>
</g>
<g>
</g>
<g>
</g>
<g>
</g>
<g>
</g>
<g>
</g>
<g>
</g>
<g>
</g>
</svg>
