<?xml version="1.0" encoding="iso-8859-1"?>
<!-- Generator: Adobe Illustrator 19.0.0, SVG Export Plug-In . SVG Version: 6.00 Build 0)  -->
<svg version="1.1" id="Capa_1" xmlns="http://www.w3.org/2000/svg" xmlns:xlink="http://www.w3.org/1999/xlink" x="0px" y="0px"
	 viewBox="0 0 512 512" style="enable-background:new 0 0 512 512;" xml:space="preserve">
<g>
	<path style="fill:#3A2370;" d="M401.888,214.219h-20.015c-8.275,0-14.983,6.708-14.983,14.983s6.708,14.983,14.983,14.983h20.015
		c8.275,0,14.983-6.708,14.983-14.983S410.163,214.219,401.888,214.219z"/>
	<path style="fill:#3A2370;" d="M401.888,321.411h-20.015c-8.275,0-14.983,6.708-14.983,14.983s6.708,14.983,14.983,14.983h20.015
		c8.275,0,14.983-6.708,14.983-14.983S410.163,321.411,401.888,321.411z"/>
</g>
<path id="SVGCleanerId_0" style="fill:#3A458F;" d="M110.112,190.589h20.015c8.275,0,14.983-6.708,14.983-14.983
	s-6.708-14.983-14.983-14.983h-20.015c-8.275,0-14.983,6.708-14.983,14.983S101.837,190.589,110.112,190.589z"/>
<g>
	<path style="fill:#3A2370;" d="M176.531,190.589h225.356c8.275,0,14.983-6.708,14.983-14.983s-6.708-14.983-14.983-14.983H176.531
		c-8.275,0-14.983,6.708-14.983,14.983S168.256,190.589,176.531,190.589z"/>
	<path style="fill:#3A2370;" d="M110.112,244.185h225.356c8.275,0,14.983-6.708,14.983-14.983s-6.708-14.983-14.983-14.983H110.112
		c-8.275,0-14.983,6.708-14.983,14.983S101.837,244.185,110.112,244.185z"/>
	<path style="fill:#3A2370;" d="M335.469,321.411H110.112c-8.275,0-14.983,6.708-14.983,14.983s6.708,14.983,14.983,14.983h225.356
		c8.275,0,14.983-6.708,14.983-14.983S343.744,321.411,335.469,321.411z"/>
</g>
<path id="SVGCleanerId_1" style="fill:#3A458F;" d="M110.112,297.781h20.015c8.275,0,14.983-6.708,14.983-14.983
	c0-8.275-6.708-14.983-14.983-14.983h-20.015c-8.275,0-14.983,6.708-14.983,14.983C95.128,291.073,101.837,297.781,110.112,297.781z
	"/>
<path style="fill:#3A2370;" d="M401.888,267.815H176.531c-8.275,0-14.983,6.708-14.983,14.983c0,8.275,6.708,14.983,14.983,14.983
	h225.356c8.275,0,14.983-6.708,14.983-14.983C416.871,274.523,410.163,267.815,401.888,267.815z"/>
<g>
	<path id="SVGCleanerId_0_1_" style="fill:#3A458F;" d="M110.112,190.589h20.015c8.275,0,14.983-6.708,14.983-14.983
		s-6.708-14.983-14.983-14.983h-20.015c-8.275,0-14.983,6.708-14.983,14.983S101.837,190.589,110.112,190.589z"/>
</g>
<g>
	<path style="fill:#3A458F;" d="M256,160.623h-79.468c-8.275,0-14.983,6.708-14.983,14.983s6.708,14.983,14.983,14.983H256V160.623z
		"/>
	<path style="fill:#3A458F;" d="M256,214.219H110.112c-8.275,0-14.983,6.708-14.983,14.983s6.708,14.983,14.983,14.983H256V214.219z
		"/>
	<path style="fill:#3A458F;" d="M256,321.411H110.112c-8.275,0-14.983,6.708-14.983,14.983s6.708,14.983,14.983,14.983H256V321.411z
		"/>
</g>
<g>
	<path id="SVGCleanerId_1_1_" style="fill:#3A458F;" d="M110.112,297.781h20.015c8.275,0,14.983-6.708,14.983-14.983
		c0-8.275-6.708-14.983-14.983-14.983h-20.015c-8.275,0-14.983,6.708-14.983,14.983C95.128,291.073,101.837,297.781,110.112,297.781
		z"/>
</g>
<path style="fill:#3A458F;" d="M256,267.815h-79.468c-8.275,0-14.983,6.708-14.983,14.983c0,8.275,6.708,14.983,14.983,14.983H256
	V267.815z"/>
<path style="fill:#319CD6;" d="M473.864,81.417H38.136c-9.98,0-18.099,8.119-18.099,18.098v312.97
	c0,9.979,8.119,18.098,18.099,18.098h435.729c9.98,0,18.099-8.119,18.099-18.098V99.514
	C491.964,89.536,483.845,81.417,473.864,81.417z M461.997,400.616H50.004V111.383h411.993L461.997,400.616L461.997,400.616z"/>
<path style="fill:#55D8EF;" d="M256,400.616H50.004V111.383H256V81.417H38.136c-9.98,0-18.099,8.119-18.099,18.098v312.97
	c0,9.979,8.119,18.098,18.099,18.098H256V400.616z"/>
<path style="fill:#3A2370;" d="M493.902,380.579h-33.846c-9.979,0-18.098,8.119-18.098,18.098v33.846
	c0,9.979,8.119,18.098,18.098,18.098h33.846c9.979,0,18.098-8.119,18.098-18.098v-33.846
	C512,388.698,503.881,380.579,493.902,380.579z"/>
<path style="fill:#3A458F;" d="M476.979,380.579h-16.923c-9.979,0-18.098,8.119-18.098,18.098v33.846
	c0,9.979,8.119,18.098,18.098,18.098h16.923V380.579z"/>
<path style="fill:#3A2370;" d="M51.944,380.579H18.098C8.119,380.579,0,388.698,0,398.677v33.846
	c0,9.979,8.119,18.098,18.098,18.098h33.846c9.979,0,18.098-8.119,18.098-18.098v-33.846
	C70.041,388.698,61.923,380.579,51.944,380.579z"/>
<path style="fill:#3A458F;" d="M35.021,380.579H18.098C8.119,380.579,0,388.698,0,398.677v33.846
	c0,9.979,8.119,18.098,18.098,18.098h16.923V380.579z"/>
<path style="fill:#3A2370;" d="M493.902,61.379h-33.846c-9.979,0-18.098,8.119-18.098,18.098v33.846
	c0,9.979,8.119,18.098,18.098,18.098h33.846c9.979,0,18.098-8.119,18.098-18.098V79.477C512,69.498,503.881,61.379,493.902,61.379z"
	/>
<path style="fill:#3A458F;" d="M476.979,61.379h-16.923c-9.979,0-18.098,8.119-18.098,18.098v33.846
	c0,9.979,8.119,18.098,18.098,18.098h16.923V61.379z"/>
<path style="fill:#3A2370;" d="M51.944,61.379H18.098C8.119,61.379,0,69.498,0,79.477v33.846c0,9.979,8.119,18.098,18.098,18.098
	h33.846c9.979,0,18.098-8.119,18.098-18.098V79.477C70.041,69.498,61.923,61.379,51.944,61.379z"/>
<path style="fill:#3A458F;" d="M35.021,61.379H18.098C8.119,61.379,0,69.498,0,79.477v33.846c0,9.979,8.119,18.098,18.098,18.098
	h16.923V61.379z"/>
<g>
</g>
<g>
</g>
<g>
</g>
<g>
</g>
<g>
</g>
<g>
</g>
<g>
</g>
<g>
</g>
<g>
</g>
<g>
</g>
<g>
</g>
<g>
</g>
<g>
</g>
<g>
</g>
<g>
</g>
</svg>
