<?xml version="1.0" encoding="iso-8859-1"?>
<!-- Generator: Adobe Illustrator 19.0.0, SVG Export Plug-In . SVG Version: 6.00 Build 0)  -->
<svg version="1.1" id="Capa_1" xmlns="http://www.w3.org/2000/svg" xmlns:xlink="http://www.w3.org/1999/xlink" x="0px" y="0px"
	 viewBox="0 0 512 512" style="enable-background:new 0 0 512 512;" xml:space="preserve">
<path style="fill:#319CD6;" d="M0,77v358c0,16.569,13.431,30,30,30h452c16.569,0,30-13.431,30-30V77c0-16.569-13.431-30-30-30H30
	C13.431,47,0,60.432,0,77z"/>
<path style="fill:#D2D6E3;" d="M482,47H370.799v339.566H0V435c0,16.569,13.431,30,30,30h452c16.569,0,30-13.431,30-30V77
	C512,60.432,498.569,47,482,47z"/>
<path style="fill:#55D8EF;" d="M256,47H30C13.432,47,0,60.432,0,77v358c0,16.569,13.432,30,30,30h226V47z"/>
<path style="fill:#F2F4F9;" d="M0,386.566V435c0,16.569,13.432,30,30,30h226v-78.434H0z"/>
<path style="fill:#B1B4BF;" d="M512,149.238V77c0-16.569-13.432-30-30-30H30C13.432,47,0,60.432,0,77v72.238H512z"/>
<path style="fill:#D2D6E3;" d="M256,47H30C13.432,47,0,60.432,0,77v72.238h256V47z"/>
<path style="fill:#FFDF63;" d="M58.772,81.991h-10.71c-8.284,0-15,6.716-15,15s6.716,15,15,15h10.71c8.284,0,15-6.716,15-15
	S67.057,81.991,58.772,81.991z"/>
<path style="fill:#FF5CA5;" d="M114.688,81.991h-10.709c-8.284,0-15,6.716-15,15s6.716,15,15,15h10.709c8.284,0,15-6.716,15-15
	S122.972,81.991,114.688,81.991z"/>
<path style="fill:#52CCA5;" d="M170.603,81.991h-10.709c-8.284,0-15,6.716-15,15s6.716,15,15,15h10.709c8.284,0,15-6.716,15-15
	S178.887,81.991,170.603,81.991z"/>
<rect y="368.49" style="fill:#B1B4BF;" width="512" height="30"/>
<rect y="368.49" style="fill:#D2D6E3;" width="256" height="30"/>
<path style="fill:#3A458F;" d="M70.683,223.843c8.284,0,15-6.716,15-15s-6.716-15-15-15H52.287c-8.284,0-15,6.716-15,15
	s6.716,15,15,15H70.683z"/>
<path style="fill:#3A2370;" d="M317.065,208.843c0-8.284-6.716-15-15-15H141.991c-8.284,0-15,6.716-15,15s6.716,15,15,15h160.075
	C310.35,223.843,317.065,217.128,317.065,208.843z"/>
<path style="fill:#3A458F;" d="M80.683,278.879c8.284,0,15-6.716,15-15s-6.716-15-15-15H62.288c-8.284,0-15,6.716-15,15
	s6.716,15,15,15H80.683z"/>
<path style="fill:#3A2370;" d="M302.065,248.879H161.992c-8.284,0-15,6.716-15,15s6.716,15,15,15h140.074c8.284,0,15-6.716,15-15
	C317.065,255.594,310.35,248.879,302.065,248.879z"/>
<path style="fill:#3A458F;" d="M90.684,303.913H72.288c-8.284,0-15,6.716-15,15s6.716,15,15,15h18.396c8.284,0,15-6.716,15-15
	S98.968,303.913,90.684,303.913z"/>
<path style="fill:#3A2370;" d="M302.065,303.913H181.993c-8.284,0-15,6.716-15,15s6.716,15,15,15h120.072c8.284,0,15-6.716,15-15
	S310.35,303.913,302.065,303.913z"/>
<g>
	<path style="fill:#3A458F;" d="M256,193.843H141.991c-8.284,0-15,6.716-15,15s6.716,15,15,15H256V193.843z"/>
	<path style="fill:#3A458F;" d="M256,248.879h-94.008c-8.284,0-15,6.716-15,15s6.716,15,15,15H256V248.879z"/>
	<path style="fill:#3A458F;" d="M256,303.913h-74.007c-8.284,0-15,6.716-15,15s6.716,15,15,15H256V303.913z"/>
</g>
<rect x="352.58" y="47" style="fill:#B1B4BF;" width="30" height="418"/>
<g>
</g>
<g>
</g>
<g>
</g>
<g>
</g>
<g>
</g>
<g>
</g>
<g>
</g>
<g>
</g>
<g>
</g>
<g>
</g>
<g>
</g>
<g>
</g>
<g>
</g>
<g>
</g>
<g>
</g>
</svg>
