<?xml version="1.0" encoding="iso-8859-1"?>
<!-- Generator: Adobe Illustrator 19.0.0, SVG Export Plug-In . SVG Version: 6.00 Build 0)  -->
<svg version="1.1" id="Capa_1" xmlns="http://www.w3.org/2000/svg" xmlns:xlink="http://www.w3.org/1999/xlink" x="0px" y="0px"
	 viewBox="0 0 512 512" style="enable-background:new 0 0 512 512;" xml:space="preserve">
<line style="fill:none;stroke:#FFFFFF;stroke-width:30;stroke-linecap:round;stroke-linejoin:round;stroke-miterlimit:10;" x1="491.22" y1="440.95" x2="15" y2="440.95"/>
<path style="fill:#FFAE42;" d="M15,209.312h482c8.284,0,15-6.716,15-15V71.05c0-8.284-6.716-15-15-15H15c-8.284,0-15,6.716-15,15
	v123.262C0,202.596,6.716,209.312,15,209.312z"/>
<path style="fill:#FFDF63;" d="M256,56.05H15c-8.284,0-15,6.716-15,15v123.262c0,8.284,6.716,15,15,15h241V56.05z"/>
<g>
	<path style="fill:#3A2370;" d="M491.223,380.269H15c-8.284,0-15,6.716-15,15s6.716,15,15,15h476.223c8.284,0,15-6.716,15-15
		S499.507,380.269,491.223,380.269z"/>
	<path style="fill:#3A2370;" d="M491.223,318.911H15c-8.284,0-15,6.716-15,15s6.716,15,15,15h476.223c8.284,0,15-6.716,15-15
		S499.507,318.911,491.223,318.911z"/>
	<path style="fill:#3A2370;" d="M15,287.551h476.223c8.284,0,15-6.716,15-15s-6.716-15-15-15H15c-8.284,0-15,6.716-15,15
		S6.716,287.551,15,287.551z"/>
</g>
<g>
	<path style="fill:#3A458F;" d="M256,380.269H15c-8.284,0-15,6.716-15,15s6.716,15,15,15h241V380.269z"/>
	<path style="fill:#3A458F;" d="M256,318.911H15c-8.284,0-15,6.716-15,15s6.716,15,15,15h241V318.911z"/>
	<path style="fill:#3A458F;" d="M256,257.551H15c-8.284,0-15,6.716-15,15s6.716,15,15,15h241V257.551z"/>
</g>
<path style="fill:#C745A3;" d="M512,194.312v-10.738l-196.246-50.892L512,81.789V71.05c0-8.284-6.716-15-15-15h-5.259L256,117.185
	L20.259,56.05H15c-8.284,0-15,6.716-15,15v10.738l196.246,50.893L0,183.573v10.738c0,8.284,6.716,15,15,15h5.261L256,148.177
	l235.739,61.135H497C505.284,209.312,512,202.596,512,194.312z"/>
<path style="fill:#FF5CA5;" d="M256,117.185L20.259,56.05H15c-8.284,0-15,6.716-15,15v10.738l196.246,50.893L0,183.573v10.738
	c0,8.284,6.716,15,15,15h5.261L256,148.177V117.185z"/>
<g>
</g>
<g>
</g>
<g>
</g>
<g>
</g>
<g>
</g>
<g>
</g>
<g>
</g>
<g>
</g>
<g>
</g>
<g>
</g>
<g>
</g>
<g>
</g>
<g>
</g>
<g>
</g>
<g>
</g>
</svg>
