<?xml version="1.0" encoding="iso-8859-1"?>
<!-- Generator: Adobe Illustrator 19.0.0, SVG Export Plug-In . SVG Version: 6.00 Build 0)  -->
<svg version="1.1" id="Capa_1" xmlns="http://www.w3.org/2000/svg" xmlns:xlink="http://www.w3.org/1999/xlink" x="0px" y="0px"
	 viewBox="0 0 512 512" style="enable-background:new 0 0 512 512;" xml:space="preserve">
<path style="fill:#D2D6E3;" d="M99.925,15v482c0,8.284,6.716,15,15,15h282.15c8.284,0,15-6.716,15-15V15c0-8.284-6.716-15-15-15
	h-282.15C106.641,0,99.925,6.716,99.925,15z"/>
<path style="fill:#F2F4F9;" d="M256,0H114.925c-8.284,0-15,6.716-15,15v482c0,8.284,6.716,15,15,15H256V0z"/>
<path style="fill:#B1B4BF;" d="M412.075,111.245V15c0-8.284-6.716-15-15-15h-282.15c-8.284,0-15,6.716-15,15v96.245H412.075z"/>
<g>
	<path style="fill:#D2D6E3;" d="M256,0H114.925c-8.284,0-15,6.716-15,15v96.245H256V0z"/>
	<path style="fill:#D2D6E3;" d="M371.472,37.246H211.54c-8.284,0-15,6.716-15,15s6.716,15,15,15h159.932c8.284,0,15-6.716,15-15
		S379.756,37.246,371.472,37.246z"/>
</g>
<path style="fill:#FFFFFF;" d="M256,37.246h-44.46c-8.284,0-15,6.716-15,15s6.716,15,15,15H256V37.246z"/>
<path style="fill:#FF5CA5;" d="M161.391,37.246h-20.862c-8.284,0-15,6.716-15,15s6.716,15,15,15h20.862c8.284,0,15-6.716,15-15
	S169.675,37.246,161.391,37.246z"/>
<path style="fill:#FFDF63;" d="M162.221,291.262h54.821c11.028,0,20-8.972,20-20v-53.813c0-11.028-8.972-20-20-20h-54.821
	c-11.028,0-20,8.972-20,20v53.813C142.221,282.29,151.192,291.262,162.221,291.262z"/>
<path style="fill:#B1B4BF;" d="M349.779,197.448h-54.821c-11.028,0-20,8.972-20,20v53.813c0,11.028,8.972,20,20,20h54.821
	c11.028,0,20-8.972,20-20v-53.813C369.779,206.42,360.808,197.448,349.779,197.448z"/>
<path style="fill:#3A2370;" d="M354.779,324.824H157.221c-8.284,0-15,6.716-15,15s6.716,15,15,15H354.78c8.284,0,15-6.716,15-15
	S363.063,324.824,354.779,324.824z"/>
<path style="fill:#3A458F;" d="M256,324.824h-98.779c-8.284,0-15,6.716-15,15s6.716,15,15,15H256V324.824z"/>
<path style="fill:#3A2370;" d="M354.779,377.387H157.221c-8.284,0-15,6.716-15,15s6.716,15,15,15H354.78c8.284,0,15-6.716,15-15
	S363.063,377.387,354.779,377.387z"/>
<path style="fill:#3A458F;" d="M256,377.387h-98.779c-8.284,0-15,6.716-15,15s6.716,15,15,15H256V377.387z"/>
<path style="fill:#3A2370;" d="M354.779,429.949H157.221c-8.284,0-15,6.716-15,15s6.716,15,15,15H354.78c8.284,0,15-6.716,15-15
	S363.063,429.949,354.779,429.949z"/>
<path style="fill:#3A458F;" d="M256,429.949h-98.779c-8.284,0-15,6.716-15,15s6.716,15,15,15H256V429.949z"/>
<g>
</g>
<g>
</g>
<g>
</g>
<g>
</g>
<g>
</g>
<g>
</g>
<g>
</g>
<g>
</g>
<g>
</g>
<g>
</g>
<g>
</g>
<g>
</g>
<g>
</g>
<g>
</g>
<g>
</g>
</svg>
