<?xml version="1.0" encoding="iso-8859-1"?>
<!-- Generator: Adobe Illustrator 19.0.0, SVG Export Plug-In . SVG Version: 6.00 Build 0)  -->
<svg version="1.1" id="Capa_1" xmlns="http://www.w3.org/2000/svg" xmlns:xlink="http://www.w3.org/1999/xlink" x="0px" y="0px"
	 viewBox="0 0 512 512" style="enable-background:new 0 0 512 512;" xml:space="preserve">
<path style="fill:#319CD6;" d="M432.771,512H79.229c-16.569,0-30-13.431-30-30V30c0-16.569,13.431-30,30-30h353.542
	c16.569,0,30,13.431,30,30v452C462.771,498.569,449.34,512,432.771,512z"/>
<path style="fill:#55D8EF;" d="M256,0H79.229c-16.569,0-30,13.431-30,30v452c0,16.569,13.431,30,30,30H256V0z"/>
<g>
	<path style="fill:#D2D6E3;" d="M462.771,80.334V30c0-16.569-13.431-30-30-30H79.229c-16.569,0-30,13.431-30,30v50.334H462.771z"/>
	<path style="fill:#D2D6E3;" d="M49.229,416.989V482c0,16.569,13.431,30,30,30h353.542c16.569,0,30-13.431,30-30v-65.011H49.229z"/>
</g>
<g>
	<path style="fill:#F2F4F9;" d="M256,0H79.229c-16.569,0-30,13.431-30,30v50.334H256V0z"/>
	<path style="fill:#F2F4F9;" d="M256,416.989H49.229V482c0,16.569,13.431,30,30,30H256V416.989z"/>
</g>
<path style="fill:#B1B4BF;" d="M265.648,454.57h-19.297c-8.284,0-15,6.716-15,15s6.716,15,15,15h19.297c8.284,0,15-6.716,15-15
	S273.933,454.57,265.648,454.57z"/>
<path style="fill:#D2D6E3;" d="M256,454.57h-9.648c-8.284,0-15,6.716-15,15s6.716,15,15,15H256V454.57z"/>
<path style="fill:#FFFFFF;" d="M123.947,223.653h42.457c11.028,0,20-8.972,20-20V149.84c0-11.028-8.972-20-20-20h-42.457
	c-11.028,0-20,8.972-20,20v53.813C103.947,214.681,112.919,223.653,123.947,223.653z"/>
<path style="fill:#FFAE42;" d="M232.89,223.653h46.221c9.99,0,18.118-8.128,18.118-18.118V149.84c0-11.028-8.972-20-20-20H232.89
	c-9.99,0-18.118,8.128-18.118,18.118v57.577C214.771,215.525,222.899,223.653,232.89,223.653z"/>
<path style="fill:#D2D6E3;" d="M388.053,129.839h-42.457c-11.028,0-20,8.972-20,20v53.813c0,11.028,8.972,20,20,20h42.457
	c11.028,0,20-8.972,20-20v-53.813C408.053,138.812,399.081,129.839,388.053,129.839z"/>
<path style="fill:#FFAE42;" d="M388.053,248.469H123.947c-11.028,0-20,8.972-20,20v67.276c0,11.028,8.972,20,20,20h264.105
	c11.028,0,20-8.972,20-20v-67.276C408.053,257.441,399.081,248.469,388.053,248.469z"/>
<g>
	<path style="fill:#FFDF63;" d="M256,129.839h-23.11c-9.99,0-18.118,8.128-18.118,18.118v57.577c0,9.99,8.128,18.118,18.118,18.118
		H256V129.839z"/>
	<path style="fill:#FFDF63;" d="M256,248.469H123.947c-11.028,0-20,8.972-20,20v67.276c0,11.028,8.972,20,20,20H256V248.469z"/>
</g>
<g>
</g>
<g>
</g>
<g>
</g>
<g>
</g>
<g>
</g>
<g>
</g>
<g>
</g>
<g>
</g>
<g>
</g>
<g>
</g>
<g>
</g>
<g>
</g>
<g>
</g>
<g>
</g>
<g>
</g>
</svg>
