<?xml version="1.0" encoding="iso-8859-1"?>
<!-- Generator: Adobe Illustrator 19.0.0, SVG Export Plug-In . SVG Version: 6.00 Build 0)  -->
<svg version="1.1" id="Capa_1" xmlns="http://www.w3.org/2000/svg" xmlns:xlink="http://www.w3.org/1999/xlink" x="0px" y="0px"
	 viewBox="0 0 512 512" style="enable-background:new 0 0 512 512;" xml:space="preserve">
<path style="fill:#319CD6;" d="M379.28,291.285H15c-8.271,0-15,6.729-15,15v171.974c0,8.271,6.729,15,15,15h364.28
	c8.271,0,15-6.729,15-15V306.285C394.28,298.014,387.551,291.285,379.28,291.285z"/>
<path style="fill:#55D8EF;" d="M197.14,291.285H15c-8.271,0-15,6.729-15,15v171.974c0,8.271,6.729,15,15,15h182.14V291.285z"/>
<path style="fill:#D2D6E3;" d="M379.28,291.285h-38.326v201.974h38.326c8.271,0,15-6.729,15-15V306.285
	C394.28,298.014,387.551,291.285,379.28,291.285z"/>
<path style="fill:#F2F4F9;" d="M53.326,291.285H15c-8.271,0-15,6.729-15,15v171.974c0,8.271,6.729,15,15,15h38.326V291.285z"/>
<path style="fill:#3A458F;" d="M221.399,57.466l-11.2-8.882c-5.493-4.358-12.829-5.223-19.142-2.172
	c-4.393,2.123-7.623,6.142-9.185,10.142h-81.44C90.442,56.553,82,64.789,82,74.78v103.333c-4,1.562-7.916,4.792-10.039,9.185
	c-3.051,6.313-2.161,13.647,2.196,19.142l8.922,11.199c3.458,4.359,8.651,6.86,14.215,6.86c5.564,0,10.748-2.444,14.206-6.803
	l8.887-11.142h0.002c4.357-6,5.012-12.885,1.962-19.198c-2.123-4.393-5.351-7.68-10.351-9.242v-91.56h69.873
	c1.562,5,4.792,8.127,9.185,10.25c2.536,1.225,5.234,1.854,7.914,1.854c3.993,0,7.94-1.324,11.228-3.932l11.201-8.877
	c4.358-3.458,6.858-8.629,6.857-14.192C228.257,66.093,225.757,60.923,221.399,57.466z"/>
<path style="fill:#319CD6;" d="M512,418.023V33.741c0-8.271-6.729-15-15-15H325.026c-8.271,0-15,6.729-15,15v384.282
	c0,8.271,6.729,15,15,15H497C505.271,433.023,512,426.294,512,418.023z"/>
<path style="fill:#55D8EF;" d="M416.17,18.741h-91.144c-8.271,0-15,6.729-15,15v384.282c0,8.271,6.729,15,15,15h91.144
	L416.17,18.741L416.17,18.741z"/>
<path style="fill:#D2D6E3;" d="M512,418.023v-38.326H310.026v38.326c0,8.271,6.729,15,15,15H497
	C505.271,433.023,512,426.294,512,418.023z"/>
<path style="fill:#F2F4F9;" d="M416.17,379.697H310.026v38.326c0,8.271,6.729,15,15,15h91.144L416.17,379.697L416.17,379.697z"/>
<path style="fill:#D2D6E3;" d="M512,72.067V33.741c0-8.271-6.729-15-15-15H325.026c-8.271,0-15,6.729-15,15v38.326H512z"/>
<path style="fill:#F2F4F9;" d="M416.17,18.741h-91.144c-8.271,0-15,6.729-15,15v38.326H416.17V18.741z"/>
<g>
</g>
<g>
</g>
<g>
</g>
<g>
</g>
<g>
</g>
<g>
</g>
<g>
</g>
<g>
</g>
<g>
</g>
<g>
</g>
<g>
</g>
<g>
</g>
<g>
</g>
<g>
</g>
<g>
</g>
</svg>
