<?xml version="1.0" encoding="iso-8859-1"?>
<!-- Generator: Adobe Illustrator 19.0.0, SVG Export Plug-In . SVG Version: 6.00 Build 0)  -->
<svg version="1.1" id="Capa_1" xmlns="http://www.w3.org/2000/svg" xmlns:xlink="http://www.w3.org/1999/xlink" x="0px" y="0px"
	 viewBox="0 0 512 512" style="enable-background:new 0 0 512 512;" xml:space="preserve">
<path style="fill:#319CD6;" d="M371.583,512H140.417c-16.569,0-30-13.431-30-30V30c0-16.569,13.431-30,30-30h231.166
	c16.569,0,30,13.431,30,30v452C401.583,498.569,388.152,512,371.583,512z"/>
<path style="fill:#55D8EF;" d="M256,0H140.417c-16.569,0-30,13.431-30,30v452c0,16.569,13.431,30,30,30H256V0z"/>
<g>
	<path style="fill:#D2D6E3;" d="M401.583,73.925V30c0-16.569-13.431-30-30-30H140.417c-16.569,0-30,13.431-30,30v43.925H401.583z"/>
	<path style="fill:#D2D6E3;" d="M110.417,411.953V482c0,16.569,13.431,30,30,30h231.166c16.569,0,30-13.431,30-30v-70.047H110.417z"
		/>
</g>
<g>
	<path style="fill:#F2F4F9;" d="M256,0H140.417c-16.569,0-30,13.431-30,30v43.925H256V0z"/>
	<path style="fill:#F2F4F9;" d="M256,411.953H110.417V482c0,16.569,13.431,30,30,30H256V411.953z"/>
</g>
<path style="fill:#B1B4BF;" d="M265.648,454.57h-19.297c-8.284,0-15,6.716-15,15s6.716,15,15,15h19.297c8.284,0,15-6.716,15-15
	S273.933,454.57,265.648,454.57z"/>
<path style="fill:#D2D6E3;" d="M256,454.57h-9.648c-8.284,0-15,6.716-15,15s6.716,15,15,15H256V454.57z"/>
<path style="fill:#FFAE42;" d="M336.019,121.964H175.981c-9.99,0-18.118,8.128-18.118,18.118v30.182
	c0,9.99,8.128,18.118,18.118,18.118h160.037c9.99,0,18.118-8.128,18.118-18.118v-30.182
	C354.137,130.092,346.009,121.964,336.019,121.964z"/>
<path style="fill:#FFDF63;" d="M256,121.964h-80.018c-9.99,0-18.118,8.128-18.118,18.118v30.182c0,9.99,8.128,18.118,18.118,18.118
	H256V121.964z"/>
<path style="fill:#D2D6E3;" d="M336.019,214.208H175.981c-9.99,0-18.118,8.128-18.118,18.118v30.182
	c0,9.99,8.128,18.118,18.118,18.118h160.037c9.99,0,18.118-8.128,18.118-18.118v-30.182
	C354.137,222.336,346.009,214.208,336.019,214.208z"/>
<path style="fill:#FFFFFF;" d="M256,214.208h-80.018c-9.99,0-18.118,8.128-18.118,18.118v30.182c0,9.99,8.128,18.118,18.118,18.118
	H256V214.208z"/>
<path style="fill:#FFAE42;" d="M336.019,306.453H175.981c-9.99,0-18.118,8.128-18.118,18.118v30.182
	c0,9.99,8.128,18.118,18.118,18.118h160.037c9.99,0,18.118-8.128,18.118-18.118v-30.182
	C354.137,314.581,346.009,306.453,336.019,306.453z"/>
<path style="fill:#FFDF63;" d="M256,306.453h-80.018c-9.99,0-18.118,8.128-18.118,18.118v30.182c0,9.99,8.128,18.118,18.118,18.118
	H256V306.453z"/>
<g>
</g>
<g>
</g>
<g>
</g>
<g>
</g>
<g>
</g>
<g>
</g>
<g>
</g>
<g>
</g>
<g>
</g>
<g>
</g>
<g>
</g>
<g>
</g>
<g>
</g>
<g>
</g>
<g>
</g>
</svg>
