<?xml version="1.0" encoding="iso-8859-1"?>
<!-- Generator: Adobe Illustrator 19.0.0, SVG Export Plug-In . SVG Version: 6.00 Build 0)  -->
<svg version="1.1" id="Capa_1" xmlns="http://www.w3.org/2000/svg" xmlns:xlink="http://www.w3.org/1999/xlink" x="0px" y="0px"
	 viewBox="0 0 512 512" style="enable-background:new 0 0 512 512;" xml:space="preserve">
<path style="fill:#319CD6;" d="M371.583,512H140.417c-16.569,0-30-13.431-30-30V30c0-16.569,13.431-30,30-30h231.166
	c16.569,0,30,13.431,30,30v452C401.583,498.569,388.152,512,371.583,512z"/>
<path style="fill:#55D8EF;" d="M256,0H140.417c-16.569,0-30,13.431-30,30v452c0,16.569,13.431,30,30,30H256V0z"/>
<g>
	<path style="fill:#D2D6E3;" d="M401.583,73.925V30c0-16.569-13.431-30-30-30H140.417c-16.569,0-30,13.431-30,30v43.925H401.583z"/>
	<path style="fill:#D2D6E3;" d="M110.417,411.953V482c0,16.569,13.431,30,30,30h231.166c16.569,0,30-13.431,30-30v-70.047H110.417z"
		/>
</g>
<g>
	<path style="fill:#F2F4F9;" d="M256,0H140.417c-16.569,0-30,13.431-30,30v43.925H256V0z"/>
	<path style="fill:#F2F4F9;" d="M256,411.953H110.417V482c0,16.569,13.431,30,30,30H256V411.953z"/>
</g>
<path style="fill:#3A2370;" d="M332.533,277.819H179.467c-8.284,0-15,6.716-15,15s6.716,15,15,15h153.065c8.284,0,15-6.716,15-15
	S340.817,277.819,332.533,277.819z"/>
<path style="fill:#3A458F;" d="M256,277.819h-76.533c-8.284,0-15,6.716-15,15s6.716,15,15,15H256V277.819z"/>
<path style="fill:#3A2370;" d="M332.533,335.222H179.467c-8.284,0-15,6.716-15,15s6.716,15,15,15h153.065c8.284,0,15-6.716,15-15
	S340.817,335.222,332.533,335.222z"/>
<path style="fill:#3A458F;" d="M256,335.222h-76.533c-8.284,0-15,6.716-15,15s6.716,15,15,15H256V335.222z"/>
<path style="fill:#FFAE42;" d="M327.533,126.6H184.467c-11.028,0-20,8.972-20,20v83.817c0,11.028,8.972,20,20,20h143.065
	c11.028,0,20-8.972,20-20V146.6C347.533,135.572,338.561,126.6,327.533,126.6z"/>
<path style="fill:#FFDF63;" d="M256,126.6h-71.533c-11.028,0-20,8.972-20,20v83.817c0,11.028,8.972,20,20,20H256V126.6z"/>
<path style="fill:#B1B4BF;" d="M265.648,454.57h-19.297c-8.284,0-15,6.716-15,15s6.716,15,15,15h19.297c8.284,0,15-6.716,15-15
	S273.933,454.57,265.648,454.57z"/>
<path style="fill:#D2D6E3;" d="M256,454.57h-9.648c-8.284,0-15,6.716-15,15s6.716,15,15,15H256V454.57z"/>
<g>
</g>
<g>
</g>
<g>
</g>
<g>
</g>
<g>
</g>
<g>
</g>
<g>
</g>
<g>
</g>
<g>
</g>
<g>
</g>
<g>
</g>
<g>
</g>
<g>
</g>
<g>
</g>
<g>
</g>
</svg>
